<svg width="970" height="37" fill="none" xmlns="http://www.w3.org/2000/svg"><path d="M26.008 7.88H1.735V3.57h24.273v4.31zm1.735-5.97H0v7.63h27.742V1.91h.001zM1.734 22.152H0v-7.631h1.734v3.015h3.098v-3.015h1.735v7.631H4.832v-3.162H1.734v3.162zm7.459-3.345h2.066c-.04-.56-.281-.952-.957-.952-.51 0-.957.208-1.11.952zm1.312 3.468c-1.758 0-2.957-1.062-2.957-2.808 0-1.697 1.173-2.87 2.729-2.87 1.695 0 2.537 1.087 2.537 2.711v.612H9.193c.204.841.892 1.06 1.581 1.06.6 0 1.032-.121 1.568-.439h.064V21.8c-.46.318-1.11.476-1.9.476zm6.835-3.322l-.894 3.2H14.93l-1.734-5.374v-.06h1.658l.943 3.211.893-3.212h1.351l.905 3.212.957-3.212h1.594v.061l-1.735 5.374h-1.518l-.904-3.2zm6.973 3.322c-1.377 0-1.938-.524-1.938-1.758v-5.995h1.683v5.885c0 .379.153.513.484.513.115 0 .281-.036.383-.073h.026v1.33c-.14.05-.383.098-.638.098zm2.754-3.468h2.066c-.039-.56-.28-.952-.957-.952-.51 0-.956.208-1.109.952zm1.313 3.468c-1.759 0-2.957-1.062-2.957-2.808 0-1.697 1.173-2.87 2.728-2.87 1.695 0 2.537 1.087 2.537 2.711v.612h-3.62c.203.841.892 1.06 1.58 1.06.6 0 1.032-.121 1.569-.439h.063V21.8c-.459.318-1.109.476-1.9.476zm9.218-5.556h1.25v1.294h-1.25v2.21c0 .476.19.696.701.696.14 0 .319-.012.51-.073h.038v1.27a3.124 3.124 0 01-1.032.158c-1.365 0-1.9-.598-1.9-1.978v-2.283H33.76v2.21c0 .476.191.696.7.696.142 0 .32-.012.511-.073h.039v1.27a3.129 3.129 0 01-1.033.158c-1.364 0-1.9-.598-1.9-1.978v-2.283h-.867V16.72h.867v-1.49h1.683v1.49h2.154v-1.49h1.683v1.49h.001zm6.92 1.55c.88 0 1.3-.476 1.3-1.16 0-.708-.42-1.184-1.3-1.184h-1.096v2.345h1.096zm3.06-1.16c0 1.662-1.16 2.565-2.92 2.565h-1.236v2.478h-1.733v-7.631h2.97c1.759 0 2.92.904 2.92 2.588zm3.698 3.335v-.464c-.256-.134-.587-.183-.931-.183-.548 0-.88.195-.88.635 0 .452.331.647.829.647.471 0 .829-.232.981-.636v.001zm.05 1.172c-.37.428-.917.635-1.504.635-1.11 0-2.015-.646-2.015-1.795 0-1.062.906-1.77 2.205-1.77.409 0 .83.06 1.263.183v-.098c0-.586-.344-.842-1.248-.842-.575 0-1.122.158-1.595.415h-.063V17.05c.433-.243 1.198-.451 1.95-.451 1.709 0 2.64.78 2.64 2.148v3.407h-1.633v-.537zm2.486-2.173c0-1.746 1.288-2.845 2.971-2.845.6 0 1.16.122 1.581.415v1.38H58.3a2.17 2.17 0 00-1.3-.428c-.841 0-1.479.55-1.479 1.478 0 .927.638 1.465 1.479 1.465.47 0 .928-.15 1.3-.428h.065v1.38c-.422.293-.982.415-1.582.415-1.683 0-2.97-1.086-2.97-2.832zm7.293.243v2.466h-1.683v-7.631h1.683v4.347l1.696-2.15h1.912v.061l-2.04 2.467 2.04 2.845v.061h-1.925l-1.683-2.466zm7.382.758v-.464c-.254-.134-.587-.183-.93-.183-.548 0-.88.195-.88.635 0 .452.331.647.828.647.473 0 .83-.232.982-.636v.001zm.05 1.172c-.369.428-.917.635-1.504.635-1.109 0-2.014-.646-2.014-1.795 0-1.062.905-1.77 2.207-1.77.427.003.852.064 1.261.183v-.098c0-.586-.343-.842-1.25-.842-.573 0-1.121.158-1.593.415h-.064V17.05c.434-.243 1.2-.451 1.95-.451 1.71 0 2.64.78 2.64 2.148v3.407h-1.632v-.537zm4.464-4.018c.305-.6.752-.94 1.377-.94.23 0 .459.048.547.098v1.538h-.063a1.997 1.997 0 00-.74-.123c-.522 0-.93.293-1.07.855v3.126h-1.683V16.72H73v.88zm6.387 2.711v-1.746c-.28-.39-.65-.561-1.071-.561-.74 0-1.236.513-1.236 1.44 0 .928.497 1.429 1.236 1.429.422 0 .791-.171 1.07-.562zm.05 1.283c-.356.44-.917.683-1.682.683-1.453 0-2.384-1.27-2.384-2.832 0-1.564.93-2.845 2.384-2.845.74 0 1.275.22 1.632.622v-2.698h1.683v7.63h-1.632v-.56zM0 24.646h4.921v.928H1.11v2.331h3.455v.905H1.109v2.54h3.812v.927H0v-7.63zm8.988 2.149c1.262 0 1.964.794 1.964 2.1v3.382H9.893v-3.358c0-.696-.37-1.196-1.172-1.196-.314-.003-.62.09-.874.265a1.423 1.423 0 00-.542.711v3.578H6.247v-5.372h1.058v.78c.331-.5.893-.89 1.683-.89zm4.807.11h1.44v.866h-1.44v2.894c0 .61.33.819.93.819.166 0 .344-.025.472-.074h.04v.867a1.79 1.79 0 01-.664.11c-1.314 0-1.836-.574-1.836-1.624v-2.992h-.969v-.867h.97v-1.428h1.056v1.428h.001zm3.213 2.16H19.8c-.038-.793-.446-1.403-1.313-1.403-.803 0-1.327.573-1.479 1.403zm1.67 3.322c-1.645 0-2.767-1.05-2.767-2.735 0-1.686 1.046-2.857 2.563-2.857 1.543 0 2.346 1.062 2.346 2.637v.464h-3.85c.114 1.087.842 1.611 1.848 1.611.625 0 1.071-.134 1.568-.488h.04v.892c-.46.341-1.06.476-1.748.476zm4.45-4.652a1.48 1.48 0 011.39-.915c.242 0 .458.036.547.085v1h-.038c-.153-.072-.408-.109-.663-.109-.573 0-1.058.366-1.237.977v3.504H22.07v-5.372h1.058v.83zm5.354 3.736c1.045 0 1.658-.794 1.658-1.881 0-1.074-.613-1.88-1.658-1.88-.574 0-1.11.33-1.39.855v2.064c.28.524.816.842 1.39.842zm.179-4.676c1.67 0 2.562 1.306 2.562 2.795 0 1.49-.893 2.797-2.562 2.797-.689 0-1.276-.342-1.568-.709v2.663h-1.06v-7.437h1.059v.611c.292-.378.88-.72 1.568-.72zm4.87.94a1.481 1.481 0 011.39-.915c.242 0 .458.036.547.085v1h-.037c-.153-.072-.408-.109-.663-.109-.574 0-1.058.366-1.237.977v3.504h-1.057v-5.372h1.057v.83zm3.468-3.003c.37 0 .675.28.675.634a.63.63 0 01-.201.452.682.682 0 01-.474.183c-.357 0-.677-.28-.677-.635 0-.354.32-.634.677-.634zm-.524 7.546h1.06v-5.373h-1.06v5.373zm4.834-3.139c.803.243 1.695.561 1.695 1.587 0 1.099-.944 1.66-2.155 1.66-.739 0-1.478-.17-1.9-.488v-.965h.052c.471.416 1.173.6 1.835.6.6 0 1.135-.222 1.135-.685 0-.476-.445-.586-1.326-.867-.79-.244-1.67-.525-1.67-1.538 0-1.038.892-1.648 2.027-1.648.663 0 1.25.134 1.721.439v.977h-.038a2.62 2.62 0 00-1.657-.562c-.663 0-1.033.28-1.033.66 0 .427.407.548 1.314.83zm3.71-.074h2.79c-.037-.793-.445-1.403-1.312-1.403-.803 0-1.326.573-1.479 1.403zm1.669 3.322c-1.644 0-2.766-1.05-2.766-2.735 0-1.686 1.045-2.857 2.562-2.857 1.544 0 2.346 1.062 2.346 2.637v.464h-3.85c.115 1.087.841 1.611 1.849 1.611.625 0 1.07-.134 1.567-.488h.039v.892c-.459.341-1.059.476-1.747.476z" fill="#C6D2D9"/><path fill-rule="evenodd" clip-rule="evenodd" d="M191.983 12.825v2.218c-1.221-.434-2.307-.654-3.259-.654-.564 0-1.012.099-1.348.289-.339.192-.511.427-.511.706 0 .37.38.698 1.148.993l2.215 1.015c1.791.804 2.681 1.87 2.681 3.212 0 1.114-.472 2.004-1.424 2.662-.942.664-2.214.993-3.797.993a18.699 18.699 0 01-1.969-.092 16.023 16.023 0 01-1.995-.354v-2.32c1.362.434 2.603.652 3.719.652 1.332 0 1.993-.363 1.993-1.097 0-.364-.271-.659-.821-.89l-2.461-.987c-.907-.386-1.583-.854-2.025-1.41a3.072 3.072 0 01-.655-1.934c0-1.026.459-1.853 1.367-2.482.914-.623 2.128-.936 3.638-.936.491 0 1.055.04 1.681.116.611.076 1.22.176 1.823.3zm-69.695 0v2.218c-1.222-.434-2.306-.654-3.257-.654-.566 0-1.012.099-1.349.289-.339.192-.511.427-.511.706 0 .37.386.698 1.153.993l2.215 1.015c1.785.804 2.676 1.87 2.676 3.212 0 1.114-.475 2.004-1.417 2.662-.953.664-2.217.993-3.804.993-.731 0-1.388-.03-1.97-.092a16.094 16.094 0 01-1.993-.354v-2.32c1.366.434 2.606.652 3.716.652 1.332 0 1.993-.363 1.993-1.097 0-.364-.269-.659-.815-.89l-2.46-.987c-.915-.386-1.589-.854-2.024-1.41a3.022 3.022 0 01-.658-1.934c0-1.026.456-1.853 1.369-2.482.908-.623 2.123-.936 3.633-.936.496 0 1.054.04 1.687.116.61.077 1.215.177 1.816.3zm2.537-.209h3.61V24.05h-3.61V12.616zm15.236 0v2.113h-5.362v2.536h4.65v1.905h-4.65v2.662h5.472v2.218h-8.944V12.616h8.834zm16.847 0V24.05h-3.369V16.51l-3.496 7.646h-2.079l-3.362-7.646v7.541h-2.436V12.616h4.405l3.006 7 3.147-7h4.184zm11.62 0v2.113h-5.332v2.536h4.65v1.905h-4.65v2.662h5.441v2.218h-8.943V12.616h8.834zm12.662 0V24.05h-3.827l-4.296-7.333v7.333h-2.435V12.616h3.94l4.185 7.207v-7.207h2.433z" fill="#C6D2D9"/><path d="M393.075 17.634a.32.32 0 00-.444-.066.33.33 0 00-.105.126l-2.784 5.548a.342.342 0 00-.035.164c.004.056.02.111.05.159a.331.331 0 00.283.157h3.877a.318.318 0 00.296-.183c.836-1.723.33-4.342-1.138-5.905zM395.116 12.587a7.291 7.291 0 00-.428 7.226l1.869 3.726a.332.332 0 00.297.183h3.876a.333.333 0 00.298-.48s-5.214-10.397-5.346-10.657a.314.314 0 00-.566.002zM439.006 17.036c0 1.374.639 2.465 3.14 2.946 1.491.312 1.804.553 1.804 1.048 0 .482-.314.794-1.364.794a7.712 7.712 0 01-3.623-.978v2.238c.752.368 1.748.78 3.594.78 2.615 0 3.652-1.163 3.652-2.89l-7.203-3.938zm7.203 3.938c0-1.63-.867-2.394-3.31-2.918-1.35-.298-1.676-.595-1.676-1.02 0-.538.482-.765 1.377-.765 1.08 0 2.146.326 3.155.779v-2.139a7.15 7.15 0 00-3.083-.637c-2.416 0-3.666 1.048-3.666 2.762l7.203 3.938zM472.592 14.415v9.306h1.99v-7.096l.838 1.884 2.813 5.212h2.5v-9.306h-1.989v6.006l-.753-1.742-2.259-4.264h-3.14zM459.94 14.415h-2.173v9.306h2.173v-9.306zM455.259 20.974c0-1.63-.867-2.394-3.31-2.918-1.351-.298-1.678-.595-1.678-1.02 0-.538.484-.765 1.379-.765 1.08 0 2.146.326 3.154.779v-2.139a7.15 7.15 0 00-3.083-.637c-2.416 0-3.665 1.048-3.665 2.762 0 1.374.638 2.465 3.138 2.946 1.493.312 1.805.553 1.805 1.048 0 .482-.313.794-1.363.794a7.709 7.709 0 01-3.623-.978v2.238c.752.368 1.747.78 3.594.78 2.615 0 3.652-1.163 3.652-2.89zM422.118 14.415v9.306h4.468l.704-2.011h-2.985v-7.295h-2.187zM413.29 14.415v2.011h2.415v7.296h2.189v-7.296h2.585v-2.011h-7.189zM410.117 14.415h-2.867l-3.255 9.306h2.486l.461-1.567a6.195 6.195 0 003.481 0l.463 1.567h2.486l-3.255-9.306zm-1.434 6.06c-.404 0-.807-.057-1.196-.17l1.196-4.062 1.198 4.063c-.389.113-.792.17-1.198.17zM434.289 14.415h-2.866l-3.255 9.306h2.486l.461-1.567a6.195 6.195 0 003.481 0l.462 1.567h2.487l-3.256-9.306zm-1.433 6.06a4.26 4.26 0 01-1.196-.17l1.196-4.062 1.197 4.063c-.389.113-.792.17-1.197.17zM467.775 14.415h-2.867l-3.256 9.306h2.487l.461-1.567a6.195 6.195 0 003.481 0l.462 1.567h2.486l-3.254-9.306zm-1.435 6.06c-.405 0-.808-.057-1.197-.17l1.197-4.062 1.195 4.063c-.387.113-.79.17-1.195.17zM319.075 28.629c-1.668-.063-3.031-.5-4.097-1.311a7.895 7.895 0 01-.851-.816c-.433-.52-.727-1.027-.923-1.59-.604-1.73-.293-4 .889-6.493 1.011-2.134 2.571-4.25 5.294-7.18a157.82 157.82 0 011.602-1.693c.003 0-.062.108-.144.24-.708 1.135-1.313 2.472-1.644 3.63-.529 1.857-.465 3.451.188 4.688a4.694 4.694 0 002.092 1.997c1.521.713 3.748.772 6.468.172.187-.041 9.465-2.4 20.617-5.24 11.152-2.842 20.279-5.165 20.281-5.163.003.003-25.911 10.62-39.363 16.129-2.13.872-2.701 1.092-3.702 1.429-2.56.86-4.854 1.271-6.707 1.201z" fill="#C6D2D9"/><path fill-rule="evenodd" clip-rule="evenodd" d="M919.744 0h49.942v36.173h-49.942V0zm.918.882v34.41h48.106V.881h-48.106z" fill="#C6D2D9"/><path d="M924.637 14.92l-.944-2.197-.944 2.198h1.888zm20.85-.874c-.192.11-.419.113-.681.113h-1.687v-1.225h1.704c.245 0 .489.011.655.1.184.08.289.251.289.487 0 .242-.105.436-.28.524zm11.981.875l-.961-2.198-.953 2.198h1.914zM935.132 17.3h-1.416l-.009-4.319-2.001 4.319h-1.214l-2.01-4.322V17.3h-2.814l-.533-1.23h-2.875l-.533 1.23h-1.503l2.473-5.514h2.053l2.351 5.22v-5.22h2.254l1.809 3.74 1.669-3.74h2.299V17.3zm5.645 0h-4.614v-5.514h4.614v1.148h-3.233v.995h3.163v1.129h-3.163v1.101h3.233V17.3zm6.51-4.03c0 .88-.611 1.334-.97 1.471.306.11.56.303.682.464.201.274.236.52.236 1.011V17.3h-1.398l-.009-.695c0-.332.035-.81-.218-1.075-.201-.194-.507-.235-1.005-.235h-1.486V17.3h-1.381v-5.514h3.181c.708 0 1.224.018 1.678.265.437.246.69.605.69 1.22zm2.22 4.03H948.1v-5.514h1.407V17.3zm16.368 0h-1.967l-2.612-4.139V17.3h-2.814l-.542-1.23h-2.875l-.524 1.23h-1.617c-.664 0-1.521-.142-2.001-.61-.481-.468-.743-1.102-.743-2.106 0-.817.157-1.564.751-2.155.446-.44 1.145-.643 2.098-.643h1.337v1.182h-1.311c-.498 0-.787.07-1.057.326-.245.233-.402.67-.402 1.25 0 .59.122 1.015.375 1.293.219.219.603.285.97.285h.621l1.949-4.335h2.071L959.924 17v-5.214h2.097l2.429 3.84v-3.84h1.425V17.3zm-45.669 1.082h2.359l.534-1.224h1.197l.524 1.225h4.649v-.937l.42.94h2.411l.411-.954v.95h11.553l-.009-2.01h.227c.158.005.201.019.201.265v1.745h5.978v-.468c.48.246 1.232.468 2.21.468h2.517l.542-1.224h1.197l.516 1.224h4.85V17.22l.725 1.163h3.889v-7.689h-3.836v.909l-.542-.909h-3.95v.909l-.49-.909h-5.321c-.892 0-1.678.118-2.307.45v-.45h-3.679v.45c-.402-.342-.944-.45-1.556-.45h-13.423l-.9 1.986-.926-1.986h-4.23v.909l-.463-.909h-3.609l-1.669 3.656v4.033zm49.19 4.067h-2.525c-.245 0-.42.01-.559.1-.14.089-.201.222-.201.397 0 .207.122.35.305.41.14.049.306.063.534.063l.742.02c.761.017 1.267.14 1.573.443.061.042.088.09.131.137v-1.57zm0 3.635c-.332.47-.987.706-1.878.706h-2.666v-1.182h2.657c.262 0 .446-.033.559-.136a.447.447 0 00.122-.164.487.487 0 00.035-.196.453.453 0 00-.157-.365c-.105-.084-.253-.122-.498-.122-1.293-.042-2.919.038-2.919-1.707 0-.8.542-1.642 1.993-1.642h2.752v-1.097h-2.56c-.769 0-1.328.177-1.73.45v-.45h-3.784c-.603 0-1.32.143-1.652.45v-.45h-6.755v.45c-.542-.37-1.45-.45-1.87-.45h-4.457v.45c-.428-.393-1.372-.45-1.948-.45h-4.99l-1.136 1.178-1.075-1.178h-7.454v7.695h7.314l1.18-1.197 1.11 1.197 4.5.003v-1.81h.446c.594.01 1.302-.014 1.922-.27v2.076h3.723v-2.006h.183c.228 0 .245.01.245.228v1.778h11.291c.725 0 1.476-.175 1.887-.492v.492h3.574c.752 0 1.486-.1 2.036-.354v-1.434zm-5.514-2.202c.271.266.411.6.411 1.168 0 1.187-.778 1.74-2.176 1.74h-2.692v-1.182h2.683c.271 0 .446-.033.56-.136a.375.375 0 00.122-.164.396.396 0 00.052-.196.464.464 0 00-.174-.365c-.105-.084-.254-.122-.49-.122-1.293-.042-2.91.038-2.91-1.707 0-.8.516-1.642 1.966-1.642h2.779v1.174h-2.534c-.253 0-.419.009-.55.1-.158.089-.21.221-.21.396 0 .208.122.35.297.411.148.048.306.062.542.062l.742.02c.752.017 1.268.14 1.582.443zm-12.479-.341c-.183.105-.419.114-.681.114h-1.678v-1.239h1.695c.245 0 .498.005.664.1.184.088.289.259.289.496a.58.58 0 01-.289.529zm.839.687c.297.108.559.302.673.462.201.27.227.521.227 1.008v1.092h-1.389v-.69c0-.331.044-.823-.227-1.079-.193-.198-.498-.245-1.005-.245h-1.477v2.014h-1.39v-5.514h3.19c.708 0 1.206.03 1.66.26.437.251.708.596.708 1.225 0 .88-.611 1.329-.97 1.467zm1.739-2.952h4.623v1.14h-3.242v1.003h3.155v1.125h-3.155v1.097l3.242.005v1.144h-4.623v-5.514zm-9.324 2.545h-1.783v-1.405h1.801c.498 0 .847.194.847.676 0 .477-.332.729-.865.729zm-3.163 2.468l-2.124-2.247 2.124-2.174v4.421zm-5.48-.648h-3.399v-1.097h3.032V23.42h-3.032v-1.003h3.461l1.511 1.607-1.573 1.618zm10.985-2.549c0 1.533-1.197 1.85-2.403 1.85h-1.722v1.848h-2.691l-1.704-1.825-1.765 1.825h-5.48v-5.514h5.558l1.704 1.808 1.757-1.808h4.422c1.092 0 2.324.29 2.324 1.816zM708.29 6.682h.616c2.136.047 4.238.918 5.749 2.46-.558.578-1.127 1.131-1.673 1.708-.847-.777-1.87-1.378-2.985-1.59-1.649-.353-3.425-.035-4.808.919-1.51 1-2.532 2.697-2.753 4.51-.243 1.79.256 3.674 1.406 5.064 1.103 1.354 2.787 2.202 4.529 2.26 1.626.095 3.321-.412 4.506-1.566.93-.812 1.359-2.049 1.499-3.25-1.929 0-3.856.012-5.784 0v-2.426h8.118c.419 2.603-.185 5.535-2.136 7.396-1.302 1.319-3.102 2.096-4.937 2.249-1.777.176-3.612-.165-5.192-1.036a9.027 9.027 0 01-4.145-4.793 8.797 8.797 0 01-.058-5.876 8.948 8.948 0 013.194-4.298c1.405-1.048 3.112-1.625 4.854-1.731zM754.86 7.294h2.486V24.11c-.824 0-1.661.011-2.486-.012.012-5.594 0-11.199 0-16.804zM722.239 13.123c1.533-.294 3.193.035 4.459.966a5.54 5.54 0 012.195 3.532c.314 1.637-.082 3.427-1.126 4.722-1.127 1.449-2.974 2.226-4.773 2.108-1.649-.094-3.253-.93-4.228-2.296-1.104-1.507-1.371-3.58-.766-5.346.603-1.896 2.311-3.344 4.239-3.686zm.348 2.237a3.125 3.125 0 00-1.627 1.048c-1.126 1.366-1.056 3.592.186 4.864.71.73 1.777 1.071 2.765.871.917-.165 1.718-.789 2.161-1.613.765-1.401.544-3.333-.629-4.428-.754-.706-1.857-1-2.856-.742zM734.549 13.124c1.754-.342 3.669.153 4.982 1.401 2.137 1.943 2.37 5.582.546 7.82-1.104 1.412-2.892 2.19-4.657 2.107-1.684-.047-3.345-.895-4.343-2.296-1.127-1.543-1.371-3.662-.732-5.464.638-1.837 2.31-3.239 4.204-3.568zm.348 2.237a3.168 3.168 0 00-1.625 1.036c-1.115 1.343-1.069 3.533.127 4.817.708.765 1.812 1.142 2.834.93a3.188 3.188 0 002.16-1.613c.755-1.413.535-3.345-.65-4.44a3.084 3.084 0 00-2.846-.73zM744.989 13.806c1.336-.848 3.114-1.083 4.553-.353.453.2.825.542 1.185.883.011-.318 0-.647.011-.977.779.012 1.557 0 2.346.012v10.386c-.012 1.566-.407 3.226-1.521 4.368-1.219 1.26-3.089 1.65-4.773 1.39-1.801-.27-3.368-1.602-4.065-3.285.697-.342 1.428-.613 2.149-.93.405.965 1.23 1.79 2.264 1.978 1.034.188 2.23-.07 2.904-.942.72-.895.72-2.12.685-3.215-.535.53-1.15 1-1.894 1.177-1.614.46-3.39-.105-4.634-1.212a5.806 5.806 0 01-1.927-4.51c.035-1.92 1.104-3.769 2.717-4.77zm2.405 1.508a3.045 3.045 0 00-1.824 1.071c-1.092 1.319-1.092 3.427.011 4.722.628.766 1.638 1.19 2.614 1.084.917-.095 1.765-.683 2.218-1.496.766-1.378.639-3.25-.395-4.451a2.836 2.836 0 00-2.624-.93zM760.331 14.407c1.394-1.319 3.543-1.766 5.331-1.071 1.695.647 2.775 2.284 3.321 3.968-2.52 1.06-5.029 2.108-7.548 3.168.348.671.882 1.283 1.603 1.53 1.009.366 2.217.236 3.064-.447.338-.259.605-.6.861-.93.638.436 1.277.86 1.916 1.295-.907 1.378-2.427 2.344-4.065 2.497-1.812.223-3.74-.483-4.913-1.92-1.928-2.26-1.741-6.052.43-8.09zm1.243 2.179c-.395.577-.558 1.283-.546 1.978 1.684-.706 3.368-1.413 5.052-2.131-.279-.66-.952-1.06-1.637-1.166-1.104-.2-2.254.4-2.869 1.319z" fill="#C6D2D9"/><path fill-rule="evenodd" clip-rule="evenodd" d="M246.201 29.421l-.009 2.038.149.025c.464.087.932.148 1.404.182.412.039.828.047 1.241.024a5.156 5.156 0 001.165-.221 3.214 3.214 0 001.208-.648c.318-.273.56-.623.704-1.016a2.823 2.823 0 00-.013-2.045 2.297 2.297 0 00-.632-.88 2.61 2.61 0 00-.926-.543l-1.526-.57a.817.817 0 01-.416-.4.53.53 0 01.118-.604.817.817 0 01.226-.164c.17-.085.354-.138.544-.16.322-.046.652-.042.973.011.38.042.758.11 1.128.204l.079.017v-1.88l-.145-.03a9.844 9.844 0 00-1.148-.206 5.857 5.857 0 00-1.51-.007 3.245 3.245 0 00-1.737.704 2.311 2.311 0 00-.743 1.03 2.837 2.837 0 000 1.915c.112.307.296.585.533.81.205.2.437.37.691.504.332.18.684.32 1.049.415.121.037.241.075.359.115l.181.067.052.02c.179.065.342.166.479.298.095.09.168.2.213.323.029.112.029.23.002.342a.729.729 0 01-.35.422 1.718 1.718 0 01-.582.182c-.298.048-.6.064-.902.046-.395-.03-.788-.082-1.178-.157-.202-.043-.405-.09-.605-.144l-.076-.019zm-8.297 1.964v-2.366l-.046.02a4.333 4.333 0 01-1.694.433 2.481 2.481 0 01-1.705-.506 2.205 2.205 0 01-.742-1.06 2.555 2.555 0 01-.049-1.42c.108-.478.375-.906.756-1.213a2.252 2.252 0 011.186-.515 3.891 3.891 0 012.243.423l.051.026V22.83l-.107-.029a5.967 5.967 0 00-2.138-.282 4.92 4.92 0 00-1.91.44 4.373 4.373 0 00-1.563 1.216 4.756 4.756 0 00-.087 5.76 4.486 4.486 0 002.486 1.61 5.793 5.793 0 003.146-.112l.173-.047zm3.063.156h2.222v-8.872h-2.222v8.872zm-14.349-16.002a1.11 1.11 0 00.697.95 1.095 1.095 0 001.151-.219c.204-.19.329-.452.35-.73v-2.46a1.108 1.108 0 00-.33-.767 1.095 1.095 0 00-1.538 0 1.104 1.104 0 00-.33.767v2.46zm6.082 0c.022.28.146.54.351.73a1.095 1.095 0 001.498 0c.204-.19.33-.45.349-.73v-5.512a1.1 1.1 0 00-1.862-.757c-.205.199-.325.47-.336.757v5.513zm6.052 2.22c.02.28.144.542.348.733a1.096 1.096 0 001.502 0c.204-.191.328-.453.348-.732V5.836a1.112 1.112 0 00-.341-.747 1.096 1.096 0 00-1.515 0 1.104 1.104 0 00-.342.747V17.76zm6.083-2.22a1.103 1.103 0 001.098 1.03 1.109 1.109 0 001.1-1.03v-5.512a1.11 1.11 0 00-1.1-1.064 1.105 1.105 0 00-1.098 1.064v5.512zm6.055 0a1.105 1.105 0 001.304 1.007 1.106 1.106 0 00.894-1.007V13.08a1.117 1.117 0 00-.689-.982 1.095 1.095 0 00-1.173.228 1.107 1.107 0 00-.336.754v2.46zm6.078 0a1.1 1.1 0 001.846.727c.204-.189.33-.449.352-.727v-5.512a1.11 1.11 0 00-.34-.75 1.098 1.098 0 00-1.858.75v5.513zm6.053 2.22a1.107 1.107 0 001.098 1.03c.279 0 .547-.106.751-.297.204-.191.328-.453.348-.732V5.836a1.118 1.118 0 00-.2-.594 1.095 1.095 0 00-1.661-.161 1.104 1.104 0 00-.336.755V17.76zm6.072-2.22c.021.28.146.54.35.73a1.097 1.097 0 001.499 0c.204-.19.329-.45.349-.73v-5.512a1.11 1.11 0 00-.337-.755 1.095 1.095 0 00-1.525 0 1.113 1.113 0 00-.336.755v5.512zm6.058 0c.02.28.145.542.349.733a1.098 1.098 0 001.502 0c.204-.191.328-.453.348-.733V13.08a1.109 1.109 0 00-.337-.754 1.093 1.093 0 00-1.524 0 1.107 1.107 0 00-.338.755v2.458zm-14.03 15.846v-2.366l-.045.02a4.325 4.325 0 01-1.695.433 2.479 2.479 0 01-1.704-.506 2.205 2.205 0 01-.742-1.06 2.573 2.573 0 01-.05-1.42c.108-.478.376-.906.756-1.213a2.253 2.253 0 011.187-.515 3.897 3.897 0 012.244.423l.049.026V22.83l-.106-.029a5.976 5.976 0 00-2.139-.282 4.918 4.918 0 00-1.909.44 4.37 4.37 0 00-1.564 1.216 4.755 4.755 0 00-1.012 2.865 4.746 4.746 0 00.927 2.895 4.479 4.479 0 002.486 1.61 5.79 5.79 0 003.145-.112l.172-.047zm5.568-6.096a2.297 2.297 0 011.71-.511 2.31 2.31 0 011.564.864 2.338 2.338 0 01.21 2.598c-.15.269-.351.505-.592.695a2.308 2.308 0 01-3.228-.39 2.337 2.337 0 01-.494-1.697c.063-.61.361-1.17.83-1.559zm-3.227 1.82a4.666 4.666 0 001.762 3.59 4.607 4.607 0 003.877.895 4.513 4.513 0 002.377-1.27 4.58 4.58 0 00.901-5.094 4.542 4.542 0 00-1.795-2.02 4.648 4.648 0 00-4.685-.132 4.683 4.683 0 00-1.758 1.685 4.741 4.741 0 00-.679 2.346zM559.446 27.802c-4.352 3.23-10.66 4.952-16.092 4.952-7.616 0-14.472-2.835-19.659-7.552-.407-.37-.042-.876.447-.587 5.598 3.279 12.518 5.251 19.669 5.251 4.821 0 10.125-1.004 15.002-3.088.737-.315 1.354.485.633 1.024z" fill="#C6D2D9"/><path fill-rule="evenodd" clip-rule="evenodd" d="M561.255 25.718c-.554-.716-3.678-.339-5.079-.171-.427.052-.492-.322-.107-.59 2.487-1.763 6.568-1.255 7.045-.664.476.594-.124 4.713-2.462 6.679-.358.302-.701.141-.541-.26.525-1.319 1.702-4.276 1.144-4.994zM556.273 12.514V10.8c0-.26.197-.434.431-.434h7.619c.244 0 .441.177.441.433v1.467c-.005.247-.209.568-.575 1.077l-3.947 5.675c1.467-.036 3.015.184 4.345.938.3.171.381.42.404.667v1.828c0 .25-.273.541-.56.39-2.344-1.237-5.458-1.372-8.049.013-.265.145-.542-.144-.542-.393v-1.737c0-.279.003-.755.281-1.178l4.574-6.603h-3.981c-.244 0-.441-.174-.441-.43zM528.481 23.203h-2.319a.438.438 0 01-.413-.397V10.83c0-.24.198-.43.447-.43h2.161c.225.01.404.184.421.4v1.566h.042c.563-1.513 1.623-2.218 3.051-2.218 1.451 0 2.357.705 3.009 2.218.561-1.513 1.836-2.218 3.202-2.218.971 0 2.034.403 2.684 1.309.732 1.008.583 2.471.583 3.755l-.003 7.558a.44.44 0 01-.448.433h-2.314a.442.442 0 01-.417-.433v-6.347c0-.506.045-1.766-.066-2.245-.173-.804-.691-1.03-1.362-1.03-.561 0-1.148.377-1.386.98-.238.604-.215 1.615-.215 2.295v6.347a.44.44 0 01-.447.433h-2.315a.439.439 0 01-.416-.433l-.004-6.347c0-1.336.219-3.302-1.428-3.302-1.666 0-1.601 1.917-1.601 3.302v6.347a.44.44 0 01-.446.433zM571.323 10.148c3.44 0 5.301 2.973 5.301 6.754 0 3.653-2.057 6.55-5.301 6.55-3.378 0-5.217-2.973-5.217-6.678 0-3.729 1.862-6.627 5.217-6.627zm.02 2.445c-1.709 0-1.816 2.343-1.816 3.803 0 1.464-.023 4.589 1.796 4.589 1.796 0 1.881-2.52 1.881-4.057 0-1.01-.042-2.219-.345-3.177-.261-.833-.78-1.158-1.516-1.158zM581.086 23.203h-2.308a.443.443 0 01-.419-.433l-.003-11.98a.441.441 0 01.447-.39h2.149c.202.01.368.148.414.335v1.831h.042c.649-1.637 1.559-2.418 3.159-2.418 1.04 0 2.054.377 2.706 1.41.606.96.606 2.57.606 3.73v7.538a.445.445 0 01-.447.377h-2.323a.44.44 0 01-.411-.377v-6.505c0-1.31.15-3.226-1.45-3.226-.565 0-1.083.38-1.342.958-.325.732-.368 1.46-.368 2.268v6.45a.446.446 0 01-.452.432zM550.199 17.482c0 .91.023 1.668-.433 2.475-.369.656-.956 1.06-1.605 1.06-.89 0-1.411-.683-1.411-1.69 0-1.989 1.77-2.35 3.449-2.35v.505zm2.338 5.688a.48.48 0 01-.547.056c-.771-.643-.911-.942-1.331-1.556-1.272 1.306-2.175 1.697-3.821 1.697-1.954 0-3.469-1.21-3.469-3.636 0-1.894 1.017-3.184 2.471-3.814 1.259-.558 3.015-.656 4.359-.81v-.303c0-.554.043-1.21-.283-1.69-.281-.43-.822-.607-1.301-.607-.883 0-1.67.456-1.861 1.401-.041.21-.193.417-.405.427l-2.247-.243c-.188-.043-.401-.197-.345-.489.515-2.744 2.979-3.57 5.184-3.57 1.127 0 2.601.301 3.491 1.161 1.128 1.06 1.021 2.475 1.021 4.014v3.636c0 1.093.45 1.573.874 2.163.146.21.179.463-.011.62-.472.398-1.313 1.136-1.776 1.55l-.003-.007zM519.812 17.482c0 .91.023 1.668-.434 2.475-.368.656-.951 1.06-1.604 1.06-.891 0-1.408-.683-1.408-1.69 0-1.989 1.771-2.35 3.446-2.35v.505zm2.337 5.688a.48.48 0 01-.547.056c-.77-.643-.907-.942-1.331-1.556-1.271 1.306-2.17 1.697-3.82 1.697-1.95 0-3.469-1.21-3.469-3.636 0-1.894 1.02-3.184 2.471-3.814 1.258-.558 3.016-.656 4.359-.81v-.303c0-.554.043-1.21-.281-1.69-.283-.43-.825-.607-1.301-.607-.883 0-1.672.456-1.864 1.401-.04.21-.192.417-.401.427l-2.25-.243c-.189-.043-.397-.197-.345-.489.519-2.744 2.98-3.57 5.183-3.57 1.128 0 2.603.301 3.491 1.161 1.13 1.06 1.021 2.475 1.021 4.014v3.636c0 1.093.45 1.573.874 2.163.15.21.183.463-.006.62a96.748 96.748 0 00-1.778 1.55l-.006-.007z" fill="#C6D2D9"/><path d="M813.549 8.59v1.242h9.227V8.59h-9.227zm10.535 0v1.242h13.15s-1.342-1.241-3.121-1.241h-10.029zm15.731 0v1.242h7.956l-.472-1.241h-7.484zm13.659 0l-.472 1.242h7.884V8.59h-7.412zm-39.925 2.414v1.24h9.227v-1.24h-9.227zm10.535.002v1.239h14.677s-.171-.955-.47-1.24h-14.207zm15.731 0v1.239h8.828l-.437-1.24h-8.391zm12.715 0l-.437 1.239h8.793v-1.24h-8.356zm-36.329 2.411v1.243h3.996v-1.243h-3.996zm10.535 0v1.243h3.997v-1.243h-3.997zm7.885 0v1.243h3.996s.253-.656.253-1.243h-4.249zm7.845 0v1.243h7.086l-.471-1.243h-6.615zm9.193 0l-.474 1.243h7.121v-1.243h-6.647zm-35.458 2.415v1.24h3.996v-1.24h-3.996zm10.535 0v1.24h10.208s.854-.636 1.126-1.24h-11.334zm15.73 0v1.24h3.997v-.69l.254.69h7.32l.273-.69v.69h3.996v-1.24h-7.502l-.399 1.051-.399-1.051h-7.54zm-26.265 2.413v1.241h3.996v-1.24h-3.996zm10.535 0v1.241h11.334c-.272-.602-1.126-1.24-1.126-1.24h-10.208zm15.73 0v1.241h3.997v-1.24h-3.997zm4.723 0l.483 1.241h5.489l.46-1.24h-6.432zm7.121 0v1.241h3.996v-1.24h-3.996zm-38.109 2.413V21.9h3.996v-1.24h-3.996zm10.535 0V21.9h3.997v-1.24h-3.997zm7.885 0V21.9h4.249c0-.585-.253-1.24-.253-1.24h-3.996zm7.845 0V21.9h3.997v-1.24h-3.997zm5.631 0l.468 1.241h3.68l.473-1.24h-4.621zm6.213 0V21.9h3.996v-1.24h-3.996zm-40.69 2.413v1.243h9.229v-1.243h-9.229zm10.464 0v1.243h14.207c.299-.284.47-1.243.47-1.243h-14.677zm15.802 0v1.243h6.577v-1.243h-6.577zm9.12 0l.481 1.243h1.873l.452-1.243h-2.806zm5.304 0v1.243h6.648v-1.243h-6.648zm-40.69 2.415v1.241h9.229v-1.24h-9.229zm10.464 0v1.24h10.029c1.779 0 3.121-1.24 3.121-1.24h-13.15zm15.802 0v1.241h6.577v-1.24h-6.577zm10.033 0l.463 1.238.079.001.471-1.239h-1.013zm4.391 0v1.241h6.648v-1.24h-6.648zM621.877 19.397c.211.56.503 1.04.877 1.438.374.398.817.703 1.329.914a4.336 4.336 0 001.67.317c.585 0 1.134-.11 1.645-.33.512-.219.959-.527 1.341-.925.382-.399.679-.874.89-1.427.211-.552.317-1.17.317-1.852V7h2.56v17.065h-2.536V22.48a5.868 5.868 0 01-2.011 1.39 6.374 6.374 0 01-2.499.488c-.91 0-1.759-.159-2.547-.476a5.969 5.969 0 01-2.048-1.353 6.378 6.378 0 01-1.365-2.108c-.333-.821-.5-1.735-.5-2.743V7h2.56v10.532c0 .682.105 1.304.317 1.865zM636.918 7v6.216a6.52 6.52 0 011.975-1.352c.747-.334 1.56-.5 2.438-.5.91 0 1.763.17 2.559.512a6.547 6.547 0 012.073 1.39 6.535 6.535 0 011.389 2.072c.342.796.512 1.641.512 2.535a6.27 6.27 0 01-.512 2.523 6.57 6.57 0 01-1.389 2.06 6.547 6.547 0 01-4.632 1.902 6 6 0 01-2.45-.5 6.477 6.477 0 01-1.987-1.353v1.56h-2.438V7h2.462zm.28 12.555c.22.52.525.975.915 1.365s.845.7 1.365.927c.52.227 1.081.341 1.682.341.585 0 1.138-.114 1.658-.341.52-.228.971-.537 1.353-.927s.686-.845.914-1.365c.228-.52.341-1.08.341-1.682 0-.602-.113-1.166-.341-1.694a4.486 4.486 0 00-.914-1.378 4.106 4.106 0 00-1.353-.914 4.222 4.222 0 00-1.658-.33c-.585 0-1.138.11-1.658.33-.52.22-.975.524-1.365.914s-.699.85-.926 1.378a4.229 4.229 0 00-.342 1.694c0 .601.11 1.162.329 1.682zm12.055-4.193a6.647 6.647 0 011.341-2.06 6.254 6.254 0 014.559-1.914c.894 0 1.723.163 2.487.488a5.89 5.89 0 011.974 1.353c.553.577.984 1.26 1.292 2.048.309.788.464 1.645.464 2.572v.804h-10.117c.081.504.243.971.487 1.402a4.177 4.177 0 002.158 1.865c.463.179.954.268 1.475.268 1.479 0 2.673-.61 3.583-1.828l1.78 1.316a6.627 6.627 0 01-2.292 1.95c-.91.472-1.934.707-3.071.707a6.869 6.869 0 01-2.597-.487 6.322 6.322 0 01-2.096-1.366 6.408 6.408 0 01-1.914-4.632 6.4 6.4 0 01.487-2.486zm3.426-.963c-.691.577-1.15 1.345-1.378 2.304h7.582c-.211-.96-.662-1.727-1.353-2.304-.691-.577-1.499-.865-2.426-.865-.926 0-1.735.288-2.425.865zm13.298.28c-.52.57-.78 1.341-.78 2.316v7.07h-2.462V11.632h2.438v1.536a3.462 3.462 0 011.206-1.195c.496-.292 1.085-.439 1.768-.439H669v2.292h-1.024c-.812 0-1.479.284-1.999.853z" fill="#C6D2D9"/></svg>