<svg width="523" height="448" fill="none" xmlns="http://www.w3.org/2000/svg">
  <g filter="url(#filter0_d)">
    <path d="M50 54a4 4 0 014-4h227.304a4 4 0 014 4v340a4 4 0 01-4 4H54a4 4 0 01-4-4V54z" fill="#fff"/>
  </g>
  <path d="M100.076 82.25v3.897h-1.312v-9.953h3.671c1.089 0 1.941.278 2.556.834.62.556.93 1.292.93 2.208 0 .966-.303 1.711-.909 2.235-.602.52-1.465.78-2.591.78h-2.345zm0-1.073h2.359c.701 0 1.239-.164 1.613-.492.374-.333.56-.811.56-1.436 0-.592-.186-1.066-.56-1.421-.374-.356-.887-.54-1.538-.554h-2.434v3.903zm10.897-1.292a3.797 3.797 0 00-.622-.048c-.83 0-1.393.354-1.689 1.06v5.25h-1.265V78.75h1.231l.02.855c.415-.66 1.003-.991 1.764-.991.246 0 .433.032.561.096v1.175zm.697 2.495c0-.724.141-1.376.424-1.955.287-.578.683-1.025 1.189-1.34.511-.314 1.092-.471 1.743-.471 1.008 0 1.821.348 2.441 1.046.624.697.936 1.624.936 2.782v.089c0 .72-.139 1.367-.417 1.941a3.11 3.11 0 01-1.182 1.333c-.511.32-1.099.479-1.764.479-1.003 0-1.816-.349-2.44-1.046-.62-.698-.93-1.62-.93-2.769v-.089zm1.271.15c0 .821.19 1.48.568 1.976.383.497.893.745 1.531.745.643 0 1.153-.25 1.531-.752.379-.505.568-1.212.568-2.119 0-.81-.194-1.467-.581-1.968-.383-.506-.894-.76-1.532-.76-.624 0-1.128.25-1.51.746-.383.497-.575 1.208-.575 2.133zm8.354-3.78v8.251c0 1.422-.645 2.133-1.935 2.133-.278 0-.535-.04-.772-.123V88c.146.036.337.054.574.054.283 0 .497-.077.643-.232.15-.15.225-.415.225-.793V78.75h1.265zM119.9 76.79c0-.2.062-.372.185-.513.128-.146.312-.219.554-.219.246 0 .433.07.56.212a.746.746 0 01.192.52.721.721 0 01-.192.512c-.127.137-.314.205-.56.205-.246 0-.431-.068-.554-.205a.738.738 0 01-.185-.512zm6.508 9.495c-1.002 0-1.818-.328-2.447-.985-.629-.66-.943-1.542-.943-2.645v-.233c0-.733.139-1.387.417-1.962a3.28 3.28 0 011.175-1.353 2.959 2.959 0 011.641-.492c.962 0 1.709.316 2.242.95.533.633.8 1.54.8 2.72v.527h-5.011c.018.73.23 1.32.636 1.77.41.447.93.67 1.559.67.446 0 .824-.09 1.134-.273a2.86 2.86 0 00.814-.725l.772.602c-.62.953-1.549 1.429-2.789 1.429zm-.157-6.631c-.51 0-.939.187-1.285.56-.347.37-.561.89-.643 1.559h3.705v-.096c-.036-.642-.209-1.14-.519-1.49-.31-.355-.729-.533-1.258-.533zm7.478 5.598a1.82 1.82 0 001.183-.41c.337-.273.524-.615.561-1.025h1.196a2.295 2.295 0 01-.438 1.21 2.862 2.862 0 01-1.08.916c-.446.228-.92.342-1.422.342-1.007 0-1.809-.335-2.406-1.005-.592-.675-.888-1.595-.888-2.762v-.212c0-.72.132-1.36.396-1.92.264-.561.643-.997 1.135-1.306.497-.31 1.082-.465 1.757-.465.829 0 1.517.248 2.064.745.552.497.845 1.142.882 1.934h-1.196c-.037-.478-.219-.87-.547-1.175-.324-.31-.725-.465-1.203-.465-.643 0-1.142.232-1.497.697-.351.46-.527 1.128-.527 2.003v.24c0 .852.176 1.508.527 1.968.35.46.852.69 1.503.69zm6.078-8.291v1.79h1.381v.978h-1.381v4.587c0 .296.061.52.184.67.123.146.333.219.629.219.146 0 .346-.028.602-.082v1.025a3.675 3.675 0 01-.971.137c-.565 0-.991-.171-1.278-.513-.287-.342-.431-.827-.431-1.456v-4.587h-1.347v-.977h1.347V76.96h1.265zm9.782 3.048l2.386-3.814h1.545l-3.145 4.935 3.22 5.018h-1.559l-2.447-3.883-2.461 3.883h-1.552l3.227-5.018-3.152-4.935h1.538l2.4 3.814zM234.927 78.79c0 .487-.126.923-.376 1.305a2.622 2.622 0 01-1.026.896c.52.242.919.572 1.197.991.282.42.424.893.424 1.422 0 .875-.297 1.57-.889 2.085-.593.51-1.381.766-2.365.766-.989 0-1.782-.258-2.379-.773-.593-.515-.889-1.207-.889-2.078 0-.533.141-1.012.424-1.435.282-.424.679-.75 1.189-.978a2.627 2.627 0 01-1.018-.895 2.363 2.363 0 01-.369-1.306c0-.848.273-1.52.82-2.017.547-.497 1.285-.745 2.215-.745.934 0 1.675.248 2.221.745.547.497.821 1.17.821 2.017zm-1.443 4.532c0-.492-.148-.889-.444-1.19-.292-.305-.679-.457-1.162-.457-.483 0-.871.15-1.162.45-.287.302-.431.7-.431 1.197 0 .488.141.877.424 1.169.287.292.681.438 1.183.438.501 0 .891-.142 1.169-.424.282-.283.423-.677.423-1.183zm-.212-4.47c0-.434-.125-.79-.376-1.067-.25-.283-.587-.424-1.011-.424-.424 0-.759.135-1.005.403-.246.265-.369.627-.369 1.087 0 .456.123.818.369 1.087.251.27.588.404 1.012.404.423 0 .758-.135 1.004-.404.251-.269.376-.631.376-1.087zm4.451 5.516c.31 0 .549.089.717.267a.9.9 0 01.253.656c0 .26-.084.476-.253.65-.168.168-.407.252-.717.252-.297 0-.531-.084-.704-.253a.864.864 0 01-.26-.65.9.9 0 01.253-.656c.168-.177.405-.266.711-.266zm0-5.804c.31 0 .549.09.717.267a.9.9 0 01.253.656c0 .26-.084.476-.253.65-.168.168-.407.252-.717.252-.297 0-.531-.084-.704-.252a.864.864 0 01-.26-.65.9.9 0 01.253-.656c.168-.178.405-.267.711-.267zm9.098 3.364c0 1.43-.269 2.51-.806 3.24-.534.724-1.347 1.087-2.441 1.087-1.075 0-1.886-.354-2.433-1.06-.543-.71-.821-1.761-.834-3.151V80.32c0-1.43.266-2.504.799-3.22.538-.715 1.356-1.073 2.455-1.073 1.089 0 1.9.349 2.433 1.046.538.697.814 1.74.827 3.13v1.724zm-1.661-1.86c0-.934-.127-1.618-.383-2.05-.255-.438-.66-.657-1.216-.657-.543 0-.942.207-1.197.622-.255.41-.389 1.053-.403 1.928v2.256c0 .93.13 1.622.39 2.078.259.456.667.683 1.223.683.533 0 .928-.21 1.183-.628.255-.424.389-1.085.403-1.983v-2.249zm9.618 1.86c0 1.43-.269 2.51-.806 3.24-.534.724-1.347 1.087-2.441 1.087-1.075 0-1.886-.354-2.433-1.06-.543-.71-.821-1.761-.834-3.151V80.32c0-1.43.266-2.504.799-3.22.538-.715 1.356-1.073 2.455-1.073 1.089 0 1.9.349 2.433 1.046.538.697.814 1.74.827 3.13v1.724zm-1.661-1.86c0-.934-.127-1.618-.383-2.05-.255-.438-.66-.657-1.216-.657-.543 0-.942.207-1.197.622-.255.41-.389 1.053-.403 1.928v2.256c0 .93.13 1.622.39 2.078.259.456.667.683 1.223.683.533 0 .928-.21 1.183-.628.255-.424.39-1.085.403-1.983v-2.249z" fill="#3D4853"/>
  <path stroke="#C6D2D9" d="M50 105.5h235"/>
  <path d="M106.42 131.123c0 .976-.164 1.828-.492 2.557-.328.725-.793 1.278-1.395 1.661-.601.383-1.303.574-2.105.574-.784 0-1.479-.191-2.085-.574-.606-.387-1.078-.936-1.415-1.647-.333-.716-.504-1.543-.513-2.482v-.718c0-.957.166-1.802.5-2.536.332-.733.801-1.294 1.407-1.681.611-.392 1.308-.588 2.092-.588.798 0 1.499.193 2.106.581.61.383 1.08.941 1.408 1.675.328.729.492 1.579.492 2.549v.629zm-1.306-.642c0-1.181-.237-2.085-.711-2.714-.474-.634-1.137-.95-1.989-.95-.829 0-1.483.316-1.962.95-.474.629-.718 1.504-.731 2.625v.731c0 1.144.239 2.044.717 2.7.484.652 1.147.978 1.99.978.847 0 1.504-.308 1.968-.923.465-.62.705-1.506.718-2.659v-.738zm3.698 5.298v-6.419h-1.168v-.978h1.168v-.759c0-.793.212-1.406.636-1.839.424-.433 1.023-.649 1.798-.649.292 0 .581.039.868.116l-.068 1.026a3.632 3.632 0 00-.684-.062c-.41 0-.727.121-.95.362-.223.237-.335.579-.335 1.026v.779h2.735v-.629c0-.825.234-1.467.704-1.928.474-.46 1.141-.69 2.003-.69.51 0 1.155.139 1.934.417l-.212 1.066c-.569-.227-1.114-.341-1.634-.341-.542 0-.934.12-1.175.362-.237.241-.356.608-.356 1.101v.642h1.518v.978h-1.518v6.419h-1.264v-6.419h-2.735v6.419h-1.265zm9.263 0h-1.264v-7.397h1.264v7.397zm5.031-.896c.452 0 .846-.137 1.183-.41.337-.274.524-.615.561-1.025h1.196a2.292 2.292 0 01-.438 1.209 2.86 2.86 0 01-1.08.916c-.446.228-.92.342-1.422.342-1.007 0-1.809-.335-2.406-1.005-.592-.674-.888-1.595-.888-2.761v-.212c0-.72.132-1.361.396-1.921a3.026 3.026 0 011.135-1.306c.497-.31 1.082-.465 1.757-.465.829 0 1.517.249 2.064.745.551.497.845 1.142.882 1.935h-1.196c-.037-.478-.219-.87-.547-1.176-.324-.31-.725-.465-1.203-.465-.643 0-1.142.233-1.497.698-.351.46-.527 1.128-.527 2.003v.239c0 .852.176 1.508.527 1.969.35.46.852.69 1.503.69zm7.431 1.032c-1.002 0-1.818-.328-2.447-.984-.629-.661-.944-1.543-.944-2.646v-.232c0-.734.139-1.388.417-1.962a3.283 3.283 0 011.176-1.353 2.953 2.953 0 011.641-.493c.961 0 1.709.317 2.242.951.533.633.8 1.54.8 2.72v.527h-5.011c.018.729.23 1.319.636 1.77.41.447.93.67 1.558.67.447 0 .825-.091 1.135-.273.31-.183.581-.424.814-.725l.772.602c-.62.952-1.549 1.428-2.789 1.428zm-.157-6.631a1.68 1.68 0 00-1.285.561c-.347.369-.561.889-.643 1.559h3.705v-.096c-.036-.643-.209-1.139-.519-1.49-.31-.356-.729-.534-1.258-.534zM234.277 132.694h1.238v1.333h-1.238v2.214h-1.661v-2.214h-4.3l-.047-1.012 4.293-6.727h1.715v6.406zm-4.265 0h2.604v-4.157l-.123.219-2.481 3.938zm7.711 1.797c.31 0 .549.089.717.267a.9.9 0 01.253.656c0 .26-.084.477-.253.65-.168.168-.407.253-.717.253-.297 0-.531-.085-.704-.253a.865.865 0 01-.26-.65.9.9 0 01.253-.656c.168-.178.405-.267.711-.267zm0-5.803c.31 0 .549.089.717.266a.903.903 0 01.253.657.892.892 0 01-.253.649c-.168.169-.407.253-.717.253-.297 0-.531-.084-.704-.253a.864.864 0 01-.26-.649c0-.265.084-.483.253-.657.168-.177.405-.266.711-.266zm9.098 3.363c0 1.431-.269 2.511-.806 3.24-.534.725-1.347 1.087-2.441 1.087-1.075 0-1.886-.353-2.433-1.059-.543-.711-.821-1.762-.834-3.152v-1.722c0-1.431.266-2.505.799-3.22.538-.716 1.356-1.073 2.455-1.073 1.089 0 1.9.348 2.433 1.046.538.697.814 1.74.827 3.13v1.723zm-1.661-1.859c0-.935-.127-1.618-.383-2.051-.255-.438-.66-.656-1.216-.656-.543 0-.942.207-1.197.622-.255.41-.389 1.052-.403 1.927v2.256c0 .93.13 1.623.39 2.078.259.456.667.684 1.223.684.533 0 .928-.21 1.183-.629.255-.424.389-1.085.403-1.982v-2.249zm9.618 1.859c0 1.431-.269 2.511-.806 3.24-.534.725-1.347 1.087-2.441 1.087-1.075 0-1.886-.353-2.433-1.059-.543-.711-.821-1.762-.834-3.152v-1.722c0-1.431.266-2.505.799-3.22.538-.716 1.356-1.073 2.455-1.073 1.089 0 1.9.348 2.433 1.046.538.697.814 1.74.827 3.13v1.723zm-1.661-1.859c0-.935-.127-1.618-.383-2.051-.255-.438-.66-.656-1.216-.656-.543 0-.942.207-1.197.622-.255.41-.389 1.052-.403 1.927v2.256c0 .93.13 1.623.39 2.078.259.456.667.684 1.223.684.533 0 .928-.21 1.183-.629.255-.424.39-1.085.403-1.982v-2.249z" fill="#3D4853"/>
  <path stroke="#C6D2D9" d="M50 155.5h235"/>
  <path d="M105.641 177.593h-3.2v8.873h-1.305v-8.873h-3.193v-1.08h7.698v1.08zm2.652 8.873h-1.265v-7.396h1.265v7.396zm-1.367-9.358c0-.205.061-.379.184-.52.128-.141.315-.212.561-.212.246 0 .433.071.56.212a.746.746 0 01.192.52.718.718 0 01-.192.512c-.127.137-.314.205-.56.205-.246 0-.433-.068-.561-.205a.735.735 0 01-.184-.512zm4.587 1.962l.034.82c.542-.638 1.274-.957 2.194-.957 1.035 0 1.739.396 2.113 1.189.246-.355.565-.642.957-.861.396-.219.863-.328 1.401-.328 1.622 0 2.447.859 2.475 2.577v4.956h-1.265v-4.881c0-.528-.121-.923-.362-1.182-.242-.265-.648-.397-1.217-.397-.47 0-.859.141-1.169.424-.31.278-.49.654-.54 1.128v4.908h-1.272v-4.847c0-1.075-.526-1.613-1.579-1.613-.829 0-1.397.353-1.702 1.06v5.4h-1.265v-7.396h1.197zm14.157 7.533c-1.003 0-1.818-.328-2.447-.985-.629-.66-.944-1.542-.944-2.645v-.233c0-.733.139-1.387.417-1.961a3.292 3.292 0 011.176-1.354 2.96 2.96 0 011.641-.492c.961 0 1.709.317 2.242.95.533.634.8 1.54.8 2.721v.526h-5.011c.018.729.23 1.319.636 1.771.41.446.929.67 1.558.67.447 0 .825-.092 1.135-.274.31-.182.581-.424.814-.724l.772.601c-.62.953-1.549 1.429-2.789 1.429zm-.157-6.631c-.511 0-.939.187-1.285.56-.347.37-.561.889-.643 1.559h3.705v-.096c-.036-.642-.21-1.139-.519-1.49-.31-.355-.73-.533-1.258-.533zm7.143 2.782h-3.336v-1.032h3.336v1.032zm.903-.055c0-.724.141-1.376.423-1.955.288-.578.684-1.025 1.19-1.339.51-.315 1.091-.472 1.743-.472 1.007 0 1.821.348 2.44 1.046.625.697.937 1.624.937 2.782v.089c0 .72-.139 1.367-.417 1.941a3.11 3.11 0 01-1.183 1.333c-.51.319-1.098.479-1.763.479-1.003 0-1.816-.349-2.441-1.046-.62-.697-.929-1.62-.929-2.769v-.089zm1.271.151c0 .82.189 1.479.567 1.975.383.497.894.746 1.532.746.642 0 1.153-.251 1.531-.752.378-.506.567-1.213.567-2.12 0-.811-.193-1.467-.581-1.968-.383-.506-.893-.759-1.531-.759-.624 0-1.128.248-1.511.745s-.574 1.208-.574 2.133zm7.67 3.616v-6.419h-1.169v-.977h1.169v-.759c0-.793.212-1.406.636-1.839.424-.433 1.023-.649 1.798-.649.291 0 .581.038.868.116l-.069 1.025a3.63 3.63 0 00-.683-.061c-.41 0-.727.12-.95.362-.224.237-.335.579-.335 1.025v.78h1.579v.977h-1.579v6.419H142.5zm4.867 0v-6.419h-1.169v-.977h1.169v-.759c0-.793.212-1.406.636-1.839.424-.433 1.023-.649 1.798-.649.291 0 .581.038.868.116l-.068 1.025a3.641 3.641 0 00-.684-.061c-.41 0-.727.12-.95.362-.224.237-.335.579-.335 1.025v.78h1.579v.977h-1.579v6.419h-1.265z" fill="#3D4853"/>
  <ellipse cx="83" cy="180.39" rx="4.304" ry="4.296" fill="#FFD740"/>
  <ellipse cx="83" cy="130.266" rx="4.304" ry="4.296" fill="#40C4FF"/>
  <ellipse cx="83" cy="80.142" rx="4.304" ry="4.296" fill="#FF80AB"/>
  <path d="M235.351 186.365h-6.693v-1.142l3.316-3.616c.478-.533.818-.978 1.018-1.333.205-.36.308-.72.308-1.08 0-.474-.135-.857-.404-1.149-.264-.291-.622-.437-1.073-.437-.538 0-.955.164-1.251.492-.296.328-.444.777-.444 1.347h-1.661c0-.606.137-1.151.41-1.634a2.865 2.865 0 011.183-1.135c.515-.269 1.107-.403 1.777-.403.966 0 1.727.244 2.283.731.561.483.841 1.153.841 2.01 0 .497-.141 1.019-.424 1.566-.278.542-.736 1.159-1.374 1.852l-2.434 2.605h4.622v1.326zm2.372-1.75c.31 0 .549.089.717.266a.903.903 0 01.253.657.892.892 0 01-.253.649c-.168.169-.407.253-.717.253-.297 0-.531-.084-.704-.253a.864.864 0 01-.26-.649c0-.265.084-.483.253-.657.168-.177.405-.266.711-.266zm0-5.804c.31 0 .549.089.717.267a.9.9 0 01.253.656.89.89 0 01-.253.649c-.168.169-.407.253-.717.253-.297 0-.531-.084-.704-.253a.863.863 0 01-.26-.649.9.9 0 01.253-.656c.168-.178.405-.267.711-.267zm9.098 3.363c0 1.431-.269 2.511-.806 3.241-.534.724-1.347 1.086-2.441 1.086-1.075 0-1.886-.353-2.433-1.059-.543-.711-.821-1.761-.834-3.151v-1.723c0-1.431.266-2.504.799-3.22.538-.715 1.356-1.073 2.455-1.073 1.089 0 1.9.349 2.433 1.046.538.697.814 1.741.827 3.131v1.722zm-1.661-1.859c0-.934-.127-1.618-.383-2.051-.255-.437-.66-.656-1.216-.656-.543 0-.942.207-1.197.622-.255.41-.389 1.053-.403 1.928v2.256c0 .929.13 1.622.39 2.078.259.455.667.683 1.223.683.533 0 .928-.209 1.183-.629.255-.423.389-1.084.403-1.982v-2.249zm9.618 1.859c0 1.431-.269 2.511-.806 3.241-.534.724-1.347 1.086-2.441 1.086-1.075 0-1.886-.353-2.433-1.059-.543-.711-.821-1.761-.834-3.151v-1.723c0-1.431.266-2.504.799-3.22.538-.715 1.356-1.073 2.455-1.073 1.089 0 1.9.349 2.433 1.046.538.697.814 1.741.827 3.131v1.722zm-1.661-1.859c0-.934-.127-1.618-.383-2.051-.255-.437-.66-.656-1.216-.656-.543 0-.942.207-1.197.622-.255.41-.389 1.053-.403 1.928v2.256c0 .929.13 1.622.39 2.078.259.455.667.683 1.223.683.533 0 .928-.209 1.183-.629.255-.423.39-1.084.403-1.982v-2.249z" fill="#3D4853"/>
  <path stroke="#C6D2D9" d="M50 205.5h235"/>
  <path d="M236.094 342.697a80.067 80.067 0 006.417-71.146 80.208 80.208 0 00-20.834-30.228 80.385 80.385 0 00-32.142-17.803 80.486 80.486 0 00-36.721-1.652 80.431 80.431 0 00-33.616 14.844 80.242 80.242 0 00-23.474 28.235 80.072 80.072 0 00-8.42 35.714l48.209.015a32.042 32.042 0 013.368-14.286 32.106 32.106 0 019.39-11.294 32.197 32.197 0 0128.135-5.277 32.156 32.156 0 0112.856 7.122 32.076 32.076 0 018.334 12.091 32.02 32.02 0 01-2.567 28.458l41.065 25.207z" fill="#40C4FF"/>
  <path d="M124.056 368.051a80.429 80.429 0 0031.148 11.864 80.504 80.504 0 0033.292-1.777 80.394 80.394 0 0029.703-15.113 80.23 80.23 0 0021.001-25.846l-42.929-21.896a32.079 32.079 0 01-8.4 10.339 32.164 32.164 0 01-11.881 6.045 32.173 32.173 0 01-25.776-4.035l-26.158 40.419z" fill="#FFD740"/>
  <path d="M167.653 220.488a80.481 80.481 0 00-33.865 7.471 80.348 80.348 0 00-27.554 21.021 80.145 80.145 0 00-16.112 30.655 80.053 80.053 0 00-1.666 34.577 80.111 80.111 0 0013.089 32.056 80.293 80.293 0 0025.406 23.564 80.49 80.49 0 0067.416 6.489l-16.029-45.381a32.197 32.197 0 01-26.966-2.596 32.113 32.113 0 01-10.163-9.425 32.03 32.03 0 011.876-38.915 32.127 32.127 0 0111.022-8.409 32.195 32.195 0 0113.546-2.988v-48.119z" fill="#FF80AB"/>
  <g filter="url(#filter1_d)">
    <path d="M264 75a4 4 0 014-4h201a4 4 0 014 4v212a4 4 0 01-4 4H268a4 4 0 01-4-4V75z" fill="#fff"/>
  </g>
  <rect x="284" y="110" width="137" height="17" rx="2.864" fill="#47CE4F"/>
  <rect x="284" y="142" width="106" height="17" rx="2.864" fill="#47CE4F"/>
  <rect x="284" y="173" width="115" height="17" rx="2.864" fill="#47CE4F"/>
  <rect x="284" y="205" width="48" height="17" rx="2.864" fill="#47CE4F"/>
  <rect x="284" y="236" width="86" height="17" rx="2.864" fill="#47CE4F"/>
  <path d="M383.593 250.741h-1.272v-8.429l-2.55.937V242.1l3.624-1.36h.198v10.001zm3.794-.663c0-.219.064-.401.191-.547.132-.146.328-.219.588-.219.26 0 .456.073.588.219a.767.767 0 01.205.547.726.726 0 01-.205.526c-.132.141-.328.212-.588.212-.26 0-.456-.071-.588-.212a.758.758 0 01-.191-.526zm.007-6.036c0-.219.063-.402.191-.547.132-.146.328-.219.588-.219.26 0 .456.073.588.219a.77.77 0 01.205.547.73.73 0 01-.205.526c-.132.141-.328.212-.588.212-.26 0-.456-.071-.588-.212a.754.754 0 01-.191-.526zm9.536 2.454c0 1.481-.253 2.581-.759 3.301-.506.72-1.297 1.08-2.372 1.08-1.062 0-1.848-.35-2.359-1.052-.51-.707-.774-1.759-.793-3.158v-1.689c0-1.463.253-2.55.759-3.261.506-.711 1.299-1.066 2.379-1.066 1.071 0 1.86.344 2.365 1.032.506.684.766 1.741.78 3.172v1.641zm-1.265-1.73c0-1.071-.15-1.85-.451-2.338-.301-.492-.777-.738-1.429-.738-.647 0-1.119.244-1.415.731-.296.488-.449 1.238-.458 2.249v2.024c0 1.075.155 1.871.465 2.386.314.51.788.765 1.422.765.624 0 1.087-.241 1.388-.724.305-.483.464-1.245.478-2.284v-2.071zm9.126 1.73c0 1.481-.253 2.581-.759 3.301-.506.72-1.296 1.08-2.372 1.08-1.062 0-1.848-.35-2.358-1.052-.511-.707-.775-1.759-.793-3.158v-1.689c0-1.463.253-2.55.759-3.261.505-.711 1.298-1.066 2.378-1.066 1.071 0 1.86.344 2.366 1.032.506.684.765 1.741.779 3.172v1.641zm-1.265-1.73c0-1.071-.15-1.85-.451-2.338-.301-.492-.777-.738-1.429-.738-.647 0-1.118.244-1.415.731-.296.488-.448 1.238-.458 2.249v2.024c0 1.075.155 1.871.465 2.386.315.51.789.765 1.422.765.625 0 1.087-.241 1.388-.724.305-.483.465-1.245.478-2.284v-2.071zM344.46 213.557c0 1.481-.253 2.582-.759 3.302-.506.72-1.296 1.08-2.372 1.08-1.062 0-1.848-.351-2.358-1.053-.511-.706-.775-1.759-.793-3.158v-1.688c0-1.463.253-2.55.759-3.261.505-.711 1.298-1.066 2.378-1.066 1.071 0 1.86.344 2.366 1.032.506.683.765 1.741.779 3.172v1.64zm-1.265-1.729c0-1.071-.15-1.85-.451-2.338-.301-.492-.777-.738-1.429-.738-.647 0-1.118.244-1.415.731-.296.488-.449 1.237-.458 2.249v2.024c0 1.075.155 1.87.465 2.385.315.511.789.766 1.422.766.624 0 1.087-.242 1.388-.725.305-.483.465-1.244.478-2.283v-2.071zm2.974 5.311a.8.8 0 01.191-.546c.133-.146.328-.219.588-.219.26 0 .456.073.588.219a.765.765 0 01.205.546c0 .21-.068.385-.205.527-.132.141-.328.212-.588.212-.26 0-.455-.071-.588-.212a.76.76 0 01-.191-.527zm.007-6.036c0-.218.064-.401.191-.547.132-.145.328-.218.588-.218.26 0 .456.073.588.218a.77.77 0 01.205.547c0 .21-.068.385-.205.527-.132.141-.328.212-.588.212-.26 0-.456-.071-.588-.212a.76.76 0 01-.191-.527zm5.134 1.108h.95c.597-.009 1.066-.167 1.408-.472.342-.305.513-.718.513-1.237 0-1.167-.581-1.75-1.743-1.75-.547 0-.985.157-1.313.471-.324.31-.485.723-.485 1.238h-1.265c0-.789.287-1.443.861-1.962.579-.524 1.313-.786 2.202-.786.938 0 1.674.248 2.208.745.533.497.799 1.187.799 2.071 0 .433-.141.852-.424 1.258a2.516 2.516 0 01-1.141.909c.547.173.968.46 1.265.861.3.401.451.891.451 1.47 0 .893-.292 1.602-.875 2.126-.584.524-1.342.786-2.277.786-.934 0-1.695-.253-2.283-.759-.583-.505-.875-1.173-.875-2.003h1.272c0 .525.171.944.512 1.258.342.315.8.472 1.374.472.611 0 1.078-.16 1.402-.479.323-.319.485-.777.485-1.374 0-.578-.178-1.023-.533-1.333-.356-.309-.868-.469-1.538-.478h-.95v-1.032zm12.263 1.346c0 1.481-.253 2.582-.759 3.302-.505.72-1.296 1.08-2.372 1.08-1.061 0-1.848-.351-2.358-1.053-.51-.706-.775-1.759-.793-3.158v-1.688c0-1.463.253-2.55.759-3.261.506-.711 1.299-1.066 2.379-1.066 1.071 0 1.859.344 2.365 1.032.506.683.766 1.741.779 3.172v1.64zm-1.264-1.729c0-1.071-.151-1.85-.452-2.338-.3-.492-.777-.738-1.428-.738-.647 0-1.119.244-1.415.731-.297.488-.449 1.237-.458 2.249v2.024c0 1.075.155 1.87.465 2.385.314.511.788.766 1.421.766.625 0 1.087-.242 1.388-.725.305-.483.465-1.244.479-2.283v-2.071zM415.958 186.296h-6.521v-.909l3.445-3.828c.51-.579.861-1.048 1.053-1.408.196-.365.294-.741.294-1.128 0-.52-.158-.946-.472-1.278-.315-.333-.734-.499-1.258-.499-.629 0-1.119.18-1.47.54-.346.355-.519.852-.519 1.49h-1.265c0-.916.294-1.657.882-2.222.592-.565 1.383-.847 2.372-.847.925 0 1.657.243 2.194.731.538.483.807 1.128.807 1.935 0 .979-.624 2.146-1.873 3.5l-2.666 2.891h4.997v1.032zm1.429-.663c0-.218.064-.401.191-.547.132-.145.328-.218.588-.218.26 0 .456.073.588.218a.77.77 0 01.205.547c0 .21-.068.385-.205.527-.132.141-.328.212-.588.212-.26 0-.456-.071-.588-.212a.76.76 0 01-.191-.527zm.007-6.036c0-.219.063-.401.191-.547.132-.146.328-.218.588-.218.26 0 .456.072.588.218a.772.772 0 01.205.547c0 .21-.069.385-.205.527-.132.141-.328.211-.588.211-.26 0-.456-.07-.588-.211a.756.756 0 01-.191-.527zm9.536 2.454c0 1.481-.253 2.582-.759 3.302-.506.72-1.297 1.08-2.372 1.08-1.062 0-1.848-.351-2.359-1.053-.51-.706-.774-1.759-.793-3.158v-1.688c0-1.463.253-2.55.759-3.261.506-.711 1.299-1.066 2.379-1.066 1.071 0 1.86.344 2.365 1.032.506.683.766 1.741.78 3.172v1.64zm-1.265-1.729c0-1.071-.15-1.85-.451-2.338-.301-.492-.777-.738-1.429-.738-.647 0-1.119.243-1.415.731-.296.488-.449 1.237-.458 2.249v2.024c0 1.075.155 1.87.465 2.385.314.511.788.766 1.422.766.624 0 1.087-.242 1.388-.725.305-.483.464-1.244.478-2.283v-2.071zm9.126 1.729c0 1.481-.253 2.582-.759 3.302-.506.72-1.296 1.08-2.372 1.08-1.062 0-1.848-.351-2.358-1.053-.511-.706-.775-1.759-.793-3.158v-1.688c0-1.463.253-2.55.759-3.261.505-.711 1.298-1.066 2.378-1.066 1.071 0 1.86.344 2.366 1.032.506.683.765 1.741.779 3.172v1.64zm-1.265-1.729c0-1.071-.15-1.85-.451-2.338-.301-.492-.777-.738-1.429-.738-.647 0-1.118.243-1.415.731-.296.488-.448 1.237-.458 2.249v2.024c0 1.075.155 1.87.465 2.385.315.511.789.766 1.422.766.625 0 1.087-.242 1.388-.725.305-.483.465-1.244.478-2.283v-2.071zM402.549 154.79h-1.272v-8.429l-2.549.937v-1.149l3.623-1.36h.198v10.001zm3.794-.663c0-.219.064-.401.191-.547.132-.146.328-.219.588-.219.26 0 .456.073.588.219a.767.767 0 01.205.547c0 .21-.068.385-.205.526-.132.142-.328.212-.588.212-.26 0-.456-.07-.588-.212a.757.757 0 01-.191-.526zm.007-6.036c0-.219.063-.401.191-.547.132-.146.328-.219.588-.219.26 0 .456.073.588.219a.767.767 0 01.205.547.726.726 0 01-.205.526c-.132.141-.328.212-.588.212-.26 0-.456-.071-.588-.212a.754.754 0 01-.191-.526zm3.876 1.709l.505-4.963h5.1v1.169h-4.026l-.301 2.714a3.213 3.213 0 011.661-.431c.907 0 1.627.301 2.16.902.533.597.8 1.406.8 2.427 0 1.026-.278 1.834-.834 2.427-.551.588-1.324.882-2.317.882-.88 0-1.598-.244-2.154-.732-.556-.487-.872-1.162-.95-2.023h1.196c.078.57.281 1 .609 1.292.328.287.761.431 1.299.431.588 0 1.048-.201 1.38-.602.338-.401.506-.955.506-1.661 0-.666-.182-1.199-.547-1.6-.36-.405-.84-.608-1.442-.608-.551 0-.984.121-1.299.362l-.335.274-1.011-.26zm13.521.745c0 1.481-.253 2.582-.759 3.302-.506.72-1.296 1.08-2.372 1.08-1.062 0-1.848-.351-2.358-1.053-.511-.706-.775-1.759-.793-3.158v-1.689c0-1.463.253-2.549.759-3.26.505-.711 1.298-1.067 2.379-1.067 1.071 0 1.859.344 2.365 1.032.506.684.765 1.741.779 3.172v1.641zm-1.265-1.73c0-1.071-.15-1.85-.451-2.337-.301-.493-.777-.739-1.428-.739-.648 0-1.119.244-1.415.732-.297.487-.449 1.237-.459 2.249v2.023c0 1.076.155 1.871.465 2.386.315.51.789.766 1.422.766.625 0 1.087-.242 1.388-.725.305-.483.465-1.244.478-2.283v-2.072zM437.784 123.284h-6.521v-.909l3.445-3.828c.51-.579.861-1.049 1.053-1.409a2.35 2.35 0 00.294-1.128c0-.519-.158-.945-.472-1.278-.314-.333-.734-.499-1.258-.499-.629 0-1.119.18-1.47.54-.346.356-.519.852-.519 1.49h-1.265c0-.916.294-1.656.882-2.221.593-.565 1.383-.848 2.372-.848.925 0 1.657.244 2.195.732.537.483.806 1.127.806 1.934 0 .98-.624 2.147-1.873 3.5l-2.666 2.892h4.997v1.032zm1.429-.663c0-.219.064-.401.191-.547.132-.146.328-.219.588-.219.26 0 .456.073.588.219a.767.767 0 01.205.547.726.726 0 01-.205.526c-.132.141-.328.212-.588.212-.26 0-.456-.071-.588-.212a.758.758 0 01-.191-.526zm.007-6.036c0-.219.064-.401.191-.547.132-.146.328-.219.588-.219.26 0 .456.073.588.219a.767.767 0 01.205.547.726.726 0 01-.205.526c-.132.141-.328.212-.588.212-.26 0-.456-.071-.588-.212a.758.758 0 01-.191-.526zm5.134 1.107h.95c.597-.009 1.066-.166 1.408-.472.342-.305.513-.717.513-1.237 0-1.167-.581-1.75-1.744-1.75-.546 0-.984.157-1.312.472-.324.31-.485.722-.485 1.237h-1.265c0-.788.287-1.442.861-1.962.579-.524 1.313-.786 2.201-.786.939 0 1.675.248 2.208.745.534.497.8 1.187.8 2.071 0 .433-.141.853-.424 1.258a2.51 2.51 0 01-1.141.909c.547.174.968.461 1.264.862.301.401.452.891.452 1.47 0 .893-.292 1.601-.875 2.126-.584.524-1.342.786-2.277.786-.934 0-1.695-.253-2.283-.759-.583-.506-.875-1.174-.875-2.003h1.272c0 .524.17.943.512 1.258.342.314.8.471 1.374.471.611 0 1.078-.159 1.402-.478.323-.319.485-.777.485-1.374 0-.579-.178-1.023-.533-1.333-.356-.31-.868-.47-1.538-.479h-.95v-1.032zm12.263 1.347c0 1.481-.253 2.582-.759 3.302-.505.72-1.296 1.08-2.372 1.08-1.062 0-1.848-.351-2.358-1.053-.51-.706-.775-1.759-.793-3.158v-1.689c0-1.463.253-2.55.759-3.261.506-.71 1.299-1.066 2.379-1.066 1.071 0 1.859.344 2.365 1.032.506.684.766 1.741.779 3.172v1.641zm-1.264-1.73c0-1.071-.151-1.85-.452-2.338-.3-.492-.777-.738-1.428-.738-.647 0-1.119.244-1.415.732-.297.487-.449 1.237-.458 2.249v2.023c0 1.076.155 1.871.464 2.386.315.51.789.765 1.422.765.625 0 1.087-.241 1.388-.724.305-.483.465-1.244.479-2.283v-2.072z" fill="#3D4853"/>
  <defs>
    <filter id="filter0_d" x="0" y="0" width="335.304" height="448" filterUnits="userSpaceOnUse" color-interpolation-filters="sRGB">
      <feFlood flood-opacity="0" result="BackgroundImageFix"/>
      <feColorMatrix in="SourceAlpha" values="0 0 0 0 0 0 0 0 0 0 0 0 0 0 0 0 0 0 127 0"/>
      <feOffset/>
      <feGaussianBlur stdDeviation="25"/>
      <feColorMatrix values="0 0 0 0 0.00392157 0 0 0 0 0.341176 0 0 0 0 0.607843 0 0 0 0.1 0"/>
      <feBlend in2="BackgroundImageFix" result="effect1_dropShadow"/>
      <feBlend in="SourceGraphic" in2="effect1_dropShadow" result="shape"/>
    </filter>
    <filter id="filter1_d" x="214" y="21" width="309" height="320" filterUnits="userSpaceOnUse" color-interpolation-filters="sRGB">
      <feFlood flood-opacity="0" result="BackgroundImageFix"/>
      <feColorMatrix in="SourceAlpha" values="0 0 0 0 0 0 0 0 0 0 0 0 0 0 0 0 0 0 127 0"/>
      <feOffset/>
      <feGaussianBlur stdDeviation="25"/>
      <feColorMatrix values="0 0 0 0 0.00392157 0 0 0 0 0.341176 0 0 0 0 0.607843 0 0 0 0.1 0"/>
      <feBlend in2="BackgroundImageFix" result="effect1_dropShadow"/>
      <feBlend in="SourceGraphic" in2="effect1_dropShadow" result="shape"/>
    </filter>
  </defs>
</svg>
