<svg width="522" height="420" viewBox="0 0 522 420" fill="none" xmlns="http://www.w3.org/2000/svg">
<g filter="url(#filter0_d)">
<path d="M50 54C50 51.7909 51.7909 50 54 50H468C470.209 50 472 51.7909 472 54V366C472 368.209 470.209 370 468 370H54C51.7909 370 50 368.209 50 366V54Z" fill="white"/>
</g>
<rect x="62.5" y="180.5" width="397" height="59" rx="3.5" fill="white" stroke="#C6D2D9"/>
<path d="M140.096 211.727L140.288 213.039L140.568 211.857L142.537 204.911H143.644L145.565 211.857L145.838 213.06L146.05 211.72L147.595 204.911H148.915L146.501 214.865H145.305L143.254 207.612L143.097 206.853L142.94 207.612L140.814 214.865H139.618L137.211 204.911H138.524L140.096 211.727ZM153.604 208.603C153.413 208.571 153.205 208.555 152.982 208.555C152.153 208.555 151.59 208.908 151.293 209.615V214.865H150.029V207.468H151.259L151.28 208.323C151.694 207.662 152.282 207.331 153.043 207.331C153.29 207.331 153.476 207.363 153.604 207.427V208.603ZM156.147 214.865H154.882V207.468H156.147V214.865ZM154.78 205.506C154.78 205.301 154.841 205.128 154.964 204.987C155.092 204.845 155.279 204.775 155.525 204.775C155.771 204.775 155.958 204.845 156.085 204.987C156.213 205.128 156.277 205.301 156.277 205.506C156.277 205.711 156.213 205.882 156.085 206.019C155.958 206.156 155.771 206.224 155.525 206.224C155.279 206.224 155.092 206.156 154.964 206.019C154.841 205.882 154.78 205.711 154.78 205.506ZM159.893 205.677V207.468H161.274V208.446H159.893V213.032C159.893 213.329 159.955 213.552 160.078 213.702C160.201 213.848 160.41 213.921 160.707 213.921C160.852 213.921 161.053 213.894 161.308 213.839V214.865C160.975 214.956 160.652 215.001 160.337 215.001C159.772 215.001 159.346 214.83 159.059 214.489C158.772 214.147 158.628 213.661 158.628 213.032V208.446H157.282V207.468H158.628V205.677H159.893ZM164.131 214.865H162.867V207.468H164.131V214.865ZM162.764 205.506C162.764 205.301 162.826 205.128 162.949 204.987C163.076 204.845 163.263 204.775 163.509 204.775C163.755 204.775 163.942 204.845 164.07 204.987C164.197 205.128 164.261 205.301 164.261 205.506C164.261 205.711 164.197 205.882 164.07 206.019C163.942 206.156 163.755 206.224 163.509 206.224C163.263 206.224 163.076 206.156 162.949 206.019C162.826 205.882 162.764 205.711 162.764 205.506ZM167.358 207.468L167.399 208.398C167.964 207.687 168.702 207.331 169.614 207.331C171.177 207.331 171.965 208.213 171.979 209.977V214.865H170.714V209.97C170.71 209.437 170.587 209.043 170.345 208.787C170.108 208.532 169.737 208.405 169.231 208.405C168.821 208.405 168.461 208.514 168.151 208.733C167.841 208.951 167.599 209.239 167.426 209.594V214.865H166.162V207.468H167.358ZM173.585 211.105C173.585 209.952 173.852 209.036 174.385 208.357C174.918 207.673 175.625 207.331 176.504 207.331C177.407 207.331 178.111 207.65 178.617 208.288L178.678 207.468H179.833V214.687C179.833 215.644 179.549 216.398 178.979 216.949C178.414 217.501 177.653 217.777 176.696 217.777C176.163 217.777 175.641 217.663 175.13 217.435C174.62 217.207 174.23 216.895 173.961 216.498L174.618 215.74C175.16 216.409 175.823 216.744 176.607 216.744C177.222 216.744 177.701 216.571 178.042 216.225C178.389 215.878 178.562 215.391 178.562 214.762V214.126C178.056 214.71 177.366 215.001 176.491 215.001C175.625 215.001 174.923 214.653 174.385 213.955C173.852 213.258 173.585 212.308 173.585 211.105ZM174.857 211.248C174.857 212.082 175.028 212.739 175.37 213.217C175.711 213.691 176.19 213.928 176.805 213.928C177.603 213.928 178.188 213.566 178.562 212.841V209.464C178.175 208.758 177.594 208.405 176.819 208.405C176.204 208.405 175.723 208.644 175.376 209.122C175.03 209.601 174.857 210.309 174.857 211.248ZM189.787 214.865C189.714 214.719 189.654 214.459 189.609 214.085C189.021 214.696 188.319 215.001 187.503 215.001C186.774 215.001 186.175 214.796 185.706 214.386C185.241 213.971 185.008 213.447 185.008 212.814C185.008 212.044 185.3 211.447 185.883 211.023C186.471 210.594 187.296 210.38 188.358 210.38H189.588V209.799C189.588 209.357 189.456 209.006 189.192 208.746C188.928 208.482 188.538 208.35 188.023 208.35C187.572 208.35 187.194 208.464 186.888 208.692C186.583 208.92 186.43 209.195 186.43 209.519H185.159C185.159 209.15 185.289 208.794 185.548 208.452C185.813 208.106 186.168 207.833 186.615 207.632C187.066 207.432 187.56 207.331 188.098 207.331C188.95 207.331 189.618 207.545 190.101 207.974C190.584 208.398 190.835 208.983 190.853 209.731V213.135C190.853 213.814 190.94 214.354 191.113 214.755V214.865H189.787ZM187.688 213.901C188.084 213.901 188.46 213.798 188.816 213.593C189.171 213.388 189.429 213.121 189.588 212.793V211.276H188.597C187.048 211.276 186.273 211.729 186.273 212.636C186.273 213.032 186.405 213.342 186.669 213.566C186.934 213.789 187.273 213.901 187.688 213.901ZM196.411 208.603C196.219 208.571 196.012 208.555 195.789 208.555C194.959 208.555 194.396 208.908 194.1 209.615V214.865H192.835V207.468H194.066L194.086 208.323C194.501 207.662 195.089 207.331 195.85 207.331C196.096 207.331 196.283 207.363 196.411 207.427V208.603ZM199.637 205.677V207.468H201.018V208.446H199.637V213.032C199.637 213.329 199.699 213.552 199.822 213.702C199.945 213.848 200.154 213.921 200.451 213.921C200.597 213.921 200.797 213.894 201.052 213.839V214.865C200.72 214.956 200.396 215.001 200.082 215.001C199.516 215.001 199.09 214.83 198.803 214.489C198.516 214.147 198.373 213.661 198.373 213.032V208.446H197.026V207.468H198.373V205.677H199.637ZM203.875 214.865H202.611V207.468H203.875V214.865ZM202.508 205.506C202.508 205.301 202.57 205.128 202.693 204.987C202.82 204.845 203.007 204.775 203.253 204.775C203.5 204.775 203.686 204.845 203.814 204.987C203.942 205.128 204.005 205.301 204.005 205.506C204.005 205.711 203.942 205.882 203.814 206.019C203.686 206.156 203.5 206.224 203.253 206.224C203.007 206.224 202.82 206.156 202.693 206.019C202.57 205.882 202.508 205.711 202.508 205.506ZM208.873 213.969C209.324 213.969 209.718 213.832 210.055 213.559C210.392 213.285 210.579 212.944 210.616 212.533H211.812C211.789 212.957 211.643 213.361 211.375 213.743C211.106 214.126 210.746 214.432 210.294 214.659C209.848 214.887 209.374 215.001 208.873 215.001C207.865 215.001 207.063 214.666 206.466 213.996C205.874 213.322 205.578 212.401 205.578 211.235V211.023C205.578 210.303 205.71 209.662 205.974 209.102C206.238 208.541 206.617 208.106 207.109 207.796C207.606 207.486 208.191 207.331 208.866 207.331C209.695 207.331 210.383 207.58 210.93 208.076C211.482 208.573 211.776 209.218 211.812 210.011H210.616C210.579 209.532 210.397 209.141 210.069 208.835C209.745 208.525 209.344 208.37 208.866 208.37C208.223 208.37 207.724 208.603 207.369 209.068C207.018 209.528 206.842 210.196 206.842 211.071V211.31C206.842 212.162 207.018 212.818 207.369 213.279C207.72 213.739 208.221 213.969 208.873 213.969ZM214.608 214.865H213.343V204.365H214.608V214.865ZM219.708 215.001C218.705 215.001 217.889 214.673 217.26 214.017C216.631 213.356 216.317 212.474 216.317 211.371V211.139C216.317 210.405 216.456 209.751 216.734 209.177C217.016 208.598 217.408 208.147 217.91 207.823C218.416 207.495 218.962 207.331 219.55 207.331C220.512 207.331 221.259 207.648 221.792 208.281C222.326 208.915 222.592 209.822 222.592 211.002V211.529H217.582C217.6 212.258 217.812 212.848 218.217 213.299C218.627 213.746 219.147 213.969 219.776 213.969C220.222 213.969 220.601 213.878 220.911 213.696C221.221 213.513 221.492 213.272 221.724 212.971L222.497 213.573C221.877 214.525 220.947 215.001 219.708 215.001ZM219.55 208.37C219.04 208.37 218.611 208.557 218.265 208.931C217.919 209.3 217.705 209.82 217.623 210.49H221.328V210.394C221.291 209.751 221.118 209.254 220.808 208.904C220.498 208.548 220.079 208.37 219.55 208.37Z" fill="#3D4853"/>
<line x1="370.459" y1="188.37" x2="370.459" y2="230.404" stroke="#C6D2D9"/>
<rect x="62.5" y="121.5" width="397" height="59" rx="3.5" fill="white" stroke="#C6D2D9"/>
<mask id="mask0" mask-type="alpha" maskUnits="userSpaceOnUse" x="80" y="136" width="30" height="30">
<circle cx="95" cy="151" r="14.5" fill="#84D2F6" stroke="#3D4853"/>
</mask>
<g mask="url(#mask0)">
<path d="M85.5 165C85.5 161.41 88.4101 158.5 92 158.5H98C101.59 158.5 104.5 161.41 104.5 165V169C104.5 172.59 101.59 175.5 98 175.5H92C88.4101 175.5 85.5 172.59 85.5 169V165Z" fill="white" stroke="#3D4853"/>
<circle cx="95" cy="150" r="5.5" fill="white" stroke="#3D4853"/>
<path d="M100 143V147H89.6381V143H100Z" fill="white"/>
<path d="M89.6381 147V143H100V147H89.6381ZM89.6381 147H84" stroke="#3D4853"/>
<circle cx="95" cy="151" r="14.5" stroke="#3D4853"/>
</g>
<path d="M145.271 153.401C145.148 154.454 144.758 155.267 144.102 155.842C143.45 156.411 142.582 156.696 141.498 156.696C140.322 156.696 139.378 156.274 138.667 155.431C137.961 154.588 137.608 153.46 137.608 152.048V151.091C137.608 150.165 137.772 149.352 138.1 148.65C138.433 147.948 138.902 147.411 139.508 147.037C140.114 146.659 140.816 146.469 141.614 146.469C142.671 146.469 143.519 146.766 144.157 147.358C144.795 147.946 145.166 148.762 145.271 149.805H143.952C143.838 149.012 143.589 148.438 143.207 148.083C142.828 147.727 142.297 147.55 141.614 147.55C140.775 147.55 140.117 147.859 139.638 148.479C139.164 149.099 138.927 149.981 138.927 151.125V152.089C138.927 153.169 139.153 154.028 139.604 154.666C140.055 155.304 140.686 155.623 141.498 155.623C142.227 155.623 142.785 155.459 143.172 155.131C143.564 154.798 143.824 154.221 143.952 153.401H145.271ZM148.245 156.559H146.98V146.059H148.245V156.559ZM151.649 156.559H150.384V149.163H151.649V156.559ZM150.282 147.201C150.282 146.996 150.343 146.823 150.466 146.681C150.594 146.54 150.781 146.469 151.027 146.469C151.273 146.469 151.46 146.54 151.587 146.681C151.715 146.823 151.779 146.996 151.779 147.201C151.779 147.406 151.715 147.577 151.587 147.714C151.46 147.85 151.273 147.919 151.027 147.919C150.781 147.919 150.594 147.85 150.466 147.714C150.343 147.577 150.282 147.406 150.282 147.201ZM156.749 156.696C155.746 156.696 154.93 156.368 154.301 155.712C153.672 155.051 153.358 154.169 153.358 153.066V152.834C153.358 152.1 153.497 151.446 153.775 150.872C154.057 150.293 154.449 149.842 154.951 149.518C155.457 149.19 156.003 149.026 156.591 149.026C157.553 149.026 158.3 149.343 158.833 149.976C159.367 150.61 159.633 151.517 159.633 152.697V153.223H154.623C154.641 153.953 154.853 154.543 155.258 154.994C155.668 155.441 156.188 155.664 156.817 155.664C157.264 155.664 157.642 155.573 157.952 155.39C158.262 155.208 158.533 154.967 158.765 154.666L159.538 155.267C158.918 156.22 157.988 156.696 156.749 156.696ZM156.591 150.065C156.081 150.065 155.653 150.252 155.306 150.626C154.96 150.995 154.746 151.514 154.664 152.184H158.369V152.089C158.332 151.446 158.159 150.949 157.849 150.598C157.539 150.243 157.12 150.065 156.591 150.065ZM162.299 149.163L162.34 150.093C162.905 149.382 163.644 149.026 164.555 149.026C166.118 149.026 166.907 149.908 166.92 151.672V156.559H165.656V151.665C165.651 151.132 165.528 150.737 165.287 150.482C165.05 150.227 164.678 150.099 164.172 150.099C163.762 150.099 163.402 150.209 163.092 150.427C162.782 150.646 162.541 150.933 162.368 151.289V156.559H161.103V149.163H162.299ZM170.543 147.372V149.163H171.924V150.14H170.543V154.727C170.543 155.024 170.605 155.247 170.728 155.397C170.851 155.543 171.061 155.616 171.357 155.616C171.503 155.616 171.703 155.589 171.958 155.534V156.559C171.626 156.65 171.302 156.696 170.988 156.696C170.423 156.696 169.997 156.525 169.709 156.183C169.422 155.842 169.279 155.356 169.279 154.727V150.14H167.932V149.163H169.279V147.372H170.543ZM178.07 149.163L178.104 149.983C178.646 149.345 179.378 149.026 180.298 149.026C181.333 149.026 182.037 149.423 182.411 150.216C182.657 149.86 182.976 149.573 183.368 149.354C183.764 149.135 184.231 149.026 184.769 149.026C186.391 149.026 187.216 149.885 187.244 151.603V156.559H185.979V151.678C185.979 151.15 185.858 150.756 185.617 150.496C185.375 150.232 184.97 150.099 184.4 150.099C183.931 150.099 183.541 150.241 183.231 150.523C182.921 150.801 182.741 151.177 182.691 151.651V156.559H181.419V151.713C181.419 150.637 180.893 150.099 179.84 150.099C179.011 150.099 178.444 150.453 178.138 151.159V156.559H176.874V149.163H178.07ZM192.227 156.696C191.224 156.696 190.409 156.368 189.78 155.712C189.151 155.051 188.836 154.169 188.836 153.066V152.834C188.836 152.1 188.975 151.446 189.253 150.872C189.536 150.293 189.928 149.842 190.429 149.518C190.935 149.19 191.482 149.026 192.07 149.026C193.031 149.026 193.779 149.343 194.312 149.976C194.845 150.61 195.112 151.517 195.112 152.697V153.223H190.101C190.119 153.953 190.331 154.543 190.737 154.994C191.147 155.441 191.667 155.664 192.295 155.664C192.742 155.664 193.12 155.573 193.43 155.39C193.74 155.208 194.011 154.967 194.244 154.666L195.016 155.267C194.396 156.22 193.467 156.696 192.227 156.696ZM192.07 150.065C191.559 150.065 191.131 150.252 190.785 150.626C190.438 150.995 190.224 151.514 190.142 152.184H193.847V152.089C193.811 151.446 193.638 150.949 193.328 150.598C193.018 150.243 192.598 150.065 192.07 150.065ZM199.651 156.696C198.648 156.696 197.833 156.368 197.204 155.712C196.575 155.051 196.26 154.169 196.26 153.066V152.834C196.26 152.1 196.399 151.446 196.677 150.872C196.96 150.293 197.352 149.842 197.853 149.518C198.359 149.19 198.906 149.026 199.494 149.026C200.455 149.026 201.203 149.343 201.736 149.976C202.269 150.61 202.536 151.517 202.536 152.697V153.223H197.525C197.543 153.953 197.755 154.543 198.161 154.994C198.571 155.441 199.09 155.664 199.719 155.664C200.166 155.664 200.544 155.573 200.854 155.39C201.164 155.208 201.435 154.967 201.667 154.666L202.44 155.267C201.82 156.22 200.89 156.696 199.651 156.696ZM199.494 150.065C198.983 150.065 198.555 150.252 198.208 150.626C197.862 150.995 197.648 151.514 197.566 152.184H201.271V152.089C201.235 151.446 201.061 150.949 200.751 150.598C200.442 150.243 200.022 150.065 199.494 150.065ZM205.721 147.372V149.163H207.102V150.14H205.721V154.727C205.721 155.024 205.783 155.247 205.906 155.397C206.029 155.543 206.238 155.616 206.535 155.616C206.681 155.616 206.881 155.589 207.136 155.534V156.559C206.804 156.65 206.48 156.696 206.166 156.696C205.6 156.696 205.174 156.525 204.887 156.183C204.6 155.842 204.457 155.356 204.457 154.727V150.14H203.11V149.163H204.457V147.372H205.721ZM209.959 156.559H208.695V149.163H209.959V156.559ZM208.592 147.201C208.592 146.996 208.654 146.823 208.777 146.681C208.904 146.54 209.091 146.469 209.337 146.469C209.583 146.469 209.77 146.54 209.898 146.681C210.026 146.823 210.089 146.996 210.089 147.201C210.089 147.406 210.026 147.577 209.898 147.714C209.77 147.85 209.583 147.919 209.337 147.919C209.091 147.919 208.904 147.85 208.777 147.714C208.654 147.577 208.592 147.406 208.592 147.201ZM213.186 149.163L213.227 150.093C213.792 149.382 214.53 149.026 215.442 149.026C217.005 149.026 217.793 149.908 217.807 151.672V156.559H216.542V151.665C216.538 151.132 216.415 150.737 216.173 150.482C215.936 150.227 215.565 150.099 215.059 150.099C214.649 150.099 214.289 150.209 213.979 150.427C213.669 150.646 213.428 150.933 213.254 151.289V156.559H211.99V149.163H213.186ZM219.414 152.8C219.414 151.647 219.68 150.731 220.213 150.052C220.747 149.368 221.453 149.026 222.333 149.026C223.235 149.026 223.939 149.345 224.445 149.983L224.506 149.163H225.662V156.382C225.662 157.339 225.377 158.093 224.807 158.644C224.242 159.196 223.481 159.471 222.524 159.471C221.991 159.471 221.469 159.358 220.958 159.13C220.448 158.902 220.058 158.59 219.79 158.193L220.446 157.434C220.988 158.104 221.651 158.439 222.435 158.439C223.05 158.439 223.529 158.266 223.871 157.92C224.217 157.573 224.39 157.086 224.39 156.457V155.821C223.884 156.404 223.194 156.696 222.319 156.696C221.453 156.696 220.751 156.347 220.213 155.65C219.68 154.953 219.414 154.003 219.414 152.8ZM220.685 152.943C220.685 153.777 220.856 154.433 221.198 154.912C221.54 155.386 222.018 155.623 222.633 155.623C223.431 155.623 224.016 155.26 224.39 154.536V151.159C224.003 150.453 223.422 150.099 222.647 150.099C222.032 150.099 221.551 150.339 221.205 150.817C220.858 151.296 220.685 152.004 220.685 152.943Z" fill="#3D4853"/>
<line x1="370.459" y1="130.065" x2="370.459" y2="172.099" stroke="#C6D2D9"/>
<rect x="62.5" y="63.5" width="397" height="58" rx="3.5" fill="white" stroke="#C6D2D9"/>
<mask id="mask1" mask-type="alpha" maskUnits="userSpaceOnUse" x="80" y="78" width="30" height="30">
<circle cx="95" cy="93" r="14.5" fill="#84D2F6" stroke="#3D4853"/>
</mask>
<g mask="url(#mask1)">
<path d="M85.5 106C85.5 102.41 88.4101 99.5 92 99.5H98C101.59 99.5 104.5 102.41 104.5 106V110C104.5 113.59 101.59 116.5 98 116.5H92C88.4101 116.5 85.5 113.59 85.5 110V106Z" fill="white" stroke="#3D4853"/>
<circle cx="95" cy="91" r="5.5" fill="white" stroke="#3D4853"/>
<circle cx="95" cy="93" r="14.5" stroke="#3D4853"/>
</g>
<mask id="mask2" mask-type="alpha" maskUnits="userSpaceOnUse" x="80" y="195" width="30" height="30">
<circle cx="95" cy="210" r="14.5" fill="#84D2F6" stroke="#3D4853"/>
</mask>
<g mask="url(#mask2)">
<path d="M86.5 218C86.5 217.172 87.1716 216.5 88 216.5H102C102.828 216.5 103.5 217.172 103.5 218V232C103.5 232.828 102.828 233.5 102 233.5H88C87.1716 233.5 86.5 232.828 86.5 232V218Z" fill="white" stroke="#3D4853"/>
<path d="M89.5 204C89.5 203.172 90.1716 202.5 91 202.5H99C99.8284 202.5 100.5 203.172 100.5 204V212C100.5 212.828 99.8284 213.5 99 213.5H91C90.1716 213.5 89.5 212.828 89.5 212V204Z" fill="white" stroke="#3D4853"/>
<path d="M98 207H93" stroke="#3D4853"/>
<circle cx="95" cy="210" r="14.5" stroke="#3D4853"/>
</g>
<path d="M139.269 97.1809H143.986V98.2542H137.95V88.301H139.269V97.1809ZM149.55 97.5227C149.058 98.1015 148.336 98.3909 147.383 98.3909C146.595 98.3909 145.993 98.163 145.579 97.7073C145.168 97.247 144.961 96.568 144.957 95.6702V90.8577H146.221V95.636C146.221 96.7571 146.677 97.3176 147.588 97.3176C148.555 97.3176 149.197 96.9576 149.516 96.2375V90.8577H150.781V98.2542H149.578L149.55 97.5227ZM153.905 90.8577L153.946 91.7874C154.511 91.0764 155.249 90.7209 156.161 90.7209C157.724 90.7209 158.512 91.6028 158.526 93.3665V98.2542H157.261V93.3596C157.257 92.8264 157.134 92.4322 156.892 92.177C156.655 91.9218 156.284 91.7942 155.778 91.7942C155.368 91.7942 155.008 91.9036 154.698 92.1223C154.388 92.3411 154.146 92.6282 153.973 92.9836V98.2542H152.708V90.8577H153.905ZM163.4 97.3586C163.851 97.3586 164.245 97.2219 164.583 96.9485C164.92 96.675 165.107 96.3333 165.143 95.9231H166.339C166.317 96.3469 166.171 96.7502 165.902 97.1331C165.633 97.5159 165.273 97.8212 164.822 98.0491C164.375 98.2769 163.901 98.3909 163.4 98.3909C162.393 98.3909 161.591 98.0559 160.994 97.386C160.401 96.7115 160.105 95.7909 160.105 94.6243V94.4124C160.105 93.6923 160.237 93.052 160.501 92.4915C160.766 91.9309 161.144 91.4957 161.636 91.1858C162.133 90.8759 162.719 90.7209 163.393 90.7209C164.222 90.7209 164.911 90.9693 165.458 91.4661C166.009 91.9628 166.303 92.6077 166.339 93.4006H165.143C165.107 92.9221 164.924 92.5302 164.596 92.2249C164.273 91.915 163.872 91.76 163.393 91.76C162.75 91.76 162.251 91.9924 161.896 92.4573C161.545 92.9176 161.37 93.5852 161.37 94.4602V94.6995C161.37 95.5517 161.545 96.2079 161.896 96.6682C162.247 97.1285 162.748 97.3586 163.4 97.3586ZM169.026 91.7532C169.586 91.065 170.316 90.7209 171.213 90.7209C172.777 90.7209 173.565 91.6028 173.579 93.3665V98.2542H172.314V93.3596C172.309 92.8264 172.186 92.4322 171.945 92.177C171.708 91.9218 171.336 91.7942 170.831 91.7942C170.42 91.7942 170.06 91.9036 169.75 92.1223C169.441 92.3411 169.199 92.6282 169.026 92.9836V98.2542H167.761V87.7542H169.026V91.7532ZM185.207 94.6379C185.207 95.7681 184.947 96.6773 184.427 97.3655C183.908 98.0491 183.21 98.3909 182.335 98.3909C181.401 98.3909 180.679 98.0605 180.168 97.3997L180.107 98.2542H178.945V87.7542H180.209V91.6711C180.72 91.0377 181.424 90.7209 182.322 90.7209C183.22 90.7209 183.924 91.0605 184.434 91.7395C184.949 92.4185 185.207 93.3482 185.207 94.5286V94.6379ZM183.942 94.4944C183.942 93.6331 183.776 92.9677 183.443 92.4983C183.11 92.0289 182.632 91.7942 182.007 91.7942C181.173 91.7942 180.574 92.1816 180.209 92.9563V96.1555C180.597 96.9303 181.201 97.3176 182.021 97.3176C182.627 97.3176 183.099 97.0829 183.436 96.6135C183.773 96.1441 183.942 95.4377 183.942 94.4944ZM190.381 91.9924C190.19 91.9605 189.983 91.9446 189.759 91.9446C188.93 91.9446 188.367 92.2978 188.071 93.0042V98.2542H186.806V90.8577H188.037L188.057 91.7122C188.472 91.0514 189.06 90.7209 189.821 90.7209C190.067 90.7209 190.254 90.7528 190.381 90.8167V91.9924ZM194.483 98.3909C193.48 98.3909 192.665 98.0627 192.036 97.4065C191.407 96.7457 191.092 95.8639 191.092 94.761V94.5286C191.092 93.7948 191.231 93.1409 191.509 92.5667C191.792 91.9879 192.184 91.5367 192.685 91.2131C193.191 90.885 193.738 90.7209 194.326 90.7209C195.287 90.7209 196.035 91.0377 196.568 91.6711C197.101 92.3046 197.368 93.2115 197.368 94.3918V94.9182H192.357C192.375 95.6474 192.587 96.2375 192.993 96.6887C193.403 97.1353 193.922 97.3586 194.551 97.3586C194.998 97.3586 195.376 97.2675 195.686 97.0852C195.996 96.9029 196.267 96.6614 196.5 96.3606L197.272 96.9622C196.652 97.9146 195.722 98.3909 194.483 98.3909ZM194.326 91.76C193.815 91.76 193.387 91.9469 193.041 92.3206C192.694 92.6897 192.48 93.2092 192.398 93.8792H196.103V93.7834C196.067 93.1409 195.893 92.6441 195.583 92.2932C195.274 91.9377 194.854 91.76 194.326 91.76ZM203.404 98.2542C203.331 98.1083 203.272 97.8486 203.226 97.4749C202.638 98.0855 201.936 98.3909 201.121 98.3909C200.391 98.3909 199.792 98.1858 199.323 97.7756C198.858 97.3609 198.625 96.8368 198.625 96.2034C198.625 95.4332 198.917 94.8362 199.5 94.4124C200.088 93.984 200.913 93.7698 201.975 93.7698H203.206V93.1887C203.206 92.7467 203.073 92.3958 202.809 92.136C202.545 91.8717 202.155 91.7395 201.64 91.7395C201.189 91.7395 200.811 91.8534 200.505 92.0813C200.2 92.3092 200.047 92.5849 200.047 92.9084H198.776C198.776 92.5393 198.906 92.1838 199.166 91.842C199.43 91.4957 199.785 91.2222 200.232 91.0217C200.683 90.8212 201.178 90.7209 201.715 90.7209C202.568 90.7209 203.235 90.9351 203.718 91.3635C204.201 91.7874 204.452 92.373 204.47 93.1204V96.5247C204.47 97.2037 204.557 97.7437 204.73 98.1448V98.2542H203.404ZM201.305 97.2903C201.702 97.2903 202.078 97.1877 202.433 96.9827C202.789 96.7776 203.046 96.511 203.206 96.1829V94.6653H202.214C200.665 94.6653 199.89 95.1187 199.89 96.0256C199.89 96.4221 200.022 96.732 200.287 96.9553C200.551 97.1786 200.89 97.2903 201.305 97.2903ZM208.517 94.8293L207.724 95.6565V98.2542H206.459V87.7542H207.724V94.1047L208.401 93.2913L210.705 90.8577H212.243L209.365 93.9475L212.578 98.2542H211.094L208.517 94.8293Z" fill="#3D4853"/>
<line x1="370.459" y1="73.0508" x2="370.459" y2="115.085" stroke="#C6D2D9"/>
<rect x="62.5" y="238.5" width="397" height="59" rx="3.5" fill="white" stroke="#C6D2D9"/>
<path d="M140.096 270.032L140.288 271.344L140.568 270.162L142.537 263.216H143.644L145.565 270.162L145.838 271.365L146.05 270.025L147.595 263.216H148.915L146.501 273.169H145.305L143.254 265.917L143.097 265.158L142.94 265.917L140.814 273.169H139.618L137.211 263.216H138.524L140.096 270.032ZM153.03 273.306C152.027 273.306 151.211 272.978 150.583 272.322C149.954 271.661 149.639 270.779 149.639 269.676V269.444C149.639 268.71 149.778 268.056 150.056 267.482C150.339 266.903 150.731 266.452 151.232 266.128C151.738 265.8 152.285 265.636 152.873 265.636C153.834 265.636 154.582 265.953 155.115 266.586C155.648 267.22 155.915 268.127 155.915 269.307V269.833H150.904C150.922 270.563 151.134 271.153 151.54 271.604C151.95 272.051 152.469 272.274 153.098 272.274C153.545 272.274 153.923 272.183 154.233 272C154.543 271.818 154.814 271.577 155.046 271.276L155.819 271.877C155.199 272.83 154.269 273.306 153.03 273.306ZM152.873 266.675C152.362 266.675 151.934 266.862 151.587 267.236C151.241 267.605 151.027 268.125 150.945 268.794H154.65V268.699C154.613 268.056 154.44 267.559 154.13 267.208C153.82 266.853 153.401 266.675 152.873 266.675ZM163.646 269.553C163.646 270.683 163.386 271.593 162.867 272.281C162.347 272.964 161.65 273.306 160.775 273.306C159.841 273.306 159.118 272.976 158.608 272.315L158.546 273.169H157.384V262.669H158.649V266.586C159.159 265.953 159.863 265.636 160.761 265.636C161.659 265.636 162.363 265.976 162.874 266.655C163.389 267.334 163.646 268.264 163.646 269.444V269.553ZM162.381 269.41C162.381 268.548 162.215 267.883 161.882 267.414C161.55 266.944 161.071 266.709 160.447 266.709C159.613 266.709 159.014 267.097 158.649 267.872V271.071C159.036 271.846 159.64 272.233 160.46 272.233C161.067 272.233 161.538 271.998 161.875 271.529C162.213 271.059 162.381 270.353 162.381 269.41ZM168.411 269.41C168.411 268.275 168.68 267.363 169.217 266.675C169.755 265.983 170.459 265.636 171.33 265.636C172.195 265.636 172.881 265.932 173.387 266.525V262.669H174.652V273.169H173.49L173.428 272.376C172.922 272.996 172.218 273.306 171.316 273.306C170.459 273.306 169.76 272.955 169.217 272.253C168.68 271.552 168.411 270.636 168.411 269.505V269.41ZM169.675 269.553C169.675 270.392 169.848 271.048 170.195 271.522C170.541 271.996 171.02 272.233 171.63 272.233C172.432 272.233 173.018 271.873 173.387 271.153V267.755C173.009 267.058 172.428 266.709 171.644 266.709C171.024 266.709 170.541 266.949 170.195 267.427C169.848 267.906 169.675 268.614 169.675 269.553ZM179.69 273.306C178.687 273.306 177.872 272.978 177.243 272.322C176.614 271.661 176.299 270.779 176.299 269.676V269.444C176.299 268.71 176.438 268.056 176.716 267.482C176.999 266.903 177.391 266.452 177.892 266.128C178.398 265.8 178.945 265.636 179.533 265.636C180.494 265.636 181.242 265.953 181.775 266.586C182.308 267.22 182.575 268.127 182.575 269.307V269.833H177.564C177.582 270.563 177.794 271.153 178.2 271.604C178.61 272.051 179.129 272.274 179.758 272.274C180.205 272.274 180.583 272.183 180.893 272C181.203 271.818 181.474 271.577 181.707 271.276L182.479 271.877C181.859 272.83 180.93 273.306 179.69 273.306ZM179.533 266.675C179.022 266.675 178.594 266.862 178.248 267.236C177.901 267.605 177.687 268.125 177.605 268.794H181.31V268.699C181.274 268.056 181.1 267.559 180.791 267.208C180.481 266.853 180.061 266.675 179.533 266.675ZM188.351 271.208C188.351 270.866 188.221 270.601 187.961 270.415C187.706 270.223 187.257 270.059 186.615 269.922C185.977 269.786 185.469 269.622 185.09 269.43C184.717 269.239 184.439 269.011 184.256 268.747C184.079 268.482 183.99 268.168 183.99 267.803C183.99 267.197 184.245 266.684 184.755 266.265C185.27 265.846 185.927 265.636 186.724 265.636C187.563 265.636 188.242 265.853 188.761 266.286C189.285 266.719 189.547 267.272 189.547 267.947H188.276C188.276 267.6 188.128 267.302 187.832 267.051C187.54 266.801 187.171 266.675 186.724 266.675C186.264 266.675 185.904 266.776 185.644 266.976C185.384 267.177 185.254 267.439 185.254 267.762C185.254 268.068 185.375 268.298 185.617 268.453C185.858 268.608 186.293 268.756 186.922 268.897C187.556 269.038 188.069 269.207 188.46 269.403C188.852 269.599 189.142 269.836 189.329 270.114C189.52 270.387 189.616 270.722 189.616 271.119C189.616 271.779 189.351 272.31 188.823 272.711C188.294 273.108 187.608 273.306 186.765 273.306C186.173 273.306 185.649 273.201 185.193 272.992C184.737 272.782 184.379 272.49 184.12 272.117C183.864 271.738 183.737 271.331 183.737 270.893H185.001C185.024 271.317 185.193 271.654 185.507 271.905C185.826 272.151 186.246 272.274 186.765 272.274C187.244 272.274 187.626 272.178 187.914 271.987C188.205 271.791 188.351 271.531 188.351 271.208ZM192.637 273.169H191.373V265.773H192.637V273.169ZM191.27 263.811C191.27 263.606 191.332 263.433 191.455 263.292C191.582 263.15 191.769 263.08 192.015 263.08C192.261 263.08 192.448 263.15 192.576 263.292C192.703 263.433 192.767 263.606 192.767 263.811C192.767 264.016 192.703 264.187 192.576 264.324C192.448 264.46 192.261 264.529 192.015 264.529C191.769 264.529 191.582 264.46 191.455 264.324C191.332 264.187 191.27 264.016 191.27 263.811ZM194.367 269.41C194.367 268.257 194.633 267.341 195.167 266.662C195.7 265.978 196.406 265.636 197.286 265.636C198.188 265.636 198.892 265.955 199.398 266.593L199.459 265.773H200.615V272.992C200.615 273.949 200.33 274.703 199.76 275.254C199.195 275.806 198.434 276.082 197.477 276.082C196.944 276.082 196.422 275.968 195.912 275.74C195.401 275.512 195.012 275.2 194.743 274.803L195.399 274.044C195.941 274.714 196.604 275.049 197.388 275.049C198.003 275.049 198.482 274.876 198.824 274.53C199.17 274.183 199.343 273.696 199.343 273.067V272.431C198.837 273.014 198.147 273.306 197.272 273.306C196.406 273.306 195.704 272.958 195.167 272.26C194.633 271.563 194.367 270.613 194.367 269.41ZM195.638 269.553C195.638 270.387 195.809 271.043 196.151 271.522C196.493 271.996 196.971 272.233 197.586 272.233C198.384 272.233 198.97 271.871 199.343 271.146V267.769C198.956 267.063 198.375 266.709 197.6 266.709C196.985 266.709 196.504 266.949 196.158 267.427C195.811 267.906 195.638 268.614 195.638 269.553ZM203.725 265.773L203.766 266.703C204.331 265.992 205.069 265.636 205.981 265.636C207.544 265.636 208.333 266.518 208.346 268.282V273.169H207.082V268.275C207.077 267.742 206.954 267.347 206.712 267.092C206.475 266.837 206.104 266.709 205.598 266.709C205.188 266.709 204.828 266.819 204.518 267.038C204.208 267.256 203.967 267.543 203.793 267.899V273.169H202.529V265.773H203.725Z" fill="#3D4853"/>
<line x1="370.459" y1="247.966" x2="370.459" y2="290" stroke="#C6D2D9"/>
<rect x="62.5" y="297.5" width="397" height="58" rx="3.5" fill="white" stroke="#C6D2D9"/>
<mask id="mask3" mask-type="alpha" maskUnits="userSpaceOnUse" x="80" y="312" width="30" height="30">
<circle cx="95" cy="327" r="14.5" fill="#84D2F6" stroke="#3D4853"/>
</mask>
<g mask="url(#mask3)">
<path d="M104.5 343L99.9792 337.5L104.5 332L99.9792 328.5M89 343V337.5V320L95.5263 325.053M99.9792 328.5L100.273 320L95.5263 325.053M99.9792 328.5L95.5263 325.053" stroke="#3D4853"/>
<circle cx="95" cy="327" r="14.5" stroke="#3D4853"/>
</g>
<mask id="mask4" mask-type="alpha" maskUnits="userSpaceOnUse" x="80" y="253" width="30" height="30">
<circle cx="95" cy="268" r="14.5" fill="#84D2F6" stroke="#3D4853"/>
</mask>
<g mask="url(#mask4)">
<circle cx="95" cy="269" r="5.5" fill="white" stroke="#3D4853"/>
<path d="M101.5 260C101.5 260.022 101.48 260.155 101.17 260.364C100.877 260.562 100.421 260.76 99.8124 260.933C98.6017 261.279 96.9001 261.5 95 261.5C93.0999 261.5 91.3983 261.279 90.1876 260.933C89.5789 260.76 89.1226 260.562 88.83 260.364C88.5199 260.155 88.5 260.022 88.5 260C88.5 259.978 88.5199 259.845 88.83 259.636C89.1226 259.438 89.5789 259.24 90.1876 259.067C91.3983 258.721 93.0999 258.5 95 258.5C96.9001 258.5 98.6017 258.721 99.8124 259.067C100.421 259.24 100.877 259.438 101.17 259.636C101.48 259.845 101.5 259.978 101.5 260Z" fill="white" stroke="#3D4853"/>
<path d="M85.5 284C85.5 280.41 88.4101 277.5 92 277.5H98C101.59 277.5 104.5 280.41 104.5 284V288C104.5 291.59 101.59 294.5 98 294.5H92C88.4101 294.5 85.5 291.59 85.5 288V284Z" fill="white" stroke="#3D4853"/>
<path d="M90.5 277.5L87.4142 274.414C86.1543 273.154 84 274.047 84 275.828V279.5" stroke="#3D4853"/>
<path d="M99.5 277.5L102.586 274.414C103.846 273.154 106 274.047 106 275.828V279.5" stroke="#3D4853"/>
<circle cx="95" cy="268" r="14.5" stroke="#3D4853"/>
</g>
<path d="M141.245 329.731L144.088 321.521H145.524L141.833 331.475H140.67L136.986 321.521H138.415L141.245 329.731ZM150.917 331.475C150.845 331.329 150.785 331.069 150.74 330.695C150.152 331.306 149.45 331.611 148.634 331.611C147.905 331.611 147.306 331.406 146.836 330.996C146.372 330.581 146.139 330.057 146.139 329.424C146.139 328.654 146.431 328.057 147.014 327.633C147.602 327.204 148.427 326.99 149.489 326.99H150.719V326.409C150.719 325.967 150.587 325.616 150.323 325.356C150.058 325.092 149.669 324.96 149.154 324.96C148.703 324.96 148.324 325.074 148.019 325.302C147.714 325.53 147.561 325.805 147.561 326.129H146.29C146.29 325.76 146.419 325.404 146.679 325.062C146.944 324.716 147.299 324.443 147.746 324.242C148.197 324.042 148.691 323.941 149.229 323.941C150.081 323.941 150.749 324.156 151.232 324.584C151.715 325.008 151.966 325.593 151.984 326.341V329.745C151.984 330.424 152.07 330.964 152.244 331.365V331.475H150.917ZM148.819 330.511C149.215 330.511 149.591 330.408 149.947 330.203C150.302 329.998 150.56 329.731 150.719 329.403V327.886H149.728C148.179 327.886 147.404 328.339 147.404 329.246C147.404 329.643 147.536 329.952 147.8 330.176C148.065 330.399 148.404 330.511 148.819 330.511ZM156.933 330.579C157.384 330.579 157.778 330.442 158.116 330.169C158.453 329.896 158.64 329.554 158.676 329.144H159.873C159.85 329.567 159.704 329.971 159.435 330.354C159.166 330.736 158.806 331.042 158.355 331.27C157.908 331.497 157.434 331.611 156.933 331.611C155.926 331.611 155.124 331.276 154.527 330.606C153.934 329.932 153.638 329.011 153.638 327.845V327.633C153.638 326.913 153.77 326.272 154.035 325.712C154.299 325.151 154.677 324.716 155.169 324.406C155.666 324.096 156.252 323.941 156.926 323.941C157.756 323.941 158.444 324.19 158.991 324.687C159.542 325.183 159.836 325.828 159.873 326.621H158.676C158.64 326.143 158.458 325.751 158.129 325.445C157.806 325.135 157.405 324.98 156.926 324.98C156.284 324.98 155.785 325.213 155.429 325.678C155.078 326.138 154.903 326.806 154.903 327.681V327.92C154.903 328.772 155.078 329.428 155.429 329.889C155.78 330.349 156.281 330.579 156.933 330.579ZM165.861 331.475C165.788 331.329 165.729 331.069 165.683 330.695C165.095 331.306 164.393 331.611 163.578 331.611C162.848 331.611 162.249 331.406 161.78 330.996C161.315 330.581 161.083 330.057 161.083 329.424C161.083 328.654 161.374 328.057 161.958 327.633C162.545 327.204 163.37 326.99 164.432 326.99H165.663V326.409C165.663 325.967 165.53 325.616 165.266 325.356C165.002 325.092 164.612 324.96 164.097 324.96C163.646 324.96 163.268 325.074 162.962 325.302C162.657 325.53 162.504 325.805 162.504 326.129H161.233C161.233 325.76 161.363 325.404 161.623 325.062C161.887 324.716 162.242 324.443 162.689 324.242C163.14 324.042 163.635 323.941 164.172 323.941C165.025 323.941 165.692 324.156 166.175 324.584C166.658 325.008 166.909 325.593 166.927 326.341V329.745C166.927 330.424 167.014 330.964 167.187 331.365V331.475H165.861ZM163.762 330.511C164.159 330.511 164.535 330.408 164.89 330.203C165.246 329.998 165.503 329.731 165.663 329.403V327.886H164.671C163.122 327.886 162.347 328.339 162.347 329.246C162.347 329.643 162.479 329.952 162.744 330.176C163.008 330.399 163.347 330.511 163.762 330.511ZM170.625 322.287V324.078H172.006V325.056H170.625V329.643C170.625 329.939 170.687 330.162 170.81 330.312C170.933 330.458 171.143 330.531 171.439 330.531C171.585 330.531 171.785 330.504 172.041 330.449V331.475C171.708 331.566 171.384 331.611 171.07 331.611C170.505 331.611 170.079 331.44 169.792 331.099C169.504 330.757 169.361 330.271 169.361 329.643V325.056H168.014V324.078H169.361V322.287H170.625ZM174.864 331.475H173.599V324.078H174.864V331.475ZM173.497 322.116C173.497 321.911 173.558 321.738 173.681 321.597C173.809 321.455 173.996 321.385 174.242 321.385C174.488 321.385 174.675 321.455 174.802 321.597C174.93 321.738 174.994 321.911 174.994 322.116C174.994 322.321 174.93 322.492 174.802 322.629C174.675 322.766 174.488 322.834 174.242 322.834C173.996 322.834 173.809 322.766 173.681 322.629C173.558 322.492 173.497 322.321 173.497 322.116ZM176.559 327.708C176.559 326.983 176.7 326.332 176.983 325.753C177.27 325.174 177.667 324.728 178.172 324.413C178.683 324.099 179.264 323.941 179.916 323.941C180.923 323.941 181.736 324.29 182.356 324.987C182.98 325.685 183.292 326.612 183.292 327.77V327.858C183.292 328.578 183.153 329.226 182.875 329.8C182.602 330.369 182.208 330.814 181.693 331.133C181.182 331.452 180.595 331.611 179.929 331.611C178.927 331.611 178.113 331.263 177.489 330.565C176.869 329.868 176.559 328.945 176.559 327.797V327.708ZM177.831 327.858C177.831 328.679 178.02 329.337 178.398 329.834C178.781 330.331 179.291 330.579 179.929 330.579C180.572 330.579 181.082 330.328 181.46 329.827C181.839 329.321 182.028 328.615 182.028 327.708C182.028 326.897 181.834 326.241 181.447 325.739C181.064 325.233 180.554 324.98 179.916 324.98C179.291 324.98 178.788 325.229 178.405 325.726C178.022 326.222 177.831 326.933 177.831 327.858ZM186.075 324.078L186.116 325.008C186.681 324.297 187.419 323.941 188.331 323.941C189.894 323.941 190.682 324.823 190.696 326.587V331.475H189.431V326.58C189.427 326.047 189.304 325.653 189.062 325.397C188.825 325.142 188.454 325.015 187.948 325.015C187.538 325.015 187.178 325.124 186.868 325.343C186.558 325.562 186.316 325.849 186.143 326.204V331.475H184.878V324.078H186.075Z" fill="#3D4853"/>
<line x1="370.459" y1="306.271" x2="370.459" y2="348.305" stroke="#C6D2D9"/>
<path d="M260.833 214.865H259.561V206.436L257.011 207.372V206.224L260.634 204.864H260.833V214.865ZM269.405 208.364C269.965 207.675 270.694 207.331 271.592 207.331C273.155 207.331 273.944 208.213 273.958 209.977V214.865H272.693V209.97C272.688 209.437 272.565 209.043 272.324 208.787C272.087 208.532 271.715 208.405 271.209 208.405C270.799 208.405 270.439 208.514 270.129 208.733C269.819 208.951 269.578 209.239 269.405 209.594V214.865H268.14V204.365H269.405V208.364ZM275.516 211.098C275.516 210.373 275.657 209.722 275.94 209.143C276.227 208.564 276.624 208.117 277.129 207.803C277.64 207.489 278.221 207.331 278.873 207.331C279.88 207.331 280.693 207.68 281.313 208.377C281.937 209.074 282.25 210.002 282.25 211.159V211.248C282.25 211.968 282.111 212.615 281.833 213.19C281.559 213.759 281.165 214.204 280.65 214.523C280.139 214.842 279.552 215.001 278.886 215.001C277.884 215.001 277.07 214.653 276.446 213.955C275.826 213.258 275.516 212.335 275.516 211.187V211.098ZM276.788 211.248C276.788 212.069 276.977 212.727 277.355 213.224C277.738 213.721 278.248 213.969 278.886 213.969C279.529 213.969 280.039 213.718 280.417 213.217C280.796 212.711 280.985 212.005 280.985 211.098C280.985 210.287 280.791 209.63 280.404 209.129C280.021 208.623 279.511 208.37 278.873 208.37C278.248 208.37 277.745 208.619 277.362 209.115C276.979 209.612 276.788 210.323 276.788 211.248ZM288.402 214.133C287.91 214.712 287.187 215.001 286.235 215.001C285.446 215.001 284.845 214.773 284.43 214.318C284.02 213.857 283.813 213.178 283.808 212.281V207.468H285.073V212.246C285.073 213.367 285.528 213.928 286.44 213.928C287.406 213.928 288.049 213.568 288.368 212.848V207.468H289.632V214.865H288.429L288.402 214.133ZM295.135 208.603C294.944 208.571 294.736 208.555 294.513 208.555C293.684 208.555 293.121 208.908 292.825 209.615V214.865H291.56V207.468H292.791L292.811 208.323C293.226 207.662 293.814 207.331 294.575 207.331C294.821 207.331 295.008 207.363 295.135 207.427V208.603ZM304.343 214.865C304.27 214.719 304.211 214.459 304.166 214.085C303.578 214.696 302.876 215.001 302.06 215.001C301.331 215.001 300.732 214.796 300.262 214.386C299.797 213.971 299.565 213.447 299.565 212.814C299.565 212.044 299.857 211.447 300.44 211.023C301.028 210.594 301.853 210.38 302.915 210.38H304.145V209.799C304.145 209.357 304.013 209.006 303.749 208.746C303.484 208.482 303.095 208.35 302.58 208.35C302.128 208.35 301.75 208.464 301.445 208.692C301.139 208.92 300.987 209.195 300.987 209.519H299.715C299.715 209.15 299.845 208.794 300.105 208.452C300.369 208.106 300.725 207.833 301.171 207.632C301.623 207.432 302.117 207.331 302.655 207.331C303.507 207.331 304.175 207.545 304.658 207.974C305.141 208.398 305.391 208.983 305.41 209.731V213.135C305.41 213.814 305.496 214.354 305.669 214.755V214.865H304.343ZM302.245 213.901C302.641 213.901 303.017 213.798 303.373 213.593C303.728 213.388 303.986 213.121 304.145 212.793V211.276H303.154C301.604 211.276 300.83 211.729 300.83 212.636C300.83 213.032 300.962 213.342 301.226 213.566C301.49 213.789 301.83 213.901 302.245 213.901ZM307.091 211.105C307.091 209.952 307.358 209.036 307.891 208.357C308.424 207.673 309.131 207.331 310.01 207.331C310.913 207.331 311.617 207.65 312.123 208.288L312.184 207.468H313.339V214.687C313.339 215.644 313.055 216.398 312.485 216.949C311.92 217.501 311.159 217.777 310.202 217.777C309.668 217.777 309.147 217.663 308.636 217.435C308.126 217.207 307.736 216.895 307.467 216.498L308.124 215.74C308.666 216.409 309.329 216.744 310.113 216.744C310.728 216.744 311.207 216.571 311.548 216.225C311.895 215.878 312.068 215.391 312.068 214.762V214.126C311.562 214.71 310.872 215.001 309.997 215.001C309.131 215.001 308.429 214.653 307.891 213.955C307.358 213.258 307.091 212.308 307.091 211.105ZM308.363 211.248C308.363 212.082 308.534 212.739 308.875 213.217C309.217 213.691 309.696 213.928 310.311 213.928C311.109 213.928 311.694 213.566 312.068 212.841V209.464C311.681 208.758 311.099 208.405 310.325 208.405C309.709 208.405 309.229 208.644 308.882 209.122C308.536 209.601 308.363 210.309 308.363 211.248ZM314.918 211.098C314.918 210.373 315.06 209.722 315.342 209.143C315.629 208.564 316.026 208.117 316.532 207.803C317.042 207.489 317.623 207.331 318.275 207.331C319.282 207.331 320.096 207.68 320.715 208.377C321.34 209.074 321.652 210.002 321.652 211.159V211.248C321.652 211.968 321.513 212.615 321.235 213.19C320.961 213.759 320.567 214.204 320.052 214.523C319.542 214.842 318.954 215.001 318.289 215.001C317.286 215.001 316.472 214.653 315.848 213.955C315.228 213.258 314.918 212.335 314.918 211.187V211.098ZM316.19 211.248C316.19 212.069 316.379 212.727 316.757 213.224C317.14 213.721 317.651 213.969 318.289 213.969C318.931 213.969 319.442 213.718 319.82 213.217C320.198 212.711 320.387 212.005 320.387 211.098C320.387 210.287 320.194 209.63 319.806 209.129C319.423 208.623 318.913 208.37 318.275 208.37C317.651 208.37 317.147 208.619 316.764 209.115C316.381 209.612 316.19 210.323 316.19 211.248Z" fill="#78909C"/>
<path d="M263.198 273.169H256.676V272.26L260.122 268.432C260.632 267.853 260.983 267.384 261.174 267.024C261.37 266.659 261.468 266.283 261.468 265.896C261.468 265.376 261.311 264.95 260.997 264.618C260.682 264.285 260.263 264.119 259.739 264.119C259.11 264.119 258.62 264.299 258.269 264.659C257.923 265.014 257.75 265.511 257.75 266.149H256.485C256.485 265.233 256.779 264.492 257.367 263.927C257.959 263.362 258.75 263.08 259.739 263.08C260.664 263.08 261.395 263.323 261.933 263.811C262.471 264.294 262.74 264.939 262.74 265.746C262.74 266.725 262.115 267.892 260.867 269.246L258.201 272.137H263.198V273.169ZM269.405 266.668C269.965 265.98 270.694 265.636 271.592 265.636C273.155 265.636 273.944 266.518 273.958 268.282V273.169H272.693V268.275C272.688 267.742 272.565 267.347 272.324 267.092C272.087 266.837 271.715 266.709 271.209 266.709C270.799 266.709 270.439 266.819 270.129 267.038C269.819 267.256 269.578 267.543 269.405 267.899V273.169H268.14V262.669H269.405V266.668ZM275.516 269.403C275.516 268.678 275.657 268.027 275.94 267.448C276.227 266.869 276.624 266.422 277.129 266.108C277.64 265.793 278.221 265.636 278.873 265.636C279.88 265.636 280.693 265.985 281.313 266.682C281.937 267.379 282.25 268.307 282.25 269.464V269.553C282.25 270.273 282.111 270.92 281.833 271.495C281.559 272.064 281.165 272.509 280.65 272.828C280.139 273.147 279.552 273.306 278.886 273.306C277.884 273.306 277.07 272.958 276.446 272.26C275.826 271.563 275.516 270.64 275.516 269.492V269.403ZM276.788 269.553C276.788 270.374 276.977 271.032 277.355 271.529C277.738 272.026 278.248 272.274 278.886 272.274C279.529 272.274 280.039 272.023 280.417 271.522C280.796 271.016 280.985 270.31 280.985 269.403C280.985 268.592 280.791 267.935 280.404 267.434C280.021 266.928 279.511 266.675 278.873 266.675C278.248 266.675 277.745 266.924 277.362 267.42C276.979 267.917 276.788 268.628 276.788 269.553ZM288.402 272.438C287.91 273.017 287.187 273.306 286.235 273.306C285.446 273.306 284.845 273.078 284.43 272.623C284.02 272.162 283.813 271.483 283.808 270.585V265.773H285.073V270.551C285.073 271.672 285.528 272.233 286.44 272.233C287.406 272.233 288.049 271.873 288.368 271.153V265.773H289.632V273.169H288.429L288.402 272.438ZM295.135 266.908C294.944 266.876 294.736 266.86 294.513 266.86C293.684 266.86 293.121 267.213 292.825 267.919V273.169H291.56V265.773H292.791L292.811 266.627C293.226 265.967 293.814 265.636 294.575 265.636C294.821 265.636 295.008 265.668 295.135 265.732V266.908ZM300.611 271.208C300.611 270.866 300.481 270.601 300.221 270.415C299.966 270.223 299.517 270.059 298.875 269.922C298.236 269.786 297.728 269.622 297.35 269.43C296.976 269.239 296.698 269.011 296.516 268.747C296.338 268.482 296.25 268.168 296.25 267.803C296.25 267.197 296.505 266.684 297.015 266.265C297.53 265.846 298.186 265.636 298.984 265.636C299.822 265.636 300.501 265.853 301.021 266.286C301.545 266.719 301.807 267.272 301.807 267.947H300.536C300.536 267.6 300.388 267.302 300.091 267.051C299.8 266.801 299.431 266.675 298.984 266.675C298.524 266.675 298.164 266.776 297.904 266.976C297.644 267.177 297.514 267.439 297.514 267.762C297.514 268.068 297.635 268.298 297.876 268.453C298.118 268.608 298.553 268.756 299.182 268.897C299.816 269.038 300.328 269.207 300.72 269.403C301.112 269.599 301.402 269.836 301.588 270.114C301.78 270.387 301.875 270.722 301.875 271.119C301.875 271.779 301.611 272.31 301.083 272.711C300.554 273.108 299.868 273.306 299.025 273.306C298.432 273.306 297.908 273.201 297.453 272.992C296.997 272.782 296.639 272.49 296.379 272.117C296.124 271.738 295.997 271.331 295.997 270.893H297.261C297.284 271.317 297.453 271.654 297.767 271.905C298.086 272.151 298.505 272.274 299.025 272.274C299.503 272.274 299.886 272.178 300.173 271.987C300.465 271.791 300.611 271.531 300.611 271.208ZM311.562 273.169C311.489 273.024 311.43 272.764 311.384 272.39C310.796 273.001 310.095 273.306 309.279 273.306C308.55 273.306 307.95 273.101 307.481 272.691C307.016 272.276 306.784 271.752 306.784 271.119C306.784 270.348 307.075 269.751 307.659 269.328C308.247 268.899 309.071 268.685 310.133 268.685H311.364V268.104C311.364 267.662 311.232 267.311 310.967 267.051C310.703 266.787 310.313 266.655 309.798 266.655C309.347 266.655 308.969 266.769 308.664 266.997C308.358 267.224 308.206 267.5 308.206 267.824H306.934C306.934 267.455 307.064 267.099 307.324 266.757C307.588 266.411 307.944 266.138 308.39 265.937C308.841 265.736 309.336 265.636 309.874 265.636C310.726 265.636 311.393 265.85 311.876 266.279C312.36 266.703 312.61 267.288 312.628 268.036V271.44C312.628 272.119 312.715 272.659 312.888 273.06V273.169H311.562ZM309.463 272.206C309.86 272.206 310.236 272.103 310.591 271.898C310.947 271.693 311.204 271.426 311.364 271.098V269.581H310.373C308.823 269.581 308.048 270.034 308.048 270.941C308.048 271.337 308.181 271.647 308.445 271.871C308.709 272.094 309.049 272.206 309.463 272.206ZM314.31 269.41C314.31 268.257 314.577 267.341 315.11 266.662C315.643 265.978 316.349 265.636 317.229 265.636C318.131 265.636 318.835 265.955 319.341 266.593L319.403 265.773H320.558V272.992C320.558 273.949 320.273 274.703 319.704 275.254C319.139 275.806 318.377 276.082 317.42 276.082C316.887 276.082 316.365 275.968 315.855 275.74C315.345 275.512 314.955 275.2 314.686 274.803L315.342 274.044C315.885 274.714 316.548 275.049 317.332 275.049C317.947 275.049 318.425 274.876 318.767 274.53C319.113 274.183 319.287 273.696 319.287 273.067V272.431C318.781 273.014 318.09 273.306 317.215 273.306C316.349 273.306 315.648 272.958 315.11 272.26C314.577 271.563 314.31 270.613 314.31 269.41ZM315.582 269.553C315.582 270.387 315.752 271.043 316.094 271.522C316.436 271.996 316.915 272.233 317.53 272.233C318.327 272.233 318.913 271.871 319.287 271.146V267.769C318.899 267.063 318.318 266.709 317.543 266.709C316.928 266.709 316.447 266.949 316.101 267.427C315.755 267.906 315.582 268.614 315.582 269.553ZM322.137 269.403C322.137 268.678 322.278 268.027 322.561 267.448C322.848 266.869 323.245 266.422 323.75 266.108C324.261 265.793 324.842 265.636 325.494 265.636C326.501 265.636 327.314 265.985 327.934 266.682C328.558 267.379 328.871 268.307 328.871 269.464V269.553C328.871 270.273 328.732 270.92 328.454 271.495C328.18 272.064 327.786 272.509 327.271 272.828C326.761 273.147 326.173 273.306 325.507 273.306C324.505 273.306 323.691 272.958 323.067 272.26C322.447 271.563 322.137 270.64 322.137 269.492V269.403ZM323.409 269.553C323.409 270.374 323.598 271.032 323.976 271.529C324.359 272.026 324.869 272.274 325.507 272.274C326.15 272.274 326.66 272.023 327.039 271.522C327.417 271.016 327.606 270.31 327.606 269.403C327.606 268.592 327.412 267.935 327.025 267.434C326.642 266.928 326.132 266.675 325.494 266.675C324.869 266.675 324.366 266.924 323.983 267.42C323.6 267.917 323.409 268.628 323.409 269.553Z" fill="#78909C"/>
<path d="M261.373 331.475C261.3 331.329 261.24 331.069 261.195 330.695C260.607 331.306 259.905 331.611 259.089 331.611C258.36 331.611 257.761 331.406 257.292 330.996C256.827 330.581 256.594 330.057 256.594 329.424C256.594 328.654 256.886 328.057 257.469 327.633C258.057 327.204 258.882 326.99 259.944 326.99H261.174V326.409C261.174 325.967 261.042 325.616 260.778 325.356C260.514 325.092 260.124 324.96 259.609 324.96C259.158 324.96 258.779 325.074 258.474 325.302C258.169 325.53 258.016 325.805 258.016 326.129H256.745C256.745 325.76 256.875 325.404 257.134 325.062C257.399 324.716 257.754 324.443 258.201 324.242C258.652 324.042 259.146 323.941 259.684 323.941C260.536 323.941 261.204 324.156 261.687 324.584C262.17 325.008 262.421 325.593 262.439 326.341V329.745C262.439 330.424 262.526 330.964 262.699 331.365V331.475H261.373ZM259.274 330.511C259.67 330.511 260.046 330.408 260.402 330.203C260.757 329.998 261.015 329.731 261.174 329.403V327.886H260.183C258.634 327.886 257.859 328.339 257.859 329.246C257.859 329.643 257.991 329.952 258.255 330.176C258.52 330.399 258.859 330.511 259.274 330.511ZM267.586 327.715C267.586 326.58 267.855 325.669 268.393 324.98C268.931 324.288 269.635 323.941 270.505 323.941C271.371 323.941 272.057 324.238 272.563 324.83V320.975H273.828V331.475H272.666L272.604 330.682C272.098 331.301 271.394 331.611 270.492 331.611C269.635 331.611 268.935 331.26 268.393 330.559C267.855 329.857 267.586 328.941 267.586 327.811V327.715ZM268.851 327.858C268.851 328.697 269.024 329.353 269.371 329.827C269.717 330.301 270.195 330.538 270.806 330.538C271.608 330.538 272.194 330.178 272.563 329.458V326.061C272.185 325.363 271.604 325.015 270.82 325.015C270.2 325.015 269.717 325.254 269.371 325.732C269.024 326.211 268.851 326.92 268.851 327.858ZM280.363 331.475C280.29 331.329 280.231 331.069 280.185 330.695C279.597 331.306 278.895 331.611 278.08 331.611C277.35 331.611 276.751 331.406 276.282 330.996C275.817 330.581 275.584 330.057 275.584 329.424C275.584 328.654 275.876 328.057 276.459 327.633C277.047 327.204 277.872 326.99 278.934 326.99H280.165V326.409C280.165 325.967 280.032 325.616 279.768 325.356C279.504 325.092 279.114 324.96 278.599 324.96C278.148 324.96 277.77 325.074 277.464 325.302C277.159 325.53 277.006 325.805 277.006 326.129H275.735C275.735 325.76 275.865 325.404 276.125 325.062C276.389 324.716 276.744 324.443 277.191 324.242C277.642 324.042 278.137 323.941 278.674 323.941C279.527 323.941 280.194 324.156 280.677 324.584C281.16 325.008 281.411 325.593 281.429 326.341V329.745C281.429 330.424 281.516 330.964 281.689 331.365V331.475H280.363ZM278.264 330.511C278.661 330.511 279.037 330.408 279.392 330.203C279.748 329.998 280.005 329.731 280.165 329.403V327.886H279.173C277.624 327.886 276.849 328.339 276.849 329.246C276.849 329.643 276.981 329.952 277.246 330.176C277.51 330.399 277.849 330.511 278.264 330.511ZM285.722 329.622L287.445 324.078H288.798L285.825 332.616C285.364 333.847 284.633 334.462 283.63 334.462L283.391 334.441L282.919 334.353V333.327L283.261 333.354C283.69 333.354 284.022 333.268 284.259 333.095C284.501 332.922 284.699 332.605 284.854 332.145L285.134 331.393L282.496 324.078H283.876L285.722 329.622ZM297.972 331.475C297.899 331.329 297.84 331.069 297.794 330.695C297.207 331.306 296.505 331.611 295.689 331.611C294.96 331.611 294.361 331.406 293.891 330.996C293.426 330.581 293.194 330.057 293.194 329.424C293.194 328.654 293.486 328.057 294.069 327.633C294.657 327.204 295.482 326.99 296.543 326.99H297.774V326.409C297.774 325.967 297.642 325.616 297.377 325.356C297.113 325.092 296.723 324.96 296.208 324.96C295.757 324.96 295.379 325.074 295.074 325.302C294.768 325.53 294.616 325.805 294.616 326.129H293.344C293.344 325.76 293.474 325.404 293.734 325.062C293.998 324.716 294.354 324.443 294.8 324.242C295.251 324.042 295.746 323.941 296.284 323.941C297.136 323.941 297.804 324.156 298.287 324.584C298.77 325.008 299.02 325.593 299.039 326.341V329.745C299.039 330.424 299.125 330.964 299.298 331.365V331.475H297.972ZM295.874 330.511C296.27 330.511 296.646 330.408 297.001 330.203C297.357 329.998 297.614 329.731 297.774 329.403V327.886H296.783C295.233 327.886 294.458 328.339 294.458 329.246C294.458 329.643 294.591 329.952 294.855 330.176C295.119 330.399 295.459 330.511 295.874 330.511ZM300.72 327.715C300.72 326.562 300.987 325.646 301.52 324.967C302.053 324.283 302.76 323.941 303.639 323.941C304.542 323.941 305.246 324.26 305.751 324.898L305.813 324.078H306.968V331.297C306.968 332.254 306.683 333.008 306.114 333.56C305.549 334.111 304.788 334.387 303.831 334.387C303.297 334.387 302.776 334.273 302.265 334.045C301.755 333.817 301.365 333.505 301.096 333.108L301.752 332.35C302.295 333.02 302.958 333.354 303.742 333.354C304.357 333.354 304.835 333.181 305.177 332.835C305.524 332.489 305.697 332.001 305.697 331.372V330.736C305.191 331.32 304.5 331.611 303.625 331.611C302.76 331.611 302.058 331.263 301.52 330.565C300.987 329.868 300.72 328.918 300.72 327.715ZM301.992 327.858C301.992 328.692 302.163 329.349 302.504 329.827C302.846 330.301 303.325 330.538 303.94 330.538C304.737 330.538 305.323 330.176 305.697 329.451V326.074C305.309 325.368 304.728 325.015 303.954 325.015C303.338 325.015 302.858 325.254 302.511 325.732C302.165 326.211 301.992 326.92 301.992 327.858ZM308.547 327.708C308.547 326.983 308.689 326.332 308.971 325.753C309.258 325.174 309.655 324.728 310.161 324.413C310.671 324.099 311.252 323.941 311.904 323.941C312.911 323.941 313.724 324.29 314.344 324.987C314.969 325.685 315.281 326.612 315.281 327.77V327.858C315.281 328.578 315.142 329.226 314.864 329.8C314.59 330.369 314.196 330.814 313.681 331.133C313.171 331.452 312.583 331.611 311.917 331.611C310.915 331.611 310.101 331.263 309.477 330.565C308.857 329.868 308.547 328.945 308.547 327.797V327.708ZM309.819 327.858C309.819 328.679 310.008 329.337 310.386 329.834C310.769 330.331 311.279 330.579 311.917 330.579C312.56 330.579 313.07 330.328 313.449 329.827C313.827 329.321 314.016 328.615 314.016 327.708C314.016 326.897 313.822 326.241 313.435 325.739C313.052 325.233 312.542 324.98 311.904 324.98C311.279 324.98 310.776 325.229 310.393 325.726C310.01 326.222 309.819 326.933 309.819 327.858Z" fill="#78909C"/>
<path d="M273.618 98.2544H272.306V88.3013H273.618V98.2544ZM277.022 90.8579L277.063 91.7876C277.629 91.0767 278.367 90.7212 279.278 90.7212C280.841 90.7212 281.63 91.603 281.644 93.3667V98.2544H280.379V93.3599C280.374 92.8267 280.251 92.4325 280.01 92.1772C279.773 91.922 279.401 91.7944 278.896 91.7944C278.485 91.7944 278.125 91.9038 277.815 92.1226C277.506 92.3413 277.264 92.6284 277.091 92.9839V98.2544H275.826V90.8579H277.022ZM293.271 94.6382C293.271 95.7638 293.014 96.6707 292.499 97.3589C291.984 98.047 291.287 98.3911 290.407 98.3911C289.509 98.3911 288.803 98.1063 288.288 97.5366V101.098H287.023V90.8579H288.179L288.24 91.6782C288.755 91.0402 289.471 90.7212 290.387 90.7212C291.275 90.7212 291.977 91.0562 292.492 91.7261C293.012 92.396 293.271 93.328 293.271 94.522V94.6382ZM292.007 94.4946C292.007 93.6606 291.829 93.0021 291.474 92.519C291.118 92.036 290.631 91.7944 290.011 91.7944C289.245 91.7944 288.671 92.134 288.288 92.813V96.3472C288.666 97.0216 289.245 97.3589 290.024 97.3589C290.631 97.3589 291.111 97.1196 291.467 96.6411C291.827 96.158 292.007 95.4425 292.007 94.4946ZM298.46 91.9927C298.269 91.9608 298.061 91.9448 297.838 91.9448C297.008 91.9448 296.446 92.298 296.149 93.0044V98.2544H294.885V90.8579H296.115L296.136 91.7124C296.55 91.0516 297.138 90.7212 297.899 90.7212C298.146 90.7212 298.332 90.7531 298.46 90.8169V91.9927ZM299.157 94.4878C299.157 93.7632 299.299 93.1115 299.581 92.5327C299.868 91.9539 300.265 91.5073 300.771 91.1929C301.281 90.8784 301.862 90.7212 302.514 90.7212C303.521 90.7212 304.334 91.0698 304.954 91.7671C305.578 92.4644 305.891 93.3918 305.891 94.5493V94.6382C305.891 95.3582 305.752 96.0054 305.474 96.5796C305.2 97.1493 304.806 97.5936 304.291 97.9126C303.781 98.2316 303.193 98.3911 302.527 98.3911C301.525 98.3911 300.711 98.0425 300.087 97.3452C299.467 96.6479 299.157 95.7251 299.157 94.5767V94.4878ZM300.429 94.6382C300.429 95.4585 300.618 96.117 300.996 96.6138C301.379 97.1105 301.889 97.3589 302.527 97.3589C303.17 97.3589 303.68 97.1082 304.059 96.6069C304.437 96.1011 304.626 95.3947 304.626 94.4878C304.626 93.6766 304.432 93.0203 304.045 92.519C303.662 92.0132 303.152 91.7603 302.514 91.7603C301.889 91.7603 301.386 92.0086 301.003 92.5054C300.62 93.0021 300.429 93.7131 300.429 94.6382ZM307.176 94.4946C307.176 93.3416 307.442 92.4256 307.976 91.7466C308.509 91.063 309.215 90.7212 310.095 90.7212C310.997 90.7212 311.701 91.0402 312.207 91.6782L312.269 90.8579H313.424V98.0767C313.424 99.0337 313.139 99.7879 312.569 100.339C312.004 100.891 311.243 101.167 310.286 101.167C309.753 101.167 309.231 101.053 308.721 100.825C308.21 100.597 307.821 100.285 307.552 99.8882L308.208 99.1294C308.75 99.7993 309.413 100.134 310.197 100.134C310.812 100.134 311.291 99.9611 311.633 99.6147C311.979 99.2684 312.152 98.7808 312.152 98.1519V97.5161C311.646 98.0994 310.956 98.3911 310.081 98.3911C309.215 98.3911 308.513 98.0425 307.976 97.3452C307.442 96.6479 307.176 95.6978 307.176 94.4946ZM308.447 94.6382C308.447 95.4722 308.618 96.1284 308.96 96.6069C309.302 97.0809 309.78 97.3179 310.396 97.3179C311.193 97.3179 311.779 96.9556 312.152 96.231V92.854C311.765 92.1476 311.184 91.7944 310.409 91.7944C309.794 91.7944 309.313 92.0337 308.967 92.5122C308.62 92.9907 308.447 93.6994 308.447 94.6382ZM318.913 91.9927C318.722 91.9608 318.514 91.9448 318.291 91.9448C317.462 91.9448 316.899 92.298 316.603 93.0044V98.2544H315.338V90.8579H316.568L316.589 91.7124C317.004 91.0516 317.591 90.7212 318.353 90.7212C318.599 90.7212 318.785 90.7531 318.913 90.8169V91.9927ZM323.015 98.3911C322.012 98.3911 321.196 98.063 320.567 97.4067C319.938 96.7459 319.624 95.8641 319.624 94.7612V94.5288C319.624 93.7951 319.763 93.1411 320.041 92.5669C320.324 91.9881 320.715 91.5369 321.217 91.2134C321.723 90.8853 322.27 90.7212 322.857 90.7212C323.819 90.7212 324.566 91.0379 325.1 91.6714C325.633 92.3049 325.899 93.2118 325.899 94.3921V94.9185H320.889C320.907 95.6476 321.119 96.2378 321.524 96.689C321.935 97.1356 322.454 97.3589 323.083 97.3589C323.53 97.3589 323.908 97.2677 324.218 97.0854C324.528 96.9032 324.799 96.6616 325.031 96.3608L325.804 96.9624C325.184 97.9149 324.254 98.3911 323.015 98.3911ZM322.857 91.7603C322.347 91.7603 321.919 91.9471 321.572 92.3208C321.226 92.6899 321.012 93.2095 320.93 93.8794H324.635V93.7837C324.598 93.1411 324.425 92.6444 324.115 92.2935C323.805 91.938 323.386 91.7603 322.857 91.7603ZM331.676 96.2925C331.676 95.9507 331.546 95.6864 331.286 95.4995C331.031 95.3081 330.582 95.144 329.939 95.0073C329.301 94.8706 328.793 94.7065 328.415 94.5151C328.041 94.3237 327.763 94.0959 327.581 93.8315C327.403 93.5672 327.314 93.2528 327.314 92.8882C327.314 92.2821 327.57 91.7694 328.08 91.3501C328.595 90.9308 329.251 90.7212 330.049 90.7212C330.887 90.7212 331.566 90.9377 332.086 91.3706C332.61 91.8035 332.872 92.3573 332.872 93.0317H331.601C331.601 92.6854 331.452 92.3869 331.156 92.1362C330.865 91.8856 330.495 91.7603 330.049 91.7603C329.589 91.7603 329.229 91.8605 328.969 92.061C328.709 92.2616 328.579 92.5236 328.579 92.8472C328.579 93.1525 328.7 93.3826 328.941 93.5376C329.183 93.6925 329.618 93.8407 330.247 93.9819C330.881 94.1232 331.393 94.2918 331.785 94.4878C332.177 94.6838 332.466 94.9207 332.653 95.1987C332.845 95.4722 332.94 95.8071 332.94 96.2036C332.94 96.8644 332.676 97.3953 332.147 97.7964C331.619 98.1929 330.933 98.3911 330.09 98.3911C329.497 98.3911 328.973 98.2863 328.518 98.0767C328.062 97.867 327.704 97.5754 327.444 97.2017C327.189 96.8234 327.062 96.4155 327.062 95.978H328.326C328.349 96.4019 328.518 96.7391 328.832 96.9897C329.151 97.2358 329.57 97.3589 330.09 97.3589C330.568 97.3589 330.951 97.2632 331.238 97.0718C331.53 96.8758 331.676 96.616 331.676 96.2925ZM338.895 96.2925C338.895 95.9507 338.765 95.6864 338.505 95.4995C338.25 95.3081 337.801 95.144 337.158 95.0073C336.52 94.8706 336.012 94.7065 335.634 94.5151C335.26 94.3237 334.982 94.0959 334.8 93.8315C334.622 93.5672 334.533 93.2528 334.533 92.8882C334.533 92.2821 334.788 91.7694 335.299 91.3501C335.814 90.9308 336.47 90.7212 337.268 90.7212C338.106 90.7212 338.785 90.9377 339.305 91.3706C339.829 91.8035 340.091 92.3573 340.091 93.0317H338.819C338.819 92.6854 338.671 92.3869 338.375 92.1362C338.083 91.8856 337.714 91.7603 337.268 91.7603C336.807 91.7603 336.447 91.8605 336.188 92.061C335.928 92.2616 335.798 92.5236 335.798 92.8472C335.798 93.1525 335.919 93.3826 336.16 93.5376C336.402 93.6925 336.837 93.8407 337.466 93.9819C338.099 94.1232 338.612 94.2918 339.004 94.4878C339.396 94.6838 339.685 94.9207 339.872 95.1987C340.063 95.4722 340.159 95.8071 340.159 96.2036C340.159 96.8644 339.895 97.3953 339.366 97.7964C338.838 98.1929 338.152 98.3911 337.309 98.3911C336.716 98.3911 336.192 98.2863 335.736 98.0767C335.281 97.867 334.923 97.5754 334.663 97.2017C334.408 96.8234 334.28 96.4155 334.28 95.978H335.545C335.568 96.4019 335.736 96.7391 336.051 96.9897C336.37 97.2358 336.789 97.3589 337.309 97.3589C337.787 97.3589 338.17 97.2632 338.457 97.0718C338.749 96.8758 338.895 96.616 338.895 96.2925Z" fill="#78909C"/>
<circle cx="258.562" cy="94.7463" r="2.71233" fill="#FF272D"/>
<path d="M272.618 156.559H271.305V146.606H272.618V156.559ZM276.022 149.163L276.063 150.093C276.628 149.382 277.366 149.026 278.278 149.026C279.841 149.026 280.629 149.908 280.643 151.672V156.559H279.378V151.665C279.374 151.132 279.251 150.737 279.009 150.482C278.772 150.227 278.401 150.099 277.895 150.099C277.485 150.099 277.125 150.209 276.815 150.427C276.505 150.646 276.264 150.933 276.09 151.289V156.559H274.826V149.163H276.022ZM292.271 152.943C292.271 154.069 292.014 154.976 291.499 155.664C290.984 156.352 290.286 156.696 289.407 156.696C288.509 156.696 287.803 156.411 287.288 155.842V159.403H286.023V149.163H287.178L287.24 149.983C287.755 149.345 288.47 149.026 289.386 149.026C290.275 149.026 290.977 149.361 291.492 150.031C292.011 150.701 292.271 151.633 292.271 152.827V152.943ZM291.006 152.8C291.006 151.966 290.829 151.307 290.473 150.824C290.118 150.341 289.63 150.099 289.01 150.099C288.245 150.099 287.67 150.439 287.288 151.118V154.652C287.666 155.327 288.245 155.664 289.024 155.664C289.63 155.664 290.111 155.425 290.466 154.946C290.826 154.463 291.006 153.747 291.006 152.8ZM297.459 150.298C297.268 150.266 297.061 150.25 296.837 150.25C296.008 150.25 295.445 150.603 295.149 151.309V156.559H293.884V149.163H295.115L295.135 150.017C295.55 149.357 296.138 149.026 296.899 149.026C297.145 149.026 297.332 149.058 297.459 149.122V150.298ZM298.157 152.793C298.157 152.068 298.298 151.416 298.581 150.838C298.868 150.259 299.264 149.812 299.77 149.498C300.28 149.183 300.861 149.026 301.513 149.026C302.52 149.026 303.334 149.375 303.954 150.072C304.578 150.769 304.89 151.697 304.89 152.854V152.943C304.89 153.663 304.751 154.31 304.473 154.885C304.2 155.454 303.806 155.899 303.291 156.218C302.78 156.537 302.192 156.696 301.527 156.696C300.524 156.696 299.711 156.347 299.086 155.65C298.467 154.953 298.157 154.03 298.157 152.882V152.793ZM299.428 152.943C299.428 153.763 299.617 154.422 299.996 154.919C300.378 155.415 300.889 155.664 301.527 155.664C302.169 155.664 302.68 155.413 303.058 154.912C303.436 154.406 303.625 153.7 303.625 152.793C303.625 151.982 303.432 151.325 303.044 150.824C302.662 150.318 302.151 150.065 301.513 150.065C300.889 150.065 300.385 150.314 300.002 150.81C299.62 151.307 299.428 152.018 299.428 152.943ZM306.175 152.8C306.175 151.647 306.442 150.731 306.975 150.052C307.508 149.368 308.215 149.026 309.094 149.026C309.997 149.026 310.701 149.345 311.207 149.983L311.268 149.163H312.423V156.382C312.423 157.339 312.139 158.093 311.569 158.644C311.004 159.196 310.243 159.471 309.286 159.471C308.752 159.471 308.231 159.358 307.72 159.13C307.21 158.902 306.82 158.59 306.551 158.193L307.208 157.434C307.75 158.104 308.413 158.439 309.197 158.439C309.812 158.439 310.291 158.266 310.632 157.92C310.979 157.573 311.152 157.086 311.152 156.457V155.821C310.646 156.404 309.956 156.696 309.081 156.696C308.215 156.696 307.513 156.347 306.975 155.65C306.442 154.953 306.175 154.003 306.175 152.8ZM307.447 152.943C307.447 153.777 307.618 154.433 307.959 154.912C308.301 155.386 308.78 155.623 309.395 155.623C310.193 155.623 310.778 155.26 311.152 154.536V151.159C310.764 150.453 310.183 150.099 309.409 150.099C308.793 150.099 308.313 150.339 307.966 150.817C307.62 151.296 307.447 152.004 307.447 152.943ZM317.913 150.298C317.721 150.266 317.514 150.25 317.291 150.25C316.461 150.25 315.898 150.603 315.602 151.309V156.559H314.337V149.163H315.568L315.588 150.017C316.003 149.357 316.591 149.026 317.352 149.026C317.598 149.026 317.785 149.058 317.913 149.122V150.298ZM322.014 156.696C321.012 156.696 320.196 156.368 319.567 155.712C318.938 155.051 318.624 154.169 318.624 153.066V152.834C318.624 152.1 318.763 151.446 319.041 150.872C319.323 150.293 319.715 149.842 320.216 149.518C320.722 149.19 321.269 149.026 321.857 149.026C322.819 149.026 323.566 149.343 324.099 149.976C324.632 150.61 324.899 151.517 324.899 152.697V153.223H319.888C319.906 153.953 320.118 154.543 320.524 154.994C320.934 155.441 321.454 155.664 322.083 155.664C322.529 155.664 322.907 155.573 323.217 155.39C323.527 155.208 323.798 154.967 324.031 154.666L324.803 155.267C324.183 156.22 323.254 156.696 322.014 156.696ZM321.857 150.065C321.347 150.065 320.918 150.252 320.572 150.626C320.225 150.995 320.011 151.514 319.929 152.184H323.634V152.089C323.598 151.446 323.425 150.949 323.115 150.598C322.805 150.243 322.386 150.065 321.857 150.065ZM330.675 154.597C330.675 154.256 330.545 153.991 330.286 153.804C330.03 153.613 329.582 153.449 328.939 153.312C328.301 153.176 327.793 153.011 327.415 152.82C327.041 152.629 326.763 152.401 326.581 152.136C326.403 151.872 326.314 151.558 326.314 151.193C326.314 150.587 326.569 150.074 327.08 149.655C327.595 149.236 328.251 149.026 329.048 149.026C329.887 149.026 330.566 149.243 331.085 149.676C331.61 150.108 331.872 150.662 331.872 151.337H330.6C330.6 150.99 330.452 150.692 330.156 150.441C329.864 150.191 329.495 150.065 329.048 150.065C328.588 150.065 328.228 150.165 327.968 150.366C327.708 150.566 327.579 150.829 327.579 151.152C327.579 151.457 327.699 151.688 327.941 151.843C328.182 151.997 328.618 152.146 329.247 152.287C329.88 152.428 330.393 152.597 330.785 152.793C331.177 152.989 331.466 153.226 331.653 153.504C331.844 153.777 331.94 154.112 331.94 154.509C331.94 155.169 331.676 155.7 331.147 156.101C330.618 156.498 329.932 156.696 329.089 156.696C328.497 156.696 327.973 156.591 327.517 156.382C327.061 156.172 326.704 155.88 326.444 155.507C326.189 155.128 326.061 154.72 326.061 154.283H327.326C327.348 154.707 327.517 155.044 327.832 155.295C328.151 155.541 328.57 155.664 329.089 155.664C329.568 155.664 329.951 155.568 330.238 155.377C330.529 155.181 330.675 154.921 330.675 154.597ZM337.894 154.597C337.894 154.256 337.764 153.991 337.504 153.804C337.249 153.613 336.8 153.449 336.158 153.312C335.52 153.176 335.012 153.011 334.633 152.82C334.26 152.629 333.982 152.401 333.799 152.136C333.622 151.872 333.533 151.558 333.533 151.193C333.533 150.587 333.788 150.074 334.298 149.655C334.813 149.236 335.47 149.026 336.267 149.026C337.106 149.026 337.785 149.243 338.304 149.676C338.828 150.108 339.09 150.662 339.09 151.337H337.819C337.819 150.99 337.671 150.692 337.375 150.441C337.083 150.191 336.714 150.065 336.267 150.065C335.807 150.065 335.447 150.165 335.187 150.366C334.927 150.566 334.797 150.829 334.797 151.152C334.797 151.457 334.918 151.688 335.16 151.843C335.401 151.997 335.836 152.146 336.465 152.287C337.099 152.428 337.611 152.597 338.003 152.793C338.395 152.989 338.685 153.226 338.872 153.504C339.063 153.777 339.159 154.112 339.159 154.509C339.159 155.169 338.894 155.7 338.366 156.101C337.837 156.498 337.151 156.696 336.308 156.696C335.716 156.696 335.192 156.591 334.736 156.382C334.28 156.172 333.922 155.88 333.663 155.507C333.407 155.128 333.28 154.72 333.28 154.283H334.544C334.567 154.707 334.736 155.044 335.05 155.295C335.369 155.541 335.789 155.664 336.308 155.664C336.787 155.664 337.169 155.568 337.457 155.377C337.748 155.181 337.894 154.921 337.894 154.597Z" fill="#78909C"/>
<circle cx="258.561" cy="151.696" r="2.71233" fill="#FF272D"/>
<path d="M407.232 93.8096C407.232 95.2406 406.964 96.3206 406.426 97.0498C405.893 97.7744 405.079 98.1367 403.985 98.1367C402.91 98.1367 402.099 97.7835 401.552 97.0771C401.009 96.3662 400.731 95.3158 400.718 93.9258V92.2031C400.718 90.7721 400.984 89.6989 401.518 88.9834C402.055 88.2679 402.873 87.9102 403.972 87.9102C405.061 87.9102 405.872 88.2588 406.405 88.9561C406.943 89.6533 407.219 90.6969 407.232 92.0869V93.8096ZM405.571 91.9502C405.571 91.016 405.444 90.3324 405.188 89.8994C404.933 89.4619 404.528 89.2432 403.972 89.2432C403.429 89.2432 403.031 89.4505 402.775 89.8652C402.52 90.2754 402.386 90.918 402.372 91.793V94.0488C402.372 94.9785 402.502 95.6712 402.762 96.127C403.021 96.5827 403.429 96.8105 403.985 96.8105C404.519 96.8105 404.913 96.6009 405.168 96.1816C405.423 95.7578 405.558 95.097 405.571 94.1992V91.9502ZM409.81 96.25C410.119 96.25 410.359 96.3389 410.527 96.5166C410.696 96.6898 410.78 96.9085 410.78 97.1729C410.78 97.4326 410.696 97.6491 410.527 97.8223C410.359 97.9909 410.119 98.0752 409.81 98.0752C409.513 98.0752 409.279 97.9909 409.105 97.8223C408.932 97.6536 408.846 97.4372 408.846 97.1729C408.846 96.9085 408.93 96.6898 409.099 96.5166C409.267 96.3389 409.504 96.25 409.81 96.25ZM409.81 90.4463C410.119 90.4463 410.359 90.5352 410.527 90.7129C410.696 90.8861 410.78 91.1048 410.78 91.3691C410.78 91.6289 410.696 91.8454 410.527 92.0186C410.359 92.1872 410.119 92.2715 409.81 92.2715C409.513 92.2715 409.279 92.1872 409.105 92.0186C408.932 91.8499 408.846 91.6335 408.846 91.3691C408.846 91.1048 408.93 90.8861 409.099 90.7129C409.267 90.5352 409.504 90.4463 409.81 90.4463ZM418.908 93.8096C418.908 95.2406 418.639 96.3206 418.102 97.0498C417.568 97.7744 416.755 98.1367 415.661 98.1367C414.586 98.1367 413.774 97.7835 413.228 97.0771C412.685 96.3662 412.407 95.3158 412.394 93.9258V92.2031C412.394 90.7721 412.66 89.6989 413.193 88.9834C413.731 88.2679 414.549 87.9102 415.647 87.9102C416.737 87.9102 417.548 88.2588 418.081 88.9561C418.619 89.6533 418.895 90.6969 418.908 92.0869V93.8096ZM417.247 91.9502C417.247 91.016 417.119 90.3324 416.864 89.8994C416.609 89.4619 416.203 89.2432 415.647 89.2432C415.105 89.2432 414.706 89.4505 414.451 89.8652C414.196 90.2754 414.062 90.918 414.048 91.793V94.0488C414.048 94.9785 414.178 95.6712 414.438 96.127C414.697 96.5827 415.105 96.8105 415.661 96.8105C416.194 96.8105 416.589 96.6009 416.844 96.1816C417.099 95.7578 417.233 95.097 417.247 94.1992V91.9502ZM420.822 93.0645L421.362 88.0469H426.708V89.4824H422.743L422.47 91.8613C422.93 91.597 423.45 91.4648 424.028 91.4648C424.976 91.4648 425.712 91.7679 426.236 92.374C426.765 92.9801 427.029 93.7959 427.029 94.8213C427.029 95.833 426.738 96.6396 426.154 97.2412C425.571 97.8382 424.771 98.1367 423.755 98.1367C422.843 98.1367 422.087 97.8792 421.485 97.3643C420.888 96.8447 420.565 96.1611 420.515 95.3135H422.121C422.185 95.7965 422.358 96.168 422.641 96.4277C422.923 96.6829 423.292 96.8105 423.748 96.8105C424.258 96.8105 424.655 96.6283 424.938 96.2637C425.225 95.8991 425.368 95.4023 425.368 94.7734C425.368 94.1673 425.211 93.6888 424.896 93.3379C424.582 92.9824 424.149 92.8047 423.598 92.8047C423.297 92.8047 423.042 92.8457 422.832 92.9277C422.622 93.0052 422.395 93.1602 422.148 93.3926L420.822 93.0645Z" fill="#3D4853"/>
<path d="M405.243 158H403.589V150.009L401.148 150.843V149.441L405.031 148.013H405.243V158ZM409.81 156.25C410.119 156.25 410.359 156.339 410.527 156.517C410.696 156.69 410.78 156.909 410.78 157.173C410.78 157.433 410.696 157.649 410.527 157.822C410.359 157.991 410.119 158.075 409.81 158.075C409.513 158.075 409.279 157.991 409.105 157.822C408.932 157.654 408.846 157.437 408.846 157.173C408.846 156.909 408.93 156.69 409.099 156.517C409.267 156.339 409.504 156.25 409.81 156.25ZM409.81 150.446C410.119 150.446 410.359 150.535 410.527 150.713C410.696 150.886 410.78 151.105 410.78 151.369C410.78 151.629 410.696 151.845 410.527 152.019C410.359 152.187 410.119 152.271 409.81 152.271C409.513 152.271 409.279 152.187 409.105 152.019C408.932 151.85 408.846 151.633 408.846 151.369C408.846 151.105 408.93 150.886 409.099 150.713C409.267 150.535 409.504 150.446 409.81 150.446ZM418.908 153.81C418.908 155.241 418.639 156.321 418.102 157.05C417.568 157.774 416.755 158.137 415.661 158.137C414.586 158.137 413.774 157.784 413.228 157.077C412.685 156.366 412.407 155.316 412.394 153.926V152.203C412.394 150.772 412.66 149.699 413.193 148.983C413.731 148.268 414.549 147.91 415.647 147.91C416.737 147.91 417.548 148.259 418.081 148.956C418.619 149.653 418.895 150.697 418.908 152.087V153.81ZM417.247 151.95C417.247 151.016 417.119 150.332 416.864 149.899C416.609 149.462 416.203 149.243 415.647 149.243C415.105 149.243 414.706 149.451 414.451 149.865C414.196 150.275 414.062 150.918 414.048 151.793V154.049C414.048 154.979 414.178 155.671 414.438 156.127C414.697 156.583 415.105 156.811 415.661 156.811C416.194 156.811 416.589 156.601 416.844 156.182C417.099 155.758 417.233 155.097 417.247 154.199V151.95ZM426.865 153.81C426.865 155.241 426.596 156.321 426.059 157.05C425.525 157.774 424.712 158.137 423.618 158.137C422.543 158.137 421.731 157.784 421.185 157.077C420.642 156.366 420.364 155.316 420.351 153.926V152.203C420.351 150.772 420.617 149.699 421.15 148.983C421.688 148.268 422.506 147.91 423.604 147.91C424.694 147.91 425.505 148.259 426.038 148.956C426.576 149.653 426.852 150.697 426.865 152.087V153.81ZM425.204 151.95C425.204 151.016 425.076 150.332 424.821 149.899C424.566 149.462 424.16 149.243 423.604 149.243C423.062 149.243 422.663 149.451 422.408 149.865C422.153 150.275 422.019 150.918 422.005 151.793V154.049C422.005 154.979 422.135 155.671 422.395 156.127C422.654 156.583 423.062 156.811 423.618 156.811C424.151 156.811 424.546 156.601 424.801 156.182C425.056 155.758 425.19 155.097 425.204 154.199V151.95Z" fill="#3D4853"/>
<path d="M407.438 216H400.745V214.858L404.061 211.242C404.539 210.709 404.879 210.265 405.079 209.909C405.284 209.549 405.387 209.189 405.387 208.829C405.387 208.355 405.252 207.972 404.983 207.681C404.719 207.389 404.361 207.243 403.91 207.243C403.372 207.243 402.955 207.407 402.659 207.735C402.363 208.063 402.215 208.512 402.215 209.082H400.554C400.554 208.476 400.69 207.931 400.964 207.448C401.242 206.961 401.636 206.582 402.146 206.313C402.661 206.045 403.254 205.91 403.924 205.91C404.89 205.91 405.651 206.154 406.207 206.642C406.768 207.125 407.048 207.795 407.048 208.651C407.048 209.148 406.907 209.67 406.624 210.217C406.346 210.759 405.888 211.377 405.25 212.069L402.816 214.674H407.438V216ZM409.81 214.25C410.119 214.25 410.359 214.339 410.527 214.517C410.696 214.69 410.78 214.909 410.78 215.173C410.78 215.433 410.696 215.649 410.527 215.822C410.359 215.991 410.119 216.075 409.81 216.075C409.513 216.075 409.279 215.991 409.105 215.822C408.932 215.654 408.846 215.437 408.846 215.173C408.846 214.909 408.93 214.69 409.099 214.517C409.267 214.339 409.504 214.25 409.81 214.25ZM409.81 208.446C410.119 208.446 410.359 208.535 410.527 208.713C410.696 208.886 410.78 209.105 410.78 209.369C410.78 209.629 410.696 209.845 410.527 210.019C410.359 210.187 410.119 210.271 409.81 210.271C409.513 210.271 409.279 210.187 409.105 210.019C408.932 209.85 408.846 209.633 408.846 209.369C408.846 209.105 408.93 208.886 409.099 208.713C409.267 208.535 409.504 208.446 409.81 208.446ZM418.908 211.81C418.908 213.241 418.639 214.321 418.102 215.05C417.568 215.774 416.755 216.137 415.661 216.137C414.586 216.137 413.774 215.784 413.228 215.077C412.685 214.366 412.407 213.316 412.394 211.926V210.203C412.394 208.772 412.66 207.699 413.193 206.983C413.731 206.268 414.549 205.91 415.647 205.91C416.737 205.91 417.548 206.259 418.081 206.956C418.619 207.653 418.895 208.697 418.908 210.087V211.81ZM417.247 209.95C417.247 209.016 417.119 208.332 416.864 207.899C416.609 207.462 416.203 207.243 415.647 207.243C415.105 207.243 414.706 207.451 414.451 207.865C414.196 208.275 414.062 208.918 414.048 209.793V212.049C414.048 212.979 414.178 213.671 414.438 214.127C414.697 214.583 415.105 214.811 415.661 214.811C416.194 214.811 416.589 214.601 416.844 214.182C417.099 213.758 417.233 213.097 417.247 212.199V209.95ZM426.865 211.81C426.865 213.241 426.596 214.321 426.059 215.05C425.525 215.774 424.712 216.137 423.618 216.137C422.543 216.137 421.731 215.784 421.185 215.077C420.642 214.366 420.364 213.316 420.351 211.926V210.203C420.351 208.772 420.617 207.699 421.15 206.983C421.688 206.268 422.506 205.91 423.604 205.91C424.694 205.91 425.505 206.259 426.038 206.956C426.576 207.653 426.852 208.697 426.865 210.087V211.81ZM425.204 209.95C425.204 209.016 425.076 208.332 424.821 207.899C424.566 207.462 424.16 207.243 423.604 207.243C423.062 207.243 422.663 207.451 422.408 207.865C422.153 208.275 422.019 208.918 422.005 209.793V212.049C422.005 212.979 422.135 213.671 422.395 214.127C422.654 214.583 423.062 214.811 423.618 214.811C424.151 214.811 424.546 214.601 424.801 214.182C425.056 213.758 425.19 213.097 425.204 212.199V209.95Z" fill="#3D4853"/>
<path d="M405.243 276H403.589V268.009L401.148 268.843V267.441L405.031 266.013H405.243V276ZM409.81 274.25C410.119 274.25 410.359 274.339 410.527 274.517C410.696 274.69 410.78 274.909 410.78 275.173C410.78 275.433 410.696 275.649 410.527 275.822C410.359 275.991 410.119 276.075 409.81 276.075C409.513 276.075 409.279 275.991 409.105 275.822C408.932 275.654 408.846 275.437 408.846 275.173C408.846 274.909 408.93 274.69 409.099 274.517C409.267 274.339 409.504 274.25 409.81 274.25ZM409.81 268.446C410.119 268.446 410.359 268.535 410.527 268.713C410.696 268.886 410.78 269.105 410.78 269.369C410.78 269.629 410.696 269.845 410.527 270.019C410.359 270.187 410.119 270.271 409.81 270.271C409.513 270.271 409.279 270.187 409.105 270.019C408.932 269.85 408.846 269.633 408.846 269.369C408.846 269.105 408.93 268.886 409.099 268.713C409.267 268.535 409.504 268.446 409.81 268.446ZM418.908 271.81C418.908 273.241 418.639 274.321 418.102 275.05C417.568 275.774 416.755 276.137 415.661 276.137C414.586 276.137 413.774 275.784 413.228 275.077C412.685 274.366 412.407 273.316 412.394 271.926V270.203C412.394 268.772 412.66 267.699 413.193 266.983C413.731 266.268 414.549 265.91 415.647 265.91C416.737 265.91 417.548 266.259 418.081 266.956C418.619 267.653 418.895 268.697 418.908 270.087V271.81ZM417.247 269.95C417.247 269.016 417.119 268.332 416.864 267.899C416.609 267.462 416.203 267.243 415.647 267.243C415.105 267.243 414.706 267.451 414.451 267.865C414.196 268.275 414.062 268.918 414.048 269.793V272.049C414.048 272.979 414.178 273.671 414.438 274.127C414.697 274.583 415.105 274.811 415.661 274.811C416.194 274.811 416.589 274.601 416.844 274.182C417.099 273.758 417.233 273.097 417.247 272.199V269.95ZM426.865 271.81C426.865 273.241 426.596 274.321 426.059 275.05C425.525 275.774 424.712 276.137 423.618 276.137C422.543 276.137 421.731 275.784 421.185 275.077C420.642 274.366 420.364 273.316 420.351 271.926V270.203C420.351 268.772 420.617 267.699 421.15 266.983C421.688 266.268 422.506 265.91 423.604 265.91C424.694 265.91 425.505 266.259 426.038 266.956C426.576 267.653 426.852 268.697 426.865 270.087V271.81ZM425.204 269.95C425.204 269.016 425.076 268.332 424.821 267.899C424.566 267.462 424.16 267.243 423.604 267.243C423.062 267.243 422.663 267.451 422.408 267.865C422.153 268.275 422.019 268.918 422.005 269.793V272.049C422.005 272.979 422.135 273.671 422.395 274.127C422.654 274.583 423.062 274.811 423.618 274.811C424.151 274.811 424.546 274.601 424.801 274.182C425.056 273.758 425.19 273.097 425.204 272.199V269.95Z" fill="#3D4853"/>
<path d="M407.014 323.672C407.014 324.16 406.888 324.595 406.638 324.978C406.387 325.356 406.045 325.654 405.612 325.873C406.132 326.115 406.531 326.445 406.809 326.864C407.091 327.284 407.232 327.757 407.232 328.286C407.232 329.161 406.936 329.856 406.344 330.371C405.751 330.882 404.963 331.137 403.979 331.137C402.99 331.137 402.197 330.879 401.6 330.364C401.007 329.849 400.711 329.157 400.711 328.286C400.711 327.753 400.852 327.274 401.135 326.851C401.417 326.427 401.814 326.101 402.324 325.873C401.896 325.654 401.556 325.356 401.306 324.978C401.06 324.595 400.937 324.16 400.937 323.672C400.937 322.824 401.21 322.152 401.757 321.655C402.304 321.159 403.042 320.91 403.972 320.91C404.906 320.91 405.646 321.159 406.193 321.655C406.74 322.152 407.014 322.824 407.014 323.672ZM405.571 328.204C405.571 327.712 405.423 327.315 405.127 327.015C404.835 326.709 404.448 326.557 403.965 326.557C403.482 326.557 403.094 326.707 402.803 327.008C402.516 327.309 402.372 327.707 402.372 328.204C402.372 328.692 402.513 329.081 402.796 329.373C403.083 329.665 403.477 329.811 403.979 329.811C404.48 329.811 404.869 329.669 405.147 329.387C405.43 329.104 405.571 328.71 405.571 328.204ZM405.359 323.733C405.359 323.3 405.234 322.945 404.983 322.667C404.733 322.384 404.396 322.243 403.972 322.243C403.548 322.243 403.213 322.378 402.967 322.646C402.721 322.911 402.598 323.273 402.598 323.733C402.598 324.189 402.721 324.551 402.967 324.82C403.217 325.089 403.555 325.224 403.979 325.224C404.402 325.224 404.737 325.089 404.983 324.82C405.234 324.551 405.359 324.189 405.359 323.733ZM409.81 329.25C410.119 329.25 410.359 329.339 410.527 329.517C410.696 329.69 410.78 329.909 410.78 330.173C410.78 330.433 410.696 330.649 410.527 330.822C410.359 330.991 410.119 331.075 409.81 331.075C409.513 331.075 409.279 330.991 409.105 330.822C408.932 330.654 408.846 330.437 408.846 330.173C408.846 329.909 408.93 329.69 409.099 329.517C409.267 329.339 409.504 329.25 409.81 329.25ZM409.81 323.446C410.119 323.446 410.359 323.535 410.527 323.713C410.696 323.886 410.78 324.105 410.78 324.369C410.78 324.629 410.696 324.845 410.527 325.019C410.359 325.187 410.119 325.271 409.81 325.271C409.513 325.271 409.279 325.187 409.105 325.019C408.932 324.85 408.846 324.633 408.846 324.369C408.846 324.105 408.93 323.886 409.099 323.713C409.267 323.535 409.504 323.446 409.81 323.446ZM418.908 326.81C418.908 328.241 418.639 329.321 418.102 330.05C417.568 330.774 416.755 331.137 415.661 331.137C414.586 331.137 413.774 330.784 413.228 330.077C412.685 329.366 412.407 328.316 412.394 326.926V325.203C412.394 323.772 412.66 322.699 413.193 321.983C413.731 321.268 414.549 320.91 415.647 320.91C416.737 320.91 417.548 321.259 418.081 321.956C418.619 322.653 418.895 323.697 418.908 325.087V326.81ZM417.247 324.95C417.247 324.016 417.119 323.332 416.864 322.899C416.609 322.462 416.203 322.243 415.647 322.243C415.105 322.243 414.706 322.451 414.451 322.865C414.196 323.275 414.062 323.918 414.048 324.793V327.049C414.048 327.979 414.178 328.671 414.438 329.127C414.697 329.583 415.105 329.811 415.661 329.811C416.194 329.811 416.589 329.601 416.844 329.182C417.099 328.758 417.233 328.097 417.247 327.199V324.95ZM426.865 326.81C426.865 328.241 426.596 329.321 426.059 330.05C425.525 330.774 424.712 331.137 423.618 331.137C422.543 331.137 421.731 330.784 421.185 330.077C420.642 329.366 420.364 328.316 420.351 326.926V325.203C420.351 323.772 420.617 322.699 421.15 321.983C421.688 321.268 422.506 320.91 423.604 320.91C424.694 320.91 425.505 321.259 426.038 321.956C426.576 322.653 426.852 323.697 426.865 325.087V326.81ZM425.204 324.95C425.204 324.016 425.076 323.332 424.821 322.899C424.566 322.462 424.16 322.243 423.604 322.243C423.062 322.243 422.663 322.451 422.408 322.865C422.153 323.275 422.019 323.918 422.005 324.793V327.049C422.005 327.979 422.135 328.671 422.395 329.127C422.654 329.583 423.062 329.811 423.618 329.811C424.151 329.811 424.546 329.601 424.801 329.182C425.056 328.758 425.19 328.097 425.204 327.199V324.95Z" fill="#3D4853"/>
<defs>
<filter id="filter0_d" x="0" y="0" width="522" height="420" filterUnits="userSpaceOnUse" color-interpolation-filters="sRGB">
<feFlood flood-opacity="0" result="BackgroundImageFix"/>
<feColorMatrix in="SourceAlpha" type="matrix" values="0 0 0 0 0 0 0 0 0 0 0 0 0 0 0 0 0 0 127 0"/>
<feOffset/>
<feGaussianBlur stdDeviation="25"/>
<feColorMatrix type="matrix" values="0 0 0 0 0.00392157 0 0 0 0 0.341176 0 0 0 0 0.607843 0 0 0 0.1 0"/>
<feBlend mode="normal" in2="BackgroundImageFix" result="effect1_dropShadow"/>
<feBlend mode="normal" in="SourceGraphic" in2="effect1_dropShadow" result="shape"/>
</filter>
</defs>
</svg>
