<svg width="523" height="375" fill="none" xmlns="http://www.w3.org/2000/svg">
  <g filter="url(#filter0_d)">
    <path d="M50 54a4 4 0 014-4h415a4 4 0 014 4v267a4 4 0 01-4 4H54a4 4 0 01-4-4V54z" fill="#fff"/>
  </g>
  <rect x="62.5" y="64.5" width="398" height="58" rx="3.5" fill="#fff" stroke="#C6D2D9"/>
  <path d="M243.059 92.625h2.775v1.196h-2.775v3.145h-1.272V93.82h-2.775v-1.196h2.775V89.72h1.272v2.905zm9.303 1.442v3.897h-1.312V88.01h3.671c1.089 0 1.941.278 2.556.834.62.556.93 1.292.93 2.208 0 .966-.303 1.711-.909 2.235-.602.52-1.465.78-2.591.78h-2.345zm0-1.073h2.359c.702 0 1.239-.164 1.613-.492.374-.333.561-.811.561-1.436 0-.592-.187-1.066-.561-1.422-.374-.355-.886-.54-1.538-.553h-2.434v3.903zm10.897-1.292a3.797 3.797 0 00-.622-.048c-.83 0-1.393.353-1.689 1.06v5.25h-1.264v-7.397h1.23l.021.855c.414-.66 1.002-.991 1.763-.991.246 0 .433.032.561.095v1.176zm.697 2.495c0-.724.141-1.376.424-1.955.287-.579.683-1.025 1.189-1.34.511-.314 1.092-.471 1.743-.471 1.008 0 1.821.348 2.441 1.046.624.697.936 1.624.936 2.782v.089c0 .72-.139 1.367-.417 1.941a3.11 3.11 0 01-1.182 1.333c-.511.32-1.098.479-1.764.479-1.002 0-1.816-.349-2.44-1.046-.62-.698-.93-1.62-.93-2.769v-.089zm1.272.15c0 .821.189 1.48.567 1.976.383.497.893.745 1.531.745.643 0 1.153-.25 1.531-.752.379-.505.568-1.212.568-2.119 0-.81-.194-1.467-.581-1.969-.383-.505-.893-.758-1.532-.758-.624 0-1.127.248-1.51.745s-.574 1.207-.574 2.133zm8.353-3.78v8.251c0 1.422-.645 2.133-1.935 2.133-.278 0-.535-.041-.772-.123v-1.012c.146.037.337.055.574.055.283 0 .497-.077.643-.232.15-.15.225-.415.225-.793v-8.279h1.265zm-1.394-1.961c0-.201.061-.372.184-.513.128-.146.312-.219.554-.219.246 0 .433.07.56.212a.746.746 0 01.192.52.721.721 0 01-.192.512c-.127.137-.314.205-.56.205-.246 0-.431-.068-.554-.205a.738.738 0 01-.184-.512zm6.507 9.495c-1.002 0-1.818-.329-2.447-.985-.629-.66-.943-1.542-.943-2.645v-.233c0-.733.139-1.387.417-1.962a3.28 3.28 0 011.175-1.353 2.959 2.959 0 011.641-.492c.962 0 1.709.316 2.242.95.533.633.8 1.54.8 2.72v.527h-5.011c.019.73.231 1.32.636 1.77.41.447.93.67 1.559.67.446 0 .825-.09 1.134-.273.31-.182.582-.424.814-.725l.772.602c-.619.952-1.549 1.429-2.789 1.429zm-.157-6.631c-.51 0-.939.187-1.285.56-.346.37-.561.889-.643 1.559h3.705v-.096c-.036-.642-.209-1.14-.519-1.49-.31-.356-.729-.533-1.258-.533zm7.479 5.598a1.82 1.82 0 001.182-.41c.337-.273.524-.615.561-1.025h1.196a2.302 2.302 0 01-.437 1.21 2.877 2.877 0 01-1.08.916 3.088 3.088 0 01-1.422.342c-1.008 0-1.81-.335-2.407-1.005-.592-.675-.888-1.595-.888-2.762v-.212c0-.72.132-1.36.396-1.92.265-.561.643-.997 1.135-1.306.497-.31 1.082-.465 1.757-.465.829 0 1.517.248 2.064.745.552.496.846 1.141.882 1.934h-1.196c-.037-.478-.219-.87-.547-1.175-.324-.31-.725-.465-1.203-.465-.643 0-1.142.232-1.497.697-.351.46-.527 1.128-.527 2.003v.24c0 .851.176 1.508.527 1.968.351.46.852.69 1.504.69zm6.077-8.292v1.791h1.381v.978h-1.381v4.587c0 .296.061.52.184.67.123.146.333.218.629.218.146 0 .347-.027.602-.081v1.025a3.669 3.669 0 01-.971.137c-.565 0-.991-.171-1.278-.513-.287-.342-.431-.827-.431-1.456v-4.587h-1.347v-.978h1.347v-1.79h1.265z" fill="#03A9F4"/>
  <path d="M88.302 95.084l.191 1.313.28-1.183 1.97-6.945h1.107l1.92 6.945.274 1.203.212-1.34L95.8 88.27h1.32l-2.414 9.953h-1.196l-2.051-7.253-.157-.759-.157.759-2.127 7.253h-1.196l-2.406-9.953h1.313l1.572 6.815zm9.53-.629c0-.724.14-1.376.423-1.955.287-.579.684-1.025 1.19-1.34.51-.314 1.091-.471 1.743-.471 1.007 0 1.82.348 2.44 1.045.624.698.936 1.625.936 2.783v.089c0 .72-.139 1.367-.417 1.94a3.11 3.11 0 01-1.182 1.334c-.511.319-1.098.478-1.764.478-1.002 0-1.816-.348-2.44-1.046-.62-.697-.93-1.62-.93-2.768v-.089zm1.27.15c0 .82.19 1.48.568 1.976.383.497.893.745 1.531.745.643 0 1.153-.25 1.531-.752.379-.506.568-1.212.568-2.119 0-.811-.194-1.467-.581-1.969-.383-.505-.893-.758-1.531-.758-.625 0-1.128.248-1.511.745-.383.496-.575 1.207-.575 2.133zm10.624-2.645a3.797 3.797 0 00-.622-.048c-.83 0-1.393.353-1.689 1.06v5.25h-1.265v-7.397h1.231l.02.855c.415-.661 1.003-.992 1.764-.992.246 0 .433.032.561.096v1.176zm3.233 2.837l-.793.827v2.598h-1.265v-10.5h1.265v6.35l.677-.813 2.303-2.434h1.539l-2.878 3.09 3.213 4.307h-1.484l-2.577-3.425zm6.405 3.425H118.1v-7.397h1.264v7.397zm-1.367-9.359c0-.205.062-.378.185-.52.127-.14.314-.211.56-.211.246 0 .433.07.561.212a.75.75 0 01.191.52.725.725 0 01-.191.512c-.128.137-.315.205-.561.205-.246 0-.433-.068-.56-.205a.738.738 0 01-.185-.513zm4.594 1.962l.041.93c.565-.711 1.303-1.066 2.215-1.066 1.563 0 2.351.881 2.365 2.645v4.888h-1.265v-4.895c-.004-.533-.127-.927-.369-1.183-.237-.255-.608-.382-1.114-.382-.41 0-.77.11-1.08.328-.31.219-.552.506-.725.861v5.27h-1.264v-7.396h1.196zm6.227 3.637c0-1.153.267-2.07.8-2.748.533-.684 1.24-1.025 2.119-1.025.903 0 1.607.319 2.113.957l.061-.82h1.155v7.218c0 .957-.284 1.711-.854 2.263-.565.551-1.326.827-2.283.827a3.808 3.808 0 01-1.566-.342c-.51-.228-.9-.54-1.169-.936l.657-.76c.542.67 1.205 1.006 1.989 1.006.615 0 1.094-.174 1.435-.52.347-.346.52-.834.52-1.463v-.636c-.506.584-1.196.875-2.071.875-.866 0-1.568-.348-2.106-1.046-.533-.697-.8-1.647-.8-2.85zm1.272.144c0 .834.171 1.49.513 1.968.341.474.82.711 1.435.711.798 0 1.383-.362 1.757-1.087v-3.377c-.387-.706-.969-1.06-1.743-1.06-.615 0-1.096.24-1.443.719-.346.478-.519 1.187-.519 2.126zm10.028-.15c0-.725.141-1.377.424-1.956a3.221 3.221 0 011.189-1.34c.511-.314 1.092-.471 1.744-.471 1.007 0 1.82.348 2.44 1.045.624.698.937 1.625.937 2.783v.089c0 .72-.139 1.367-.417 1.94a3.12 3.12 0 01-1.183 1.334c-.51.319-1.098.478-1.764.478-1.002 0-1.816-.348-2.44-1.046-.62-.697-.93-1.62-.93-2.768v-.089zm1.272.15c0 .82.189 1.478.567 1.975.383.497.893.745 1.531.745.643 0 1.153-.25 1.532-.752.378-.506.567-1.212.567-2.119 0-.811-.194-1.467-.581-1.969-.383-.505-.893-.758-1.531-.758-.625 0-1.128.248-1.511.745-.383.496-.574 1.207-.574 2.133zm8.244-3.78l.041.929c.565-.711 1.303-1.066 2.215-1.066 1.563 0 2.351.881 2.365 2.645v4.888h-1.265v-4.895c-.004-.533-.127-.927-.369-1.183-.237-.255-.608-.382-1.114-.382-.41 0-.77.11-1.08.328-.31.219-.552.506-.725.861v5.27h-1.264v-7.396h1.196zm6.555 6.733a.8.8 0 01.192-.547c.132-.146.328-.219.588-.219.26 0 .455.073.588.219a.772.772 0 01.205.547.73.73 0 01-.205.526c-.133.141-.328.212-.588.212-.26 0-.456-.07-.588-.212a.755.755 0 01-.192-.526zm3.692 0c0-.22.064-.401.191-.547.132-.146.328-.219.588-.219.26 0 .456.073.588.219a.767.767 0 01.205.547c0 .21-.068.385-.205.526-.132.141-.328.212-.588.212-.26 0-.456-.07-.588-.212a.759.759 0 01-.191-.526zm3.691 0a.8.8 0 01.192-.547c.132-.146.328-.219.588-.219.259 0 .455.073.587.219a.768.768 0 01.206.547c0 .21-.069.385-.206.526-.132.141-.328.212-.587.212-.26 0-.456-.07-.588-.212a.755.755 0 01-.192-.526z" fill="#78909C"/>
  <circle cx="426.5" cy="93.5" r="18.5" fill="#03A9F4"/>
  <path fill-rule="evenodd" clip-rule="evenodd" d="M434.878 93.057l.003-.004-.068-.038c-.011-.005-.019-.013-.03-.016l-12.684-6.339-.005.004a.385.385 0 00-.628.293v12.786a.384.384 0 00.628.293l.005.004 12.684-6.338c.011-.004.019-.011.029-.016l.069-.039-.003-.004a.372.372 0 00.149-.293.37.37 0 00-.149-.293z" fill="#fff"/>
  <path d="M356.821 91.967c0 1.431-.269 2.511-.806 3.24-.534.725-1.347 1.087-2.441 1.087-1.075 0-1.886-.353-2.433-1.06-.543-.71-.821-1.76-.834-3.15V90.36c0-1.431.266-2.504.799-3.22.538-.715 1.356-1.073 2.455-1.073 1.089 0 1.9.349 2.433 1.046.538.697.814 1.74.827 3.13v1.723zm-1.661-1.86c0-.933-.127-1.617-.383-2.05-.255-.437-.66-.656-1.216-.656-.543 0-.942.207-1.197.622-.255.41-.389 1.053-.403 1.928v2.256c0 .93.13 1.622.39 2.078.259.455.667.683 1.223.683.533 0 .928-.21 1.183-.629.255-.424.389-1.084.403-1.982v-2.25zm4.238 4.3c.31 0 .55.09.718.267a.9.9 0 01.253.657c0 .26-.084.476-.253.649-.168.169-.408.253-.718.253-.296 0-.53-.084-.704-.253a.867.867 0 01-.259-.65.9.9 0 01.253-.656c.168-.177.405-.266.71-.266zm0-5.803c.31 0 .55.089.718.267a.9.9 0 01.253.656c0 .26-.084.476-.253.65-.168.168-.408.252-.718.252-.296 0-.53-.084-.704-.253a.867.867 0 01-.259-.65.9.9 0 01.253-.655c.168-.178.405-.267.71-.267zm9.099 3.363c0 1.431-.269 2.511-.807 3.24-.533.725-1.346 1.087-2.44 1.087-1.076 0-1.887-.353-2.434-1.06-.542-.71-.82-1.76-.834-3.15V90.36c0-1.431.267-2.504.8-3.22.538-.715 1.356-1.073 2.454-1.073 1.09 0 1.901.349 2.434 1.046.538.697.813 1.74.827 3.13v1.723zm-1.661-1.86c0-.933-.128-1.617-.383-2.05-.255-.437-.661-.656-1.217-.656-.542 0-.941.207-1.196.622-.255.41-.39 1.053-.403 1.928v2.256c0 .93.13 1.622.389 2.078.26.455.668.683 1.224.683.533 0 .927-.21 1.183-.629.255-.424.389-1.084.403-1.982v-2.25zm9.618 1.86c0 1.431-.269 2.511-.807 3.24-.533.725-1.346 1.087-2.44 1.087-1.075 0-1.887-.353-2.434-1.06-.542-.71-.82-1.76-.834-3.15V90.36c0-1.431.267-2.504.8-3.22.538-.715 1.356-1.073 2.454-1.073 1.09 0 1.901.349 2.434 1.046.538.697.813 1.74.827 3.13v1.723zm-1.661-1.86c0-.933-.128-1.617-.383-2.05-.255-.437-.661-.656-1.217-.656-.542 0-.941.207-1.196.622-.255.41-.39 1.053-.403 1.928v2.256c0 .93.13 1.622.389 2.078.26.455.668.683 1.224.683.533 0 .927-.21 1.183-.629.255-.424.389-1.084.403-1.982v-2.25z" fill="#3D4853"/>
  <path stroke="#C6D2D9" d="M317.541 71.675v41.995"/>
  <rect x="62.5" y="135.5" width="398" height="59" rx="3.5" fill="#fff" stroke="#C6D2D9"/>
  <path d="M88.302 166.882l.191 1.313.28-1.183 1.97-6.945h1.107l1.92 6.945.274 1.203.212-1.34 1.545-6.808h1.32l-2.414 9.953h-1.196l-2.051-7.253-.157-.759-.157.759-2.127 7.253h-1.196l-2.406-9.953h1.313l1.572 6.815zm9.53-.629c0-.724.14-1.376.423-1.955a3.22 3.22 0 011.19-1.34c.51-.314 1.091-.471 1.743-.471 1.007 0 1.82.348 2.44 1.045.624.698.936 1.625.936 2.783v.089c0 .72-.139 1.367-.417 1.941a3.109 3.109 0 01-1.182 1.333c-.511.319-1.098.478-1.764.478-1.002 0-1.816-.348-2.44-1.045-.62-.698-.93-1.621-.93-2.769v-.089zm1.27.151c0 .82.19 1.478.568 1.975.383.497.893.745 1.531.745.643 0 1.153-.25 1.531-.752.379-.506.568-1.212.568-2.119 0-.811-.194-1.467-.581-1.969-.383-.505-.893-.758-1.531-.758-.625 0-1.128.248-1.511.745-.383.496-.575 1.207-.575 2.133zm10.624-2.646a3.785 3.785 0 00-.622-.048c-.83 0-1.393.353-1.689 1.06v5.25h-1.265v-7.397h1.231l.02.855c.415-.661 1.003-.991 1.764-.991.246 0 .433.031.561.095v1.176zm3.233 2.837l-.793.827v2.598h-1.265v-10.5h1.265v6.35l.677-.813 2.303-2.434h1.539l-2.878 3.09 3.213 4.307h-1.484l-2.577-3.425z" fill="#3D4853"/>
  <path d="M436.844 164.699c-.129-.082-.267-.147-.267-.147L421.8 157.1c-.108-.054-.2-.1-.3-.1-.3 0-.5.2-.5.5v15.004c0 .3.2.5.5.5.1 0 .223-.043.352-.109l14.725-7.443.267-.163A.346.346 0 00437 165c0-.1-.027-.219-.156-.301zm-14.84 6.936v-13.311L435.496 165l-13.492 6.635z" fill="#78909C"/>
  <path d="M354.832 167.956h-1.654v-7.992l-2.441.834v-1.401l3.883-1.429h.212v9.988zm4.566-1.75c.31 0 .55.088.718.266a.9.9 0 01.253.656c0 .26-.084.477-.253.65-.168.168-.408.253-.718.253-.296 0-.53-.085-.704-.253a.868.868 0 01-.259-.65.9.9 0 01.253-.656c.168-.178.405-.266.71-.266zm0-5.804c.31 0 .55.089.718.266a.903.903 0 01.253.657.892.892 0 01-.253.649c-.168.169-.408.253-.718.253-.296 0-.53-.084-.704-.253a.866.866 0 01-.259-.649c0-.265.084-.483.253-.657.168-.177.405-.266.71-.266zm4.533 1.818h1.011c.511-.004.914-.137 1.21-.396.301-.26.452-.636.452-1.128 0-.474-.126-.841-.376-1.101-.247-.264-.625-.396-1.135-.396-.447 0-.814.13-1.101.389-.287.256-.43.591-.43 1.005H361.9c0-.51.135-.975.404-1.394.273-.42.651-.745 1.134-.978a3.692 3.692 0 011.634-.355c.994 0 1.773.25 2.338.752.57.496.855 1.189.855 2.078 0 .446-.144.868-.431 1.264a2.66 2.66 0 01-1.101.889c.547.187.962.481 1.245.882.287.401.43.88.43 1.436 0 .893-.307 1.604-.923 2.132-.61.529-1.415.793-2.413.793-.957 0-1.741-.255-2.351-.765-.611-.511-.916-1.19-.916-2.037h1.661c0 .437.146.793.437 1.066.297.273.693.41 1.19.41.515 0 .92-.137 1.217-.41.296-.273.444-.67.444-1.189 0-.525-.155-.928-.465-1.21-.31-.283-.77-.424-1.381-.424h-.977v-1.313zm12.523 1.545c0 1.431-.269 2.511-.807 3.24-.533.725-1.346 1.087-2.44 1.087-1.075 0-1.887-.353-2.434-1.059-.542-.711-.82-1.762-.834-3.152v-1.722c0-1.431.267-2.505.8-3.22.538-.716 1.356-1.073 2.454-1.073 1.09 0 1.901.348 2.434 1.046.538.697.813 1.741.827 3.13v1.723zm-1.661-1.859c0-.934-.128-1.618-.383-2.051-.255-.438-.661-.656-1.217-.656-.542 0-.941.207-1.196.622-.255.41-.39 1.053-.403 1.928v2.255c0 .93.13 1.623.389 2.079.26.455.668.683 1.224.683.533 0 .927-.21 1.183-.629.255-.424.389-1.084.403-1.982v-2.249z" fill="#3D4853"/>
  <path stroke="#C6D2D9" d="M317.541 143.473v41.995"/>
  <rect x="62.5" y="194.5" width="398" height="58" rx="3.5" fill="#fff" stroke="#C6D2D9"/>
  <path d="M436.844 220.699c-.129-.082-.267-.147-.267-.147L421.8 213.1c-.108-.054-.2-.1-.3-.1-.3 0-.5.2-.5.5v15.004c0 .3.2.5.5.5.1 0 .223-.043.352-.109l14.725-7.443.267-.163A.346.346 0 00437 221c0-.1-.027-.219-.156-.301zm-14.84 6.936v-13.311L435.496 221l-13.492 6.635z" fill="#78909C"/>
  <path d="M93.477 225.113c-.124 1.053-.513 1.866-1.17 2.44-.651.57-1.52.855-2.604.855-1.176 0-2.119-.422-2.83-1.265-.706-.843-1.06-1.971-1.06-3.384v-.957c0-.925.165-1.738.493-2.44.332-.702.802-1.24 1.408-1.613.606-.379 1.308-.568 2.105-.568 1.058 0 1.905.296 2.543.889.638.588 1.01 1.403 1.115 2.447h-1.32c-.114-.793-.362-1.367-.745-1.723-.378-.355-.91-.533-1.593-.533-.838 0-1.497.31-1.975.93-.474.62-.711 1.502-.711 2.645v.964c0 1.08.225 1.939.677 2.577.45.638 1.082.957 1.893.957.73 0 1.288-.164 1.675-.492.392-.332.652-.909.78-1.729h1.319zm2.973 3.158h-1.264v-10.5h1.264v10.5zm3.404 0H98.59v-7.396h1.264v7.396zm-1.367-9.358c0-.205.062-.379.185-.52.127-.141.314-.212.56-.212.246 0 .433.071.561.212a.748.748 0 01.191.52.72.72 0 01-.191.512c-.128.137-.315.205-.56.205-.247 0-.434-.068-.561-.205a.735.735 0 01-.185-.512zm6.467 9.495c-1.003 0-1.818-.328-2.447-.985-.629-.66-.944-1.542-.944-2.645v-.233c0-.733.139-1.387.417-1.962a3.295 3.295 0 011.176-1.353 2.96 2.96 0 011.641-.492c.961 0 1.709.317 2.242.95.533.633.8 1.54.8 2.721v.526h-5.011c.018.729.23 1.319.636 1.771.41.446.93.669 1.558.669.447 0 .825-.091 1.135-.273.31-.182.581-.424.814-.725l.772.602c-.62.952-1.549 1.429-2.789 1.429zm-.157-6.631c-.511 0-.939.187-1.285.56-.347.37-.561.889-.643 1.559h3.705v-.096c-.036-.642-.209-1.139-.519-1.49-.31-.355-.729-.533-1.258-.533zm5.708-.902l.041.929c.565-.711 1.303-1.066 2.215-1.066 1.563 0 2.351.882 2.365 2.645v4.888h-1.265v-4.895c-.004-.533-.127-.927-.369-1.182-.237-.255-.608-.383-1.114-.383-.41 0-.77.109-1.08.328a2.23 2.23 0 00-.725.861v5.271h-1.264v-7.396h1.196zm8.244-1.792v1.792h1.381v.977h-1.381v4.587c0 .296.062.519.185.67.123.146.332.219.628.219.146 0 .347-.028.602-.082v1.025a3.674 3.674 0 01-.971.137c-.565 0-.991-.171-1.278-.513-.287-.342-.431-.827-.431-1.456v-4.587h-1.346v-.977h1.346v-1.792h1.265zm12.599 5.572c0 1.13-.26 2.039-.78 2.727-.519.684-1.216 1.026-2.091 1.026-.935 0-1.657-.331-2.167-.991l-.062.854h-1.162v-10.5h1.265v3.917c.51-.633 1.214-.95 2.112-.95.898 0 1.602.339 2.112 1.018.515.679.773 1.609.773 2.789v.11zm-1.265-.144c0-.861-.166-1.526-.499-1.996-.333-.469-.811-.704-1.436-.704-.834 0-1.433.387-1.797 1.162v3.199c.387.775.991 1.162 1.811 1.162.606 0 1.078-.234 1.415-.704.337-.469.506-1.175.506-2.119zm4.238 3.76h-1.264v-7.396h1.264v7.396zm-1.367-9.358c0-.205.062-.379.185-.52.127-.141.314-.212.56-.212.246 0 .433.071.561.212a.75.75 0 01.191.52.722.722 0 01-.191.512c-.128.137-.315.205-.561.205-.246 0-.433-.068-.56-.205a.735.735 0 01-.185-.512zm4.772 9.358h-1.265v-10.5h1.265v10.5zm3.404 0h-1.265v-10.5h1.265v10.5zm3.404 0h-1.264v-7.396h1.264v7.396zm-1.367-9.358c0-.205.062-.379.185-.52.127-.141.314-.212.56-.212.246 0 .433.071.561.212a.75.75 0 01.191.52.722.722 0 01-.191.512c-.128.137-.315.205-.561.205-.246 0-.433-.068-.56-.205a.735.735 0 01-.185-.512zm4.594 1.962l.041.929c.565-.711 1.303-1.066 2.215-1.066 1.563 0 2.351.882 2.365 2.645v4.888h-1.265v-4.895c-.004-.533-.127-.927-.369-1.182-.237-.255-.608-.383-1.114-.383-.41 0-.77.109-1.08.328a2.23 2.23 0 00-.725.861v5.271h-1.265v-7.396h1.197zm6.227 3.636c0-1.153.267-2.069.8-2.748.533-.683 1.24-1.025 2.119-1.025.903 0 1.607.319 2.113.957l.061-.82h1.155v7.218c0 .957-.285 1.712-.854 2.263-.565.551-1.326.827-2.283.827a3.804 3.804 0 01-1.566-.342c-.51-.228-.9-.54-1.169-.936l.657-.759c.542.67 1.205 1.005 1.989 1.005.615 0 1.094-.173 1.435-.52.347-.346.52-.834.52-1.463v-.635c-.506.583-1.196.875-2.071.875-.866 0-1.568-.349-2.106-1.046-.533-.697-.8-1.648-.8-2.851zm1.272.144c0 .834.171 1.49.512 1.969.342.473.821.71 1.436.71.798 0 1.383-.362 1.757-1.086v-3.377c-.388-.707-.969-1.06-1.743-1.06-.616 0-1.096.239-1.443.718-.346.478-.519 1.187-.519 2.126zM356.821 222.016c0 1.431-.269 2.511-.806 3.241-.534.724-1.347 1.087-2.441 1.087-1.075 0-1.886-.354-2.433-1.06-.543-.711-.821-1.761-.834-3.151v-1.723c0-1.431.266-2.504.799-3.22.538-.715 1.356-1.073 2.455-1.073 1.089 0 1.9.349 2.433 1.046.538.697.814 1.741.827 3.131v1.722zm-1.661-1.859c0-.934-.127-1.618-.383-2.051-.255-.437-.66-.656-1.216-.656-.543 0-.942.207-1.197.622-.255.41-.389 1.053-.403 1.928v2.256c0 .929.13 1.622.39 2.078.259.455.667.683 1.223.683.533 0 .928-.209 1.183-.629.255-.423.389-1.084.403-1.982v-2.249zm4.238 4.3c.31 0 .55.089.718.266a.903.903 0 01.253.657.892.892 0 01-.253.649c-.168.169-.408.253-.718.253-.296 0-.53-.084-.704-.253a.867.867 0 01-.259-.649c0-.265.084-.483.253-.657.168-.177.405-.266.71-.266zm0-5.804c.31 0 .55.089.718.267a.9.9 0 01.253.656.89.89 0 01-.253.649c-.168.169-.408.253-.718.253-.296 0-.53-.084-.704-.253a.866.866 0 01-.259-.649.9.9 0 01.253-.656c.168-.178.405-.267.71-.267zm8.231 4.006h1.237v1.333h-1.237v2.215h-1.661v-2.215h-4.3l-.048-1.012 4.293-6.726h1.716v6.405zm-4.266 0h2.605v-4.156l-.123.218-2.482 3.938zm7.048-1.388l.54-5.017h5.346v1.435h-3.965l-.273 2.379c.46-.264.979-.396 1.558-.396.948 0 1.684.303 2.208.909.529.606.793 1.422.793 2.447 0 1.012-.292 1.818-.875 2.42-.583.597-1.383.896-2.399.896-.912 0-1.668-.258-2.27-.773-.597-.519-.92-1.203-.97-2.051h1.606c.064.483.237.855.519 1.115.283.255.652.382 1.108.382.51 0 .907-.182 1.189-.547.287-.364.431-.861.431-1.49 0-.606-.157-1.084-.472-1.435-.314-.356-.747-.534-1.298-.534-.301 0-.556.041-.766.124-.21.077-.438.232-.684.464l-1.326-.328z" fill="#3D4853"/>
  <path stroke="#C6D2D9" d="M317.541 201.724v41.995"/>
  <rect x="62.5" y="252.5" width="398" height="58" rx="3.5" fill="#fff" stroke="#C6D2D9"/>
  <path d="M436.844 281.699c-.129-.082-.267-.147-.267-.147L421.8 274.1c-.108-.054-.2-.1-.3-.1-.3 0-.5.2-.5.5v15.004c0 .3.2.5.5.5.1 0 .223-.043.352-.109l14.725-7.443.267-.163A.346.346 0 00437 282c0-.1-.027-.219-.156-.301zm-14.84 6.936v-13.311L435.496 282l-13.492 6.635z" fill="#78909C"/>
  <path d="M87.475 285.449h4.716v1.073h-6.036v-9.953h1.32v8.88zm10.28.342c-.491.579-1.214.868-2.166.868-.788 0-1.39-.228-1.805-.684-.41-.46-.617-1.139-.622-2.037v-4.812h1.265v4.778c0 1.121.455 1.682 1.367 1.682.966 0 1.609-.36 1.928-1.08v-5.38h1.264v7.396h-1.203l-.027-.731zm4.355-6.665l.041.929c.565-.711 1.304-1.066 2.215-1.066 1.563 0 2.352.882 2.365 2.646v4.887h-1.264v-4.894c-.005-.534-.128-.928-.369-1.183-.237-.255-.609-.383-1.115-.383-.41 0-.77.11-1.08.328-.31.219-.551.506-.724.862v5.27h-1.265v-7.396h1.196zm9.495 6.501c.452 0 .846-.137 1.183-.41.337-.274.524-.616.561-1.026h1.196a2.295 2.295 0 01-.438 1.21 2.861 2.861 0 01-1.08.916c-.446.228-.92.342-1.422.342-1.007 0-1.809-.335-2.406-1.005-.592-.674-.888-1.595-.888-2.762v-.212c0-.72.132-1.36.396-1.92a3.026 3.026 0 011.135-1.306c.497-.31 1.082-.465 1.757-.465.829 0 1.517.248 2.064.745.552.497.845 1.142.882 1.935h-1.196c-.037-.479-.219-.871-.547-1.176-.324-.31-.725-.465-1.203-.465-.643 0-1.142.232-1.497.697-.351.461-.527 1.128-.527 2.003v.24c0 .852.176 1.508.527 1.968.35.461.852.691 1.503.691zm5.626-5.606c.561-.688 1.29-1.032 2.188-1.032 1.563 0 2.352.882 2.365 2.646v4.887h-1.264v-4.894c-.005-.534-.128-.928-.37-1.183-.237-.255-.608-.383-1.114-.383-.41 0-.77.11-1.08.328-.31.219-.551.506-.725.862v5.27h-1.264v-10.5h1.264v3.999zm16.181 2.885c0 1.13-.26 2.039-.779 2.728-.52.683-1.217 1.025-2.092 1.025-.934 0-1.657-.33-2.167-.991l-.062.854h-1.162v-10.5h1.265v3.917c.51-.633 1.215-.95 2.112-.95.898 0 1.602.34 2.113 1.019.515.679.772 1.608.772 2.789v.109zm-1.265-.144c0-.861-.166-1.526-.499-1.996-.332-.469-.811-.704-1.435-.704-.834 0-1.433.388-1.798 1.162v3.2c.387.774.991 1.162 1.812 1.162.606 0 1.077-.235 1.415-.704.337-.47.505-1.176.505-2.12zm6.44-2.502a3.893 3.893 0 00-.622-.047c-.83 0-1.392.353-1.689 1.059v5.25h-1.264v-7.396h1.23l.021.854c.414-.661 1.002-.991 1.763-.991.246 0 .433.032.561.096v1.175zm4.101 6.399c-1.002 0-1.818-.328-2.447-.984-.629-.661-.943-1.543-.943-2.646v-.232c0-.734.139-1.388.417-1.962a3.278 3.278 0 011.176-1.354 2.954 2.954 0 011.64-.492c.962 0 1.709.317 2.242.95.534.634.8 1.541.8 2.721v.526h-5.011c.019.729.231 1.32.636 1.771.41.446.93.67 1.559.67.446 0 .825-.091 1.135-.274a2.86 2.86 0 00.813-.724l.773.601c-.62.953-1.55 1.429-2.79 1.429zm-.157-6.631c-.51 0-.939.187-1.285.561-.346.369-.56.888-.642 1.558h3.705v-.095c-.037-.643-.21-1.14-.52-1.491-.31-.355-.729-.533-1.258-.533zm9.078 6.494c-.073-.146-.132-.405-.177-.779-.588.611-1.29.916-2.106.916-.729 0-1.328-.205-1.798-.615a2.017 2.017 0 01-.697-1.573c0-.77.292-1.367.875-1.791.588-.428 1.413-.642 2.475-.642h1.23v-.581c0-.442-.132-.793-.396-1.053-.265-.264-.654-.396-1.169-.396-.451 0-.83.114-1.135.341-.305.228-.458.504-.458.828h-1.272c0-.37.13-.725.39-1.067.264-.346.62-.62 1.067-.82a3.6 3.6 0 011.483-.301c.852 0 1.52.214 2.003.643.483.423.734 1.009.752 1.756v3.405c0 .679.086 1.219.26 1.62v.109h-1.327zm-2.098-.964c.396 0 .772-.102 1.128-.307a1.86 1.86 0 00.772-.8v-1.518h-.991c-1.55 0-2.324.454-2.324 1.361 0 .396.132.706.396.929.265.224.604.335 1.019.335zm7.212-2.461l-.793.828v2.597h-1.265v-10.5h1.265v6.351l.676-.814 2.304-2.433h1.538l-2.878 3.09 3.213 4.306H159.3l-2.577-3.425zM354.832 284.458h-1.654v-7.991l-2.441.834V275.9l3.883-1.429h.212v9.987zm4.566-1.75c.31 0 .55.089.718.267a.9.9 0 01.253.656c0 .26-.084.476-.253.65-.168.168-.408.252-.718.252-.296 0-.53-.084-.704-.252a.87.87 0 01-.259-.65.9.9 0 01.253-.656c.168-.178.405-.267.71-.267zm0-5.803c.31 0 .55.088.718.266a.9.9 0 01.253.656c0 .26-.084.477-.253.65-.168.168-.408.253-.718.253-.296 0-.53-.085-.704-.253a.868.868 0 01-.259-.65.9.9 0 01.253-.656c.168-.178.405-.266.71-.266zm9.099 3.363c0 1.431-.269 2.511-.807 3.24-.533.725-1.346 1.087-2.44 1.087-1.076 0-1.887-.353-2.434-1.06-.542-.711-.82-1.761-.834-3.151v-1.723c0-1.431.267-2.504.8-3.219.538-.716 1.356-1.074 2.454-1.074 1.09 0 1.901.349 2.434 1.046.538.698.813 1.741.827 3.131v1.723zm-1.661-1.86c0-.934-.128-1.617-.383-2.05-.255-.438-.661-.657-1.217-.657-.542 0-.941.208-1.196.622-.255.411-.39 1.053-.403 1.928v2.256c0 .93.13 1.622.389 2.078.26.456.668.684 1.224.684.533 0 .927-.21 1.183-.629.255-.424.389-1.085.403-1.983v-2.249zm9.618 1.86c0 1.431-.269 2.511-.807 3.24-.533.725-1.346 1.087-2.44 1.087-1.075 0-1.887-.353-2.434-1.06-.542-.711-.82-1.761-.834-3.151v-1.723c0-1.431.267-2.504.8-3.219.538-.716 1.356-1.074 2.454-1.074 1.09 0 1.901.349 2.434 1.046.538.698.813 1.741.827 3.131v1.723zm-1.661-1.86c0-.934-.128-1.617-.383-2.05-.255-.438-.661-.657-1.217-.657-.542 0-.941.208-1.196.622-.255.411-.39 1.053-.403 1.928v2.256c0 .93.13 1.622.389 2.078.26.456.668.684 1.224.684.533 0 .927-.21 1.183-.629.255-.424.389-1.085.403-1.983v-2.249z" fill="#3D4853"/>
  <path stroke="#C6D2D9" d="M317.541 259.975v41.995"/>
  <path d="M239.111 166.123v3.897h-1.312v-9.953h3.671c1.089 0 1.941.278 2.556.834.62.556.93 1.292.93 2.208 0 .966-.303 1.711-.909 2.235-.602.52-1.465.779-2.591.779h-2.345zm0-1.073h2.359c.702 0 1.239-.164 1.613-.492.374-.333.561-.811.561-1.436 0-.592-.187-1.066-.561-1.422-.374-.355-.886-.54-1.538-.553h-2.434v3.903zm10.897-1.292a3.785 3.785 0 00-.622-.048c-.83 0-1.393.353-1.689 1.06v5.25h-1.264v-7.397h1.23l.021.855c.414-.661 1.002-.991 1.763-.991.246 0 .433.031.561.095v1.176zm.697 2.495c0-.724.141-1.376.424-1.955.287-.579.683-1.025 1.189-1.34.511-.314 1.092-.471 1.744-.471 1.007 0 1.82.348 2.44 1.045.624.698.936 1.625.936 2.783v.089c0 .72-.139 1.367-.417 1.941a3.109 3.109 0 01-1.182 1.333c-.511.319-1.098.478-1.764.478-1.002 0-1.816-.348-2.44-1.045-.62-.698-.93-1.621-.93-2.769v-.089zm1.272.151c0 .82.189 1.478.567 1.975.383.497.893.745 1.531.745.643 0 1.153-.25 1.531-.752.379-.506.568-1.212.568-2.119 0-.811-.194-1.467-.581-1.969-.383-.505-.893-.758-1.531-.758-.625 0-1.128.248-1.511.745-.383.496-.574 1.207-.574 2.133zm8.353-3.781v8.251c0 1.422-.645 2.133-1.934 2.133a2.35 2.35 0 01-.773-.123v-1.012c.146.037.337.055.574.055.283 0 .497-.077.643-.232.15-.151.225-.415.225-.793v-8.279h1.265zm-1.394-1.962c0-.2.061-.371.184-.512.128-.146.312-.219.554-.219.246 0 .433.071.56.212a.744.744 0 01.192.519.722.722 0 01-.192.513c-.127.137-.314.205-.56.205-.246 0-.431-.068-.554-.205a.739.739 0 01-.184-.513zm6.507 9.495c-1.002 0-1.818-.328-2.447-.984-.629-.661-.943-1.543-.943-2.645v-.233c0-.734.139-1.388.417-1.962a3.269 3.269 0 011.176-1.353 2.954 2.954 0 011.64-.492c.962 0 1.709.316 2.242.95.534.633.8 1.54.8 2.72v.527h-5.011c.019.729.231 1.319.636 1.77.41.447.93.67 1.559.67.446 0 .825-.091 1.134-.273a2.84 2.84 0 00.814-.725l.772.602c-.619.952-1.549 1.428-2.789 1.428zm-.157-6.63c-.51 0-.939.186-1.285.56-.346.369-.561.889-.643 1.559h3.705v-.096c-.036-.643-.209-1.139-.519-1.49-.31-.356-.729-.533-1.258-.533zm7.479 5.598c.451 0 .845-.136 1.182-.41.338-.273.524-.615.561-1.025h1.196a2.302 2.302 0 01-.437 1.21 2.885 2.885 0 01-1.08.916 3.086 3.086 0 01-1.422.341c-1.008 0-1.81-.334-2.407-1.004-.592-.675-.888-1.595-.888-2.762v-.212c0-.72.132-1.36.396-1.921.265-.56.643-.996 1.135-1.306.497-.309 1.082-.464 1.757-.464.829 0 1.517.248 2.064.745.552.496.846 1.141.882 1.934h-1.196c-.037-.478-.219-.87-.547-1.176-.324-.309-.725-.464-1.203-.464-.643 0-1.142.232-1.497.697-.351.46-.527 1.128-.527 2.003v.239c0 .852.176 1.509.527 1.969.351.46.852.69 1.504.69zm6.077-8.292v1.791h1.381v.978h-1.381v4.587c0 .296.061.519.184.67.123.145.333.218.629.218.146 0 .347-.027.602-.082v1.026a3.672 3.672 0 01-.971.136c-.565 0-.991-.17-1.278-.512-.287-.342-.431-.827-.431-1.456v-4.587h-1.347v-.978h1.347v-1.791h1.265zm9.782 3.049l2.386-3.814h1.545l-3.145 4.935 3.22 5.018h-1.559l-2.447-3.883-2.461 3.883h-1.552l3.227-5.018-3.151-4.935h1.538l2.399 3.814z" fill="#3D4853"/>
  <ellipse cx="225.178" cy="165.148" rx="4.068" ry="4.064" fill="#FF80AB"/>
  <path d="M266.484 223.616c0 .975-.164 1.827-.492 2.556-.328.725-.793 1.279-1.394 1.661-.602.383-1.304.575-2.106.575-.784 0-1.479-.192-2.085-.575-.606-.387-1.078-.936-1.415-1.647-.332-.715-.503-1.543-.513-2.481v-.718c0-.957.167-1.803.5-2.536.332-.734.802-1.295 1.408-1.682.61-.392 1.308-.588 2.092-.588.797 0 1.499.194 2.105.581.611.383 1.08.941 1.408 1.675.328.729.492 1.579.492 2.55v.629zm-1.305-.643c0-1.18-.237-2.085-.711-2.714-.474-.633-1.137-.95-1.989-.95-.83 0-1.484.317-1.962.95-.474.629-.718 1.504-.732 2.625v.732c0 1.144.239 2.044.718 2.7.483.652 1.146.977 1.989.977.848 0 1.504-.307 1.969-.922.465-.62.704-1.507.718-2.66v-.738zm3.698 5.298v-6.419h-1.169v-.977h1.169v-.759c0-.793.212-1.406.636-1.839.424-.433 1.023-.65 1.798-.65a3.3 3.3 0 01.868.117l-.069 1.025a3.63 3.63 0 00-.683-.061c-.41 0-.727.12-.95.362-.224.237-.335.579-.335 1.025v.78h2.734v-.629c0-.825.235-1.468.704-1.928.474-.46 1.142-.691 2.003-.691.51 0 1.155.139 1.935.417l-.212 1.067c-.57-.228-1.115-.342-1.634-.342-.542 0-.934.121-1.176.362-.237.242-.355.609-.355 1.101v.643h1.517v.977h-1.517v6.419h-1.265v-6.419h-2.734v6.419h-1.265zm9.263 0h-1.265v-7.396h1.265v7.396zm5.031-.896c.451 0 .845-.136 1.183-.41a1.44 1.44 0 00.56-1.025h1.196a2.285 2.285 0 01-.437 1.21 2.876 2.876 0 01-1.08.916 3.087 3.087 0 01-1.422.342c-1.007 0-1.809-.335-2.406-1.005-.593-.675-.889-1.595-.889-2.762v-.212c0-.72.132-1.36.396-1.921.265-.56.643-.995 1.135-1.305.497-.31 1.083-.465 1.757-.465.829 0 1.518.248 2.065.745.551.497.845 1.142.881 1.934h-1.196c-.036-.478-.219-.87-.547-1.175-.323-.31-.724-.465-1.203-.465-.643 0-1.142.232-1.497.697-.351.46-.526 1.128-.526 2.003v.239c0 .853.175 1.509.526 1.969.351.46.852.69 1.504.69zm7.431 1.033c-1.003 0-1.819-.328-2.448-.985-.629-.66-.943-1.542-.943-2.645v-.233c0-.733.139-1.387.417-1.962a3.281 3.281 0 011.176-1.353 2.957 2.957 0 011.64-.492c.962 0 1.709.317 2.243.95.533.633.799 1.54.799 2.721v.526h-5.01c.018.729.23 1.319.635 1.771.41.446.93.669 1.559.669.447 0 .825-.091 1.135-.273.31-.182.581-.424.813-.725l.773.602c-.62.952-1.55 1.429-2.789 1.429zm-.158-6.631c-.51 0-.938.187-1.285.56-.346.37-.56.889-.642 1.559h3.705v-.096c-.037-.642-.21-1.139-.52-1.49-.31-.355-.729-.533-1.258-.533z" fill="#3D4853"/>
  <ellipse cx="245.52" cy="223.399" rx="4.068" ry="4.064" fill="#40C4FF"/>
  <path d="M247.984 277.584h-3.199v8.874h-1.306v-8.874h-3.192v-1.08h7.697v1.08zm2.653 8.874h-1.265v-7.397h1.265v7.397zm-1.367-9.359c0-.205.061-.378.184-.519.128-.142.315-.212.561-.212.246 0 .433.07.56.212a.744.744 0 01.192.519.722.722 0 01-.192.513c-.127.137-.314.205-.56.205-.246 0-.433-.068-.561-.205a.739.739 0 01-.184-.513zm4.586 1.962l.035.82c.542-.638 1.273-.957 2.194-.957 1.034 0 1.739.397 2.112 1.19.246-.356.565-.643.957-.862.397-.218.864-.328 1.402-.328 1.622 0 2.447.859 2.474 2.577v4.957h-1.264v-4.881c0-.529-.121-.923-.363-1.183-.241-.264-.647-.396-1.216-.396-.47 0-.86.141-1.169.423-.31.278-.49.654-.54 1.128v4.909h-1.272v-4.847c0-1.076-.526-1.613-1.579-1.613-.829 0-1.397.353-1.702 1.059v5.401h-1.265v-7.397h1.196zm14.158 7.533c-1.003 0-1.819-.328-2.448-.984-.628-.661-.943-1.543-.943-2.646v-.232c0-.734.139-1.388.417-1.962a3.283 3.283 0 011.176-1.353 2.952 2.952 0 011.64-.493c.962 0 1.709.317 2.243.951.533.633.799 1.54.799 2.72v.527h-5.01c.018.729.23 1.319.635 1.77.411.447.93.67 1.559.67.447 0 .825-.091 1.135-.273.31-.183.581-.424.813-.725l.773.602c-.62.952-1.55 1.428-2.789 1.428zm-.158-6.631c-.51 0-.938.187-1.285.561-.346.369-.56.889-.642 1.559h3.705v-.096c-.037-.643-.21-1.14-.52-1.49-.31-.356-.729-.534-1.258-.534zm7.144 2.783h-3.336v-1.033H275v1.033zm.902-.055c0-.725.142-1.376.424-1.955.287-.579.684-1.026 1.19-1.34.51-.314 1.091-.472 1.743-.472 1.007 0 1.82.349 2.44 1.046.625.697.937 1.625.937 2.782v.089c0 .72-.139 1.367-.417 1.942a3.123 3.123 0 01-1.183 1.333c-.51.319-1.098.478-1.764.478-1.002 0-1.816-.348-2.44-1.046-.62-.697-.93-1.62-.93-2.768v-.089zm1.272.15c0 .821.189 1.479.567 1.976.383.497.893.745 1.531.745.643 0 1.153-.251 1.532-.752.378-.506.567-1.212.567-2.119 0-.811-.194-1.468-.581-1.969-.383-.506-.893-.759-1.531-.759-.625 0-1.128.249-1.511.745-.383.497-.574 1.208-.574 2.133zm7.67 3.617v-6.419h-1.169v-.978h1.169v-.759c0-.793.212-1.406.635-1.839.424-.433 1.024-.649 1.798-.649.292 0 .581.039.869.116l-.069 1.026a3.629 3.629 0 00-.683-.062c-.411 0-.727.121-.951.362-.223.237-.335.579-.335 1.026v.779h1.58v.978h-1.58v6.419h-1.264zm4.867 0v-6.419h-1.169v-.978h1.169v-.759c0-.793.212-1.406.636-1.839.424-.433 1.023-.649 1.798-.649.291 0 .581.039.868.116l-.069 1.026a3.629 3.629 0 00-.683-.062c-.41 0-.727.121-.95.362-.224.237-.335.579-.335 1.026v.779h1.579v.978h-1.579v6.419h-1.265z" fill="#3D4853"/>
  <ellipse cx="229.246" cy="280.295" rx="4.068" ry="4.064" fill="#FFD740"/>
  <defs>
    <filter id="filter0_d" x="0" y="0" width="523" height="375" filterUnits="userSpaceOnUse" color-interpolation-filters="sRGB">
      <feFlood flood-opacity="0" result="BackgroundImageFix"/>
      <feColorMatrix in="SourceAlpha" values="0 0 0 0 0 0 0 0 0 0 0 0 0 0 0 0 0 0 127 0"/>
      <feOffset/>
      <feGaussianBlur stdDeviation="25"/>
      <feColorMatrix values="0 0 0 0 0.00392157 0 0 0 0 0.341176 0 0 0 0 0.607843 0 0 0 0.1 0"/>
      <feBlend in2="BackgroundImageFix" result="effect1_dropShadow"/>
      <feBlend in="SourceGraphic" in2="effect1_dropShadow" result="shape"/>
    </filter>
  </defs>
</svg>
