<svg xmlns="http://www.w3.org/2000/svg" width="330" height="440" fill="none" xmlns:v="https://vecta.io/nano"><ellipse cx="187.028" cy="426.854" rx="62.6" ry="13.146" fill="#e5f3fc"/><path d="M75.94 286.596s-8.874 7.642-13.2 8.176-4.33.924-4.856 1.634-2.948-2.506-4.668-2.268-3.675 2.268-3.675 2.268l-1.316.83h-5.04l-4.197.875h-1.98s-8.866-2.08-10.87-3.026-5.052-3.05-5.052-3.05 7.072-2.755 8.552-6.116 1.553-3.898 1.553-3.898-2.1.85-2.95 0-2.104-2.96-2.104-2.96l-1.77-1.437s-1.663-1.404-2.095-1.893-2.515-3.423-2.753-3.982-.836-2.657-.836-2.657-.318-1.308 0-1.913.76-1.627 1.214-2.093 1.476-1.274 1.923-1.448 1.314-.4 1.8-.388.604-.82 1.78-.002 1.69.673 2.365 1.155 1.832 1.088 2.024 1.617 1.195 1.533 1.513 1.84.51.717.51.717 5.305-5.528 5.994-9.916.802-9.292.802-9.292l-.31-3.687 5.76.218 4.736-.218s5.518-1.155 5.518-1.155 2.833-.226 3.262-.338 2.905-.85 2.905-.85l2.06-.73s6.66 5.793 7.687 10.32 9.896 9.462 10.474 17.223-4.76 16.446-4.76 16.446z" fill="#ffd2d2"/><path d="M75.217 223.134s-.814-6.97-6.485-5.44c-3.604.972 4.293.267-8.888 7.712 0 0-6.723 2.997-17.425 1.747s-25.23 2.776-28.99 12.613S6.9 258.87 6.756 261.25s1.714 25.33 13.873 30.575.463.212.463.212l5.927-3.218c2.2-1.158 2.866-3.185 2.962-3.475s.867-3.087.867-3.087-2.213.976-2.6-.234-1.48-1.954-1.79-2.457-.496-1.943-1.3-1.942-2.6-2.122-3.19-2.7-1.37-1.537-1.697-1.783-1.1-1.5-1.1-1.983v-3.298s-.193-.85-.096-1.238.576-1.446.818-1.833.454-1.928 1.188-1.54.983-.476 1.753-.237.83-.238 1.69 0 .613.254 1.92.823 2.176 1.682 2.8 2.187.72.478 1.382 1.158 1.173 1.4 1.173 1.4 4.788-4.844 5.383-7.8L39 251.15l-.695-5.468s24.04 1.4 33.992-8.225c9.957-9.625 4.677-14.583 2.93-14.323z" fill="#ff8e01"/><path d="M74.39 287.873s-8.716 6.706-10.18 6.802-4.143 0-4.143 0l-2.178 1.73-.902.1-2.817-2.222-2.07-.084s-2.268 1.444-2.456 1.403-1.538.9-1.538.9-1.104.72-1.7.72-2.532-.457-3.208 0-3.176.663-3.176.663l-1.646.183-2.7-.385s-1.85-.532-2.757-.46-3.75-.83-3.75-.83-4.948 19.236-3.995 27.34 3.006 22.056 13.07 30.423 12.573 7.474 12.573 7.474 6.262-1.964 7.362-2.915 2.908-2.507 2.978-2.957 1.74-4.017 1.97-5.442.405-3.806.405-3.806-.15-1.94-.07-2.324-.305-2.797-.305-2.797 6.69-11.634 8.87-13.804 5.693-4.823 5.693-4.823l-1.776-5.25" fill="#03a9f5"/><path d="M63.27 342.194s4.206 16.832-11.368 19.45c-4.5.76 21.786 6.164 32.958 1.596 0 0 9.388-5.19 11.22-13.66 1.5-6.988 1.207 2.734-5.092-.614s-9.37-10.1-9.37-10.1l-3.434-4.696-.468-3.51v-2.398l.254-1.97s.955-2.646 1.168-2.995 1.55-1.98 1.55-1.98-11.695 6.385-17.417 20.892z" fill="#36474f"/><path d="M140.3 314.792c-.508.035-1.135.2-1.665.35s-1.842.812-2.157 1a12.78 12.78 0 0 0-1.069.767 30.41 30.41 0 0 0-1.684 1.965c-.386.53 1.977 5.693 2.19 6.59s.897-.8 1.234-1.475.58-1.592.627-2.065 1.11-1.89 1.503-3.19 3.708-3.725 3.708-3.725l-2.686-.218z" fill="#fff"/><path d="M140.202 332.878s3.235-5.298 4.072-7.627c.656-1.82 1.37-4.228 1.37-5a13.51 13.51 0 0 0-.439-2.056c-.144-.386-.136-1.65-.716-1.84s-1.132-.483-1.495-.668-1.027.106-1.416.445-.465.567-.803 1.05-.598.77-.902 1.302-.163 1.01-.906 1.744-1.054 1.24-1.215 1.927-.352 1.332-.723 2.097-.785 2-.833 2.628-.135 1.625.294 2.404l.863 1.416 2.85 2.176z" fill="#cfd8dc"/><g fill="#02569c"><path d="M75.94 294.555l-9.283 4.36-.825-1.683s-.585-.903-.9-1.138l-1.282-.96s-1.15-.644.096-.926 4.7-1.905 4.62-1.622 1.536-.765 1.536-.765m7.814 25.074l-8.637 2.68s-.65.783-.348 1.126 1.5 1.072 2.54 1.576l3.547 1.57 3.814-1.22.953-2.662-1.87-3.07z"/><path d="M74.207 295.37h1.732l1.777 2.738-4.825.806s-2.915.562-3 .393-2.303-.393-2.303-.393-1.446-.776 0-.806 6.62-2.738 6.62-2.738z"/></g><path d="M50.103 344.9a.82.82 0 0 1-.524-1.442c4.148-3.47 10.457-2.675 10.723-2.638.445.06.76.47.7.914s-.465.762-.914.702c-.058-.007-5.87-.732-9.463 2.273a.81.81 0 0 1-.523.191zm10.915-4.705a.81.81 0 0 1-.502-.173c-.037-.028-3.68-2.836-7.948-2.72-.465-.01-.825-.342-.837-.794s.342-.825.8-.837c4.874-.12 8.833 2.938 9 3.07a.82.82 0 0 1 .138 1.144.81.81 0 0 1-.642.312zm-21.97-7.01c-.28 0-.55-.144-.704-.403a.81.81 0 0 1 .3-1.116c2.1-1.234 2.602-5.4 2.62-6.902.005-.447.37-.806.815-.806.46.005.82.373.815.824-.003.258-.1 6.342-3.424 8.3a.81.81 0 0 1-.413.112z" fill="#0296c9"/><g fill="#263238"><path d="M76.495 284.776c-.154 0-.3-.044-.448-.136-.375-.247-.48-.753-.23-1.13 8.43-12.76-4-26.23-4.117-26.364-.308-.328-.293-.844.036-1.152s.843-.294 1.152.036c.135.143 13.422 14.556 4.3 28.38-.158.237-.416.366-.68.366zM63.142 295.5c-.338 0-.654-.213-.77-.55-.146-.425.08-.9.506-1.036l3.373-1.26c4.448-1.794 8.42-5.044 9.7-7.15.232-.387.733-.512 1.12-.278s.5.734.276 1.12c-1.634 2.708-6.137 6.07-10.476 7.82a71.14 71.14 0 0 1-3.453 1.29.85.85 0 0 1-.265.044zm-24.146 3.435c-.02 0-.04 0-.06-.002-9.58-.72-22.4-4.497-29.033-18.405-5.815-12.175-4.002-20.65-3.227-23.158l-6.2-2.743c-.4-.183-.597-.663-.415-1.075s.662-.6 1.075-.416l6.877 3.047a.81.81 0 0 1 .42 1.06c-.036.087-3.573 8.964 2.93 22.58 6.306 13.204 18.536 16.796 27.684 17.483a.81.81 0 0 1 .75.874c-.032.428-.4.754-.8.754zM8.96 253.74a.82.82 0 0 1-.588-.251l-5.622-5.87c-.3-.326-.3-.842.025-1.153s.84-.3 1.152.023l4.52 4.72c1.03-4.953 5.06-19.748 16.928-23.13 6.9-1.962 13.288-1.83 18.933-1.7 10.584.22 18.942.395 25.662-12.64.207-.4.698-.56 1.098-.35s.556.698.35 1.097c-7.187 13.94-16.435 13.75-27.144 13.526-5.53-.118-11.796-.246-18.453 1.648-13.004 3.706-16.026 23.2-16.055 23.395-.045.308-.262.563-.558.658a.8.8 0 0 1-.249.039zm20.504 29.467c-1.665 0-2.47-1.178-3.252-2.324-.57-.835-1.217-1.784-2.323-2.607-2.974-2.214-5.994-6.317-6.013-9.874-.01-1.924.835-3.6 2.445-4.813 1.25-.95 2.653-1.322 4.175-1.093 4.095.607 7.603 5.397 7.75 5.6.264.364.182.873-.182 1.138s-.873.182-1.138-.182c-.032-.044-3.258-4.44-6.672-4.945-1.086-.163-2.048.095-2.947.778-1.22.93-1.8 2.076-1.802 3.508.016 3 2.77 6.65 5.356 8.572 1.326.988 2.086 2.102 2.697 2.996.942 1.38 1.294 1.9 2.818 1.46.327-.073 2.692-.655 2.4-2.972-.054-.447.264-.853.7-.907s.853.263.907.7c.374 3.082-2.216 4.455-3.637 4.75-.488.14-.918.202-1.303.202z"/><path d="M31.586 269.392a.81.81 0 0 1-.681-.367c-.248-.376-.144-.882.232-1.13 8.808-5.8 6.384-21.927 6.36-22.1a.81.81 0 0 1 .208-.68.84.84 0 0 1 .663-.26c26.968 2.203 39.153-13.135 39.274-13.3.276-.356.786-.42 1.142-.147s.422.786.148 1.143c-.123.16-12.5 15.816-39.695 13.994.42 3.815 1.222 17.135-7.203 22.692a.81.81 0 0 1-.447.133zm-10.493 23.456c-.328 0-.637-.2-.76-.522a.82.82 0 0 1 .468-1.054c9.287-3.572 9.58-9.224 9.582-9.28.015-.45.402-.827.842-.788.45.015.802.392.787.842-.01.275-.342 6.792-10.626 10.75a.83.83 0 0 1-.292.053z"/><path d="M70.23 253.437c-.34 0-.655-.213-.77-.55-2.2-6.476-7.28-9.55-7.33-9.58-.386-.23-.514-.73-.285-1.117s.728-.515 1.115-.287c.23.134 5.633 3.388 8.044 10.456.145.425-.082.9-.508 1.034-.088.03-.176.045-.264.045zm-14.483-17.183c-.393 0-.74-.285-.803-.687-.07-.445.232-.864.677-.933 17.398-2.765 21.18-16.56 21.33-17.147.113-.436.557-.695.993-.585s.697.556.585.992c-.04.154-4.17 15.413-22.654 18.35a.64.64 0 0 1-.129.011zm-25.71 41.48c-.477 0-.885-.116-1.235-.35-.908-.6-1.123-1.782-1.396-3.265-.197-1.073-.42-2.3-.938-3.564-1.283-3.156-3.88-2.532-4-2.504-.436.114-.88-.153-1-.588a.82.82 0 0 1 .588-.992c1.407-.358 4.45-.095 5.902 3.47.58 1.43.83 2.8 1.03 3.884.186 1.017.363 1.98.7 2.206.17.114.505.077.755.023.443-.093.872.2.966.63a.82.82 0 0 1-.63.966c-.275.057-.53.085-.766.085z"/><path d="M25.374 273.87a.81.81 0 0 1-.629-.297c-2.254-2.74-.117-6.028-.025-6.167.248-.373.755-.477 1.13-.227s.477.754.23 1.128c-.072.112-1.552 2.434-.075 4.23.286.347.237.862-.1 1.148-.153.125-.336.186-.52.186zm35.866.743c-1.916 0-3.377-.302-3.52-.335-.44-.094-.72-.528-.625-.967s.528-.726.968-.627c.076.016 7.494 1.544 10.345-2.6.255-.37.763-.466 1.133-.2s.465.763.2 1.134c-2.05 2.984-5.752 3.614-8.5 3.614zm-3.662-6.653c-.914 0-1.8-.515-2.208-1.396l-3.262-6.853c-.58-1.22-.063-2.68 1.156-3.26s2.678-.063 3.258 1.156l3.262 6.854c.58 1.22.063 2.68-1.156 3.26-.34.162-.698.24-1.05.24zm7.076-4.727c-.923 0-1.807-.526-2.22-1.42l-2.413-5.22a2.45 2.45 0 0 1 1.192-3.248c1.225-.566 2.677-.032 3.245 1.193l2.413 5.22c.567 1.226.033 2.68-1.192 3.247-.332.154-.682.228-1.025.228z"/><path d="M46.424 257.94a.77.77 0 0 1-.107-.007c-.446-.058-.76-.468-.7-.914.348-2.643 2.212-7.584 6.88-7.513.45.01.807.383.797.834s-.356.794-.833.798l-.1-.002c-4.277 0-5.122 6.036-5.13 6.096-.054.4-.404.708-.807.708zm18.83-5.975a.81.81 0 0 1-.612-.276c-1.916-2.18-3.765-3.285-5.494-3.285h-.03c-1.727.013-2.772 1.18-2.782 1.2a.82.82 0 0 1-1.15.09c-.343-.3-.382-.808-.1-1.15a5.6 5.6 0 0 1 4.008-1.761c2.208.003 4.503 1.276 6.757 3.838.298.338.265.854-.073 1.152a.81.81 0 0 1-.537.203zm7.04 30.973a.81.81 0 0 1-.623-.29c-8.805-10.452 1.16-21.714 1.262-21.826.3-.333.816-.36 1.15-.058a.82.82 0 0 1 .06 1.152c-.375.418-9.107 10.325-1.226 19.682.3.344.246.858-.098 1.15-.152.128-.34.2-.525.2zM63.5 266.835a.74.74 0 0 1-.065-.003c-.45-.035-.784-.427-.75-.876.348-4.456 4-6.368 5.868-6.756.44-.1.87.193.962.633s-.2.87-.63.963c-.178.04-4.238.96-4.576 5.287a.82.82 0 0 1-.81.752zm-8.206 11.167a.81.81 0 0 1-.685-.373c-.244-.378-.136-.883.242-1.127 1.343-.868 2.082-1.872 2.198-2.982.208-1.98-1.6-3.833-1.6-3.85-.318-.318-.32-.834-.003-1.153s.833-.322 1.152-.004c.097.096 2.372 2.398 2.08 5.18-.17 1.625-1.157 3.033-2.934 4.18a.81.81 0 0 1-.441.13zm16.04 88.466c-1.886 0-3.842-.132-5.868-.398-16.4-2.143-28.1-8.737-34.748-19.598-12.646-20.667-2.426-50.046-2.32-50.34.15-.425.615-.645 1.04-.495s.645.617.495 1.04c-.102.288-10.063 28.952 2.18 48.948 6.378 10.417 17.67 16.752 33.565 18.828 9.665 1.262 17.65-.6 23.726-5.565 10.64-8.678 11.886-24.06 11.897-24.215a.81.81 0 0 1 .872-.753c.448.033.785.423.754.872-.048.657-1.297 16.218-12.484 25.352-5.15 4.204-11.56 6.322-19.108 6.322zm66.773-30.416a.81.81 0 0 1-.58-.242c-.315-.32-.312-.837.008-1.153 5.504-5.436 7.702-13.076 6.583-17.037-.2-.746-.645-1.68-1.516-1.882-3.67-.857-6.608 1.753-6.637 1.778-.335.303-.85.276-1.15-.057a.82.82 0 0 1 .059-1.153c.146-.13 3.607-3.2 8.097-2.156 1.284.297 2.248 1.372 2.716 3.028 1.273 4.503-1 12.707-7.006 18.64a.81.81 0 0 1-.572.234z"/><path d="M134.17 331.1c-.086 0-.17-.014-.257-.042-.428-.14-.658-.603-.517-1.03 2.9-8.77 5.95-14.034 8.788-15.227 1.094-.46 1.802-.164 1.933-.1.404.198.572.687.373 1.1-.2.388-.644.56-1.04.397-.143-.02-3.636-.324-8.508 14.353a.81.81 0 0 1-.772.559z"/><path d="M145.178 321.517c-.038 0-.077-.002-.117-.008l-6.53-.938c-.445-.064-.754-.478-.7-.924s.474-.755.922-.692l6.53.938a.82.82 0 0 1 .691.924c-.057.408-.406.7-.805.7zm-1.258 5.576a.73.73 0 0 1-.139-.012l-7.43-1.287c-.444-.078-.74-.5-.664-.943a.82.82 0 0 1 .942-.664l7.43 1.288c.443.078.74.498.664.943-.07.396-.414.675-.803.675z"/><path d="M141.913 330.618a.9.9 0 0 1-.153-.014l-5.423-1.032a.82.82 0 0 1-.65-.953c.082-.44.5-.732.953-.65l5.424 1.03a.82.82 0 0 1 .648.953c-.075.392-.417.664-.8.664zm-66.433-5.256c-.13 0-.263-.03-.386-.098l-7.124-3.844c-.396-.214-.544-.708-.33-1.105a.81.81 0 0 1 1.104-.33l7.124 3.845c.397.214.544.708.33 1.105-.147.272-.428.428-.718.428zm-8.406-25.63c-.3 0-.605-.177-.742-.48-.186-.4-.005-.892.404-1.08l7.945-3.62-4.325-2c-.408-.188-.588-.672-.4-1.08s.673-.588 1.08-.4l5.943 2.733a.81.81 0 0 1 .475.74c-.001.318-.187.6-.477.74l-9.566 4.36a.78.78 0 0 1-.337.075z"/></g><path d="M265.435 382.36s6.293 19.1 8.716 22.623 2.475 5.155 2.475 5.155l-1.63 13.915s-4.664 6.878-3.686 8.054 4.58 2.14 7.2 1.386 4.833-1.19 5.496-3.206 1.672-8.42 1.672-8.42l3.805-18.464c.178-1.783.308-6.37.308-6.37l.534-.046s5.006 8.18 6.527 9.41 2.93 1.99 4.188 1.662 3.69-1.05 3.69-1.05l1.54 2.38s-2.518 2.538-1.504 4.507 1.828 1.88 3.048 1.73 3.432-1.796 3.432-1.796l2.254-2.1.224-1.554-1.692-14.3.22-4.7 5.183-4.835 3.3 21.197s-2.07 3.495-1.674 5.034.303 2.377 2.3 2.774 3.762.373 4.405.153 1.894-.867 2.274-1.21 1.112-1.913 1.112-1.913v-1.16l-1.005-6.284.96-26.877c.036-3.037-.555-15.306-2.31-19.895s-4.14-9.048-4.14-9.048-6.577-10.252-13.275-14.43-13.303-15.156-11.15-19 6.014-8.673 8.02-9.778 3.245-1.412 7.224-2.65 8.595-2.877 9.814-4.588 1.69-2.27 1.555-3.2-1.188-2.578-1.188-2.578l-4.628-2.157h-5.803l-7.264 2.237s-6.685 3.556-7.66 4.3-5.385 11.75-5.385 11.75l-3.896 32.907-6.742 36.6-16.846 3.223" fill="#ffab00"/><path d="M309.383 385.196s10.272-3.335 11.264-13.43c0 0 .57 12.436-5.89 17.284s-12.992 6.973-12.992 6.973 8.9-5.974 7.62-10.827z" fill="#ffe082"/><path d="M313.857 300.528a.85.85 0 0 1-.834-.69.85.85 0 0 1 .673-.998c2.948-.573 4.955-2.553 4.975-2.573a.85.85 0 0 1 1.204 0c.332.333.332.872 0 1.204-.096.096-2.4 2.37-5.855 3.04-.055.012-.1.017-.163.017zm-7.642.002a.85.85 0 0 1-.635-.285c-.312-.35-.282-.9.068-1.202 2.487-2.223 6.306-2.25 6.468-2.25a.852.852 0 0 1 .001 1.704c-.033 0-3.34.03-5.335 1.816-.162.145-.364.217-.567.217zm-4.157 6.53c-.078 0-.158-.01-.236-.033a.85.85 0 0 1-.58-1.055c1.093-3.78 5.657-4.856 5.85-4.9a.85.85 0 0 1 1.019.642c.103.46-.183.914-.64 1.02-.045.01-3.784.9-4.595 3.713a.85.85 0 0 1-.818.615zm23.984 87.637a.85.85 0 0 1-.851-.852v-5.363a.851.851 0 1 1 1.702 0v5.363a.85.85 0 0 1-.851.852zm-2.08 2.863a.85.85 0 0 1-.851-.852v-5.365a.851.851 0 1 1 1.702 0v5.365a.85.85 0 0 1-.851.852zm1.884 4.95a.85.85 0 0 1-.851-.852v-5.364a.851.851 0 1 1 1.702 0v5.364a.85.85 0 0 1-.851.852zm-40.99 11.42a.83.83 0 0 1-.17-.017.85.85 0 0 1-.666-1.003l.967-4.823c.093-.46.535-.763 1.003-.667a.85.85 0 0 1 .666 1.003l-.967 4.823a.85.85 0 0 1-.834.684zm-1.658 7.18c-.055 0-.112-.005-.168-.017a.85.85 0 0 1-.667-1.003l.97-4.824a.851.851 0 1 1 1.668.336l-.968 4.824c-.082.404-.436.684-.834.684zm-1.524-4.18a.82.82 0 0 1-.169-.017.85.85 0 0 1-.666-1.003l.968-4.82a.851.851 0 0 1 1.668.336l-.967 4.82c-.083.405-.438.684-.834.684z" fill="#ff8f00"/><path d="M329.104 373.6a.85.85 0 0 1-.849-.823c-.665-19.62-8.603-28.01-19.745-37.716-11.385-9.918-11.482-18.187-11.48-18.534.001-.1.018-.198.053-.292.167-.453 4.2-11.103 13.98-13.265 9.818-2.17 12.212-5.04 12.764-6.56.43-1.178-.033-2.04-.346-2.446-1.263-1.648-4.25-2.53-7.994-2.35-7.975.376-18.955 5.437-25.557 15.896-.494 1.722-6.573 24.187 8.312 34.603a.85.85 0 1 1-.976 1.396c-16.426-11.493-9.01-36.353-8.933-36.602a.92.92 0 0 1 .092-.202c7.396-11.804 19.158-16.422 26.982-16.79 4.37-.207 7.8.893 9.424 3.014.894 1.166 1.11 2.65.595 4.066-.822 2.256-3.917 5.412-13.996 7.64-8.284 1.83-12.174 10.764-12.7 12.04.075 1.094.943 8.438 10.888 17.103 11.47 9.99 19.64 18.634 20.33 38.942a.85.85 0 0 1-.821.88h-.03z" fill="#263238"/><path d="M181.347 83.816h11.462c1.07.33 2.185.295 3.28.355 8.452.47 16.79 1.684 24.98 3.834 19.51 5.12 35.91 15.188 48.836 30.77 9.056 10.917 15.53 23.267 20.176 36.614 7.014 20.15 9.698 41.025 10.316 62.24-.013.334-.036.668-.036 1.002l.016 72.365.018 2.913c-.072 3.856-.286 7.708-.54 11.553-.862 13.076-2.673 26.007-5.916 38.717-3.734 14.628-9.262 28.5-17.686 41.096-11.536 17.262-26.967 29.525-46.6 36.456-11.547 4.08-23.503 5.95-35.667 6.502-11.995.547-23.91-.35-35.668-2.912-13.6-2.963-26.166-8.272-37.372-16.623-12.845-9.57-22.375-21.873-29.546-36.1-7.568-15-11.885-31.004-14.414-47.538-2.074-13.553-2.82-27.2-2.805-40.9l.013-57.75c.01-7.647.3-15.282.9-22.908 1.142-14.585 3.444-28.956 7.712-42.973 3.715-12.198 8.836-23.744 16.08-34.286 9.893-14.4 22.625-25.43 38.58-32.645 11.797-5.337 24.235-8.09 37.086-9.188 2.26-.2 4.548-.128 6.785-.604zM140.772 255.13h-.074l-.003 38.13c-.016 12.296.615 24.537 2.858 36.65 1.572 8.478 3.898 16.72 8.046 24.347 4.89 9 11.994 15.38 21.89 18.388 6.806 2.07 13.77 2.4 20.8 1.56 12.552-1.5 22.155-7.542 28.443-18.626 3.777-6.658 6.05-13.872 7.66-21.31 2.704-12.478 3.608-25.146 3.635-37.88l.013-78.88c-.004-12.796-.67-25.54-3.238-38.12-1.613-7.892-3.93-15.544-8.065-22.53-5.298-8.954-12.86-14.988-22.996-17.61-6.304-1.632-12.71-1.886-19.157-1.12-11.854 1.404-21.186 6.925-27.666 17.065-3.836 6.005-6.2 12.616-7.932 19.476-2.787 11.05-4.005 22.32-4.163 33.67l-.052 46.785z" fill="url(#A)"/><path d="M27.028 407.24c2.64-.213 5.28-.046 7.92-.09.386-.007.603.147.594.57-.006.29.016.582.053.87.526 4.08 3.014 6.06 7.148 5.66 1.968-.195 3.56-1.046 4.232-3 .712-2.087.49-4.097-1.082-5.766-1.152-1.228-2.7-1.852-4.232-2.455-2.28-.9-4.554-1.805-6.677-3.044-6.123-3.573-8.173-10.962-4.6-16.673 2.026-3.23 5.12-4.815 8.778-5.373.854-.128 1.042-.444 1.01-1.225-.056-1.416.005-2.837-.025-4.255-.014-.61.162-.883.816-.855.997.04 2 .04 2.996 0 .628-.025.85.195.836.832-.035 1.546.017 3.095-.023 4.643-.017.61.222.822.79.948 5.706 1.277 8.878 4.62 9.883 10.373.517 2.962.517 2.962-2.458 2.962-1.613 0-3.223-.017-4.834.01-.59.01-.87-.13-.875-.8-.005-.902-.176-1.792-.47-2.655-.74-2.173-2.452-3.424-4.733-3.45-2.287-.02-3.98 1.047-4.642 2.938-.822 2.342-.213 4.772 1.55 6.132 1.24.953 2.658 1.575 4.092 2.16 2.147.878 4.28 1.787 6.29 2.962 3.862 2.26 6.262 5.558 6.373 10.074.155 6.338-3.495 10.52-9.514 11.833-2.04.443-2.04.432-2.04 2.555l.008 2.805c.018.55-.205.737-.74.726-.998-.025-2-.04-2.996.005-.66.03-.922-.177-.9-.87.045-1.3-.03-2.58.028-3.87.035-.767-.213-1.043-.992-1.155-3.565-.522-6.66-1.952-8.894-4.91-1.23-1.632-1.93-3.485-2.29-5.483-.095-.527-.04-1.1-.4-1.563l.004-1.56z" fill="#0cadf6"/><path d="M300.76 217.63a1.42 1.42 0 0 0 .196.008v76.268l-.1-.004-.1.008-.018-2.913-.016-72.365.038-1.002z" fill="#92dbfd"/><path d="M296.108 348.406s-7.132 5.84-7.722 7.13-2.193-2.147-2.193-2.147l-3.824-3.552-4-2.503-3.727-1.057-1.26-.824-5.85-8.63s-4.922-3.218-4.626-3.708-2.273-1.35-2.273-1.35l-2.142 1.74-1.14 4.063s-.278 3.448-.447 3.605-.442 3.07-.442 3.07-.835 1.103-1.154 1.202-2.17.832-2.688 1.12-.853 1.718-1.96 1.935-1.997 1.1-1.997 1.1l-.826.976-2.314-.235s-3.032-.1-3.847.046a79.49 79.49 0 0 0-2.759.514c-.406.094-.428.01-1.623.414s-1.518.477-2 .764-.62 1.16-.62 1.16-.686-.29 0 .387 1.532 1.168 1.943 2.194 1.37 1.748 1.986 2.154.82.245 1.687 1.288 1.298 1.138 2.003 1.816 2.288 1.16 2.288 1.16.235 3.608.927 4.1.407 1.472 1.046 2.413c.644.942.748 1.154 1.348 1.865s1.03.73 1.153 1.31.793-.327.615.794.001.368.24 1.882.97 2.597 1.366 2.628-.224.03.807 1.276 1.117 1.366 1.996 1.81 1.188.634 1.992.92 1.436.553 2.416.74 4.397.592 4.397.592h1.3l1.8-.84 1.843 5.56 2.854 7.313s.23 1.68.733 2.508c.508.83-.858 1.796 1.42 2.523s9.242 1.4 12.433-2.523 6.477-13.34 7.928-16.418 3.096-15.117 2.9-16.404c-.18-1.276.012-15.9.012-15.9z" fill="#ffab00"/><path d="M256.463 373.933s-4.928 1.765-5 3.126 3.35 1.1 4.048.528 1.126-1.473 1.24-1.656.117-2.15-.3-1.998z" fill="#f06292"/><path d="M303.778 379.972a.85.85 0 0 1-.844-.743c-.006-.047-.393-2.805-2.12-3.62-.425-.2-.606-.7-.407-1.134a.85.85 0 0 1 1.133-.407c2.58 1.22 3.063 4.794 3.082 4.946a.85.85 0 0 1-.737.952l-.108.007zm-2.406 4.415a.83.83 0 0 1-.137-.01c-.463-.075-.778-.512-.704-.976.01-.055.414-2.805-1-4.072-.35-.313-.382-.852-.07-1.203a.85.85 0 0 1 1.202-.07c2.13 1.898 1.58 5.464 1.557 5.616a.85.85 0 0 1-.839.715zm2.918 3.36a.84.84 0 0 1-.417-.109c-.4-.23-.554-.75-.325-1.16.03-.054 1.354-2.5.458-4.17-.222-.415-.064-.93.35-1.153a.85.85 0 0 1 1.151.35c1.344 2.52-.4 5.675-.475 5.808a.85.85 0 0 1-.742.433zm-10.457 10.234a.85.85 0 0 1-.662-.316c-2.343-2.903-2.225-5.822-2.22-5.944.024-.47.43-.835.892-.8.47.024.83.422.808.9-.001.023-.073 2.418 1.842 4.8a.85.85 0 0 1-.126 1.198c-.158.128-.347.2-.535.2zm4.595 1.844c-.136 0-.275-.033-.405-.102-2.6-1.412-3.614-4.897-3.656-5.045a.851.851 0 1 1 1.637-.463c.01.03.858 2.943 2.828 4a.85.85 0 0 1 .344 1.154c-.153.286-.446.447-.748.447zm-.628 3.1c-.067 0-.134-.008-.202-.024-2.362-.577-3.48-3.038-3.527-3.143-.2-.43.003-.933.433-1.124a.85.85 0 0 1 1.121.43c.017.033.84 1.808 2.376 2.183a.85.85 0 0 1 .625 1.029.85.85 0 0 1-.826.649zm-45.312-49.31a.85.85 0 0 1-.848-.805c-.215-3.9 3.9-7.075 4.074-7.208a.85.85 0 0 1 1.192.16c.285.373.213.907-.16 1.193-.036.028-3.573 2.775-3.4 5.76a.85.85 0 0 1-.803.897l-.047.002zm-3.544 6.966a.85.85 0 0 1-.818-.621c-.874-3.1-.083-6.317 1.1-8.116.258-.394.784-.503 1.178-.248s.505.786.248 1.18c-.932 1.428-1.604 4.142-.877 6.724.126.452-.137.923-.6 1.05a.89.89 0 0 1-.232.031zm-2.41-2.9a.85.85 0 0 1-.849-.824c-.15-4.623 2.873-7.5 3-7.62a.851.851 0 1 1 1.163 1.243c-.026.025-2.587 2.493-2.465 6.32a.85.85 0 0 1-.822.878c-.01.001-.018.001-.028.001z" fill="#ff8f00"/><g fill="#ffe082"><path d="M274.003 373.925s6.62 13.747 16.558 13.747c3.272 0-4.66-1.85-.09 8.623 0 0-5.442 1.107-8.316.418s-9.312-3.9-9.312-3.9l-4.224-4.328-2.325-4.08-1.04-2.654c-.003-.001 7.63-4.373 8.75-7.824z"/><path d="M273.7 374.62s-1.31-11.1-8.153-8.502c-4.04 1.528-7.447 3.992-7.447 3.992s-5.027-2.5-7.785 5.88c-1.513 4.595 12.172 6.192 12.172 6.192l5.673-1.47"/></g><path d="M256.463 373.8l-4.045 1.872c-.63.482-.985.515-1.12.837s-.692.637.3.806 2.467.29 2.9.218.436-.022.677-.12.87-.656 1.016-1.188.27-1.533.27-1.533v-.89z" fill="#f06292"/><path d="M272.394 387.86c-.102 0-.205-.017-.306-.056-2.66-1.025-3.402-4.556-3.432-4.705a.851.851 0 1 1 1.668-.34c.005.027.6 2.767 2.376 3.455.44.17.657.662.5 1.1a.85.85 0 0 1-.795.545zm3.306-1.812a.86.86 0 0 1-.306-.056c-2.662-1.026-3.402-4.557-3.433-4.706-.093-.46.205-.9.666-1.004a.85.85 0 0 1 1.003.665c.014.068.603 2.772 2.376 3.455a.85.85 0 0 1-.306 1.646zm3.257 5.23c-2.848 0-4.808-3.02-4.9-3.148-.252-.396-.137-.923.26-1.176a.85.85 0 0 1 1.174.259c.034.05 1.558 2.36 3.458 2.36a.852.852 0 0 1 .008 1.704z" fill="#ffab00"/><path d="M296.583 355.13c-.167 0-.337-.05-.485-.152-.385-.268-.48-.8-.212-1.186 2.67-3.84 8.767-4.282 9.025-4.3.486-.018.872.326.905.794a.85.85 0 0 1-.793.906c-.054.004-5.542.408-7.74 3.572-.165.24-.43.366-.7.366zm-6.233 2.034a.83.83 0 0 1-.235-.033c-.45-.13-.713-.603-.583-1.055 1.28-4.435 4.98-5.66 5.138-5.708a.851.851 0 1 1 .519 1.621c-.123.04-3.002 1.026-4.022 4.56a.85.85 0 0 1-.817.615z" fill="#ff8f00"/><g fill="#263238"><path d="M289.146 358.354a.85.85 0 0 1-.759-.465c-.046-.088-4.625-8.846-15.22-11.612-.224-.058-.414-.204-.527-.406-2.023-3.592-8.07-12.976-11.705-13.264-.392-.037-.717.1-1.046.41-2.297 2.184-2.572 10.886-2.485 14.056a.85.85 0 0 1-.828.875h-.024c-.458 0-.836-.367-.85-.83-.034-1.243-.24-12.242 3.015-15.337.675-.642 1.5-.94 2.352-.875 4.91.4 11.517 11.45 12.876 13.814 11.1 3.06 15.764 12.01 15.96 12.394a.85.85 0 0 1-.373 1.145.84.84 0 0 1-.384.093z"/><path d="M261.71 383.194c-5.358 0-10.345-3.11-11.48-4.85-.956-1.47-1.728-4.955-1.942-5.983-.808-.856-3.968-4.4-4.38-8.034-1.915-16.814 11.61-19.822 11.747-19.852.456-.094.91.2 1.006.66a.85.85 0 0 1-.658 1.006c-.497.106-12.14 2.754-10.404 17.992.397 3.477 4.04 7.176 4.077 7.212.12.12.2.27.233.437.23 1.176 1 4.48 1.748 5.63 1.21 1.857 9.23 6.464 15.473 2.596 5.435-3.368 7.455-7.17 7.203-13.566a.85.85 0 0 1 .817-.883.87.87 0 0 1 .884.817c.275 7.016-2.044 11.384-8.008 15.08-2.02 1.25-4.197 1.737-6.316 1.737z"/><path d="M244.574 362.323a.87.87 0 0 1-.383-.09c-1.75-.887-10.5-5.47-10.855-8.67-.037-.337.01-.85.45-1.375 2.084-2.487 12.713-3.3 14.823-3.437.485-.016.874.326.904.795a.85.85 0 0 1-.793.905c-6.933.452-13.46 1.85-13.694 2.93.168 1.505 5.286 4.98 9.93 7.33.42.213.587.725.376 1.144a.85.85 0 0 1-.76.468zm58.8 38.18a.85.85 0 0 1-.784-.52l-1.596-3.776a.86.86 0 0 1 .01-.69.85.85 0 0 1 .517-.455c-.017 0 1.08-.566 5.54-4.876 4.248-4.108-1.8-15.85-4.502-20.03a.851.851 0 1 1 1.43-.923c.427.66 10.372 16.263 4.255 22.178-2.43 2.35-4.313 4.02-5.4 4.8l1.314 3.106c.183.434-.02.934-.452 1.117a.83.83 0 0 1-.332.068z"/><path d="M301.196 409.434a5.17 5.17 0 0 1-1.592-.259c-5.476-1.76-9.97-12.427-11.216-15.654-1.333-3.45 4.194-10.65 4.828-11.46a.85.85 0 0 1 1.339 1.051c-2.165 2.765-5.324 7.87-4.58 9.794.838 2.17 5.268 13.075 10.15 14.646 1.037.334 2.007.19 2.964-.437 4.386-2.874 6.125-6.058 5.903-7.94-.107-.898-.65-1.528-1.613-1.873-1.24-.446-3.137 1.075-3.704 1.642a.85.85 0 1 1-1.203-1.204c.3-.3 3.018-2.923 5.48-2.04 1.576.564 2.545 1.727 2.73 3.276.352 2.977-2.2 6.642-6.66 9.564-.906.594-1.852.892-2.825.892z"/><path d="M290.574 387.767c-2.553 0-6.1-2.82-6.518-3.158a.851.851 0 1 1 1.072-1.322c1.45 1.176 4.266 2.96 5.645 2.764.466-.076.898.255.966.72a.85.85 0 0 1-.72.965 3.07 3.07 0 0 1-.445.031zm-15.264 46.9c-.22 0-.436-.005-.648-.016-2.036-.102-3.398-.705-3.936-1.745-1.416-2.735 2.354-7.774 3.48-9.18l1.568-13.394c-2.945-5-10.243-25.602-10.557-26.5-.153-.43.073-.905.503-1.056a.83.83 0 0 1 1.056.504c.078.22 7.814 22.064 10.552 26.417a.83.83 0 0 1 .121.537l-1.63 13.915c-.018.158-.082.305-.182.428-1.87 2.286-4.176 6.142-3.443 7.558.187.36.955.774 2.552.855 3.115.154 7.298-1.045 8.14-2.336 1.2-1.85 1.67-6.44 1.746-8.05.004-.065.015-.13.033-.194.047-.16 4.685-16.103 4.3-25.34a.83.83 0 0 1 .793-.861.83.83 0 0 1 .86.793c.384 9.237-3.915 24.316-4.34 25.78-.046.838-.406 6.324-2.008 8.777-1.213 1.856-5.562 3.1-8.962 3.1z"/><path d="M287.2 397.976c-19.056 0-22.574-15.9-22.6-16.058a.85.85 0 0 1 .659-1.006.86.86 0 0 1 1.007.66c.14.667 3.652 16.316 23.986 14.566.48-.05.88.307.92.775a.85.85 0 0 1-.774.922 36.56 36.56 0 0 1-3.189.142zm1.175-40.89c-.112 0-.226-.02-.335-.068a.85.85 0 0 1-.448-1.118c3.528-8.254 12.956-10.37 13.355-10.456a.852.852 0 1 1 .359 1.665c-.1.02-8.973 2.03-12.148 9.46-.14.322-.453.516-.783.516zm35.54 59.535c-1.03 0-2.196-.2-3.504-.704-.996-.382-1.692-1.086-2.014-2.037-.786-2.325.86-5.516 1.433-6.514l-3.245-21.494c-.07-.465.25-.9.714-.97.466-.064.9.25.97.715l3.3 21.794c.03.198-.012.402-.117.573-.58.948-1.97 3.76-1.43 5.352.16.474.48.788 1 1 3.613 1.4 5.82-.036 6.817-1 .693-.68.276-4.422-.55-7.493a.96.96 0 0 1-.028-.25l.967-26.23a82.65 82.65 0 0 0 .018-5.839.85.85 0 0 1 .822-.879c.47-.04.864.35.88.82l-.02 5.96-.962 26.1c.5 1.854 1.758 7.366.062 9.027-.913.895-2.602 2.088-5.113 2.088z"/><path d="M301.764 396.73a.85.85 0 0 1-.824-.64.85.85 0 0 1 .613-1.037c7.603-1.956 12.925-5.6 15.815-10.858 4.484-8.143 1.558-17.485 1.528-17.58a.851.851 0 1 1 1.619-.524c.132.408 3.187 10.1-1.648 18.9-3.124 5.685-8.807 9.622-16.9 11.7-.072.02-.142.028-.213.028zm-47.386-17.815c-1.2 0-3.285-.47-3.837-1.735-.134-.304-.13-.65.007-.976.52-1.224 3.586-2.512 5.367-3.17.75-.28 1.476.114 1.73.92.352 1.128-.113 3.567-1.45 4.496-.444.308-1.055.464-1.816.464zm-2.054-2.233c.382.24 1.194.518 2.054.52.45 0 .733-.086.84-.16.523-.364.838-1.562.838-2.228-1.624.634-3.156 1.405-3.73 1.868zm6.98-8.456c-1.535 0-2.643-1.497-3.1-2.5a.86.86 0 0 1 .429-1.135c.434-.195.94-.002 1.133.43.007.016.825 1.695 1.724 1.453.417-.1.547-.295.612-.443.3-.658-.168-1.926-.436-2.436a.86.86 0 0 1 .362-1.157c.417-.22.937-.06 1.156.362.123.234 1.182 2.342.485 3.923-.216.5-.694 1.134-1.742 1.4a2.49 2.49 0 0 1-.633.084zm-9.365 4.474a1.9 1.9 0 0 1-.225-.013.75.75 0 0 1-.67-.83c.045-.416.423-.72.83-.67a.56.56 0 0 0 .23-.021c.373-.104.483-.27.54-.403.245-.583-.177-1.7-.42-2.135-.2-.367-.066-.825.3-1.024a.75.75 0 0 1 1.023.3c.113.206 1.076 2.043.486 3.445-.183.436-.593 1-1.5 1.268-.188.055-.383.083-.58.083z"/><path d="M253.523 361.232c-.183 0-.365-.057-.52-.177-.376-.288-.447-.826-.16-1.2 2.688-3.512 6.883-2.664 8.727-1.727a.86.86 0 0 1 .375 1.153.86.86 0 0 1-1.151.376c-.165-.084-4.104-2.007-6.592 1.24a.85.85 0 0 1-.68.336zm-7.027 7.872c-.374 0-.718-.247-.824-.625-.555-1.97-.454-3.518.297-4.598a3.11 3.11 0 0 1 2.2-1.317c.464-.032.885.313.923.786s-.307.878-.774.922c-.043.006-.595.085-.946.608-.425.634-.44 1.72-.04 3.135.13.456-.136.93-.592 1.058a.9.9 0 0 1-.233.031zm12.007 10.6c-1.13 0-1.98-.268-2.053-.292-.435-.14-.673-.607-.53-1.042s.606-.675 1.04-.533c.026.01 2.753.846 4.4-.922l.068-.065c.075-.068.794-.76.357-1.86a.83.83 0 0 1 .464-1.075.83.83 0 0 1 1.074.464c.813 2.055-.504 3.432-.775 3.686-1.24 1.316-2.806 1.638-4.042 1.638z"/><path d="M255.718 381.838c-.372 0-.7-.253-.8-.63-.1-.444.16-.892.606-1 .062-.016.082-.032.082-.032.107-.145-.026-.82-.256-1.3a.83.83 0 0 1 .379-1.107.83.83 0 0 1 1.107.38c.13.268.76 1.662.27 2.713-.157.336-.5.772-1.188.943-.067.017-.133.025-.2.025zm7.187-10.778c-.052 0-.105-.01-.157-.03-.22-.087-.325-.334-.238-.552 3.102-7.823 9.322-12.78 9.385-12.83.182-.146.45-.115.597.07s.114.452-.07.598c-.06.048-6.107 4.873-9.12 12.475-.065.167-.225.268-.395.268zm.645 1.14c-.07 0-.138-.017-.203-.053-.207-.112-.283-.37-.17-.577 4.787-8.778 14.38-13.2 14.478-13.252.213-.095.466-.003.563.2a.43.43 0 0 1-.21.564c-.094.042-9.435 4.363-14.084 12.884-.078.143-.224.223-.374.223zm1.128.253a.42.42 0 0 1-.239-.074c-.195-.132-.244-.397-.112-.6 4.764-7 14.308-8.922 14.712-9a.43.43 0 0 1 .499.337.43.43 0 0 1-.337.5c-.095.018-9.607 1.928-14.17 8.642a.43.43 0 0 1-.353.187zm-27.38 3.932a.43.43 0 0 1-.406-.298c-.07-.225.054-.464.277-.534l.165-.054c1.614-.514 5.896-1.88 12.4-1.05.233.03.4.243.37.477a.43.43 0 0 1-.477.369c-6.325-.808-10.48.518-12.042 1.017l-.168.053a.42.42 0 0 1-.127.02zm-2.6 5.092c-.143 0-.284-.073-.364-.205-.122-.2-.057-.463.144-.585 1.184-.717 7.5-4.3 15.447-4.603a.41.41 0 0 1 .442.41c.008.235-.175.433-.4.442-7.747.286-13.886 3.782-15.038 4.48a.42.42 0 0 1-.22.06zm3.143 2.506c-.12 0-.24-.052-.323-.15-.154-.178-.132-.447.046-.6.057-.05 5.822-4.835 13.053-5.794.23-.032.446.132.478.367s-.133.446-.367.48c-6.987.926-12.556 5.55-12.6 5.595a.42.42 0 0 1-.277.103zm69.93 32.487a5.8 5.8 0 0 1-2.257-.45c-.746-.312-1.26-.87-1.482-1.612-.525-1.74.7-4.104 1.3-5.074l-.96-2a.84.84 0 1 1 1.517-.724l1.16 2.428a.85.85 0 0 1-.058.83c-.682 1.03-1.65 3.043-1.338 4.068.08.26.24.428.523.547 1.5.624 3.286.315 4.807-.828 1.274-.956 2.05-2.3 1.928-3.37l-1.715-13.806a.77.77 0 0 1-.005-.144l.24-5.183c.02-.465.418-.834.878-.8a.84.84 0 0 1 .8.879l-.237 5.1 1.707 13.753c.193 1.683-.8 3.564-2.587 4.907-1.3.977-2.776 1.482-4.2 1.482zm-38.764-69.987c-.282 0-.556-.145-.7-.405-1.436-2.416-5.606-8.958-7.652-10.193-.4-.235-.515-.742-.28-1.133s.74-.515 1.132-.28c2.77 1.672 7.67 9.837 8.218 10.763.232.392.103.9-.288 1.13a.82.82 0 0 1-.42.117z"/><path d="M260.633 347.152h-.026c-.455-.014-.813-.395-.8-.85.093-3.106 1.1-10.1 1.153-10.405a.83.83 0 0 1 .935-.698c.45.066.763.485.697.936-.01.073-1.046 7.206-1.137 10.217-.013.447-.38.8-.823.8zm-22.957 8.418c-.373 0-.713-.257-.8-.637-.105-.444.17-.888.614-.992 2.74-.646 7.844-.516 8.058-.5.455.012.815.4.803.846-.012.448-.38.804-.825.804h-.02c-.053 0-5.105-.128-7.638.467-.063.015-.127.023-.2.023z"/><path d="M244.44 359.014a.86.86 0 0 1-.456-.133l-5.52-3.514a.85.85 0 0 1 .914-1.438l5.52 3.514a.85.85 0 0 1-.458 1.571z"/></g><path d="M63.142 298.39s-2.933 6.695-2.658 11.16c.534 8.647 4.166 11.15 4.166 11.15l7.64-2.004 12.413-4.684 10.762-5.72s11.008-.586 13.35-1.58 3.667-2.29 3.667-2.29l.366-1.39-.836-1.24 2.17-1.597s.297-1.51.425-1.802.2-1.205.2-1.472-.2-1.182-.2-1.182.176-1.18.2-1.712-.184-1.546-.2-1.834-.38-1.085-.38-1.35-.017-1.444-.22-1.657-.363-.535-.914-.548-.806-.13-1.668.255-1.127.43-1.753.817-1.036.603-1.423.844-.675.46-1.085.638-.988.576-1.76.632-1.686-.018-2.698.104-1.832.12-1.832.12-1.11.925-.193-.225 1.542-2.357 1.614-2.767.31-1.034.193-1.496-.12-.868-.217-1.255-.24-.675-.314-.966.31-1.188-.484-1.04-.68-.165-1.06.098-.747.434-.892.725-1.614 3.594-1.687 3.618-.58.29-.82.53-.483.362-.892.773-.652.506-1.156.988-.507.266-1.134 1.108-.797.895-1.23 1.643-.77 1.182-.868 1.255-1.614.787-1.783.827-12.093 2.574-12.24 2.622-2.897.483-4.15.653-2.167.198-3.675.292-2.4-.076-2.93-.1-.82-.072-1.6-.048-2.435.023-2.435.023" fill="#ffd2d2"/><path d="M79.243 321.924s-7 1.44-5.18 11.86 4.326 18.6 4.905 19.363 8.46 8.172 8.46 8.172l2.906-2.15 4.253-5 1.157-4.476s-3.6-.086-5.978-1.82-8.486-9.394-8.486-9.394l-2.765-6.37c-.192-.257-.708-2.573-.708-2.96s.258-2.833.387-3.153.856-1.66.9-2.186l.148-1.888z" fill="#36474f"/><path d="M81.216 320.866s7.613-1.402 10.928-.042 23 11.707 23 11.707l2.46 1.352s-3.616 3.084-2.993 5.134 1.792 4 2.164 4.326 1.538 1.207 2.053 1.464 1.475.9 1.475.9 1.98 9.85-4.148 8.854c-4.296-.697-18.962-7.465-18.962-7.465l-.9 2.76s-1.535.595-4.025-.615-7.125-5.583-7.125-5.583l-5.97-8-1.676-5.214s.532-4.67.78-4.817 2.112-4.72 2.948-4.762zM141 262.497s-2.1-1.53-2.553-2.413-1.496-2.167-1.753-2.48l-1.622-1.828c-.274-.25-1.174-.834-1.602-.8s-.602.042-1.007.572-.558.755-.5 1.448-.192.456.227 1.623c.42 1.173.187 1.088 1.026 2.156s1.15.996 1.6 1.72.806 1.1 1.046 1.334.4.058.455.746.14.975-.407 1.973-.676 1.32-1.06 1.738-.858.663-1.42 1-.82.3-1.773.737-.857.38-1.983.736-1.95.287-2.438.6-.7.344-1.088.855-.63.762-.64 1.17l-.023 1.033c-.02.7-.302 1.072 0 1.148s-.318.46-.667.974-.505.495.044 1.06l.623.612c.623.614.046.636.623.614.402-.018.237 1.084.583 1.736s.47.658.73 1.004.292.488.646.6.693-.242.83.24-.06.56.46 1.047.672.657 1.083.778 1.292.372 1.645.372 1.35-.255 1.993-.354l1.213-.198c.586-.125.996-.165 1.88-.484s.968-.9 2.082-1.214.964-.413 1.747-.968 1.313-1.12 1.487-1.344.245-.2.534-.737l1-1.76.745-1.496c.097-.255-.055-1.383 0-2.284s.04-.225 0-1.384v-1.736c0-.67-1.23-3.634-1.23-3.86s-.8-1.694-.818-2.15-.467-1.3-.66-1.58-1.045-.58-1.045-.58z" fill="#ffd2d2"/><path d="M126.31 334.875c-.612.856-1.157 1.91-1.157 1.91l-2.917-1.552c-1.048-.48-1.748-1.022-2.308-.9s-1.416.193-2.11.222-.9.276-1.403.68-.783.18-1 1.07-.577.235-.433 1.63-.36 1.29.007 2.153.17.595.695 1.532.23 1.016.947 1.56.777.626 1.443 1.022.876.234 1.32.72.495.514.703.653.475.904.557 1.672-.033.964-.045 1.64l-.054 1.363c-.044.4-.46.904-.798 1.436s-.337.482-.917 1.255-.632.973-1.232 1.234-1.005.323-.78.46.98.338 1.764.586 1.505.885 2.175.66 2.474-.43 2.708-.67 1.025-1.12 1.714-1.66 1.5-1.153 2.332-2.056 1.94-3.14 2.745-3.858 1.525-1.904 1.832-2.47l1.26-2.477c.375-.823.495-1.936.817-2.3s.624-1.127.624-1.127l-1.156-1.188c-.146-.097-.58-.773-.82-1.1s-.63-.87-.724-1.158-.364-.706-.302-.934.014-.66.11-1.382.198-1.043.364-1.39c.164-.356-5.348 1.914-5.96 2.767z" fill="#ea1e63"/><path d="M133.977 330.702s-1.684.25-1.7 1.4.122 1.874 0 2.307-.26.665-.003 1.4c.255.73.5 1.083.783 1.49s.964.968 1.124 1.075.102.08.326.216.297.265.297.265-2.176 6.095-3.616 8.05-8.67 8.614-10.073 8.867 1.588 1.12 1.588 1.12l3.038-.432 2.952-2.61c.284-.25 4.67-4.58 4.67-4.58l4.333-6.9 2.515-6.37s-.04-1.6 0-1.842-.594-1.578-.594-1.578l-1.662-1.2s-1.512-.216-1.656-.16-2.12-.458-2.313-.516z" fill="#fff"/><g fill="#263238"><path d="M50.8 362.46a.82.82 0 0 1-.804-.694c-.067-.446.24-.86.685-.928 4.227-.632 7.394-2.412 9.413-5.287 3.794-5.405 2.336-12.985 2.32-13.06a.82.82 0 0 1 .031-.432c.24-.68 5.993-16.702 17.93-21.553 5.266-2.138 10.916-1.744 16.794 1.178 9.056 4.5 15.464 8.47 19.704 11.098l1.15.712c.382.236.502.74.265 1.12s-.74.503-1.12.267l-1.153-.714c-4.214-2.612-10.583-6.56-19.57-11.025-5.44-2.704-10.64-3.083-15.45-1.13-10.57 4.3-16.24 18.534-16.938 20.387.24 1.406 1.227 8.584-2.62 14.077-2.284 3.26-5.82 5.27-10.5 5.973-.043.007-.084.01-.124.01zm34.785.76c-.3 0-.588-.166-.73-.453-.2-.403-.036-.892.366-1.093 8.534-4.25 11.152-14.82 11.178-14.927a.82.82 0 0 1 .426-.539c.214-.106.466-.117.687-.02 11.9 5.086 25.173 10.017 26.83 9.504 7.103-2.9 13.94-15.676 14.65-20.972.163-1.218-.032-1.722-.158-1.82-4.802-3.68-9.976.373-13.47 4.422-.293.34-.808.38-1.15.084s-.378-.808-.084-1.15c5.588-6.474 11.162-8.124 15.694-4.65.74.567 1.003 1.687.782 3.33-.773 5.757-7.917 19.12-15.658 22.267-2.646 1.08-20.512-6.3-27.223-9.153-.86 2.815-3.998 11.207-11.778 15.085a.81.81 0 0 1-.362.086z"/><path d="M95.112 350.505c-2.42 0-8.18-1.442-15.367-13.055-6.56-10.595.342-16.704.412-16.765.34-.295.855-.255 1.15.087s.254.856-.086 1.15c-.248.216-5.888 5.303-.1 14.672 8.58 13.86 14.64 12.228 14.7 12.208.425-.124.882.108 1.017.532a.81.81 0 0 1-.511 1.018c-.067.022-.494.154-1.225.154zm21.968 4.483a.82.82 0 0 1-.788-.6c-.113-.437.148-.882.583-.996 1.166-.303 1.977-.904 2.48-1.834 1.047-1.934.454-4.696.193-5.668-2.957-1.208-4.9-3.286-5.386-5.747-.416-2.158.366-4.324 2.146-5.944a3.13 3.13 0 0 1 1.444-.753c.44-.094.874.18.972.62s-.18.876-.618.974c-.267.058-.495.178-.7.367-1.352 1.228-1.95 2.843-1.644 4.43.385 1.994 2.112 3.7 4.74 4.678.23.086.4.27.5.506.058.176 1.416 4.33-.203 7.318-.72 1.33-1.898 2.217-3.502 2.636-.07.015-.138.025-.206.025z"/><path d="M124.748 337.603a.81.81 0 0 1-.49-.165c-1.068-.8-4.26-2.822-6.154-2.4-.44.097-.873-.184-.968-.624s.184-.875.623-.97c2.963-.646 7.03 2.36 7.483 2.703.36.273.428.784.157 1.143-.16.2-.404.322-.65.322zm-3.642 18.984c-.334 0-.647-.206-.766-.538-.153-.423.066-.9.5-1.044 11.725-4.242 15.5-23.738 15.526-23.934a.82.82 0 0 1 .951-.652c.442.083.733.5.65.95-.157.84-3.982 20.612-16.575 25.17a.8.8 0 0 1-.276.048z"/><path d="M134.948 339.67a.81.81 0 0 1-.394-.102c-1.984-1.102-3.164-2.52-3.507-4.2-.53-2.622 1.198-4.867 1.272-4.96a.82.82 0 0 1 1.144-.14c.344.276.416.8.14 1.143-.014.018-1.343 1.767-.956 3.643.247 1.2 1.155 2.243 2.698 3.1.393.22.536.715.317 1.1a.82.82 0 0 1-.714.42zM103.3 301.358c-.4 0-.735-.28-.802-.68-.075-.444.223-.865.667-.94 7.88-1.338 10.306-3.53 10.952-5.135.626-1.553-.32-2.867-.362-2.922a.82.82 0 0 1 .166-1.14.81.81 0 0 1 1.135.16c.063.083 1.538 2.07.584 4.484-1.15 2.9-5.255 4.984-12.202 6.163-.047.007-.093.01-.138.01z"/><path d="M104.2 304.692c-.4 0-.75-.296-.806-.705-.06-.445.25-.856.695-.918.024-.004 2.437-.347 5.756-1.5 1.913-.668 3.2-1.6 3.7-2.722.482-1.066.126-1.968.1-2.006a.82.82 0 0 1 .438-1.062.81.81 0 0 1 1.061.424c.027.062.65 1.546-.104 3.27-.7 1.573-2.257 2.796-4.66 3.638-3.485 1.22-5.966 1.57-6.07 1.583l-.112.007zm-37.683-4.442a36.87 36.87 0 0 1-2.916-.109l-.924-.073c-.448-.033-.785-.425-.75-.874s.42-.784.873-.752l.93.073c10.192.807 24.93-3.407 27.485-4.168.4-1.026 1.55-3.54 3.53-4.322.622-.246 1.56-1.686 2.317-2.844 1.437-2.207 3.067-4.706 5-3.48.44.28 1 .836 1.15 1.908.245 1.734-.697 4.15-1.662 5.846 1.87-.267 3.926-.585 4.406-.734.186-.058.798-.405 1.337-.7 2.5-1.414 4.7-2.55 6.154-2.126.98.283 1.648 1.14 1.744 2.24.133 1.532-.9 3.74-4.164 5.342-4.045 1.98-5.484 2.392-8.027 2.693-.445.053-.85-.267-.904-.715s.266-.85.713-.905c2.333-.276 3.672-.662 7.5-2.538 2.536-1.24 3.34-2.788 3.257-3.734-.037-.424-.246-.72-.573-.815-.927-.272-3.6 1.25-4.9 1.98-.853.483-1.314.74-1.652.846-.995.3-5.928.97-6.488 1.044-.334.045-.667-.125-.826-.426s-.116-.67.1-.924c.953-1.07 2.603-4.398 2.36-6.134-.07-.492-.264-.668-.406-.757-.58-.372-1.955 1.734-2.776 3-1.017 1.56-1.978 3.035-3.084 3.47-1.414.558-2.45 2.877-2.73 3.723a.82.82 0 0 1-.532.523c-.63.197-14.445 4.462-25.563 4.462z"/><path d="M49.55 324.1c-.034 0-.068 0-.102-.006-9.545-1.188-14.136-5.14-16.307-8.246-2.384-3.408-3.22-7.674-2.293-11.704 1.514-6.592 10.077-7.6 17.37-7.723a.82.82 0 0 1 .83.8c.01.445-.35.822-.8.83-9.95.18-14.826 2.174-15.8 6.457-.4 1.694-.97 6.1 2.04 10.405 2.84 4.065 8.1 6.68 15.174 7.562.446.056.763.464.708.9-.053.413-.403.714-.8.714zm14.184-2.585c-.4 0-.735-.28-.803-.68-.075-.443.224-.865.667-.94 16.673-2.82 31.28-12.195 31.426-12.3.155-.102.338-.142.524-.127 3.524.358 8.068-.467 12.453-1.406 2.78-.595 3.904-1.816 4.022-2.68.046-.336-.066-.6-.305-.726a1.59 1.59 0 0 1-.114-.065c-.42-.07-.75-.456-.7-.884.043-.448.404-.78.852-.74.304.03.47.08.677.213.908.48 1.354 1.396 1.215 2.42-.096.706-.763 3.084-5.295 4.054-4.4.944-8.972 1.772-12.675 1.46-1.995 1.245-15.983 9.703-31.798 12.377a1.05 1.05 0 0 1-.136.01zm68.063-36.23c-2.685 0-3.597-1.785-3.7-2.776-.046-.448.28-.85.726-.895s.85.277.895.726c.033.23.313 1.435 2.396 1.303 3.07-.2 7.445-.874 9.993-4.418 5.232-7.282-.615-14.953-.675-15.03-.933-1.46-1.503-1.985-2.366-2.78l-.896-.842c-.465-.452-1.048-1.17-1.666-1.93-.744-.917-2.13-2.623-2.615-2.78-.67-.197-.828.01-.88.076-.47.615-.184 2.698.526 3.846.997 1.613 3.392 3.94 3.416 3.965.2.194.287.476.23.75-.05.237-1.24 5.83-5.622 6.364-3.63.44-5.322 2.044-5.25 2.82.052.554 1.233 1.3 4.27 1.108-.018 0 4.185-.653 7.115-3.935.3-.337.816-.364 1.15-.065a.82.82 0 0 1 .065 1.152c-3.34 3.74-7.966 4.442-8.16 4.47-5.375.34-5.998-1.884-6.063-2.577-.197-2.132 2.672-4.105 6.676-4.592 2.64-.32 3.785-3.502 4.115-4.657-.732-.735-2.456-2.53-3.33-3.943-.77-1.24-1.57-4.206-.436-5.694.334-.435 1.12-1.1 2.64-.65.9.266 1.883 1.43 3.414 3.313.586.72 1.14 1.403 1.537 1.8a40.55 40.55 0 0 0 .864.81c.9.82 1.6 1.466 2.592 3.04.022.023 6.604 8.66.668 16.92-2.95 4.104-7.8 4.872-11.2 5.092a6.2 6.2 0 0 1-.424.015z"/><path d="M130.65 280.473c-.957 0-1.937-.133-2.95-.398-2.24-.59-3.436-1.47-3.656-2.69-.3-1.68 1.518-3.013 1.727-3.16a.81.81 0 0 1 1.134.199c.26.368.17.876-.197 1.135-.373.266-1.154 1.018-1.06 1.54.034.185.312.833 2.465 1.4 4.21 1.1 7.72-.425 11.373-4.957.284-.35.796-.406 1.146-.124a.82.82 0 0 1 .123 1.148c-3.21 3.98-6.478 5.908-10.106 5.908z"/><path d="M130.217 283.002c-1.953 0-3.236-.456-3.9-1.376-.745-1.044-.387-2.342-.06-2.945a.81.81 0 0 1 1.106-.325c.393.214.54.706.328 1.1-.01.02-.38.766-.045 1.227.203.28 1.208 1.135 5.6.388 2.7-.456 4.187-.707 7.122-4.196a.81.81 0 0 1 1.148-.099c.344.3.388.804.098 1.15-3.32 3.948-5.22 4.27-8.098 4.755-1.265.214-2.37.322-3.32.322zM64.92 323.1a.81.81 0 0 1-.626-.293c-9.258-11.1-1.693-25.154-1.616-25.294.217-.394.7-.536 1.106-.32a.82.82 0 0 1 .321 1.108c-.07.13-7.096 13.218 1.44 23.463a.82.82 0 0 1-.104 1.15.81.81 0 0 1-.522.188zm-1.037 3.184a4.59 4.59 0 0 1-.529-.032c-5.012-.603-10.5-9.498-10.488-16.996.02-9.227 2.757-14.86 7.512-15.457 4.4-.554 6.6 3.16 7.16 5.2.117.435-.14.882-.574 1s-.88-.14-1-.574c-.05-.185-1.282-4.52-5.383-4.008-3.794.476-6.068 5.65-6.085 13.843-.013 7.084 5.256 14.916 9.052 15.373 2.447.3 3.678-2.6 4.28-5.1.106-.438.548-.708.984-.6s.706.547.6.984c-1.3 5.377-3.838 6.368-5.53 6.368z"/><path d="M56.144 328.446c-.447 0-.928-.03-1.447-.094-2.415-.302-4.595-2.57-6.307-6.56-3.325-7.753-4.06-20.463-.07-25.87 1.173-1.59 2.584-2.462 4.196-2.593 2.918-.224 5.336 2.09 5.438 2.2.322.314.33.83.015 1.153s-.83.33-1.15.017c-.036-.034-2.02-1.905-4.177-1.733-1.12.093-2.132.745-3.01 1.935-3.614 4.897-2.83 17.06.258 24.258 1.45 3.38 3.23 5.364 5.01 5.587 4.86.6 5.297-2.296 5.313-2.42a.81.81 0 0 1 .914-.702c.446.058.76.468.702.913-.004.043-.577 3.92-5.683 3.92z"/></g><g fill="#ffb300"><path d="M265.135 80.54a.85.85 0 0 1-.85-.815c-1.436-33.93 14.398-35.76 15.073-35.822.477-.034.882.302.925.772s-.3.88-.766.925c-.188.018-14.89 1.93-13.528 34.055a.85.85 0 0 1-.814.886h-.04z"/><path d="M279.418 45.603c-.425 0-4.185-.1-7.872-3.887-3.707-3.797-7.96-12.117-7.17-30.2.02-.47.42-.83.887-.813a.85.85 0 0 1 .813.888c-.762 17.464 3.214 25.368 6.685 28.926 3.317 3.397 6.618 3.377 6.654 3.375.482.008.86.364.87.834s-.365.86-.833.87c-.005-.003-.015-.003-.032-.003zm-14.28 34.937h-.038a.85.85 0 0 1-.813-.888c1.414-32.307-15.66-33.864-15.832-33.874a.85.85 0 0 1-.79-.907.86.86 0 0 1 .907-.792c.77.054 18.902 1.7 17.416 35.648a.85.85 0 0 1-.849.813z"/><path d="M248.518 45.78c-.484-.003-.862-.388-.858-.858a.85.85 0 0 1 .851-.845c.07 0 4.3-.056 8.24-4.166 3.556-3.713 7.64-11.64 6.908-28.313a.85.85 0 0 1 .812-.888c.466-.017.87.344.888.813.61 13.91-1.89 23.874-7.428 29.615-4.39 4.556-9.074 4.642-9.412 4.642z"/></g><g fill="#ffd54f"><path d="M310.98 149.84a.85.85 0 0 1-.85-.817c-1.32-31.155 13.23-33.573 13.848-33.66a.85.85 0 0 1 .964.724c.064.464-.258.895-.723.96-.156.025-13.635 2.45-12.392 31.904a.85.85 0 0 1-.814.888c-.01-.001-.02-.001-.033-.001z"/><path d="M324.628 117.053h-.03c-1.745-.01-15.578-1-15.658-30.566a.851.851 0 0 1 1.702-.005c.08 28.5 13.356 28.866 13.98 28.866.464 0 .85.364.868.82s-.337.85-.797.88c-.024.002-.044.004-.063.004zm-13.644 32.787c-.013 0-.026 0-.04-.001a.85.85 0 0 1-.812-.889c1.3-29.476-13.845-31.407-14.487-31.475-.467-.05-.805-.466-.76-.934a.86.86 0 0 1 .927-.763c.7.068 17.388 2.054 16.02 33.246a.85.85 0 0 1-.849.816z"/><path d="M295.8 117.48c-.054 0-.09 0-.1-.002a.85.85 0 1 1 .064-1.701c.16.01 3.604.053 6.96-3.352 3.21-3.26 6.897-10.4 6.218-25.902-.017-.47.343-.87.813-.888.463-.018.87.343.888.813.568 12.983-1.706 22.142-6.755 27.222-3.622 3.64-7.413 3.8-8.088 3.8z"/></g><g fill="#ffb300"><path d="M169.596 29.9a.85.85 0 0 1-.849-.812c-.604-13.04 12.32-16.136 12.452-16.166a.85.85 0 0 1 .377 1.659c-.476.11-11.666 2.824-11.13 14.43a.85.85 0 0 1-.811.89c-.012.001-.026.001-.04.001z"/><path d="M181.388 14.603c-.012 0-.022 0-.033-.001-11.358-.438-12.622-13.545-12.634-13.678a.85.85 0 1 1 1.694-.15c.044.48 1.153 11.744 11.005 12.123a.85.85 0 0 1 .817.883.85.85 0 0 1-.849.822z"/><path d="M169.598 29.902c-.015 0-.027 0-.04-.001a.85.85 0 0 1-.811-.89c.538-11.61-9.635-13.674-10.07-13.755a.85.85 0 0 1 .078-1.683C167.53 12.74 168.71.897 168.72.78c.043-.468.46-.808.925-.77a.85.85 0 0 1 .769.926c-.012.12-1.067 10.708-8.552 13.644 3.528 1.61 8.996 5.564 8.582 14.516-.018.45-.394.807-.846.807z"/></g><g fill="#ffd54f"><path d="M188.09 56.31c-.452 0-.828-.356-.85-.812-.604-13.043 12.322-16.14 12.452-16.17.458-.102.913.183 1.018.64s-.182.914-.64 1.02c-.478.1-11.666 2.822-11.13 14.428.02.47-.34.87-.8.892h-.04z"/><path d="M199.884 41.015c-.014 0-.022 0-.033-.001-11.36-.437-12.623-13.543-12.636-13.677a.85.85 0 0 1 .774-.922c.47-.032.88.305.92.773.043.48 1.153 11.744 11.004 12.122a.85.85 0 0 1 .817.884.85.85 0 0 1-.847.821z"/><path d="M188.094 56.312h-.04a.85.85 0 0 1-.81-.892c.538-11.6-9.636-13.673-10.07-13.754a.85.85 0 0 1 .077-1.684c8.777-.834 9.955-12.676 9.965-12.794.042-.468.458-.807.925-.77a.85.85 0 0 1 .77.927c-.01.12-1.067 10.707-8.552 13.643 3.528 1.6 8.996 5.562 8.583 14.515a.85.85 0 0 1-.847.808zM117.438 81.24a1.11 1.11 0 0 1-1.105-1.057C115.55 63.24 132.34 59.22 132.5 59.18c.594-.133 1.187.237 1.322.834s-.235 1.2-.83 1.324c-.62.145-15.156 3.67-14.46 18.744.027.613-.443 1.13-1.052 1.156-.016-.001-.035.001-.052.001z"/><path d="M132.754 61.364h-.044c-14.754-.568-16.398-17.597-16.4-17.767-.053-.6.398-1.144 1.005-1.197.614-.048 1.146.398 1.198 1.006.053.622 1.498 15.257 14.293 15.75.61.022 1.085.536 1.06 1.148-.02.594-.512 1.06-1.103 1.06z"/><path d="M117.44 81.238c-.018 0-.036 0-.053-.002-.61-.028-1.082-.547-1.054-1.156.7-15.082-12.517-17.76-13.08-17.867-.542-.1-.925-.586-.9-1.136s.45-.998 1-1.05c11.402-1.082 12.933-16.467 12.946-16.623a1.11 1.11 0 0 1 1.201-1.001c.608.054 1.056.593 1.002 1.2-.015.157-1.387 13.9-11.1 17.724 4.582 2.092 11.685 7.227 11.15 18.856-.027.59-.515 1.053-1.102 1.053z"/></g><g fill="#ffb300"><path d="M51.264 151.027a.85.85 0 0 1-.849-.815c-1.437-33.93 14.398-35.76 15.073-35.822a.85.85 0 1 1 .16 1.696c-.188.018-14.9 1.93-13.53 34.055a.85.85 0 0 1-.814.886h-.04z"/><path d="M65.546 116.086c-.425 0-4.185-.1-7.872-3.888-3.707-3.797-7.96-12.117-7.17-30.2.02-.47.42-.83.888-.813a.85.85 0 0 1 .813.89c-.763 17.462 3.213 25.366 6.685 28.924 3.317 3.397 6.617 3.378 6.653 3.375.483.01.86.365.87.834a.85.85 0 0 1-.833.869c-.003-.002-.014-.002-.03-.002zm-14.28 34.94h-.038a.85.85 0 0 1-.813-.889c1.414-32.307-15.66-33.864-15.832-33.874a.85.85 0 0 1-.79-.907c.033-.47.443-.82.907-.792.77.054 18.902 1.7 17.416 35.65a.85.85 0 0 1-.849.812z"/><path d="M34.647 116.266c-.486-.003-.863-.388-.86-.858a.85.85 0 0 1 .851-.845c.07 0 4.31-.056 8.24-4.166 3.554-3.713 7.64-11.64 6.908-28.312a.85.85 0 0 1 .812-.889c.466-.017.87.344.888.813.6 13.91-1.89 23.874-7.428 29.615-4.39 4.557-9.073 4.642-9.41 4.642z"/></g><defs><linearGradient id="A" x1="162.531" y1="83.816" x2="162.531" y2="429.285" gradientUnits="userSpaceOnUse"><stop stop-color="#53c9ff"/><stop offset="1" stop-color="#03a9f4"/></linearGradient></defs></svg>