<svg width="1459" height="27" fill="none" xmlns="http://www.w3.org/2000/svg"><path d="M1315.78 26.108h-2.16V17.45h2.16v8.658zm17.47-6.177c-.09-.046-.79-.462-1.82-.462-1.4 0-2.38.983-2.38 2.31 0 1.286.93 2.31 2.38 2.31 1.01 0 1.72-.407 1.82-.459v2.324c-.27.077-1.01.308-1.98.308-2.43 0-4.57-1.694-4.57-4.484 0-2.585 1.93-4.481 4.57-4.481 1.02 0 1.77.25 1.98.31v2.324zm-22.61 0c-.09-.046-.79-.462-1.82-.462-1.41 0-2.38.983-2.38 2.31 0 1.286.93 2.31 2.38 2.31 1.02 0 1.72-.407 1.82-.459v2.324c-.27.077-1.01.308-1.98.308-2.43 0-4.57-1.694-4.57-4.484 0-2.585 1.94-4.481 4.57-4.481 1.02 0 1.77.25 1.98.31v2.324zm29.42-.43c-1.28 0-2.24 1.02-2.24 2.277 0 1.26.96 2.279 2.24 2.279 1.29 0 2.24-1.02 2.24-2.279 0-1.257-.95-2.277-2.24-2.277zm4.54 2.277c0 2.477-1.9 4.484-4.54 4.484s-4.53-2.007-4.53-4.484c0-2.473 1.89-4.482 4.53-4.482 2.64 0 4.54 2.01 4.54 4.482zm-20.6-2.36c-.04-.01-.95-.264-1.7-.264-.87 0-1.34.293-1.34.71 0 .526.64.71 1 .824l.59.192c1.41.451 2.05 1.422 2.05 2.477 0 2.175-1.9 2.905-3.55 2.905-1.16 0-2.24-.213-2.34-.236v-1.993c.19.049 1.1.322 2.04.322 1.08 0 1.58-.317 1.58-.808 0-.439-.43-.692-.97-.862-.13-.045-.33-.107-.46-.151-1.21-.385-2.21-1.1-2.21-2.533 0-1.62 1.2-2.707 3.2-2.707 1.05 0 2.04.258 2.11.276v1.848zm-22.21-11.273c0-.596-.48-1.08-1.07-1.08-.59 0-1.08.484-1.08 1.08v2.273c0 .6.49 1.084 1.08 1.084.59 0 1.07-.484 1.07-1.084V8.145zm5.91-2.983c0-.596-.48-1.081-1.07-1.081-.6 0-1.08.485-1.08 1.081v5.256c0 .6.48 1.084 1.08 1.084.59 0 1.07-.484 1.07-1.084V5.162zm5.91-4.081c0-.597-.48-1.081-1.08-1.081-.59 0-1.07.484-1.07 1.081v11.497c0 .6.48 1.084 1.07 1.084.6 0 1.08-.484 1.08-1.084V1.08v.001zm5.91 4.081c0-.596-.49-1.081-1.08-1.081-.59 0-1.08.485-1.08 1.081v5.256c0 .6.49 1.084 1.08 1.084.59 0 1.08-.484 1.08-1.084V5.162zm5.9 2.983c.01-.145-.02-.29-.07-.426s-.13-.26-.23-.365c-.1-.104-.22-.187-.35-.245a1.107 1.107 0 00-.85 0c-.2.088-.37.234-.48.418-.12.185-.18.4-.17.618v2.273c0 .6.48 1.084 1.08 1.084.59 0 1.07-.484 1.07-1.084V8.145zm5.91-2.983c0-.142-.03-.282-.08-.414-.06-.13-.14-.25-.24-.35-.2-.201-.47-.315-.76-.317-.59 0-1.07.485-1.07 1.081v5.256c0 .6.48 1.084 1.07 1.084.6 0 1.08-.484 1.08-1.084V5.162zm5.91-4.081c0-.597-.48-1.081-1.07-1.081-.6 0-1.08.484-1.08 1.081v11.497c0 .6.48 1.084 1.08 1.084.59 0 1.07-.484 1.07-1.084V1.08v.001zm5.91 4.081a1.075 1.075 0 00-1.08-1.035 1.075 1.075 0 00-1.08 1.035v5.256c0 .286.11.561.32.764.2.202.47.316.76.316.29 0 .56-.114.76-.316.21-.203.32-.478.32-.764V5.162zm5.89 2.983c0-.596-.48-1.08-1.07-1.08-.59 0-1.07.484-1.07 1.08v2.273c0 .6.48 1.084 1.07 1.084.59 0 1.07-.484 1.07-1.084V8.145zM625.166 22.418c-1.518-.061-2.759-.483-3.73-1.266a7.299 7.299 0 01-.775-.787 4.952 4.952 0 01-.84-1.534c-.549-1.67-.266-3.862.809-6.267.92-2.06 2.341-4.102 4.82-6.93.365-.417 1.452-1.634 1.459-1.634.003 0-.057.104-.131.231-.644 1.096-1.196 2.386-1.496 3.504-.483 1.793-.425 3.331.17 4.524.41.822 1.114 1.534 1.905 1.928 1.385.688 3.412.745 5.888.166.171-.04 8.618-2.316 18.772-5.058 10.155-2.742 18.464-4.984 18.465-4.982.003.002-23.591 10.25-35.839 15.566-1.94.842-2.458 1.055-3.37 1.38-2.331.83-4.419 1.227-6.107 1.159z" fill="#C6D2D9"/><path fill-rule="evenodd" clip-rule="evenodd" d="M1243.68 18.15c-3.21 2.39-7.86 3.667-11.86 3.667-5.62 0-10.67-2.1-14.5-5.59-.3-.274-.03-.648.33-.434 4.13 2.427 9.23 3.886 14.5 3.886 3.56 0 7.47-.743 11.06-2.285.55-.234 1 .36.47.757v-.001z" fill="#C6D2D9"/><path fill-rule="evenodd" clip-rule="evenodd" d="M1245.02 16.609c-.41-.53-2.72-.25-3.75-.127-.31.04-.36-.238-.08-.437 1.83-1.304 4.84-.928 5.2-.49.35.44-.1 3.488-1.82 4.943-.26.223-.52.104-.4-.192.39-.977 1.26-3.165.85-3.697zm-3.68-9.773V5.568c0-.192.15-.32.32-.32h5.62c.18 0 .32.13.32.32v1.086c0 .182-.15.42-.42.797l-2.91 4.2c1.08-.027 2.22.136 3.2.695.22.126.28.31.3.493v1.353c0 .184-.2.4-.41.289-1.73-.916-4.03-1.016-5.94.01-.19.106-.4-.107-.4-.292v-1.285c0-.207 0-.559.21-.872l3.37-4.887h-2.93c-.18 0-.33-.13-.33-.319zm-20.49 7.912h-1.71a.34.34 0 01-.21-.09.384.384 0 01-.09-.204V5.59c0-.177.14-.318.33-.318h1.59c.17.007.3.136.31.296v1.159h.03c.42-1.12 1.2-1.642 2.25-1.642 1.07 0 1.74.522 2.22 1.642.41-1.12 1.35-1.642 2.36-1.642.72 0 1.5.298 1.98.969.54.746.43 1.829.43 2.779v5.594c0 .177-.15.32-.33.32h-1.71a.358.358 0 01-.22-.1.358.358 0 01-.09-.22V9.73c0-.374.04-1.307-.05-1.661-.12-.596-.51-.763-1-.763-.41 0-.85.28-1.02.726-.18.447-.16 1.195-.16 1.698v4.698c0 .177-.15.32-.33.32h-1.71a.349.349 0 01-.12-.029.447.447 0 01-.09-.071.38.38 0 01-.07-.1.471.471 0 01-.02-.12l-.01-4.698c0-.989.16-2.444-1.05-2.444-1.23 0-1.18 1.419-1.18 2.444v4.698c0 .177-.15.32-.33.32zm31.59-9.663c2.53 0 3.91 2.2 3.91 4.999 0 2.703-1.52 4.848-3.91 4.848-2.49 0-3.85-2.2-3.85-4.943 0-2.76 1.37-4.904 3.85-4.904zm.01 1.81c-1.26 0-1.34 1.734-1.34 2.815 0 1.083-.01 3.396 1.33 3.396 1.32 0 1.38-1.866 1.38-3.003 0-.748-.03-1.642-.25-2.351-.19-.617-.58-.858-1.12-.858v.001zm7.18 7.853h-1.7a.358.358 0 01-.22-.1.358.358 0 01-.09-.22V5.56c.02-.163.16-.29.33-.29h1.59c.14.008.27.11.3.248v1.356h.03c.48-1.212 1.15-1.79 2.33-1.79.77 0 1.52.279 2 1.044.44.71.44 1.902.44 2.76v5.58a.318.318 0 01-.11.201.333.333 0 01-.22.078h-1.71c-.16-.012-.29-.129-.3-.28V9.654c0-.97.11-2.388-1.07-2.388-.42 0-.8.282-.99.71-.24.541-.27 1.08-.27 1.678v4.773c0 .043-.01.086-.03.126a.42.42 0 01-.07.104c-.04.03-.07.053-.11.069a.362.362 0 01-.13.021v.001zm-22.77-4.234c0 .673.02 1.234-.32 1.832-.27.486-.7.784-1.18.784-.66 0-1.04-.505-1.04-1.25 0-1.473 1.31-1.74 2.54-1.74v.374zm1.73 4.21a.413.413 0 01-.2.084.356.356 0 01-.21-.043c-.56-.476-.67-.697-.98-1.151-.94.966-1.6 1.255-2.81 1.255-1.44 0-2.56-.896-2.56-2.69 0-1.402.75-2.357 1.82-2.824.93-.413 2.22-.485 3.21-.6v-.223c0-.41.03-.896-.21-1.251-.2-.318-.6-.45-.95-.45-.66 0-1.24.338-1.38 1.038-.03.155-.14.308-.3.316l-1.65-.18c-.14-.032-.3-.146-.26-.362.38-2.03 2.2-2.643 3.83-2.643.83 0 1.91.223 2.57.86.83.784.75 1.831.75 2.97v2.692c0 .81.33 1.164.65 1.601.1.155.13.343-.01.46-.35.293-.97.84-1.31 1.146v-.005zm-24.13-4.21c0 .673.02 1.234-.32 1.832-.27.486-.7.785-1.18.785-.66 0-1.04-.506-1.04-1.252 0-1.471 1.3-1.739 2.54-1.739v.374zm1.72 4.21a.325.325 0 01-.19.084.339.339 0 01-.21-.043c-.57-.476-.67-.697-.98-1.151-.94.967-1.6 1.256-2.82 1.256-1.44 0-2.56-.896-2.56-2.692 0-1.401.76-2.356 1.83-2.822.92-.413 2.22-.486 3.21-.6v-.224c0-.41.03-.896-.21-1.25-.21-.319-.61-.45-.96-.45-.65 0-1.23.337-1.37 1.037-.03.155-.14.309-.3.316l-1.66-.18c-.13-.032-.29-.146-.25-.362.38-2.03 2.2-2.643 3.82-2.643.83 0 1.92.224 2.58.86.83.785.75 1.832.75 2.971v2.692c0 .808.33 1.163.64 1.6.11.156.14.343 0 .46-.35.293-.97.84-1.31 1.146l-.01-.005z" fill="#C6D2D9"/><path d="M142.193 4v9.85l-.124.104-.124.103-.119.11-.114.108-.109.11-.109.113-.104.115-.103.114V4H130.39v8.968h-.901V4h-10.897v8.983h-.901V4h-10.896v10.24l-2.783 9.284h2.446l1.228-4.111h.352l2.031 4.11h2.954l-1.969-4.11h4.466l-1.238 4.11h2.668l1.223-4.1h.59v-.01h5.949l-1.182 4.1h2.695l1.145-4.1h1.212l.031 4.1h2.259l2.596-4.1h1.7l-.881 4.1h2.653l.865-4.1h1.534l-.011.234.006.238.01.229.021.228.015.11.016.108.02.11.021.108.026.11.026.103.031.104.031.104.036.103.037.099.041.099.042.093.046.099.047.093.052.088.052.093.057.089.062.083.062.088.067.078.068.083.067.077.078.078.077.073.099.083.098.083.104.078.109.073.109.072.108.068.114.057.12.062.114.052.119.052.119.047.124.047.125.04.124.038.124.036.125.03.248.058.254.042.249.036.249.03.243.022.238.01.234.01h.222l.301-.005.3-.005.306-.015.306-.016.306-.026.305-.026.306-.03.306-.037.311-.042.31-.047.311-.051.311-.052.311-.057.311-.063.311-.062.316-.072.922-3.722h3.026V4.001h-10.896L142.193 4zm-34.388 15.03l.015-.058.037.057h-.052v.001zm9.492-5.523l-.155.524-1.451 4.827-.057.171h-4.767l-.368-.789 5.135-5.257h-3.301l-4.015 4.334 1.3-4.334h-2.435V4.39h10.114v9.118-.001zm2.814 4.08l-.078.004-.073.005-.077.005h-.285l-.088.005h-.083l-.648-.005.301-1.11.139-.55.342-1.293h.223l.109-.005h.606l.306.005.28.01.124.006.119.01.114.016.104.015.093.015.088.026.083.027.073.03.062.032.057.041.052.042.041.052.026.041.021.042.02.046.016.053.01.057.006.057v.13l-.006.072-.005.073-.015.083-.016.083-.046.176-.057.198-.057.166-.063.16-.067.151-.072.14-.037.062-.036.063-.042.062-.046.057-.047.057-.046.052-.052.052-.052.046-.057.042-.057.047-.062.036-.068.042-.067.036-.073.031-.072.031-.078.026-.083.031-.088.021-.093.02-.093.022-.104.015-.104.016-.108.01-.114.01v.002zm7.367 1.442l1.063-3.788.041 3.788h-1.104zm1.617-6.061h-2.528l-1.741 6.061h-2.684l.124-.052.124-.052.12-.052.119-.057.114-.057.109-.067.108-.063.104-.067.104-.073.098-.072.093-.073.094-.083.088-.078.083-.088.082-.083.078-.093.078-.088.072-.1.068-.092.067-.104.062-.104.057-.104.057-.11.052-.113.052-.114.047-.115.041-.119.042-.125.031-.124.036-.125.026-.135.026-.13.036-.207.031-.197.021-.187.015-.176.006-.177-.006-.16-.005-.162-.02-.15-.021-.14-.036-.14-.037-.13-.051-.125-.057-.119-.063-.12-.072-.108-.083-.104-.067-.073-.068-.072-.072-.062-.078-.057-.083-.058-.083-.052-.088-.046-.088-.042-.093-.041-.094-.031-.098-.032-.098-.031-.104-.026-.104-.02-.103-.021-.109-.016-.223-.031-.223-.015-.228-.016-.233-.005h-2.938V4.39h10.114v8.58-.002zm6.145 6.061h-1.518l2.3-3.633-.782 3.633zm5.653-5.89l-.006 2.102-.129.181-.119.187-.119.187-.109.187-.104.186-.103.192-.089.187-.088.187-.083.182-.072.187-.073.181-.062.177-.057.176-.052.172-.046.166-.042.166-.026.109-.026.114-.025.109-.021.114-.021.11-.015.108-.016.109-.01.114h-1.487l1.269-6.046-4.28-.005-3.829 6.051h-.279V4.39h10.119v8.75-.001zm5.834 8.366l-.212.036-.218.03-.218.032-.212.026-.212.02-.213.017-.207.01h-.342l-.135-.005-.129-.01-.13-.016-.124-.02-.119-.021-.12-.026-.114-.032-.108-.036-.109-.036-.104-.047-.098-.047-.099-.057-.093-.057-.088-.062-.083-.063-.083-.072-.072-.078-.073-.078-.067-.088-.062-.088-.057-.099-.052-.098-.052-.104-.042-.11-.036-.118-.031-.12-.031-.124-.021-.13-.015-.135-.011-.14-.005-.146h4.715l-.518 2.092zm5.979-2.476h-2.549l.42-1.692h-5.109l-.42 1.692h-2.471v-.348l.031-.145.026-.145.031-.156.031-.156.047-.17.046-.172.052-.171.057-.166.062-.166.068-.167.072-.16.073-.162.083-.16.083-.15.088-.157.098-.145.098-.145.099-.14.109-.135.114-.13.119-.124.119-.114.13-.115.129-.109.135-.098.145-.094.145-.083.15-.078.156-.072.16-.063.166-.051.171-.042.176-.036.182-.027.186-.015.192-.005.15.005.15.01.151.021.145.031.072.021.068.021.067.02.062.032.062.026.062.036.057.037.058.036.051.046.052.047.047.047.047.057.041.052.036.062.031.068.031.067.026.073.021.078.016.078.015.088.006.088v.192l-.011.104h3.047l.046-.213.042-.244.021-.13.01-.14.01-.14v-.145l-.005-.15-.015-.156-.016-.073-.01-.078-.021-.078-.02-.078-.026-.083-.026-.078-.031-.078-.037-.077-.036-.078-.046-.078-.047-.078-.052-.078-.062-.083-.067-.077-.068-.078-.072-.073-.078-.072-.083-.068-.083-.062-.088-.063-.093-.062-.093-.052-.099-.052-.104-.051-.103-.047-.109-.047-.114-.041-.114-.042-.114-.037-.124-.03-.119-.032-.13-.03-.13-.027-.129-.026-.135-.02-.14-.016-.285-.031-.29-.026-.306-.01-.31-.006-.234.005-.243.005-.254.016-.264.02-.275.032-.28.036-.285.047-.29.062-.145.031-.15.036-.145.042-.15.042-.151.046-.15.052-.15.052-.145.057-.151.062-.15.068-.145.067-.15.073-.145.078-.145.083-.145.083-.145.093V4.39h10.129v14.64h-.001v-.001zM1427.5 6.219l4.3 1.71-4.3 1.618v2.312l7.37-3.005v-1.85L1427.5 4v2.219zm-39.48 8.598c-2.05 0-3.56.925-3.7 2.866h2.29v-.046c.04-.647.64-1.11 1.28-1.063.87 0 1.28.508 1.28 1.387v.416h-1.05c-2.25 0-4.08.693-4.08 2.866v.092c0 1.757 1.29 2.543 2.84 2.543.96.046 1.83-.416 2.38-1.156v1.017h2.33v-5.825c-.04-2.219-1.55-3.097-3.57-3.097zm-.5 7.35c-.82 0-1.19-.416-1.19-1.017v-.092c0-.786.6-1.11 1.79-1.11h.96v.832c.04.925-.74 1.387-1.56 1.387zm9.56-.092c-1.14 0-1.74-.786-1.74-2.543v-.277c0-1.71.69-2.543 1.74-2.543.83 0 1.28.555 1.42 1.387h2.29c-.19-2.265-1.83-3.282-3.75-3.282-2.29 0-4.12 1.572-4.12 4.53v.093c0 2.958 1.74 4.438 4.12 4.438 2.33 0 3.66-1.433 3.84-3.375h-2.2c-.18.97-.77 1.572-1.6 1.572zm8.92 0c-1.14 0-1.74-.786-1.74-2.543v-.277c0-1.71.69-2.543 1.74-2.543.83 0 1.28.555 1.42 1.387h2.29c-.19-2.265-1.83-3.282-3.75-3.282-2.29 0-4.12 1.572-4.12 4.53v.093c0 2.958 1.74 4.438 4.12 4.438 2.33 0 3.66-1.433 3.79-3.375h-2.15c-.13.97-.77 1.572-1.6 1.572zm9.01.046c-1.05 0-1.69-.6-1.78-2.173h5.58v-1.017c0-2.866-1.78-4.114-3.93-4.114-2.34 0-4.12 1.618-4.12 4.53v.185c0 2.913 1.69 4.392 4.16 4.392 2.24 0 3.62-1.248 3.84-2.912h-2.24c-.09.693-.78 1.201-1.51 1.109zm-.13-5.64c.96 0 1.55.555 1.6 1.85h-3.21c.19-1.387.87-1.803 1.61-1.85zm10.42-1.664c-1.09-.046-2.1.509-2.6 1.48v-1.295h-2.38v8.69h2.38v-5.546c.04-.786.73-1.433 1.51-1.387.87 0 1.28.462 1.28 1.48v5.454h2.42v-5.825c0-2.126-1.05-3.051-2.61-3.051zm7.09 6.103v-4.115h1.65v-1.803h-1.65v-2.635l-2.37 1.017v1.618h-1.06v1.803h1.01v4.392c0 1.756.87 2.634 2.74 2.634.46 0 .92-.046 1.38-.184V21.75c-.27.091-.55.138-.83.139-.55 0-.87-.323-.87-.969zm8.28-.51v.232c-.04.786-.73 1.433-1.5 1.387-.87 0-1.24-.463-1.24-1.48v-5.547h-2.42v5.871c0 2.034 1.14 3.005 2.69 3.005 1.06.046 2.02-.509 2.52-1.48v1.295h2.43v-8.69h-2.43l-.05 5.407zm6.59-3.836v-1.618h-2.38v8.69h2.38v-4.483c0-1.433.96-1.942 2.61-1.942v-2.404c-1.19 0-2.24.694-2.61 1.757zm11.39 2.311c0-2.866-1.78-4.068-3.93-4.068-2.34 0-4.12 1.618-4.12 4.53v.185c0 2.913 1.69 4.392 4.16 4.392 2.24 0 3.57-1.248 3.85-2.912h-2.25c-.18.74-.87 1.201-1.6 1.155-1.05 0-1.69-.6-1.78-2.172h5.58v-1.11h.09zm-5.58-.555c.18-1.433.87-1.849 1.65-1.849.96 0 1.55.555 1.6 1.85l-3.25-.001zM511.896 13.347a.254.254 0 00-.107-.085.274.274 0 00-.261.029.282.282 0 00-.087.105l-2.307 4.617a.291.291 0 00-.03.136.28.28 0 00.276.263h3.213a.261.261 0 00.246-.152c.693-1.433.274-3.612-.943-4.913zm1.692-4.199a6.101 6.101 0 00-.356 6.012l1.549 3.1a.275.275 0 00.247.153h3.212a.274.274 0 00.247-.4l-4.43-8.866a.266.266 0 00-.235-.144.261.261 0 00-.234.146v-.001zm36.375 3.702c0 1.143.53 2.05 2.603 2.451 1.236.26 1.495.46 1.495.872 0 .4-.26.66-1.13.66a6.377 6.377 0 01-3.003-.813v1.862c.624.307 1.448.648 2.979.648 2.167 0 3.027-.967 3.027-2.404l-5.971-3.276zm5.971 3.276c0-1.355-.719-1.992-2.744-2.427-1.119-.248-1.39-.496-1.39-.85 0-.446.4-.635 1.142-.635.896 0 1.779.27 2.615.648v-1.78a5.897 5.897 0 00-2.556-.53c-2.002 0-3.038.872-3.038 2.298l5.971 3.276zM577.8 10.67v7.742h1.648v-5.904l.695 1.568 2.332 4.336h2.073V10.67h-1.649v4.997l-.624-1.45-1.873-3.547H577.8zm-10.486 0h-1.801v7.742h1.801V10.67zm-3.88 5.456c0-1.355-.719-1.992-2.744-2.427-1.119-.248-1.39-.496-1.39-.85 0-.446.401-.635 1.143-.635.895 0 1.778.27 2.615.648v-1.78a5.906 5.906 0 00-2.556-.53c-2.003 0-3.038.872-3.038 2.298 0 1.143.529 2.05 2.602 2.451 1.236.26 1.495.46 1.495.872 0 .4-.259.66-1.13.66a6.38 6.38 0 01-3.003-.813v1.862c.624.307 1.449.648 2.98.648 2.166 0 3.026-.967 3.026-2.404zm-27.467-5.456v7.742h3.702l.584-1.673h-2.473v-6.07h-1.813v.001zm-7.316 0v1.673h2.001v6.07h1.814v-6.07h2.143V10.67h-5.958zm-2.63 0h-2.376l-2.698 7.742h2.06l.382-1.304a5.114 5.114 0 002.886 0l.383 1.304h2.06l-2.697-7.742zm-1.188 5.042c-.336 0-.67-.048-.992-.143l.992-3.379.992 3.38a3.518 3.518 0 01-.992.142zm21.221-5.042h-2.376l-2.698 7.742h2.061l.382-1.304a5.11 5.11 0 002.885 0l.384 1.304h2.06l-2.698-7.742zm-1.187 5.042c-.335 0-.669-.048-.992-.143l.992-3.379.991 3.38a3.524 3.524 0 01-.991.142zm28.94-5.042h-2.377l-2.698 7.742h2.061l.383-1.304a5.11 5.11 0 002.885 0l.382 1.304h2.061l-2.697-7.742zm-1.189 5.042c-.336 0-.67-.048-.992-.143l.992-3.379.991 3.38a3.502 3.502 0 01-.991.142zm493.242-1.222c0 2.869-2.22 4.982-4.95 4.982-2.72 0-4.94-2.113-4.94-4.981 0-2.889 2.22-4.982 4.94-4.982 2.73 0 4.95 2.093 4.95 4.982v-.001zm-2.17 0c0-1.791-1.28-3.018-2.78-3.018-1.49 0-2.78 1.227-2.78 3.019 0 1.774 1.29 3.018 2.78 3.018 1.5 0 2.78-1.246 2.78-3.018v-.001zm12.83 0c0 2.869-2.22 4.982-4.94 4.982-2.73 0-4.95-2.113-4.95-4.981 0-2.886 2.22-4.982 4.95-4.982 2.72 0 4.94 2.093 4.94 4.982v-.001zm-2.16 0c0-1.791-1.29-3.018-2.78-3.018-1.49 0-2.78 1.227-2.78 3.019 0 1.774 1.29 3.018 2.78 3.018 1.49 0 2.78-1.246 2.78-3.018v-.001zm12.39-4.68v8.944c0 3.678-2.15 5.181-4.69 5.181-2.39 0-3.82-1.615-4.37-2.935l1.89-.793c.33.81 1.16 1.767 2.48 1.767 1.62 0 2.63-1.012 2.63-2.92v-.716h-.07c-.49.604-1.42 1.132-2.6 1.132-2.46 0-4.72-2.17-4.72-4.961 0-2.812 2.26-5 4.72-5 1.18 0 2.11.528 2.6 1.114h.07v-.81h2.06V9.81zm-1.9 4.699c0-1.754-1.16-3.037-2.64-3.037-1.49 0-2.74 1.283-2.74 3.037 0 1.736 1.25 3 2.74 3 1.48 0 2.64-1.264 2.64-3zm5.29-9.941v14.599h-2.11V4.568h2.11zm8.22 11.562l1.68 1.133c-.54.81-1.84 2.208-4.1 2.208-2.8 0-4.89-2.188-4.89-4.982 0-2.963 2.1-4.982 4.64-4.982 2.56 0 3.81 2.058 4.22 3.17l.23.565-6.59 2.758c.5 1 1.29 1.51 2.39 1.51s1.86-.548 2.42-1.38zm-5.17-1.791l4.41-1.85c-.25-.621-.97-1.055-1.83-1.055-1.1 0-2.63.982-2.58 2.905zm-45.22-1.144v-2.113h7.05c.07.368.11.803.11 1.275 0 1.586-.43 3.546-1.81 4.943-1.35 1.415-3.07 2.17-5.34 2.17-4.22 0-7.77-3.472-7.77-7.735S1043.76 4 1047.98 4c2.33 0 3.99.925 5.24 2.131l-1.47 1.492c-.9-.85-2.11-1.51-3.78-1.51-3.08 0-5.49 2.51-5.49 5.622 0 3.113 2.41 5.622 5.49 5.622 2 0 3.14-.811 3.87-1.548.59-.597.98-1.45 1.13-2.616l-5 .002zM435.647 15.427c.194.517.463.959.807 1.326.344.367.751.648 1.222.843.471.194.983.292 1.537.292.538 0 1.043-.102 1.514-.304a3.719 3.719 0 001.233-.854c.352-.367.624-.805.819-1.314.194-.51.291-1.079.291-1.708V4h2.355v15.73h-2.332v-1.46a5.41 5.41 0 01-1.851 1.28c-.71.3-1.476.45-2.298.45a6.212 6.212 0 01-2.344-.438 5.49 5.49 0 01-1.884-1.247 5.872 5.872 0 01-1.256-1.944c-.307-.757-.46-1.6-.46-2.528V4h2.355v9.708c0 .63.097 1.202.292 1.719zM449.485 4v5.73a6.001 6.001 0 011.816-1.247 5.44 5.44 0 012.243-.46c.838 0 1.622.157 2.355.471a6.023 6.023 0 011.907 1.281c.538.54.964 1.176 1.278 1.91a5.88 5.88 0 01.471 2.338 5.8 5.8 0 01-.471 2.325 6.066 6.066 0 01-1.278 1.9 6.022 6.022 0 01-1.907 1.28 5.904 5.904 0 01-2.355.472 5.516 5.516 0 01-2.254-.46 5.97 5.97 0 01-1.828-1.248v1.438h-2.243V4h2.266zm.258 11.573c.201.48.482.899.841 1.258.359.36.777.645 1.256.855.478.21.994.314 1.547.314.539 0 1.047-.105 1.525-.314.479-.21.894-.495 1.245-.855a4.15 4.15 0 00.841-1.258c.21-.48.314-.996.314-1.55a3.9 3.9 0 00-.314-1.562 4.114 4.114 0 00-.841-1.27 3.876 3.876 0 00-2.77-1.146 3.91 3.91 0 00-2.781 1.146c-.359.36-.643.783-.852 1.27a3.918 3.918 0 00-.314 1.562c0 .554.101 1.07.303 1.55zm11.09-3.865c.299-.72.71-1.352 1.234-1.899a5.733 5.733 0 014.194-1.764c.822 0 1.585.15 2.288.45.702.3 1.308.715 1.816 1.247a5.693 5.693 0 011.189 1.887c.284.727.426 1.517.426 2.371v.742h-9.308a3.895 3.895 0 001.29 2.326c.336.292.718.52 1.144.685.426.165.878.247 1.357.247 1.36 0 2.459-.562 3.297-1.685l1.637 1.213a6.094 6.094 0 01-2.108 1.798c-.838.434-1.78.652-2.826.652-.853 0-1.649-.15-2.389-.45-.74-.3-1.383-.719-1.929-1.258a5.912 5.912 0 01-1.76-4.27c0-.809.149-1.573.448-2.292zm3.151-.888c-.635.532-1.057 1.24-1.267 2.124h6.975c-.194-.884-.609-1.592-1.244-2.124a3.373 3.373 0 00-2.232-.797c-.852 0-1.596.265-2.232.797zm12.235.259c-.479.524-.718 1.236-.718 2.134v6.517h-2.265V8.27h2.243v1.415a3.19 3.19 0 011.11-1.1c.456-.27.998-.405 1.626-.405H479v2.112h-.942c-.748 0-1.361.262-1.839.787z" fill="#C6D2D9"/><path fill-rule="evenodd" clip-rule="evenodd" d="M308.108 9.32v1.704c-.934-.334-1.766-.503-2.494-.503-.431 0-.774.076-1.032.222-.259.147-.39.328-.39.542 0 .284.291.537.878.763l1.695.78c1.371.618 2.052 1.437 2.052 2.467 0 .855-.361 1.54-1.089 2.045-.722.51-1.696.763-2.907.763a14.31 14.31 0 01-1.506-.07 12.271 12.271 0 01-1.527-.273v-1.782c1.042.333 1.992.502 2.846.502 1.019 0 1.526-.28 1.526-.844 0-.28-.208-.506-.63-.683l-1.882-.758c-.695-.298-1.211-.657-1.549-1.083a2.353 2.353 0 01-.503-1.486c0-.788.352-1.424 1.047-1.907.7-.48 1.629-.719 2.784-.719.375 0 .808.031 1.287.09.467.058.933.134 1.394.23zm-53.333 0v1.704c-.934-.334-1.764-.503-2.492-.503-.433 0-.774.076-1.032.222-.259.147-.39.328-.39.542 0 .284.295.537.882.763l1.695.78c1.365.618 2.047 1.437 2.047 2.467 0 .855-.363 1.54-1.085 2.045-.728.51-1.695.763-2.91.763-.559 0-1.062-.023-1.508-.07a12.28 12.28 0 01-1.525-.273v-1.782c1.046.333 1.995.502 2.844.502 1.019 0 1.526-.28 1.526-.844 0-.28-.207-.506-.624-.683l-1.883-.758c-.7-.298-1.216-.657-1.548-1.083a2.321 2.321 0 01-.504-1.486c0-.788.349-1.424 1.047-1.907.695-.48 1.625-.719 2.78-.719.38 0 .807.031 1.291.09.467.058.93.135 1.389.23zm1.943-.161h2.762v8.784h-2.762V9.159zm11.658 0v1.623h-4.104v1.949h3.56v1.463h-3.56v2.044h4.188v1.705h-6.845V9.159h6.761zm12.892 0v8.784h-2.578v-5.794l-2.675 5.874h-1.592l-2.571-5.874v5.794h-1.865V9.159h3.371l2.3 5.377 2.408-5.377h3.202zm8.892 0v1.623h-4.08v1.949h3.558v1.463h-3.558v2.044h4.163v1.705H283.4V9.159h6.76zm9.689 0v8.784h-2.929l-3.287-5.634v5.634h-1.863V9.159h3.015l3.202 5.536V9.16h1.862v-.001z" fill="#C6D2D9"/><path d="M203.503 10.41c0-1.447.969-2.85 1.498-2.586.603.306-.452 1.668-1.498 2.586zm-6.59.527c0-1.163 1.136-3.373 1.83-3.14.82.276-.68 2.506-1.83 3.14zm-1.151 8.32c-.522.022-.872-.315-.872-.878 0-1.514 2.079-2.96 3.648-3.736-.278 2.113-.985 4.532-2.776 4.613v.001zm9.589-4.934c-1.185 0-2.091.881-2.091 1.938 0 .881.523 1.586 1.219 1.586.246 0 .49-.142.49-.457 0-.46-.602-.57-.556-1.256.03-.451.451-.754.87-.754.835 0 1.227.82 1.227 1.664-.034 1.305-.985 2.212-2.099 2.212-1.465 0-2.407-1.409-2.407-2.925 0-2.256 1.465-3.137 2.233-3.348.008 0 2.005.36 1.943-.53-.029-.392-.604-.543-1.021-.559-.463-.018-.93.15-.93.15-.243-.124-.411-.368-.516-.649 1.43-1.093 2.441-2.15 2.441-3.348 0-.634-.419-1.198-1.221-1.198-1.43 0-2.511 1.833-2.511 3.49 0 .28 0 .563.072.81-.907.668-1.582 1.085-2.802 1.825 0-.154.033-.553.135-1.068.418-.458.992-1.145.992-1.674 0-.246-.138-.459-.42-.459-.696 0-1.218 1.059-1.358 1.799-.314.389-.942.882-1.466.882-.418 0-.558-.388-.594-.53 1.326-.458 2.965-2.29 2.965-3.947 0-.351-.139-1.128-1.185-1.128-1.57 0-2.893 2.363-2.893 4.193-.559 0-.768-.598-.768-1.057 0-.46.174-.916.174-1.057 0-.141-.069-.317-.279-.317-.523 0-.837.705-.837 1.515.037 1.128.768 1.835 1.744 1.904.14.67.731 1.305 1.463 1.305.455 0 1.012-.141 1.396-.493-.034.246-.068.459-.104.67-1.535.811-2.651 1.375-3.662 2.29-.8.742-1.254 1.728-1.254 2.502 0 1.06.661 2.045 2.021 2.045 1.603 0 2.825-1.303 3.419-3.102.278-.845.389-2.075.461-3.204 1.602-.918 2.362-1.447 3.2-2.047.104.176.21.316.348.422-.732.388-2.475 1.48-2.475 4.053 0 1.832 1.219 3.877 3.626 3.877 1.988 0 3.348-1.656 3.348-3.243-.001-1.444-.803-2.782-2.338-2.782zm5.996 3.028c-.005.01-.025.025-.065.012-.03-.01-.037-.026-.037-.046.002-.02.421-1.274.418-2.711-.004-1.554-.628-2.506-1.428-2.506-.489 0-.838.354-.838.883 0 .952 1.15 1.023 1.15 3.102 0 .845-.174 1.655-.451 2.536-1.292 4.404-5.407 6.45-9.415 6.45-1.85 0-3.163-.385-3.554-.562-.016-.01-.03-.04-.018-.072.009-.022.037-.04.052-.034.159.062 1.287.421 2.682.421 1.534 0 2.441-.634 2.441-1.41a.863.863 0 00-.871-.88c-.942 0-1.014 1.197-3.035 1.197-.872 0-1.64-.176-2.546-.46-4.325-1.338-6.384-5.46-6.382-9.547.001-1.992.554-3.579.563-3.593.007-.01.032-.022.062-.01.031.01.037.035.036.044-.05.165-.416 1.302-.416 2.712 0 1.552.627 2.468 1.429 2.468a.824.824 0 00.777-.521.835.835 0 00.059-.324c0-.953-1.151-1.059-1.151-3.103 0-.881.176-1.657.453-2.573 1.326-4.37 5.407-6.418 9.418-6.45 1.863-.014 3.494.55 3.556.6.011.01.022.034.011.062-.015.034-.037.038-.047.036-.019-.002-1.08-.45-2.685-.45-1.499-.001-2.441.633-2.441 1.445 0 .457.35.845.871.845.942 0 1.012-1.163 3.035-1.163.87 0 1.638.175 2.544.458 4.36 1.339 6.344 5.497 6.382 9.516.021 2.058-.554 3.614-.559 3.628zM200.68 1.6c-6.626 0-11.996 5.425-11.996 12.123 0 6.696 5.37 12.122 11.996 12.122 6.625 0 11.995-5.426 11.995-12.122 0-6.661-5.37-12.123-11.995-12.123zm0 24.845c-6.94 0-12.59-5.674-12.59-12.721C188.09 6.708 193.74 1 200.68 1c6.938 0 12.588 5.708 12.588 12.724 0 7.047-5.65 12.72-12.588 12.72v.001zM1135.14 6v1.087h7.64V6h-7.64zm8.73 0v1.087h10.9S1153.65 6 1152.18 6h-8.31zm13.03 0v1.087h6.6L1163.1 6h-6.2zm11.32 0l-.39 1.087h6.53V6h-6.14zm-33.08 2.113V9.2h7.64V8.113h-7.64zm8.73.002V9.2h12.16s-.14-.837-.39-1.085h-11.77zm13.03 0V9.2h7.32l-.36-1.085h-6.96zm10.54 0l-.36 1.085h7.28V8.115h-6.92zm-30.1 2.111v1.088h3.31v-1.088h-3.31zm8.73 0v1.088h3.31v-1.088h-3.31zm6.53 0v1.088h3.31s.21-.574.21-1.088h-3.52zm6.5 0v1.088h5.87l-.39-1.088h-5.48zm7.62 0l-.39 1.088h5.9v-1.088h-5.51zm-29.38 2.115v1.087h3.31V12.34h-3.31v.001zm8.73 0v1.087h8.45s.71-.558.94-1.087h-9.39zm13.03 0v1.087h3.31v-.606l.21.606h6.07l.22-.606v.606h3.32V12.34h-6.22l-.33.92-.33-.92h-6.25v.001zm-21.76 2.113v1.087h3.31v-1.087h-3.31zm8.73 0v1.087h9.39c-.23-.528-.94-1.087-.94-1.087h-8.45zm13.03 0v1.087h3.31v-1.087h-3.31zm3.91 0l.4 1.087h4.55l.38-1.087h-5.33zm5.9 0v1.087h3.32v-1.087h-3.32zm-31.57 2.113v1.086h3.31v-1.086h-3.31zm8.73 0v1.086h3.31v-1.086h-3.31zm6.53 0v1.086h3.52c0-.512-.21-1.086-.21-1.086h-3.31zm6.5 0v1.086h3.31v-1.086h-3.31zm4.67 0l.38 1.086h3.05l.39-1.086h-3.82zm5.14 0v1.086h3.32v-1.086h-3.32zm-33.71 2.113v1.088h7.64V18.68h-7.64zm8.67 0v1.088h11.77c.25-.25.39-1.088.39-1.088h-12.16zm13.09 0v1.088h5.45V18.68h-5.45zm7.56 0l.4 1.088h1.55l.37-1.088h-2.32zm4.39 0v1.088h5.51V18.68h-5.51zm-33.71 2.114v1.087h7.64v-1.087h-7.64zm8.67 0v1.086h8.31c1.47 0 2.59-1.085 2.59-1.085h-10.9v-.001zm13.09 0v1.087h5.45v-1.087h-5.45zm8.32 0l.38 1.084.07.002.39-1.085h-.84v-.001zm3.63 0v1.087h5.51v-1.087h-5.51zM836.519 5.68h-18.033V2.302h18.033V5.68zM837.808 1h-20.61v5.981h20.61V1zm-19.322 15.867h-1.288v-5.98h1.288v2.363h2.302v-2.364h1.288v5.982h-1.288v-2.48h-2.302v2.48-.001zm5.541-2.622h1.535c-.029-.44-.208-.746-.711-.746-.379 0-.71.163-.824.746zm.976 2.718c-1.307 0-2.197-.833-2.197-2.2 0-1.331.871-2.25 2.027-2.25 1.259 0 1.885.852 1.885 2.125v.479h-2.691c.152.66.664.831 1.175.831.445 0 .767-.095 1.165-.344h.048v.986c-.341.249-.825.373-1.412.373zm5.077-2.603l-.663 2.508h-1.127l-1.288-4.211v-.048h1.232l.7 2.517.663-2.517h1.004l.673 2.517.711-2.517h1.184v.047l-1.289 4.211h-1.127l-.673-2.506v-.001zm5.181 2.603c-1.023 0-1.44-.411-1.44-1.378v-4.698h1.251v4.612c0 .297.113.402.359.402a.93.93 0 00.285-.057h.019v1.043c-.153.05-.313.077-.474.076zm2.046-2.718h1.534c-.028-.44-.208-.746-.71-.746-.379 0-.711.163-.824.746zm.975 2.718c-1.307 0-2.197-.833-2.197-2.2 0-1.331.871-2.25 2.027-2.25 1.26 0 1.885.852 1.885 2.125v.479h-2.69c.151.66.663.831 1.174.831.446 0 .767-.095 1.165-.344h.048v.986c-.341.249-.824.373-1.412.373zm6.848-4.354h.929v1.014h-.929v1.732c0 .373.143.546.522.546.104 0 .236-.01.378-.057h.029v.995a2.2 2.2 0 01-.767.124c-1.014 0-1.412-.469-1.412-1.55v-1.79h-1.601v1.732c0 .373.143.546.521.546.105 0 .237-.01.379-.057h.029v.995a2.204 2.204 0 01-.767.124c-1.014 0-1.412-.469-1.412-1.55v-1.79h-.644v-1.014h.644V11.44h1.25v1.168h1.601V11.44h1.25v1.169zm5.141 1.215c.654 0 .966-.373.966-.909 0-.555-.312-.928-.966-.928h-.815v1.837h.815zm2.274-.909c0 1.302-.862 2.01-2.17 2.01h-.919v1.942h-1.287v-5.98h2.206c1.308 0 2.17.707 2.17 2.028zm2.745 2.613v-.364c-.189-.104-.435-.143-.691-.143-.407 0-.653.153-.653.497 0 .355.246.508.615.508.351 0 .616-.182.729-.498zm.038.919c-.274.335-.681.498-1.118.498-.823 0-1.496-.507-1.496-1.408 0-.832.673-1.387 1.639-1.387.302 0 .616.048.937.143v-.076c0-.46-.255-.66-.927-.66-.427 0-.834.123-1.185.325h-.047v-1.014c.322-.192.891-.355 1.449-.355 1.269 0 1.961.613 1.961 1.685v2.67h-1.213v-.421zm1.848-1.704c0-1.369.957-2.23 2.207-2.23.445 0 .862.096 1.175.325v1.082h-.048a1.56 1.56 0 00-.966-.335c-.625 0-1.099.431-1.099 1.158 0 .727.474 1.149 1.099 1.149.369 0 .691-.125.966-.336h.048v1.082c-.313.23-.73.325-1.175.325-1.25 0-2.207-.85-2.207-2.22zm5.417.192v1.932h-1.25v-5.98h1.25v3.406l1.26-1.684h1.421v.047l-1.515 1.934 1.515 2.23v.047h-1.43l-1.251-1.932zm5.485.593v-.364c-.189-.104-.436-.143-.691-.143-.407 0-.653.153-.653.497 0 .355.246.508.615.508.351 0 .615-.182.729-.498zm.038.919c-.275.335-.682.498-1.117.498-.825 0-1.497-.507-1.497-1.408 0-.832.672-1.387 1.639-1.387.303 0 .615.048.937.143v-.076c0-.46-.255-.66-.928-.66a2.38 2.38 0 00-1.184.325h-.048v-1.014c.323-.192.891-.355 1.45-.355 1.269 0 1.961.613 1.961 1.685v2.67h-1.213v-.421zm3.315-3.149c.227-.47.559-.737 1.023-.737.17 0 .341.038.407.077v1.206h-.048a1.405 1.405 0 00-.549-.096c-.388 0-.691.23-.796.67v2.45h-1.249v-4.26h1.212v.69zm4.745 2.124v-1.369c-.208-.306-.483-.44-.796-.44-.548 0-.918.403-.918 1.13 0 .727.37 1.12.918 1.12.313 0 .588-.135.796-.44v-.001zm.038 1.006c-.265.344-.682.535-1.25.535-1.08 0-1.772-.995-1.772-2.22s.692-2.23 1.772-2.23c.549 0 .947.172 1.212.488v-2.114h1.25v5.98h-1.212v-.44.001zm-59.016 2.393h3.656v.727h-2.832v1.828h2.567v.708h-2.567v1.991h2.832v.727h-3.656v-5.981zm6.678 1.684c.937 0 1.458.622 1.458 1.646v2.651h-.786V22.17c0-.545-.275-.938-.871-.938-.493 0-.909.316-1.052.765v2.805h-.786v-4.21h.786v.612a1.434 1.434 0 011.251-.7v.001zm3.571.086h1.071v.68h-1.071v2.268c0 .478.247.641.692.641a1 1 0 00.35-.057h.029v.679c-.157.061-.325.09-.493.086-.976 0-1.364-.45-1.364-1.273v-2.344h-.72v-.68h.72v-1.119h.786v1.12-.001zm2.387 1.694h2.074c-.028-.622-.332-1.1-.975-1.1-.597 0-.986.45-1.099 1.1zm1.241 2.603c-1.223 0-2.056-.823-2.056-2.144 0-1.32.777-2.24 1.904-2.24 1.146 0 1.743.834 1.743 2.068v.364h-2.861c.085.852.626 1.263 1.374 1.263.464 0 .795-.105 1.165-.383h.028v.7c-.341.267-.786.372-1.297.372zm3.305-3.646c.18-.45.578-.718 1.032-.718.181 0 .341.029.408.067v.785h-.029c-.114-.057-.303-.086-.492-.086-.426 0-.787.287-.919.765v2.747h-.786v-4.21h.786v.65zm3.978 2.928c.776 0 1.231-.621 1.231-1.474 0-.842-.455-1.473-1.231-1.473-.427 0-.824.259-1.032.67v1.617c.208.412.605.66 1.032.66zm.133-3.665c1.24 0 1.903 1.024 1.903 2.192 0 1.168-.663 2.192-1.903 2.192a1.494 1.494 0 01-1.165-.556v2.087h-.787v-5.83h.787v.479c.217-.297.653-.565 1.165-.565v.001zm3.617.737a1.102 1.102 0 011.033-.718c.18 0 .341.029.407.067v.785h-.028c-.114-.057-.303-.086-.493-.086-.426 0-.786.287-.919.765v2.747h-.786v-4.21h.786v.65zm2.577-2.354a.5.5 0 01.42.776.489.489 0 01-.228.182.5.5 0 01-.544-.11.502.502 0 01-.15-.35c0-.278.237-.498.502-.498zm-.389 5.914h.787v-4.21h-.787v4.21zm3.59-2.46c.597.191 1.26.44 1.26 1.244 0 .862-.701 1.302-1.601 1.302-.549 0-1.098-.134-1.411-.383v-.755h.038c.351.325.871.468 1.364.468.445 0 .843-.173.843-.536 0-.373-.331-.46-.985-.68-.588-.19-1.241-.411-1.241-1.205 0-.814.663-1.292 1.506-1.292.492 0 .928.105 1.278.345v.765h-.028a1.878 1.878 0 00-1.231-.44c-.493 0-.768.22-.768.517 0 .335.303.43.976.65zm2.757-.057h2.074c-.028-.622-.331-1.1-.976-1.1-.596 0-.985.45-1.098 1.1zm1.24 2.603c-1.221 0-2.055-.823-2.055-2.144 0-1.32.777-2.24 1.904-2.24 1.146 0 1.743.834 1.743 2.068v.364h-2.861c.086.852.625 1.263 1.373 1.263.465 0 .796-.105 1.165-.383h.029v.7c-.341.267-.786.372-1.298.372zM395.671 11.796c-1.014.234-3.693.364-3.693.364l-.329 1.057s1.326-.112 2.297-.017c0 0 .312-.026.347.347.017.381-.026.78-.026.78s-.026.234-.347.295c-.373.06-2.887.173-2.887.173l-.407 1.37s-.147.312.191.225c.312-.087 2.947-.59 3.294-.52.364.087.78.59.658 1.04-.138.546-2.773 2.228-4.368 2.115 0 0-.841.052-1.543-1.083-.677-1.084.234-3.121.234-3.121s-.408-.954-.104-1.3c0 0 .173-.148.693-.191l.65-1.335s-.737.043-1.17-.494c-.399-.52-.433-.745-.121-.884.329-.174 3.38-.72 5.478-.65 0 0 .737-.087 1.387 1.187 0 0 .295.52-.225.642h-.009zm-7.906 5.131c-.26.633-.979 1.3-1.846.893-.884-.416-2.28-3.259-2.28-3.259s-.52-1.058-.624-1.023c0 0-.113-.208-.173.954-.087 1.152.017 3.398-.46 3.753-.433.347-.953.2-1.248-.208-.243-.407-.347-1.387-.208-3.095.156-1.707.546-3.528 1.04-4.091.52-.572.936-.156 1.092 0 0 0 .668.607 1.795 2.401l.19.33s1.023 1.707 1.127 1.698c0 0 .087.087.156.018.104-.026.07-.581.07-.581s-.191-1.846-1.145-4.967c0 0-.138-.399-.043-.78.087-.347.46-.174.46-.174s1.439.694 2.141 3.034c.693 2.34.225 4.465-.035 5.097h-.009zm-7.056-6.007c-.139.243-.199.581-.797.676 0 0-5.808.408-6.094.815 0 0-.191.243.121.304.329.069 1.647.242 2.271.277.676 0 2.947.017 3.78 1.04 0 0 .476.486.459 1.586-.017 1.127-.217 1.526-.659 1.934-.459.381-4.395 2.15-6.935-.555 0 0-1.161-1.3.408-2.289 0 0 1.127-.693 4.013.113 0 0 .867.312.833.633-.052.347-.72.693-1.691.676-.936-.026-1.629-.477-1.491-.399.13.044-1.014-.555-1.369-.147-.347.381-.26.607.086.84.867.503 4.274.321 5.288-.814 0 0 .408-.46-.208-.832-.607-.347-2.375-.564-3.06-.59-.65-.035-3.086 0-3.45-.633 0 0-.347-.45.035-1.681.398-1.3 3.233-1.803 4.464-1.907 0 0 3.381-.139 4.013.554 0 0 .087.156-.017.39v.01-.001zm-9.587 7.62c-.408.303-1.275.173-1.526-.174-.243-.303-.329-1.5-.286-3.38.061-1.925.087-4.283.52-4.664.434-.373.694-.043.867.208.173.26.399.546.433 1.144.052.607.2 3.728.2 3.728s.191 2.843-.2 3.138h-.008zm.867-10.142c-1.197.407-2.011.277-2.705-.026-.303.546-.485.71-.711.745-.347.035-.65-.52-.693-.693-.07-.13-.234-.364-.035-.893-.676-.607-.728-1.422-.607-1.968.156-.641 1.301-3.051 4.768-3.337 0 0 1.699-.122 1.994.78h.052s1.647 0 1.612 1.473c0 1.474-1.82 3.312-3.675 3.945v-.026zm1.543-4.196c-1.093.173-2.774 1.63-3.58 2.835 1.239.225 3.406.138 4.377-1.82 0 0 .46-1.232-.797-1.015zm-4.794.954c-.347.563-.364.901-.199 1.127.407-.607 1.126-1.56 2.21-2.306-.832.086-1.534.433-2.011 1.179zm29.534 13.323c-.798 1.96-1.474 3.944-1.864 6.918 0 0-.087.58-.564.39-.476-.174-1.257-.954-1.43-2.055-.173-1.439.468-3.866 1.777-6.657-.381-.607-.65-1.508-.433-2.774 0 0 .346-2.34 2.687-4.456 0 0 .277-.234.433-.156.191.087.113.832-.043 1.214-.139.364-1.179 2.167-1.179 2.167s-.65 1.23-.468 2.193c1.231-1.89 4.031-5.721 5.765-4.508 1.1.78 1.1 3.294.277 4.75-.65 1.154-2.488 3.538-4.941 2.983l-.017-.009zm3.623-5.886c-.641.694-1.786 2.011-2.687 3.797.953-.104 1.881-.633 2.167-.902.459-.407 1.517-1.508 1.352-2.964 0 0-.104-.763-.832.07v-.001zm-38.835 6.909c-3.069.936-5.964.503-7.542.087-.043.641-.112.91-.216 1.014-.122.139-1.127.71-1.682-.104-.243-.39-.364-1.092-.433-1.734-3.554-1.612-5.201-3.987-5.253-4.074-.087-.087-.893-.928-.087-1.968.754-.936 3.251-1.88 5.487-2.254.087-1.907.295-3.38.563-4.03.321-.78.729-.087 1.093.433.294.39.476 2.063.494 3.398 1.456-.07 2.34.035 3.961.347 2.133.364 3.554 1.456 3.442 2.687-.104 1.214-1.214 1.716-1.647 1.751-.434.035-1.127-.286-1.127-.286-.486-.225-.044-.433.52-.676.624-.303.485-.607.485-.607-.225-.693-2.99-1.153-5.738-1.153 0 1.517.06 4.031.104 5.496 1.924.364 3.363.286 3.363.286s7.022-.2 7.221-4.68c.217-4.491-7.021-8.79-12.353-10.143-5.322-1.396-8.339-.408-8.599-.277-.286.138-.026.19-.026.19s.286.044.806.217c.521.173.104.433.104.433-.91.312-1.924.13-2.123-.286-.2-.407.13-.78.52-1.326.364-.563.78-.546.78-.546 6.588-2.297 14.632 1.82 14.632 1.82 7.525 3.797 8.808 8.261 8.669 9.995-.121 1.708-.78 4.594-5.418 5.999v-.009zm-14.476-6.198c-.746.347-.226.902-.226.902 1.405 1.5 3.121 2.444 4.768 3.034.191-2.601.173-3.528.173-4.837-2.548.173-4.022.589-4.715.901zM67.49 6l-3.77 8.065-1.418-3.056H60.77l2.331 4.998h1.24L69.011 6H67.49zM51.318 20.974h3.035V15.42c0-1.27.735-2.163 1.827-2.163 1.05 0 1.597.735 1.597 1.796v5.922h3.034v-6.5c0-2.205-1.323-3.76-3.465-3.76-1.365 0-2.32.589-3.035 1.66h-.063V11.01h-2.94l.01 9.965v-.001zm-5.964-10.238c-3.171 0-5.293 2.279-5.293 5.282 0 2.982 2.122 5.282 5.293 5.282 3.171 0 5.292-2.3 5.292-5.282.01-3.003-2.12-5.282-5.292-5.282zm-.021 8.317c-1.439 0-2.205-1.208-2.205-3.035 0-1.848.756-3.035 2.205-3.035 1.439 0 2.237 1.187 2.237 3.035.01 1.827-.788 3.035-2.237 3.035zm-13.924 1.921h8.526V18.58h-4.83v-.063l4.62-5.177v-2.342h-8.317v2.405h4.673v.063l-4.673 5.22v2.288h.001zm-3.896 0h3.055V11.01h-3.055v9.965-.001zm-7.089 0h3.046v-4.578c0-2.08 1.25-3.003 3.15-2.74h.063V11.03c-.157-.063-.336-.074-.62-.074-1.186 0-1.984.546-2.667 1.712h-.063v-1.66h-2.909v9.966zm-5.586-1.91c-1.344 0-2.163-.872-2.32-2.216H19.7c.02-2.143-.546-3.854-1.733-4.925-.84-.778-1.942-1.208-3.35-1.208-3.003 0-5.082 2.279-5.082 5.26 0 3.004 1.985 5.293 5.282 5.293 1.25 0 2.237-.336 3.056-.892.871-.599 1.501-1.48 1.67-2.352h-2.92c-.283.65-.893 1.04-1.785 1.04zm-.158-6.175c1.072 0 1.807.798 1.933 1.963h-4.075c.242-1.176.882-1.963 2.142-1.963zM3.465 20.974h3.193l3.465-9.965H7.067l-1.943 6.406h-.042L3.14 11.009H0l3.465 9.965zM27.513 7.46h3.055v2.709h-3.055v-2.71.001zm917.67 7.956l-.553 1.567h-.046a11.276 11.276 0 00-.538-1.536l-2.965-7.452h-2.904v11.877h1.92v-7.33c0-.46 0-.983-.015-1.628-.015-.323-.046-.568-.062-.753h.047c.092.461.199.8.276 1.014l3.565 8.666h1.352l3.533-8.743c.077-.2.154-.599.231-.937h.046c-.046.876-.077 1.66-.092 2.136v7.528h2.043V7.965h-2.796l-3.042 7.45v.001zm7.774-4.102h1.998v8.511h-1.998v-8.511zm1.014-3.596c-.338 0-.614.123-.845.338-.23.215-.353.492-.353.83 0 .323.123.6.353.814.231.215.507.323.845.323.338 0 .63-.123.845-.323a1.08 1.08 0 00.354-.814c0-.323-.123-.6-.354-.83-.199-.215-.491-.338-.845-.338zm8.067 3.519a5.586 5.586 0 00-1.122-.123c-.907 0-1.736.2-2.428.599-.691.4-1.244.953-1.598 1.644-.368.707-.553 1.521-.553 2.458 0 .815.185 1.537.538 2.197.353.646.845 1.168 1.506 1.521.63.354 1.367.538 2.197.538.952 0 1.767-.2 2.412-.568l.015-.016v-1.843l-.076.061c-.292.215-.63.4-.968.507a2.955 2.955 0 01-.953.184c-.799 0-1.429-.23-1.874-.737-.461-.492-.692-1.168-.692-2.013 0-.876.231-1.567.707-2.074.476-.507 1.106-.768 1.874-.768.646 0 1.306.215 1.906.645l.076.062v-1.952l-.015-.015c-.261-.107-.553-.23-.952-.307zm6.591-.062c-.492 0-.953.154-1.352.477-.338.276-.569.676-.768 1.152h-.016v-1.49h-1.997v8.511h1.997v-4.348c0-.737.154-1.352.492-1.797.338-.461.768-.692 1.29-.692.185 0 .369.046.6.077.215.062.368.123.476.2l.077.061V11.33l-.046-.015c-.139-.093-.415-.139-.753-.139v-.001zm5.439-.046c-1.398 0-2.52.415-3.304 1.23-.799.814-1.183 1.935-1.183 3.349 0 1.321.4 2.397 1.168 3.18.768.768 1.813 1.168 3.119 1.168 1.367 0 2.458-.415 3.242-1.245.799-.83 1.183-1.936 1.183-3.303 0-1.352-.369-2.427-1.122-3.211-.722-.784-1.782-1.168-3.103-1.168zm1.598 6.545c-.369.477-.953.707-1.675.707-.722 0-1.306-.23-1.721-.737-.415-.477-.614-1.168-.614-2.044 0-.906.215-1.598.614-2.09.415-.491.983-.737 1.706-.737.706 0 1.259.23 1.659.707.399.476.614 1.168.614 2.074-.03.922-.199 1.644-.583 2.12zm7.083-2.827c-.63-.26-1.03-.46-1.214-.63-.154-.153-.231-.368-.231-.645 0-.23.093-.46.323-.614.23-.154.492-.23.876-.23.338 0 .691.06 1.029.153.338.092.645.23.891.415l.077.061v-1.874l-.046-.016a5.534 5.534 0 00-.906-.261 6.172 6.172 0 00-.984-.092c-.952 0-1.736.23-2.351.737-.614.477-.906 1.122-.906 1.875 0 .4.061.753.2 1.044.138.292.338.569.614.8.277.215.676.46 1.229.69.461.2.815.354 1.03.477.215.123.353.261.461.369a.875.875 0 01.123.476c0 .569-.431.845-1.306.845-.338 0-.692-.061-1.107-.2a4.285 4.285 0 01-1.121-.568l-.077-.061v1.95l.046.016c.292.139.645.23 1.076.338.43.077.814.139 1.152.139 1.029 0 1.874-.231 2.474-.738.614-.492.937-1.122.937-1.936 0-.568-.154-1.075-.492-1.46a6.226 6.226 0 00-1.797-1.06zm7.559-3.718c-1.398 0-2.52.415-3.304 1.23-.783.814-1.183 1.935-1.183 3.349 0 1.321.4 2.397 1.168 3.18.768.768 1.813 1.168 3.119 1.168 1.367 0 2.458-.415 3.242-1.245.799-.83 1.183-1.936 1.183-3.303 0-1.352-.369-2.427-1.122-3.211-.722-.784-1.782-1.168-3.103-1.168zm1.582 6.545c-.368.477-.952.707-1.674.707-.738 0-1.306-.23-1.721-.737-.415-.477-.615-1.168-.615-2.044 0-.906.215-1.598.615-2.09.415-.491.983-.737 1.705-.737.692 0 1.26.23 1.66.707.399.476.614 1.168.614 2.074 0 .922-.2 1.644-.584 2.12zm13.32-4.716v-1.644h-2.01v-2.52l-.06.015-1.91.569-.04.015v1.92h-3.016v-1.075c0-.492.123-.876.338-1.122.215-.245.538-.368.938-.368.276 0 .57.061.89.2l.08.046V7.257l-.05-.015c-.28-.092-.644-.154-1.12-.154-.599 0-1.122.139-1.598.37-.476.26-.83.614-1.091 1.09-.261.46-.399.983-.399 1.582v1.184h-1.399v1.628h1.399v6.883h2.012v-6.867h3.016v4.378c0 1.798.84 2.705 2.53 2.705.28 0 .57-.047.85-.093.29-.061.5-.138.63-.2l.01-.015V18.09l-.08.062c-.12.085-.26.147-.41.184-.13.04-.26.06-.4.061-.4 0-.68-.092-.88-.322-.18-.215-.27-.569-.27-1.091v-4.026h2.04zM912.426 4h9.419v9.418h-9.419V4zm10.401 0h9.418v9.418h-9.418V4zm-10.401 10.402h9.419v9.418h-9.419v-9.418zm10.401 0h9.418v9.418h-9.418v-9.418zm-186.403 1.755c0-.167-.103-.282-.32-.333v-.102c.115 0 .524.013.627.013.089 0 .485-.013.6-.013v.102c-.204.039-.306.154-.306.333v2.045c0 .652.358 1.01 1.112 1.01.639 0 1.151-.28 1.151-.971v-2.11c0-.153-.09-.268-.333-.32v-.102c.09 0 .422.013.525.013.089 0 .447-.013.537-.013v.102c-.231.052-.333.154-.333.32v1.995c0 .895-.524 1.406-1.649 1.406-1.049 0-1.599-.473-1.599-1.317l-.012-2.058zm4.5 3.235c.243-.052.346-.167.346-.32v-2.826c0-.243-.128-.345-.346-.409v-.102c.128.013.333.013.435.013.115 0 .23 0 .345-.013l2.468 2.89v-2.468c0-.154-.09-.269-.332-.32v-.102c.089 0 .409.013.524.013.089 0 .434-.013.524-.013v.102c-.23.051-.345.154-.345.32v3.4h-.154c-.089-.025-.268-.127-.537-.421l-2.212-2.557v2.493c0 .153.09.268.333.32v.102c-.09 0-.409-.013-.524-.013-.09 0-.435.013-.525.013v-.102zm19.486-.768h.102a.9.9 0 00.346.512c.204.128.434.192.677.179.499 0 .819-.243.819-.627 0-.396-.41-.613-.883-.856-.358-.18-1.061-.474-1.061-1.151 0-.64.486-1.023 1.266-1.023.511 0 .754.128 1.1.102l-.013.767h-.103c-.14-.447-.549-.613-.997-.613-.511 0-.69.281-.69.575 0 .422.409.627.882.831.524.23 1.1.524 1.1 1.176 0 .614-.486 1.075-1.381 1.075-.525 0-.844-.154-1.125-.192l-.039-.755zm11.201-.844v1.28a.289.289 0 00.102.216.317.317 0 00.218.103v.102c-.128 0-.525-.013-.64-.013-.089 0-.473.013-.626.013v-.09a.39.39 0 00.217-.102.316.316 0 00.102-.217v-1.228l.627-.064zm-.575.154l-1.01-1.598c-.167-.282-.307-.435-.499-.499v-.102c.141 0 .511.013.614.013.102 0 .498-.013.639-.013v.102c-.128.026-.192.09-.192.179a.642.642 0 00.115.294l.742 1.228.716-1.228c.061-.098.104-.207.128-.32 0-.076-.052-.127-.179-.153v-.102c.115 0 .37.013.46.013.077 0 .371-.013.499-.013v.09c-.282.114-.448.357-.614.626l-.921 1.521-.498-.038zm-18.693-2.199h2.352c.09 0 .179-.013.269-.038h.102l-.013.754h-.102c-.089-.243-.179-.435-.639-.435h-1.023v1.33h.793c.102 0 .204-.013.319-.026a.355.355 0 00.192-.102.348.348 0 00.102-.192h.103c-.013.115-.013.384-.013.46 0 .077.013.359.013.474h-.103c-.051-.154-.115-.269-.281-.307-.102-.026-.204-.026-.32-.026h-.792v1.56h1.112c.486 0 .627-.204.754-.486l.103.026-.103.78a8.526 8.526 0 00-.984-.026h-1.176c-.115 0-.525.013-.652.013v-.102c.217-.039.332-.141.332-.345V16.17c0-.18-.09-.295-.332-.333l-.013-.102zm-6.023.447c0-.191-.115-.294-.345-.345v-.102c.128 0 .537.013.652.013.102 0 .524-.013.652-.013v.102c-.23.051-.345.14-.345.345v2.864c0 .192.115.294.345.346v.102c-.128 0-.537-.013-.652-.013-.102 0-.524.013-.652.013v-.102c.23-.039.345-.141.345-.346v-2.864zm17.888 0c0-.191-.116-.294-.346-.345v-.102c.128 0 .537.013.652.013.09 0 .525-.013.652-.013v.102c-.23.051-.345.14-.345.345v2.864c0 .192.115.294.345.346v.102c-.127 0-.524-.013-.652-.013-.089 0-.524.013-.652.013v-.102c.23-.039.346-.141.346-.346v-2.864zm3.273-.434c-1.292 0-1.496-.026-1.765-.039v.78h.103c.089-.345.281-.422.537-.422h.805v2.992c0 .205-.115.307-.345.345v.103c.128 0 .562-.013.652-.013.115 0 .524.013.652.013v-.115c-.23-.052-.345-.154-.345-.345v-2.992h.805c.256 0 .448.089.537.422h.103v-.78c-.243.025-.448.05-1.739.05v.001zm-10.306 1.764c.154.013.32.026.473.026.703 0 .934-.41.934-.768 0-.511-.346-.818-.959-.818-.15 0-.3.013-.448.038v1.522zm0 1.534c0 .192.128.294.345.346v.102c-.128 0-.537-.013-.652-.013-.102 0-.498.013-.626.013v-.102c.217-.039.332-.141.332-.346v-2.89c0-.178-.089-.28-.332-.332v-.102c.128 0 .524.013.639.013.179 0 .716-.026.921-.026.907 0 1.406.37 1.406 1.01 0 .499-.371.844-.959.985.102.064.192.14.269.23.153.192.588.805.767 1.023.179.217.409.46.652.473v.09c-.154.025-.294.05-.448.05-.307 0-.549-.102-.792-.396-.205-.256-.563-.767-.768-1.036a.724.724 0 00-.255-.23.803.803 0 00-.333-.115c-.051-.013-.115-.013-.179-.025l.013 1.278zm-8.988-2.851a.589.589 0 00-.422-.358v-.102c.141 0 .601.013.703.013.103 0 .499-.013.64-.013v.102c-.128.026-.269.09-.269.217 0 .09.051.205.154.435l.971 2.212.921-2.212c.064-.128.102-.281.128-.422 0-.115-.103-.192-.256-.23v-.102c.128 0 .422.013.511.013.09 0 .435-.013.576-.013v.102c-.23.064-.371.192-.499.486l-1.355 3.184h-.307l-1.496-3.312zm3.491-10.05c-.154-.345-.397-.6-.806-.69V5.25c.256 0 1.1.026 1.291.026.179 0 .998-.026 1.253-.026v.192c-.23.051-.498.179-.498.41 0 .165.102.396.294.83l1.854 4.181 1.752-4.194c.14-.345.242-.6.242-.805 0-.217-.204-.37-.498-.435v-.192c.23 0 .793.026.972.026.166 0 .831-.026 1.086-.026v.192c-.434.115-.703.371-.946.934l-2.583 6.047h-.575l-2.838-6.265zm-24.933 6.048c.333-.077.576-.23.576-.614V6.043c0-.37-.218-.511-.576-.6V5.25c.179 0 .934.026 1.125.026.218 0 1.01-.026 1.189-.026v.192c-.332.077-.588.23-.588.601v2.314h4.143V6.043c0-.383-.217-.524-.575-.6V5.25c.179 0 .959.026 1.176.026.179 0 .959-.026 1.138-.026v.192c-.333.077-.588.23-.588.601v5.55c0 .357.23.51.588.613v.179c-.179 0-.959-.013-1.138-.013-.217 0-.997.013-1.176.013v-.18c.332-.076.575-.23.575-.613v-2.62h-4.155v2.62c0 .384.23.512.588.614v.179c-.179 0-.972-.013-1.189-.013-.179 0-.947.013-1.126.013v-.192h.013zm49.827-.371c.371.051.742.077 1.125.077 2.148 0 3.261-1.279 3.261-3.069 0-1.854-1.177-3.158-3.184-3.158-.397 0-.806.026-1.202.077v6.073zm-1.816.371c.435-.077.665-.243.665-.64v-5.51c0-.384-.23-.524-.652-.601v-.205c.243 0 1.023.026 1.24.026.346 0 1.317-.077 2.084-.077 2.558 0 4.105 1.42 4.105 3.568 0 2.097-1.611 3.644-4.245 3.644-.755 0-1.662-.064-2.008-.064-.217 0-.946.025-1.176.025l-.013-.166zm-28.909-3.567c.294.038.601.05.895.038 1.343 0 1.765-.767 1.765-1.445 0-.959-.653-1.56-1.829-1.56-.281 0-.562.026-.844.077v2.89h.013zm0 2.915c0 .37.23.575.665.652v.192c-.243 0-1.023-.026-1.24-.026-.192 0-.959.026-1.202.026v-.192c.396-.077.639-.268.639-.652V6.069c0-.333-.179-.55-.639-.627V5.25c.243 0 .997.026 1.214.026.346 0 1.343-.064 1.739-.064 1.714 0 2.673.703 2.673 1.918 0 .946-.716 1.598-1.803 1.854.192.115.358.268.498.434.307.359 1.138 1.548 1.484 1.957.332.409.767.87 1.24.882v.166c-.281.051-.563.09-.844.09-.588 0-1.048-.205-1.509-.755-.396-.473-1.074-1.483-1.457-1.969a1.444 1.444 0 00-.486-.434 1.768 1.768 0 00-.614-.218c-.115-.013-.217-.038-.332-.05l-.026 2.454zm22.631-2.915c.294.038.601.05.895.038 1.343 0 1.765-.767 1.765-1.445 0-.959-.652-1.56-1.816-1.56-.281 0-.562.026-.844.077v2.89zm0 2.915c0 .37.231.575.665.652v.192c-.243 0-1.023-.026-1.24-.026-.192 0-.959.026-1.202.026v-.192c.397-.077.639-.268.639-.652V6.069c0-.333-.179-.55-.626-.627V5.25c.243 0 .997.026 1.215.026.358 0 1.342-.064 1.739-.064 1.713 0 2.672.703 2.672 1.918 0 .946-.716 1.598-1.803 1.854.192.115.358.268.499.434.306.359 1.15 1.548 1.483 1.957.332.409.767.87 1.227.882v.166c-.281.051-.562.09-.844.09-.588 0-1.048-.205-1.508-.755-.384-.473-1.074-1.483-1.458-1.969a1.444 1.444 0 00-.486-.434 1.763 1.763 0 00-.614-.218c-.115-.013-.217-.038-.332-.05l-.026 2.454zM740.017 9.52l-1.151-2.646-1.061 2.647h2.212V9.52zm-4.578 2.673c.461-.102.704-.396.87-.793l2.301-5.498c.09-.23.154-.46.218-.69h.639c.051.23.128.473.205.69l2.429 5.511c.179.384.358.652.844.78v.18c-.269 0-1.087-.014-1.266-.014-.192 0-.959.013-1.227.013v-.179c.358-.09.46-.268.46-.435a1.308 1.308 0 00-.141-.485l-.524-1.19h-2.672l-.473 1.19c-.064.14-.103.293-.115.46 0 .204.102.358.511.46v.18c-.243 0-.869-.014-1.01-.014l-1.036.013-.013-.179zm27.35-2.673l-1.151-2.646-1.061 2.647h2.212V9.52zm-4.565 2.673c.448-.102.703-.396.87-.793l2.301-5.498c.09-.23.153-.46.217-.69h.64c.051.23.128.473.204.69l2.43 5.511c.166.384.358.652.843.78v.18c-.268 0-1.086-.014-1.265-.014-.192 0-.959.013-1.228.013v-.179c.358-.09.461-.268.461-.435a1.6 1.6 0 00-.128-.485l-.525-1.19h-2.672l-.473 1.19c-.064.14-.102.293-.115.46 0 .204.102.358.511.46v.18c-.242 0-.869-.014-1.01-.014l-1.035.013-.026-.179zm-52.703-9.167h16.033v6.009c0 2.762-1.036 8.605-7.953 12.965 0 0-7.505-3.12-8.068-12.965v-6.01h-.012v.001z" fill="#C6D2D9"/><path d="M705.482 3h16.046v6.035c0 2.762-1.035 8.605-7.965 12.965 0 0-7.506-3.12-8.081-12.965V3z" stroke="#C6D2D9" stroke-width=".648"/><path d="M717.654 10.76s-.14.449-.78-.012l-2.186-.05s-.281.09-.32-.206c0 0 .052-.588.026-.64 0 0 .013-.165-.269-.165 0 0-.434.05-.46-.332 0 0-.077-.41.537-.397 0 0 .192.09.205-.153 0 0-.026-1.675-.013-1.803 0 0 .051-.154-.243-.18 0 0-.435.09-.473-.19 0 0-.026-.423.256-.448 0 0 .345.025.409-.064 0 0 .077.05.064-.256l.013-.524s.038-.14.255-.128c0 0 .409.025.461-.013.038-.05.076-.115.115-.166 0 0 .204-.013.243.038 0 0 .306.205 1.496.128 0 0 .179 0 .217.05 0 0 .217.167.345-.012a3.95 3.95 0 01.767-.038s.64.166 1.074-.192l.141.026s.179.294.307.204c0 0 .383-.038.46.04 0 0 .128.19.064.702 0 0-.077.217.294.217 0 0 .435-.076.371.32 0 0 .115.448-.601.384a.356.356 0 00-.077.217s-.013 1.47-.025 1.637c0 0-.013.23.294.217 0 0 .422-.026.434.345 0 0 .052.486-.549.397 0 0-.179.025-.205.14l-.025.64s.012.32-.346.242c-.051 0-2.02.04-2.199-.012.038 0-.064-.013-.077.038zm-4.194 2.15c.051-.026.09-.052.115-.103 0 0 .269-.026.307-.064l.857.064s.844.064 1.202-.192c.074 0 .148.012.217.038 0 0 .179.04.23.116l.499-.013s.281.09.256.268v.23s-.052.46.076.486h.384s.307.14.268.32c0 .077-.025.14-.076.205a.348.348 0 01-.192.102c-.115.038-.243.05-.358.064a.64.64 0 00-.102.256l-.039 1.687s-.025.18.243.154c0 0 .397-.04.524.18 0 0 .103.37-.102.433l-.153.077-.346.05s-.14.014-.153.257v.448s.013.306-.23.306l-.358.026c-.038.026-.09.038-.128.05-.051 0-.089 0-.141-.025 0 0-2.212.04-2.288.013l-.256.05s-.281.257-.524.065l-.179-.14c-.064.012-.115.012-.179.012-.051-.012-2.442.026-2.442.026s-.512.05-.55-.115c0 0-.064-.652-.039-.742 0 0 0-.19-.115-.204 0 0-.511-.026-.524-.077 0 0-.268-.192-.192-.383a.431.431 0 01.141-.192.468.468 0 01.217-.09s.41.064.41-.05c.025-.065.025-.142.025-.206 0 0 .026-1.534.013-1.636 0 0 .038-.192-.128-.192a.46.46 0 01-.294-.025s-.307.012-.384-.23a.367.367 0 01.026-.282s.141-.28.563-.192c0 0 .23.064.255-.102l-.013-.626s-.051-.167.269-.256c0 0 .422.115.55-.09 0 0 .14-.28.255-.09 0 0 .243.23.921.205 0 0 1.164-.09 1.189-.038 0 0 .281.038.358.128l.115.038v.002zm-3.541-2.15s-.141.449-.78-.012l-2.174-.05s-.281.09-.319-.206c0 0 .051-.588.025-.64 0 0 .013-.165-.268-.165 0 0-.435.05-.448-.332 0 0-.076-.41.537-.397 0 0 .192.09.205-.153 0 0-.026-1.675-.013-1.803 0 0 .051-.154-.243-.18 0 0-.435.09-.473-.19 0 0-.026-.423.256-.448 0 0 .345.025.409-.064 0 0 .077.05.064-.256l.013-.537s.038-.14.255-.128c0 0 .409.026.461-.013.038-.05.076-.115.115-.166 0 0 .204-.013.243.038 0 0 .306.205 1.496.128 0 0 .179 0 .217.05 0 0 .217.168.345-.011.256-.04.524-.04.78-.026 0 0 .639.166 1.074-.192l.141.026s.179.294.307.204c0 0 .383-.038.46.04 0 0 .128.19.064.702 0 0-.077.217.294.217 0 0 .435-.076.384.32 0 0 .115.448-.601.384a.343.343 0 00-.077.217s-.013 1.47-.026 1.637c0 0-.013.23.294.217 0 0 .41-.026.422.345 0 0 .051.486-.55.397 0 0-.179.025-.204.14l-.026.64s.013.32-.345.242c-.051 0-2.02.04-2.199-.012.013 0-.09-.013-.115.038z" fill="#C6D2D9"/><path d="M717.654 10.76s-.14.449-.78-.012l-2.186-.05s-.281.09-.32-.206c0 0 .052-.588.026-.64 0 0 .013-.165-.269-.165 0 0-.434.05-.46-.332 0 0-.077-.41.537-.397 0 0 .192.09.205-.153 0 0-.026-1.675-.013-1.803 0 0 .051-.154-.243-.18 0 0-.435.09-.473-.19 0 0-.026-.423.256-.448 0 0 .345.025.409-.064 0 0 .077.05.064-.256l.013-.524s.038-.14.255-.128c0 0 .409.025.461-.013.038-.05.076-.115.115-.166 0 0 .204-.013.243.038 0 0 .306.205 1.496.128 0 0 .179 0 .217.05 0 0 .217.167.345-.012a3.95 3.95 0 01.767-.038s.64.166 1.074-.192l.141.026s.179.294.307.204c0 0 .383-.038.46.04 0 0 .128.19.064.702 0 0-.077.217.294.217 0 0 .435-.076.371.32 0 0 .115.448-.601.384a.356.356 0 00-.077.217s-.013 1.47-.025 1.637c0 0-.013.23.294.217 0 0 .422-.026.434.345 0 0 .052.486-.549.397 0 0-.179.025-.205.14l-.025.64s.012.32-.346.242c-.051 0-2.02.04-2.199-.012.038 0-.064-.013-.077.038z" fill="#C6D2D9"/><path d="M717.654 10.76s-.14.449-.78-.012l-2.186-.05s-.281.09-.32-.206c0 0 .052-.588.026-.64 0 0 .013-.165-.269-.165 0 0-.434.05-.46-.332 0 0-.077-.41.537-.397 0 0 .192.09.205-.153 0 0-.026-1.675-.013-1.803 0 0 .051-.154-.243-.18 0 0-.435.09-.473-.19 0 0-.026-.423.256-.448 0 0 .345.025.409-.064 0 0 .077.05.064-.256l.013-.524s.038-.14.255-.128c0 0 .397.025.461-.013.038-.05.076-.115.115-.166 0 0 .204-.013.243.038 0 0 .306.205 1.496.128 0 0 .179 0 .217.05 0 0 .217.167.345-.012a3.95 3.95 0 01.767-.038s.64.166 1.074-.192l.141.026s.179.294.307.204c0 0 .383-.038.46.04 0 0 .128.19.064.702 0 0-.077.217.294.217 0 0 .435-.076.371.32 0 0 .115.448-.601.384a.356.356 0 00-.077.217s-.013 1.47-.025 1.637c0 0-.013.23.294.217 0 0 .422-.026.434.345 0 0 .052.486-.549.397 0 0-.179.025-.205.14l-.025.64s.012.32-.346.242c-.051 0-2.02.04-2.199-.012.038 0-.051-.013-.077.038v0z" stroke="#C6D2D9" stroke-width=".028"/><path d="M715.199 5.442s.026.256.026.32l-.038 3.733c.012.09 0 .167-.039.243a.37.37 0 01-.166.18s-.064.025-.077-.154l.026-3.874c-.013 0 .013-.473.268-.448z" fill="#C6D2D9"/><path d="M715.199 5.442s.026.256.026.32l-.038 3.733c.012.09 0 .167-.039.243a.37.37 0 01-.166.18s-.064.025-.077-.154l.026-3.874c-.013 0 .013-.473.268-.448v0z" stroke="#C6D2D9" stroke-width=".028"/><path d="M714.765 9.956s.025-3.644.012-3.696c-.012-.063.013.052.013.052s-.038-.64.128-.895c0 0-.051-.218-.345.05l-.013.525s0 .294-.268.28c0 0-.307-.012-.461.129 0 0-.076.28.218.23 0 0 .473 0 .498.192l-.025 1.956s.102.32-.256.32c0 0-.448-.026-.435.243 0 0 .09.23.473.153 0 0 .269.05.256.307v.486s-.025.192.23.205h2.02s.103.012.103-.116c0 0-.013-.102-.167-.102l-1.687-.025c.013.012-.269.102-.294-.294z" fill="#C6D2D9"/><path d="M715.161 9.956s-.051.18.141.14h1.329l.358.077s.371-.09 0-.294c0 0-1.189.013-1.304-.013l-.294-.077c.013-.012-.115-.063-.23.167z" fill="#C6D2D9"/><path d="M715.161 9.956s-.051.178.141.14h1.329l.358.077s.384-.09 0-.294c0 0-1.189.013-1.304-.013l-.294-.077c.013 0-.115-.064-.23.167v0z" stroke="#C6D2D9" stroke-width=".028"/><path d="M717.385 10.134s-.243 0-.23.32c.011.068.042.13.09.18.051.05.115.063.192.063a.292.292 0 00.166-.102.238.238 0 00.038-.092.24.24 0 000-.1s-.141-.32-.256-.27zm.18-.127s.115-.128.191-.128c0 0 1.305.115 1.522-.038 0 0 .192-.04.243 0 0 0 .192.153.192.243 0 0-.013.114-.243.05l-1.547.013c-.013 0-.41.09-.358-.14z" fill="#C6D2D9"/><path d="M717.565 10.007s.115-.128.191-.128c0 0 1.305.115 1.522-.038 0 0 .192-.04.243 0 0 0 .192.153.192.243 0 0-.013.114-.243.05l-1.547.013c-.013 0-.41.09-.358-.14v0z" stroke="#C6D2D9" stroke-width=".028"/><path d="M717.731 10.416s0-.102.179-.102l1.815-.013s.166.09.166-.218c0 0 .064-1.406.077-2.953 0-.46.026-.946.013-1.394 0 0-.038-.192-.09-.23 0 0 0-.205.218-.128 0 0 .192.013.14.307l.013.448s-.038.191.307.14c0 0 .345.051.358.18 0 0 .102.255-.307.23h-.307a.328.328 0 00-.089.102c-.013.038-.026.09-.013.127l-.038 1.88s-.026.32.281.307c0 0 .32-.013.384.09 0 0 .217.32-.256.293 0 0-.294-.012-.358.04 0 0-.051.063-.09.676 0 0 .026.358-.243.32 0 0-1.802.026-1.969-.013 0 0-.179.051-.204-.09l.013.001zm-2.34-5.102l-.038 4.143s-.013.192.306.23c0 0 .371.038.461 0 0 0 .243-.013.882.013 0 0 .153.153.166-.038 0 0 .103-3.35.051-4.054 0 0-.012-.294-.23-.306 0 0-.984.076-1.074 0l-.396-.103c.013 0-.141.013-.128.115z" fill="#C6D2D9"/><path d="M717.437 5.532s-.038 1.956-.025 2.02l-.026 1.636-.051.576s.077.115.141.038c0 0 .409-.102.677-.064 0 0 .831.077.998-.05 0 0 .127.063.166-.14 0 0 .051-3.62.025-3.684 0 0 .052-.524.026-.575 0 0-.013-.115-.23-.013 0 0 .025.102-1.202.064 0-.013-.46-.026-.499.192zm2.071-.052l-.013 4.08s.102.357.269.332l.038-.205.051-3.887c0-.013-.128-.626-.345-.32z" fill="#C6D2D9"/><path d="M719.508 5.48l-.013 4.08s.102.357.269.332a.575.575 0 00.038-.205l.051-3.887c0-.013-.128-.64-.345-.32z" stroke="#C6D2D9" stroke-width=".028"/><path d="M717.91 6.695c-.039-.102.217-.115.217-.115l.128.025a.4.4 0 01.179.026c.016.018.026.04.026.064v.064c0 .025-.013.038-.026.051-.013.013-.038.026-.051.038l-.051.167c-.013.14 0 1.368 0 1.368a.882.882 0 00.128.18c0 .114-.141.09-.141.09l-.371.011c-.115-.013-.077-.14-.077-.14.128-.065.167-.295.167-.295V6.951l-.128-.256zm-1.739.18c.013.28.013.677.013.677.025.025.064.05.102.05a.177.177 0 00.115 0 .257.257 0 00.102-.05c.026-.026.052-.05.064-.09.32-.307 0-.588-.051-.665-.051-.076-.307-.012-.307-.012l-.038.09zm-.013 1.022l-.025.396.115.192c.076.102-.051.18-.051.18l-.41-.04c-.076-.038 0-.166 0-.166a.202.202 0 00.077-.102.243.243 0 00.039-.128l-.013-.754.013-.537c0-.064-.103-.179-.103-.179-.089-.013-.064-.128-.064-.128.026-.064.243-.025.243-.025h.55c.524.166.435.537.435.537.038.37-.358.524-.358.524l-.026.204.371.588a.162.162 0 01.038.052c.013.012.013.038.013.064-.051.14-.256 0-.256 0l-.473-.73c-.038-.038-.115.052-.115.052zm-2.698 5.013c.051-.026.09-.052.115-.103 0 0 .269-.026.307-.064l.857.064s.844.064 1.202-.192c.074 0 .148.012.217.038 0 0 .179.04.23.116l.499-.013s.281.09.256.268v.23s-.052.46.076.486h.384s.307.141.268.32c0 .077-.025.14-.076.205a.355.355 0 01-.192.102c-.115.038-.243.051-.358.064a.626.626 0 00-.102.256l-.039 1.687s-.025.18.243.154c0 0 .397-.039.524.18 0 0 .103.37-.102.433l-.153.077-.346.051s-.14.013-.153.256v.448s.013.306-.23.306l-.358.026c-.038.026-.09.038-.128.051-.051 0-.089 0-.141-.026 0 0-2.212.04-2.288.013l-.256.051s-.281.256-.524.064l-.179-.14c-.064.012-.115.012-.179.012-.051-.012-2.442.026-2.442.026s-.512.051-.55-.115c0 0-.064-.652-.039-.742 0 0 0-.19-.115-.204 0 0-.511-.026-.524-.077 0 0-.268-.192-.192-.383a.41.41 0 01.141-.192.46.46 0 01.217-.09s.41.064.41-.05c.025-.065.025-.142.025-.206 0 0 .026-1.534.013-1.636 0 0 .038-.192-.128-.192a.46.46 0 01-.294-.025s-.307.012-.384-.23c-.015-.046-.02-.095-.015-.144a.352.352 0 01.041-.138s.141-.28.563-.192c0 0 .23.064.255-.102l-.013-.626s-.051-.167.269-.256c0 0 .422.115.55-.09 0 0 .14-.28.255-.09 0 0 .243.231.921.205 0 0 1.164-.09 1.189-.038 0 0 .281.038.358.128l.115.038v.001z" fill="#C6D2D9"/><path d="M713.46 12.896c.051-.025.09-.05.115-.102 0 0 .269-.026.307-.064l.857.064s.844.064 1.202-.192c.074 0 .148.012.217.038 0 0 .179.04.23.116l.499-.013s.281.09.256.268v.23s-.052.46.076.486h.371s.307.14.269.32c0 .077-.026.14-.077.204a.344.344 0 01-.192.103c-.115.038-.243.05-.358.064a.643.643 0 00-.102.256l-.039 1.687s-.025.18.243.154c0 0 .397-.039.525.18 0 0 .102.37-.103.433l-.153.077-.345.051s-.141.013-.154.256v.447s.013.307-.23.307l-.358.026c-.038.025-.089.038-.128.051-.051 0-.089 0-.14-.026 0 0-2.212.04-2.289.013l-.256.051s-.281.256-.524.064l-.179-.14c-.064.012-.115.012-.179.012-.051-.012-2.442.026-2.442.026s-.512.051-.55-.115c0 0-.064-.665-.038-.742 0 0 0-.19-.115-.204 0 0-.512-.026-.525-.077 0 0-.268-.192-.191-.383a.418.418 0 01.14-.192.47.47 0 01.218-.09s.409.064.409-.05c.025-.065.025-.142.025-.205 0 0 .026-1.535.013-1.637 0 0 .038-.192-.128-.192a.46.46 0 01-.294-.025s-.307.012-.371-.23a.367.367 0 01.026-.282s.141-.28.563-.192c0 0 .23.064.255-.102l-.013-.627s-.051-.166.269-.255c0 0 .409.115.55-.09 0 0 .14-.28.255-.09 0 0 .243.23.921.205 0 0 1.164-.09 1.189-.038 0 0 .281.038.358.128l.115.038v0z" stroke="#C6D2D9" stroke-width=".028"/><path d="M713.792 17.985a.44.44 0 01.256-.05c.102.025 1.624-.014 1.624-.014s.665.05.767-.038l.154-.05a.316.316 0 00.063-.18c0-.103.013-.448.013-.448l.039-.128s-.013-.128 0-3.58c0 0 .051-.268-.115-.434 0 0 0-.103.051-.09.051.013.025.013.025.013s.23-.064.269.025c0 0 .102.307.013.486 0 0-.026.384.166.384.035.022.074.04.115.05.038.014.077 0 .128-.012 0 0 .332.04.332.14 0 .027 0 .065-.013.09-.012.026-.025.052-.051.064l-.077.04a.106.106 0 01-.089 0l-.307.024a.252.252 0 00-.153.103.222.222 0 00-.039.178c.026.244-.012 2.008-.012 2.008s0 .204.319.192c0 0 .397-.013.397.102 0 0 .102.256-.179.268 0 0-.55-.012-.512.14-.013.14-.038.283-.064.423 0 0 .051.294-.013.345 0 0-.038.166-.383.14 0 0-2.238-.012-2.583.014.013 0-.192-.026-.141-.205zm-.395-.243c.06.01.115.041.153.09a.273.273 0 01.064.166c0 .204.013.32-.115.345-.038.013-.064.013-.102.013-.039 0-.064-.013-.09-.026a.331.331 0 01-.076-.064.133.133 0 01-.039-.09c-.051-.19.013-.395.205-.434z" fill="#C6D2D9"/><path d="M713.652 17.64s.23-.154.32-.128c0 0 1.176.076 1.547.012s.14-.012.14-.012.307 0 .397-.116c.025 0 .051 0 .089.014.026.012.051.026.064.05l.192.206s.013.128-.205.114c0 0-2.122 0-2.186.014 0 0-.396.063-.358-.154z" fill="#C6D2D9"/><path d="M713.652 17.64s.23-.153.32-.128c0 0 1.189.077 1.547.013.358-.064.14-.013.14-.013s.307 0 .41-.115a.161.161 0 01.076.013c.026.013.051.026.064.05l.192.206s.013.128-.205.115c0 0-2.122 0-2.186.013 0 0-.396.063-.358-.154v0z" stroke="#C6D2D9" stroke-width=".028"/><path d="M710.571 13.063s.089 0 .076.152l-.025 3.9c.014.08 0 .16-.039.23a.41.41 0 01-.14.193s-.115.14-.115-.078l.051-3.977s.013-.293.192-.42z" fill="#C6D2D9"/><path d="M710.571 13.063s.089 0 .076.152l-.025 3.9a.4.4 0 01-.039.244.416.416 0 01-.14.19s-.115.142-.115-.075l.051-3.978c0-.013.013-.306.192-.434v0z" stroke="#C6D2D9" stroke-width=".028"/><path d="M710.367 13.088s-.154.281-.141.345l-.013.87s-.012.55 0 .613c.013.064-.012 1.688-.012 1.688s-.013.307 0 .41v.69s-.026.307.204.23c0 0 2.289-.05 2.429-.013 0 0 .205.038.128.14 0 0 0 .09-.14.065-.678.064-1.368.076-2.046.064 0 0-.652.038-.691-.039 0 0-.102-.012-.102-.383 0-.14 0-.282-.025-.41 0 0 .025-.178-.294-.217 0 0-.461.077-.474-.192 0 0 .064-.19.512-.166 0 0 .32.051.256-.204l.038-1.905s.038-.333-.179-.346c-.09 0-.179 0-.269.013 0 0-.37 0-.345-.217 0 0 .128-.23.512-.18 0 0 .281.052.294-.268 0 0-.013-.665.14-.69-.012 0 .307.012.218.102z" fill="#C6D2D9"/><path d="M710.75 17.36c.064.063.14.101.217.14a.567.567 0 00.256.038l1.764.025s.192.013.179.115c0 0-.025.154-.255.103l-2.123-.026-.23.013s-.153-.026.09-.32l.102-.09v.001z" fill="#C6D2D9"/><path d="M710.75 17.36c.064.063.141.101.217.14a.568.568 0 00.256.038l1.764.025s.192.013.179.115c0 0-.025.154-.255.103l-2.135-.026-.231.013s-.153-.026.09-.32l.115-.09v.001z" stroke="#C6D2D9" stroke-width=".028"/><path d="M716.209 17.192s.153.294.23.333c0 0 .141.166.102-.128l.026-3.721a.716.716 0 010-.332l-.153-.282s-.167-.128-.167.077l-.025 3.964-.013.09v-.001z" fill="#C6D2D9"/><path d="M716.209 17.192s.153.294.23.333c0 0 .141.166.102-.128l.026-3.721a.716.716 0 010-.332l-.153-.282s-.167-.128-.167.077l-.025 3.964-.013.09v-.001 0z" stroke="#C6D2D9" stroke-width=".028"/><path d="M713.332 15.415c0 .205 0 .41-.026.6-.025.167.051.92-.012 1.305 0 0-.013.128-.282.013 0 0-1.662.039-1.713-.013 0 0-.46.013-.499-.217 0 0 .064-1.765.026-1.828 0 0-.026-.972 0-1.062 0 0 .038-.895.013-.997a.86.86 0 00-.026-.307s0-.128.217-.051c0 0 .077.14.512.077.204.025.409.038.614.012 0 0 .664-.05.831 0a.265.265 0 01.217.052c.064.038.102.115.115.19l-.013.807.077.256.09-.064.038-.192.013-.857a.473.473 0 01.102-.127.24.24 0 01.153-.052s.32-.038.384-.013c.32.039.627.052.946.026.192-.038.23.128.818-.166 0 0 .154.013.154.115 0 0-.051 1.1 0 1.304 0 0 0 2.02-.038 2.16l.025.64s.026.28-.422.307c0 0 .281.039-1.509-.013-.204 0-.409.039-.601.128 0 0-.063-.013-.063-.18.025-.4.025-.8 0-1.201l-.026-.665-.115.013z" fill="#C6D2D9"/><path d="M712.156 14.507s.038.96 0 1.087l-.013.205c.026.076.077.14.128.192 0 0 .064.178-.09.166-.127-.013-.268-.013-.396-.013 0 0-.179 0 0-.23a.56.56 0 00.051-.32s0-1.087.026-1.15c0 0 .025-.14-.064-.18l-.154.013-.191.18s-.039.19-.128-.014v-.102l.115-.307.076-.013c.066.047.14.082.218.103h.614l.217-.103s.089.013.064.128c0 0 .038.294-.128.333a.26.26 0 01-.102-.077.294.294 0 01-.064-.102c0-.013-.166-.103-.179.204zm2.864-.357c-.064 0-.128 0-.192.025a.73.73 0 00-.166.102.472.472 0 00-.115.166.325.325 0 00-.026.192s-.051.358.499.6c0 0 .409.193.371.436 0 0-.052.435-.474.217 0 0-.204-.102-.191-.217 0 0-.064-.14-.141-.115 0 0-.089.025-.051.447 0 0 0 .166.192 0l.102.026s.345.28.652-.064c0 0 .32-.294.09-.652a1.167 1.167 0 00-.474-.384s-.281-.128-.345-.345c0 0 .09-.383.435-.18.059.07.128.13.205.18 0 0 .102 0 .076-.23l-.025-.192s-.026-.14-.205 0c0 0-.166.064-.217-.013zm-1.79.588c-.032.14-.066.28-.102.42l.077.129s.204.013.281.013c.077 0 .09-.064.09-.128-.04-.151-.087-.3-.141-.447l-.064-.077-.141.09zm.218-.857a.274.274 0 01.07.086.266.266 0 01.032.106c.192.55.345 1.112.473 1.675.051.09.115.166.179.23.217.076 0 .14 0 .14-.089.04-.383-.012-.383-.012-.154-.026-.09-.077-.09-.077.064-.064.013-.32.013-.32a.863.863 0 00-.128-.268c-.051-.026-.141.09-.141.09s-.14.05-.153 0c-.013-.052-.102-.103-.102-.103-.154 0-.218.383-.218.383.09.32 0 .27 0 .27-.076.1-.319.025-.319.025-.115-.026-.039-.116-.039-.116a.334.334 0 00.115-.063.319.319 0 00.064-.115c.064-.09.473-1.765.473-1.765.026-.077.051-.23.154-.166zm-3.529-3.12s-.141.448-.78-.013l-2.174-.05s-.281.09-.319-.206c0 0 .051-.588.025-.64 0 0 .013-.165-.268-.165 0 0-.435.05-.448-.332 0 0-.076-.41.537-.397 0 0 .192.09.205-.153 0 0-.026-1.675-.013-1.803 0 0 .051-.154-.243-.18 0 0-.435.09-.473-.19 0 0-.026-.423.256-.448 0 0 .345.025.409-.064 0 0 .077.05.064-.256l.013-.537s.038-.14.255-.128c0 0 .409.026.461-.013.038-.05.076-.115.115-.166 0 0 .204-.013.243.038 0 0 .306.205 1.496.128 0 0 .179 0 .217.05 0 0 .217.168.345-.011.256-.04.524-.04.78-.026 0 0 .639.166 1.074-.192l.141.026s.179.294.307.204c0 0 .383-.038.46.04 0 0 .128.19.064.702 0 0-.077.217.294.217 0 0 .435-.076.384.32 0 0 .115.448-.601.384a.343.343 0 00-.077.217s-.013 1.47-.026 1.637c0 0-.013.23.294.217 0 0 .41-.026.422.345 0 0 .051.486-.55.397 0 0-.179.025-.204.14l-.026.64s.013.32-.345.242c-.051 0-2.02.04-2.199-.012.013 0-.09-.013-.115.038z" fill="#C6D2D9"/><path d="M709.919 10.76s-.141.449-.78-.012l-2.174-.05s-.281.09-.319-.206c0 0 .051-.588.025-.64 0 0 .013-.165-.268-.165 0 0-.435.05-.448-.332 0 0-.076-.41.537-.397 0 0 .192.09.205-.153 0 0-.026-1.675-.013-1.803 0 0 .051-.154-.243-.18 0 0-.435.09-.473-.19 0 0-.026-.423.256-.448 0 0 .345.025.409-.064 0 0 .077.05.064-.256l.013-.537s.038-.14.255-.128c0 0 .409.026.461-.013.038-.05.076-.115.115-.166 0 0 .204-.013.243.038 0 0 .306.205 1.496.128 0 0 .179 0 .217.05 0 0 .217.168.345-.011.256-.04.524-.04.78-.026 0 0 .639.166 1.074-.192l.141.026s.179.294.307.204c0 0 .383-.038.46.04 0 0 .128.19.064.702 0 0-.077.217.294.217 0 0 .435-.076.384.32 0 0 .115.448-.601.384a.343.343 0 00-.077.217s-.013 1.47-.026 1.637c0 0-.013.23.294.217 0 0 .41-.026.435.345 0 0 .051.486-.55.397 0 0-.179.025-.204.14l-.026.64s.013.32-.345.242c-.051 0-2.02.04-2.199-.012 0 0-.103-.013-.128.038v0z" stroke="#C6D2D9" stroke-width=".028"/><path d="M707.464 5.442s.025.256.025.32l-.038 3.733c.013.09 0 .167-.039.243a.377.377 0 01-.166.18s-.064.025-.077-.154l.026-3.874s.026-.473.269-.448z" fill="#C6D2D9"/><path d="M707.476 5.442s.026.256.026.32l-.039 3.733c.013.09 0 .167-.038.243a.377.377 0 01-.166.18s-.064.025-.077-.154l.026-3.874c-.013 0 .012-.473.268-.448v0z" stroke="#C6D2D9" stroke-width=".028"/><path d="M707.042 9.955s.026-3.644.013-3.708c-.013-.063.013.052.013.052s-.039-.627.127-.895c0 0-.051-.218-.345.05l-.013.525s0 .294-.268.28c0 0-.307-.012-.46.129 0 0-.077.28.217.23 0 0 .473 0 .499.192l-.026 1.97s.102.319-.256.319c0 0-.434-.026-.434.243 0 0 .089.23.473.153 0 0 .268.05.255.307v.486s-.025.192.231.204h2.02s.102.013.102-.115c0 0-.013-.102-.166-.102l-1.688-.026c0 .013-.268.103-.294-.294z" fill="#C6D2D9"/><path d="M707.388 9.98s-.052.18.14.14h1.343l.358.078s.383-.09 0-.294c0 0-1.189.013-1.304-.012l-.295-.077c.013 0-.127-.051-.242.166z" fill="#C6D2D9"/><path d="M707.388 9.98s-.052.18.14.14h1.343l.371.078s.383-.09 0-.294c0 0-1.19.013-1.305-.012l-.294-.077s-.14-.051-.255.166z" stroke="#C6D2D9" stroke-width=".028"/><path d="M709.612 10.174s-.255 0-.23.32c.011.066.042.13.09.178.051.05.115.064.191.064a.288.288 0 00.167-.103.28.28 0 00.038-.091.275.275 0 000-.1c0-.012-.141-.332-.256-.268zm.179-.141s.115-.128.192-.128c0 0 1.304.116 1.522-.038 0 0 .191-.039.242 0 0 0 .192.153.192.242 0 0-.013.116-.243.052l-1.547.013s-.396.101-.358-.14v-.002z" fill="#C6D2D9"/><path d="M709.791 10.033s.115-.128.192-.128c0 0 1.304.116 1.522-.038 0 0 .191-.039.242 0 0 0 .192.153.192.242 0 0-.013.116-.243.052l-1.547.013s-.396.09-.358-.14v-.002z" stroke="#C6D2D9" stroke-width=".028"/><path d="M710.008 10.416s0-.102.179-.102l1.815-.013s.167.09.167-.218c0 0 .064-1.406.076-2.953 0-.46.026-.946 0-1.394 0 0-.038-.192-.089-.23 0 0 0-.205.217-.128 0 0 .192.013.141.307l.013.448s-.039.191.307.14c0 0 .345.051.358.18 0 0 .102.255-.307.23h-.294c-.039.025-.064.063-.09.102-.013.038-.025.09-.013.127l-.038 1.867s-.026.32.281.307c0 0 .32-.013.384.09 0 0 .217.32-.256.294 0 0-.294-.013-.358.038 0 0-.051.064-.089.678 0 0 .025.358-.243.32 0 0-1.803.025-1.969-.013 0 .012-.179.076-.192-.077zm-2.34-5.102l-.038 4.143s-.013.192.307.23c0 0 .383.038.473 0 0 0 .243-.013.882.013 0 0 .154.153.166-.038 0 0 .103-3.363.051-4.054 0 0-.012-.294-.23-.306 0 0-.984.076-1.074 0l-.383-.103c-.013 0-.166.013-.154.115z" fill="#C6D2D9"/><path d="M711.786 5.48l-.013 4.08s.102.357.268.319a.553.553 0 00.039-.205l.051-3.887s-.128-.626-.345-.306V5.48z" fill="#C6D2D9"/><path d="M711.786 5.48l-.013 4.08s.102.357.268.319a.553.553 0 00.039-.205l.051-3.887s-.128-.626-.345-.306V5.48z" stroke="#C6D2D9" stroke-width=".028"/><path d="M711.786 5.48l-.013 4.08s.102.357.268.319a.553.553 0 00.039-.205l.051-3.887s-.128-.626-.345-.306V5.48z" stroke="#C6D2D9" stroke-width=".028"/><path d="M709.715 5.506s-.039 1.944-.026 2.02l-.026 1.637-.051.575s.077.115.141.04c0 0 .409-.104.678-.065 0 0 .831.076.997-.05 0 0 .128.062.166-.142 0 0 .051-3.619.026-3.682 0 0 .051-.512.025-.576 0 0-.013-.115-.23-.013 0 0 .026.103-1.215.064.013 0-.46-.012-.485.192z" fill="#C6D2D9"/><path d="M709.318 6.708l-.115.243s-.281 1.253-.435 1.508c0 0-.025.256-.243.052 0 0-.511-1.586-.537-1.637l-.166-.115s-.102-.14.077-.154l.473.013s.153.128-.051.27c0 0 .025.203.294.996 0 0 .077.294.166.077l.269-.92-.077-.27s-.077-.127.038-.14c-.013-.013.269-.038.307.077zm.754.204l-.012 1.37-.039.1s-.128.167-.038.18c0 0-.115.077.831.09 0 0 .371.063.268-.397 0 0-.038-.166-.166.077 0 0-.038.204-.498.14a.343.343 0 01-.103-.19v-.577s-.012-.14.205-.128c0 0 .243.154.281.09 0 0 .09-.205 0-.333 0 0-.115-.012-.128.04 0 0-.076.152-.294.063a.527.527 0 01-.038-.37s-.026-.32.192-.295c0 0 .255.05.281.128 0 0 .064.153.128-.026l-.064-.217s-.038-.09-.102-.064c0 0-.435.064-.499.013l-.345.038c0 .026-.013.038-.013.064 0 .026.013.038.013.05.013.014.025.039.038.052a.099.099 0 00.051.026c.013.013.026.025.026.038.025.013.025.026.025.038z" fill="#C6D2D9"/></svg>