<svg width="120" height="24" viewBox="0 0 120 24" fill="none" xmlns="http://www.w3.org/2000/svg">
<path d="M35.1033 3.81663C35.4701 3.07346 36.5299 3.07346 36.8967 3.81663L38.8576 7.78909C39.0031 8.08394 39.2843 8.2884 39.6096 8.33595L43.9962 8.97712C44.8161 9.09696 45.1429 10.1048 44.5493 10.683L41.3768 13.773C41.1409 14.0027 41.0333 14.3339 41.0889 14.6584L41.8374 19.0226C41.9775 19.8396 41.12 20.4626 40.3864 20.0767L36.4655 18.0148C36.1741 17.8615 35.8259 17.8615 35.5345 18.0148L31.6136 20.0767C30.88 20.4626 30.0225 19.8396 30.1626 19.0226L30.9111 14.6584C30.9667 14.3339 30.8591 14.0027 30.6232 13.773L27.4507 10.683C26.8571 10.1048 27.1839 9.09696 28.0038 8.97712L32.3904 8.33595C32.7157 8.2884 32.9969 8.08394 33.1424 7.78909L35.1033 3.81663Z" fill="#FFBF00"/>
<path d="M11.1033 3.81663C11.4701 3.07346 12.5299 3.07346 12.8967 3.81663L14.8576 7.78909C15.0031 8.08394 15.2843 8.2884 15.6096 8.33595L19.9962 8.97712C20.8161 9.09696 21.1429 10.1048 20.5493 10.683L17.3768 13.773C17.1409 14.0027 17.0333 14.3339 17.0889 14.6584L17.8374 19.0226C17.9775 19.8396 17.12 20.4626 16.3864 20.0767L12.4655 18.0148C12.1741 17.8615 11.8259 17.8615 11.5345 18.0148L7.61363 20.0767C6.88 20.4626 6.02245 19.8396 6.16257 19.0226L6.91109 14.6584C6.96675 14.3339 6.85908 14.0027 6.62321 13.773L3.45068 10.683C2.85708 10.1048 3.18387 9.09696 4.00378 8.97712L8.39037 8.33595C8.71572 8.2884 8.99691 8.08394 9.14245 7.78909L11.1033 3.81663Z" fill="#FFBF00"/>
<path d="M83.1033 3.81663C83.4701 3.07346 84.5299 3.07346 84.8967 3.81663L86.8576 7.78909C87.0031 8.08394 87.2843 8.2884 87.6096 8.33595L91.9962 8.97712C92.8161 9.09696 93.1429 10.1048 92.5493 10.683L89.3768 13.773C89.1409 14.0027 89.0333 14.3339 89.0889 14.6584L89.8374 19.0226C89.9775 19.8396 89.12 20.4626 88.3864 20.0767L84.4655 18.0148C84.1741 17.8615 83.8259 17.8615 83.5345 18.0148L79.6136 20.0767C78.88 20.4626 78.0225 19.8396 78.1626 19.0226L78.9111 14.6584C78.9667 14.3339 78.8591 14.0027 78.6232 13.773L75.4507 10.683C74.8571 10.1048 75.1839 9.09696 76.0038 8.97712L80.3904 8.33595C80.7157 8.2884 80.9969 8.08394 81.1424 7.78909L83.1033 3.81663Z" fill="#FFBF00"/>
<path d="M108 4.25925L109.961 8.23171C110.252 8.82141 110.814 9.23033 111.465 9.32544L115.852 9.9666L112.679 13.0567C112.207 13.5161 111.992 14.1784 112.103 14.8275L112.852 19.1917L108.931 17.1297C108.348 16.8232 107.652 16.8232 107.069 17.1297L103.148 19.1917L103.897 14.8275C104.008 14.1784 103.793 13.5161 103.321 13.0567L100.148 9.9666L104.535 9.32544C105.186 9.23033 105.748 8.82141 106.039 8.23171L108 4.25925Z" stroke="#FFBF00" stroke-width="2" stroke-linecap="round" stroke-linejoin="round"/>
<path d="M110 16.6154V7.38462L108.412 6L105.765 9.23077L101 10.1538L103.647 13.8462L104.176 18L110 16.6154Z" fill="#FFBF00"/>
<path d="M59.1033 3.81663C59.4701 3.07346 60.5299 3.07346 60.8967 3.81663L62.8576 7.78909C63.0031 8.08394 63.2843 8.2884 63.6096 8.33595L67.9962 8.97712C68.8161 9.09696 69.1429 10.1048 68.5493 10.683L65.3768 13.773C65.1409 14.0027 65.0333 14.3339 65.0889 14.6584L65.8374 19.0226C65.9775 19.8396 65.12 20.4626 64.3864 20.0767L60.4655 18.0148C60.1741 17.8615 59.8259 17.8615 59.5345 18.0148L55.6136 20.0767C54.88 20.4626 54.0225 19.8396 54.1626 19.0226L54.9111 14.6584C54.9667 14.3339 54.8591 14.0027 54.6232 13.773L51.4507 10.683C50.8571 10.1048 51.1839 9.09696 52.0038 8.97712L56.3904 8.33595C56.7157 8.2884 56.9969 8.08394 57.1424 7.78909L59.1033 3.81663Z" fill="#FFBF00"/>
</svg>
